<svg xmlns="http://www.w3.org/2000/svg" width="59.593" height="20.721" viewBox="0 0 59.593 20.721">
  <path id="footer_label_site" d="M14.056-6.188c0-1.708-.756-3.248-3.808-4.48-1.008-.42-1.848-.728-3.08-1.26-1.624-.644-2.576-1.568-2.576-3.388,0-1.792.868-3.248,3.36-3.248,2.072,0,2.828.728,3,.924a3.1,3.1,0,0,1,.84,2.212c.112.98,1.036.924,1.064-.168a21.177,21.177,0,0,1,.336-4c.112-.616-.56-.644-.952-.14-.28.336-.42.42-.5.392A6.859,6.859,0,0,0,8.82-19.88c-3.724,0-6.44,2.408-6.44,5.488a5.016,5.016,0,0,0,3.5,4.648c.756.336,2.324.868,3.416,1.428a3.4,3.4,0,0,1,2.352,3.388c0,1.792-1.12,3.948-4.312,3.948C4.62-.98,4.116-1.9,3.78-2.38a6.208,6.208,0,0,1-.616-2.632c-.056-.784-.812-.812-1.008.084a15.714,15.714,0,0,0-.14,3.892C2.1-.2,3.976.476,6.048.476a8.184,8.184,0,0,0,5.236-1.624A5.9,5.9,0,0,0,14.056-6.188ZM25.06,0c1.008,0,1.68.056,2.38.056.98,0,.98-.9.112-1.036-1.288-.252-1.4-.476-1.4-1.792v-6.5a19.508,19.508,0,0,1,.224-3.584c.056-.42-.112-.616-.392-.616a1.478,1.478,0,0,0-.7.28,7.035,7.035,0,0,1-2.38.868c-.672.112-.644.728-.14.924,1.12.448,1.2.56,1.232,1.008a7.558,7.558,0,0,1,.056,1.26v6.5c0,1.176-.168,1.4-1.372,1.652-.9.168-.868,1.036.084,1.036C23.268.056,24.276,0,25.06,0Zm.056-20.244a1.593,1.593,0,0,0-1.568,1.68A1.48,1.48,0,0,0,25.032-17,1.582,1.582,0,0,0,26.6-18.7,1.523,1.523,0,0,0,25.116-20.244ZM39.424-11.4H40.88c1.232,0,1.54-.056,1.652-.2a1.943,1.943,0,0,0,.392-1.12c0-.2-.056-.28-.224-.252s-.868.056-1.512.056H39.424c.028-3.416.112-4.06.252-4.368.224-.532-.084-.812-.56-.5a5.871,5.871,0,0,0-1.568,1.54,13.338,13.338,0,0,0-.224,3.332,5.63,5.63,0,0,0-1.708.112c-.168.084-.756.7-.756,1.008,0,.168.056.336.252.364.224.028.588.028,1.848.028h.364v7.728c0,3.472,1.288,4.06,2.632,4.06a4.395,4.395,0,0,0,2.8-1.064c.756-.728.42-1.288-.168-1.12a3.558,3.558,0,0,1-1.512.28c-1.176,0-1.652-.728-1.652-2.436ZM52.668-8.6c.308-2.464,1.624-3.472,3.108-3.472a3.263,3.263,0,0,1,3.332,3.22c0,.14-.028.252-.14.308a33.708,33.708,0,0,1-5.1.252,9.558,9.558,0,0,1-1.036-.056C52.7-8.372,52.668-8.428,52.668-8.6ZM52.584-7c5.348,0,6.776-.308,7.9-.616.5-.14,1.064-.5,1.064-1.008,0-.252-.14-.336-.308-.42A4.424,4.424,0,0,0,56.7-13.468a6.128,6.128,0,0,0-3.92,1.6,7.363,7.363,0,0,0-2.408,5.6c0,3.808,2.268,6.636,5.516,6.636a7.31,7.31,0,0,0,4.9-1.932c.7-.7.448-1.484-.42-.952a5.412,5.412,0,0,1-3.136,1.008C54.516-1.512,52.64-3.276,52.584-7Z" transform="translate(-1.951 20.244)"/>
</svg>
