<svg xmlns="http://www.w3.org/2000/svg" width="49" height="39.822" viewBox="0 0 49 39.822">
  <path id="icn_twitter" d="M51.571,9.531A20.1,20.1,0,0,1,45.8,11.114a10.083,10.083,0,0,0,4.42-5.562,20.125,20.125,0,0,1-6.384,2.439A10.062,10.062,0,0,0,26.7,17.161a28.54,28.54,0,0,1-20.72-10.5A10.064,10.064,0,0,0,9.093,20.079,10.012,10.012,0,0,1,4.54,18.821c0,.042,0,.084,0,.126A10.059,10.059,0,0,0,12.6,28.805a10.069,10.069,0,0,1-4.54.172,10.063,10.063,0,0,0,9.391,6.981,20.17,20.17,0,0,1-12.485,4.3,20.39,20.39,0,0,1-2.4-.141,28.454,28.454,0,0,0,15.41,4.517c18.491,0,28.6-15.318,28.6-28.6q0-.654-.029-1.3a20.422,20.422,0,0,0,5.017-5.2Z" transform="translate(-2.571 -4.816)"/>
</svg>
