<svg xmlns="http://www.w3.org/2000/svg" width="541.338" height="37.842" viewBox="0 0 541.338 37.842">
  <path id="kv_copy" d="M35.028-24.906a3.836,3.836,0,0,0-3.864-3.78,3.764,3.764,0,0,0-3.78,3.78,3.764,3.764,0,0,0,3.78,3.78A3.836,3.836,0,0,0,35.028-24.906Zm-11.55,2.6c-.042,0-.084,0-.084.042,0,.168.42.588.966,1.134,3.024,2.9,6.846,7.14,8.106,10.962.462,1.344,1.134,1.89,1.722,1.89.672,0,1.3-.756,1.3-1.932C35.49-15.33,24.612-22.3,23.478-22.3Zm-6.132,6.636a4.7,4.7,0,0,0,1.218-2.646c0-2.1-2.73-3.57-3.654-3.57-1.008,0-1.512.588-1.512.924a.356.356,0,0,0,.294.336A2.075,2.075,0,0,1,15.75-18.4C15.75-15.162,8.106-7.35,1.134-5.46c-.294.084-.546.252-.546.378s.126.168.378.168C2.1-4.914,11.256-6.342,17.346-15.666Zm16.422-9.282a2.581,2.581,0,0,1-2.562,2.6,2.581,2.581,0,0,1-2.562-2.6,2.51,2.51,0,0,1,2.562-2.52A2.51,2.51,0,0,1,33.768-24.948Zm34.566,9.534a78.224,78.224,0,0,1-.294-7.9,4.822,4.822,0,0,1,.294-1.89,1.961,1.961,0,0,0,.294-.84c0-1.428-2.9-2.646-3.99-2.646-1.3,0-1.764.8-1.764.924,0,.21.252.336.63.378,1.932.378,2.856.63,2.856,8.232,0,1.386-.084,2.688-.252,4.536a3.843,3.843,0,0,0-.042.672c0,1.47.5,2.184,1.008,2.184.924,0,1.344-1.974,1.344-2.772A8.662,8.662,0,0,0,68.334-15.414Zm10.122-11.8a1.791,1.791,0,0,0,.252-.756c0-1.218-3.612-3.192-4.746-3.192a1.536,1.536,0,0,0-1.344.924c0,.168.21.294.588.42,1.47.462,2.226,1.134,2.226,4.116,0,.378,0,.8-.042,1.26-.084,2.016-.084,3.318-.168,5.124C74.886-10,70.686-2.94,64.428.882c-1.26.756-1.68,1.134-1.68,1.26,0,.042.042.042.126.042,1.092,0,14.07-4.368,14.406-21.084C77.406-25.158,77.742-25.956,78.456-27.216Zm40.656-.756c-1.722,0-4.074.126-4.074.42,0,.126.378.252,1.05.336a23.043,23.043,0,0,1,9.576,3.318,2.455,2.455,0,0,0,1.428.5,1.1,1.1,0,0,0,1.134-1.134C128.226-26.544,124.782-27.972,119.112-27.972Zm-3.444,9.114h-.42c-.756,0-1.092.084-1.092.252,0,.084.294.252.966.378a17.633,17.633,0,0,1,7.56,3.528,2.258,2.258,0,0,0,1.386.5,1.248,1.248,0,0,0,1.3-1.26C125.37-17.052,122.514-18.858,115.668-18.858ZM114.114-8.736c-.336,0-.5.084-.5.168,0,.168.378.378,1.134.672,5,1.806,9.24,3.906,12.012,6.384a2.8,2.8,0,0,0,1.764.84,1.215,1.215,0,0,0,1.218-1.3C129.738-6.426,115.206-8.736,114.114-8.736Zm69.636-9.072h-.378c-2.142,0-1.008.378-3.486,1.218-1.764.588-3.822,1.3-5.88,1.974-.588-1.89-1.092-3.822-1.6-5.712a67.139,67.139,0,0,1,6.72-1.89c.966-.21,1.512-.714,1.512-1.176s-.546-.882-1.68-.882c-.5,0-1.218-.042-1.554-.042-1.764.084-1.974,1.008-3.276,1.47-.546.21-1.26.462-2.184.8-.126-.462-.21-.882-.336-1.3a10.5,10.5,0,0,1-.546-2.688,2.583,2.583,0,0,1,.042-.546,5.8,5.8,0,0,0,.126-.84c0-1.344-2.856-2.142-4.326-2.142-1.008,0-1.848.672-1.848,1.218,0,.21.168.336.5.336h.168a3.179,3.179,0,0,1,.63-.042c1.638,0,2.142,1.05,3.444,4.83.21.546.378,1.134.588,1.722-.8.252-1.638.588-2.646.882a19.283,19.283,0,0,1-4.872.924,4.143,4.143,0,0,1-1.68-.294.715.715,0,0,0-.294-.042c-.168,0-.294.042-.294.252,0,.462.84,1.89,3.15,1.89a8.787,8.787,0,0,0,2.688-.462c1.26-.42,2.814-.966,4.494-1.512.588,1.806,1.176,3.78,1.722,5.712-8.568,2.856-9.912,2.9-11,2.9a9.194,9.194,0,0,1-2.688-.378,3.137,3.137,0,0,0-.84-.126c-.294,0-.5.084-.5.336,0,1.722,3.15,2.73,5.166,2.73,1.428,0,1.806-.714,3.654-1.47,2.31-.924,4.578-1.764,6.678-2.52.756,2.646,1.428,5.166,1.932,7.14.21.882.294,1.638.462,2.268,1.008,4.368,2.31,4.368,2.394,4.368.42,0,.672-.5.672-1.428a9.314,9.314,0,0,0-.756-3.528,89.677,89.677,0,0,1-3.36-9.324,34.449,34.449,0,0,1,11.97-2.394c1.008-.042,1.554-.5,1.554-1.05C187.992-17.766,186.186-17.808,183.75-17.808Zm38.43-9.534c.546-.042,1.092-.126,1.638-.126,8.316.084,12.39,5.838,12.39,11.97,0,5-2.394,12.18-14.322,15.54-1.092.336-1.764.672-1.764.882,0,.084.21.168.588.168,2.94,0,17.766-3.4,17.766-16.38,0-6.8-4.746-13.4-14.238-13.4-11.256,0-16.8,10.08-16.8,16.422a6.482,6.482,0,0,0,.966,3.78c1.806,2.52,2.394,5.124,4.326,5.124,3.276,0,11.046-8.694,11.046-18.69C223.776-24.7,223.23-26.754,222.18-27.342Zm-2.52.546a4.982,4.982,0,0,1,1.176-.21c.924,0,1.68.63,1.68,3.906,0,8.316-6.762,16.758-9.324,16.758-1.848,0-3.906-3.066-3.906-6.594C209.286-18.438,213.612-24.906,219.66-26.8ZM267.2-24.78c-.042,0-.084.042-.126.042a2.634,2.634,0,0,0-.63.8c-.126.21-.252.42-.462.42h-3.192c1.008-1.26,2.394-3.36,3.15-4.41.462-.672.63-.378,1.092-.672.126-.084.588-.294.588-.756,0-.966-2.31-2.436-2.352-2.436s-.126,0-.756.882a.6.6,0,0,1-.588.336H260.9c.63-1.512.672-1.554,1.134-1.638.756-.168,1.134-.546,1.134-.882,0-.672-2.856-1.932-3.192-1.932-.126,0-.126.126-.126.462-.252,3.738-3.948,12.222-5.754,14.91a3.354,3.354,0,0,0-.546,1.008.041.041,0,0,0,.042.042,14.9,14.9,0,0,0,3.612-4.452,49.813,49.813,0,0,1,.168,5.04c0,2.226-.042,5.376-.294,9.408v.126c0,.672.378.924.8.924a1.2,1.2,0,0,0,1.176-1.176V-9.66h7.56v.5c0,.756.378,1.05.8,1.05A1.273,1.273,0,0,0,268.59-9.45v-.084c-.126-2.9-.252-5.964-.252-8.358,0-3.192.21-3.4.714-3.738.252-.168.882-.462.882-.966C269.934-23.31,267.75-24.78,267.2-24.78Zm19.11,8.274a1.068,1.068,0,0,0-.294-.084.321.321,0,0,0-.21.084,2.672,2.672,0,0,0-.672.8.655.655,0,0,1-.546.336h-8.9a13.739,13.739,0,0,0-2.814-1.176.111.111,0,0,0-.126.126.82.82,0,0,0,.042.294,27.984,27.984,0,0,1,.5,4.956c.042,1.218.042,2.352.042,3.612,0,2.6-.084,5.46-.21,9.492v.042a.826.826,0,0,0,.882.84,1.261,1.261,0,0,0,1.26-1.26V1.512c-.084-2.688-.126-5.712-.126-8.274h10.29c0,6.132,0,6.72-2.436,6.72a32.164,32.164,0,0,1-4.578-.546,1.485,1.485,0,0,1-.252-.042c-.126,0-.168.042-.168.084,0,.336,3.864,2.1,4.368,2.688.21.252.294.42.588.42A4.383,4.383,0,0,0,287.28-2.1c0-.672-.126-3.024-.126-3.528,0-5.46.084-6.762.084-7.014.042-.8.462-.756.84-.924.252-.126.714-.378.714-.756C288.792-14.616,288.582-14.994,286.314-16.506Zm2.6-5.5c-.042,0-.756.378-1.722,1.89a.925.925,0,0,1-.63.378h-5.418c-.042-.8-.084-2.1-.084-3.78h6.888c.588,0,.756-.252.756-.546,0-.714-2.52-2.352-2.982-2.352-.168,0-.714.378-1.554,1.47a.934.934,0,0,1-.546.378h-2.562v-3.444h9.24c.63,0,.8-.294.8-.546,0-.924-2.226-2.646-2.982-2.646-.462,0-1.428,1.344-1.722,1.764a.778.778,0,0,1-.546.378h-4.746V-30.24c.042-2.352.21-1.848,1.26-2.478.294-.168.462-.378.462-.546,0-.882-3.528-1.386-3.822-1.386-.042,0-.042.042-.042.084a.739.739,0,0,0,.042.252,21.99,21.99,0,0,1,.42,5.25H278.5a49.858,49.858,0,0,1-7.77-.672c0,.546,1.176,2.184,1.848,2.184h.042a39.111,39.111,0,0,1,5.712-.462h1.092c0,.588.042,1.932.042,3.444h-.462a38.266,38.266,0,0,1-6.678-.672c0,.546,1.218,2.184,1.89,2.184h.042a26.69,26.69,0,0,1,4.536-.462h.672c0,1.344-.042,2.73-.084,3.78h-.5a71.032,71.032,0,0,1-9.534-.672c0,.546,1.26,2.184,2.016,2.184h.042a51.061,51.061,0,0,1,7.224-.462H291.4c.63,0,.8-.252.8-.546C292.194-20.244,289.38-22.008,288.918-22.008ZM285.432-7.9h-4.326c0-.84-.042-1.764-.042-2.6,0-.882.042-1.68.042-2.184,0-.588.042-.714.5-.882.336-.084.5-.294.5-.462,0-.084,0-.126-.042-.168h2.9c.378,0,.42.21.42.336v.042C285.432-12.558,285.432-10.206,285.432-7.9Zm-6.09,0H275.1c0-5.5,0-5.712.588-6.174l.168-.126h3.4c.042.5.084,1.176.084,1.974ZM262.416-23.52h-2.31l-.21-.126a13.905,13.905,0,0,0-1.764-1.008c.84-1.554,1.6-3.192,2.31-4.788h3.444c.21,0,.252.084.252.168A37.767,37.767,0,0,1,262.416-23.52Zm4.284,7.1c0,1.68,0,3.612-.042,5.712h-3.024v-5.712Zm-4.662,5.712h-2.982c-.042-2.142-.042-3.822-.042-5.712h3.024v.63c.042,1.512.042,2.352.042,3.024S262.08-11.592,262.038-10.71Zm-4.494,4.788c-.084,0-.126.042-.126.168a8.422,8.422,0,0,1-2.9,5.292A2.37,2.37,0,0,0,253.47,1.3a.95.95,0,0,0,.966,1.05c1.764,0,3.528-2.94,3.528-6.006C257.964-4.914,257.754-5.922,257.544-5.922Zm9.156-11.55h-3.066c0-1.092,0-2.226.042-3.528,0-.546.126-.672.294-.756a.651.651,0,0,0,.294-.42c0-.084,0-.168-.084-.21h2.1a.311.311,0,0,1,.336.336C266.7-20.874,266.7-19.32,266.7-17.472Zm-4.662,0h-3.024c0-.924,0-1.974.042-3.15.042-1.386.21-1.176.8-1.68l.126-.084h1.89A42.564,42.564,0,0,1,262.038-17.472Zm.126,16.422c0-2.016-1.974-4.788-2.352-4.788-.042,0-.084.084-.084.168s.042.21.042.336a20.165,20.165,0,0,1,.168,2.436,11.946,11.946,0,0,1-.21,2.142,4.189,4.189,0,0,0-.084.672c0,.84.462,1.26.966,1.26C261.366,1.176,262.164.252,262.164-1.05Zm.63-4.956a.09.09,0,0,0-.084.084,1.06,1.06,0,0,0,.168.378,13.456,13.456,0,0,1,1.6,3.99c.126.924.546,1.3,1.008,1.3A1.528,1.528,0,0,0,266.7-1.89C266.7-4.074,263.046-6.006,262.794-6.006Zm3.78-.378c-.168,0-.21.042-.21.084,0,.084.084.168.168.252a8.592,8.592,0,0,1,2.016,2.9c.294.84.756,1.176,1.134,1.176.546,0,1.008-.546,1.008-1.3C270.69-5.124,268-6.384,266.574-6.384Zm72.366,2.1c-.084,0-.168-.042-.294-.042-.084,0-.462,0-2.1,2.226a.925.925,0,0,1-.672.378h-6.888c-.042-2.52-.042-7.14-.042-11.466s0-8.358.042-9.576c.084-2.982.042-2.856,1.134-3.4.336-.168.5-.378.5-.588,0-.294-.336-.378-.84-.5h9.7c.672,0,.84-.252.84-.546,0-.63-2.1-2.52-3.4-2.982-.084,0-.168-.042-.294-.042-.21,0-.5.084-1.932,2.142a.711.711,0,0,1-.588.378H327.1a83.226,83.226,0,0,1-9.114-.546,23.329,23.329,0,0,0,1.3-3.654c0-.084,0-.126-.042-.126-.756,0-5.67,10.668-9.576,21.462-.63,1.722-2.016,1.974-3.528,1.974h-.714c-.378,0-.672.042-.672.168,0,.084.294.252.966.42,2.9.714,3.528,2.394,3.528,4.2,0,1.176-.252,2.394-.336,3.4v.462c0,1.89.714,2.688,1.47,2.688.84,0,1.47-.84,1.47-2.142a5.367,5.367,0,0,0-.378-1.848,7.493,7.493,0,0,1-.378-2.478c0-5.754,4.41-17.85,6.594-23.772.378.63.966,1.26,1.428,1.26h.042a66.689,66.689,0,0,1,7.434-.42,21.173,21.173,0,0,1,.336,4.242v.966c0,17.22,0,18.69-.042,20.328h-1.554a95.547,95.547,0,0,1-10.836-.63c0,.5,1.176,2.1,1.89,2.1h.042c3.57-.336,6.426-.42,8.736-.42H341.5c.672,0,.882-.252.882-.546C342.384-1.974,340.158-3.822,338.94-4.284ZM308.406-32.97c-.546,0-.588.042-.588.084s.126.168.462.42a12.632,12.632,0,0,1,3.36,3.318c.462.8.966,1.092,1.47,1.092a1.417,1.417,0,0,0,1.26-1.512C314.37-31.92,310.17-32.928,308.406-32.97Zm-2.646,9.576c-.084,0-1.386,0-1.386.126,0,.084.168.168.5.336a12.656,12.656,0,0,1,3.7,2.814,1.657,1.657,0,0,0,1.26.756,1.328,1.328,0,0,0,1.218-1.428C311.052-23.394,306.054-23.394,305.76-23.394Zm67.62-3.948c.546-.042,1.092-.126,1.638-.126,8.316.084,12.39,5.838,12.39,11.97,0,5-2.394,12.18-14.322,15.54-1.092.336-1.764.672-1.764.882,0,.084.21.168.588.168,2.94,0,17.766-3.4,17.766-16.38,0-6.8-4.746-13.4-14.238-13.4-11.256,0-16.8,10.08-16.8,16.422a6.482,6.482,0,0,0,.966,3.78C361.41-5.964,362-3.36,363.93-3.36c3.276,0,11.046-8.694,11.046-18.69C374.976-24.7,374.43-26.754,373.38-27.342Zm-2.52.546a4.982,4.982,0,0,1,1.176-.21c.924,0,1.68.63,1.68,3.906,0,8.316-6.762,16.758-9.324,16.758-1.848,0-3.906-3.066-3.906-6.594C360.486-18.438,364.812-24.906,370.86-26.8Zm57.834,4.284a9.109,9.109,0,0,1,7.854,8.9c0,6.594-7.1,11.676-14.28,13.356-1.134.294-1.68.546-1.68.714,0,.084.294.168.756.168,3.948,0,17.472-3.7,17.472-13.9a10.721,10.721,0,0,0-9.828-10.5,11.344,11.344,0,0,0,.252-2.268c0-4.074-2.856-4.116-3.108-4.116-.588,0-1.428.5-1.428.8s.924.294,1.218.5c.714.546,1.092,1.764,1.092,3.528,0,.462-.042.966-.084,1.512a16.786,16.786,0,0,0-9.408,3.78c-.8-1.974-1.386-3.864-2.016-5.082a3.494,3.494,0,0,0-2.352-2.1c-.168,0-.252.084-.252.294a1.452,1.452,0,0,0,.126.5c.546,1.218,1.218,3.024,1.89,4.83.336.924.714,1.932,1.134,2.9-2.94,3.024-4.452,6.552-4.452,9.408,0,2.562,1.26,4.7,3.318,4.7,3.15,0,7.224-4.914,8.064-6.174a8.7,8.7,0,0,0,2.268.588c.714,0,1.134-.42,1.134-.756,0-.378-.42-1.05-2.226-1.6A37.666,37.666,0,0,0,428.694-22.512ZM426.72-22.6a29.089,29.089,0,0,1-3.948,9.576c-2.226-1.092-3.7-3.486-4.83-6.006A14.166,14.166,0,0,1,426.72-22.6Zm-5,11.214c-2.058,3.066-4.914,4.872-6.258,4.872-1.68,0-2.478-2.436-2.478-3.78,0-2.226,1.26-4.83,3.57-7.35A13.824,13.824,0,0,0,421.722-11.382ZM493.752-23.9a.972.972,0,0,0,.966-1.05c0-.966-1.05-2.478-4.746-2.478-.966,0-2.016.126-2.016.294,0,.126.378.21.672.336a14.28,14.28,0,0,1,4.116,2.436A1.536,1.536,0,0,0,493.752-23.9Zm-4.284,2.436a1.05,1.05,0,0,0,.966-1.134c0-1.764-2.52-2.52-4.914-2.52-.084,0-1.722,0-1.722.252,0,.084.378.21.63.336a14.6,14.6,0,0,1,4.032,2.562A1.534,1.534,0,0,0,489.468-21.462Zm.294,11.8c1.092,0,2.6-1.386,2.6-3.78,0-3.192-3.612-6.552-8.9-6.552-.294,0-.5.042-.5.126s.336.294,1.26.63c2.184.8,5.754,1.932,5.754,5.376,0,2.688-3.15,2.982-4.956,3.36-.63.126-1.05.252-1.05.378,0,.21.63.21,3.612.21a4.646,4.646,0,0,1,1.6.126A1.341,1.341,0,0,0,489.762-9.66Zm-20.874-8.358c-2.268,5.25-6.846,11.928-8.526,14.448a5.417,5.417,0,0,0-1.05,2.436.674.674,0,0,0,.714.756c.84,0,1.932-1.092,2.52-2.1,2.646-4.914,6.006-11.592,7.938-16.044,2.1-1.26,2.52-1.386,3.318-1.386,1.638,0,2.562,1.764,2.562,5.04,0,5.712-2.73,11.676-6.426,11.676A3.738,3.738,0,0,1,466.914-5c-.546-.756-.882-1.134-1.05-1.134q-.126,0-.126.252a5.99,5.99,0,0,0,.252,1.3c.294,1.134-.168,2.646,1.386,3.192a5.806,5.806,0,0,0,1.806.294c4.074,0,9.03-4.452,9.03-13.146,0-1.806-.084-6.888-4.116-6.888a8.512,8.512,0,0,0-2.814.63,2.57,2.57,0,0,0,.21-.5,20.734,20.734,0,0,0,1.3-5.46c0-.756-.378-2.646-2.1-2.646-1.05,0-2.394.8-2.394,1.218,0,.336.42.546.84.63,1.05.168,1.386,1.092,1.386,2.394a17.4,17.4,0,0,1-.882,4.914,18.069,18.069,0,0,1-5.754,1.218,3.171,3.171,0,0,1-2.688-1.092c-.294-.378-.5-.63-.672-.63-.21,0-.294.294-.294,1.134a3,3,0,0,0,3.234,3.108C464.226-16.212,465.318-16.38,468.888-18.018ZM517.482-.756c0,1.722.672,2.562,1.26,2.562.714,0,1.344-1.05,1.008-2.856a38.548,38.548,0,0,1-.546-6.51c0-1.974.126-3.864.294-5.586,3.066-4.452,7.728-9.408,11.8-9.408,3.4,0,5.082,3.57,5.082,10.962a15.872,15.872,0,0,1-.924,6.006,13.012,13.012,0,0,0-4.41-.8c-3.57,0-6.342,1.68-6.342,3.612,0,1.806,2.352,3.486,4.872,3.486a8.689,8.689,0,0,0,6.846-3.906A13.208,13.208,0,0,1,539.91-.21c.5.588.924.84,1.26.84.462,0,.756-.462.756-1.05,0-.756-.42-2.31-4.62-4.368a16.514,16.514,0,0,0,1.092-6.72c0-2.184-.21-12.1-6.8-12.1-4.83,0-9.156,5-11.928,8.694l.084-.672A33.274,33.274,0,0,1,522.1-19.95a2.174,2.174,0,0,0,.462-1.176c0-.588-.462-1.092-1.722-1.134a29.549,29.549,0,0,0,.294-3.948,11.466,11.466,0,0,0-.42-3.276,3.323,3.323,0,0,0-2.856-2.142,1.382,1.382,0,0,0-1.176.588c0,.126.21.252.5.5a3.917,3.917,0,0,1,1.764,1.722,7.94,7.94,0,0,1,.714,4.032c0,.672-.042,1.47-.084,2.394,0,.084-.042.21-.042.336a2.04,2.04,0,0,0-.84.756c-1.932,2.94-6.762,3.108-7.35,6.09a.82.82,0,0,0-.042.294,1.3,1.3,0,0,0,.966,1.3c.714.084.966.42,2.94,3.948-.63,1.092-3.948,6.93-3.948,8.988,0,.63.252.882.63.882a2.285,2.285,0,0,0,1.848-1.554c.336-1.974.546-2.688,2.226-6.258a28.688,28.688,0,0,1,1.512,6.51Zm1.512-16.38a41.262,41.262,0,0,1-3.4,6.846c-1.848-3.528-1.848-4.83-1.848-4.956,0-1.848,3.906-2.94,5.418-5.04.084-.084.168-.21.252-.252ZM534.7-4.116a6.71,6.71,0,0,1-5.46,3.108c-1.554,0-3.36-.63-3.36-1.722,0-1.176,2.1-2.31,4.662-2.31A10.021,10.021,0,0,1,534.7-4.116ZM516.39-8.484c.084-.168.21-.336.294-.546.546-.924,1.05-1.848,1.638-2.772-.21,1.848-.336,3.738-.462,5.46-.042.252-.084.336-.168.336s-.126-.042-.168-.126A21.26,21.26,0,0,1,516.39-8.484Z" transform="translate(-0.588 35.028)" fill="#fff"/>
</svg>
