<svg xmlns="http://www.w3.org/2000/svg" width="570" height="327" viewBox="0 0 570 327">
  <g id="kv_logo" transform="translate(-1350 -188)">
    <rect id="長方形_44" data-name="長方形 44" width="570" height="327" transform="translate(1350 188)" fill="#302c67"/>
    <g id="kv-logo" transform="translate(1496.99 252.22)">
      <path id="パス_141" data-name="パス 141" d="M2388.129,2048.83a7,7,0,0,0,1.541-3.619c0-2.107-2.774-4.647-4.775-4.647-.978,0-1.954.595-1.954,1.3,0,.27.156.486.565.541,1.029.162,2.208.486,2.208,2.431,0,3.837-8.626,14.046-17.253,16.91-.668.216-1.028.432-1.028.594,0,.054.156.109.463.109C2369.488,2062.444,2381.093,2060.175,2388.129,2048.83Z" transform="translate(-2135.175 -2030.926)" fill="#fff"/>
      <path id="パス_142" data-name="パス 142" d="M2555.07,2001.656a4.721,4.721,0,0,0,4.672-4.807,4.652,4.652,0,1,0-9.294,0A4.678,4.678,0,0,0,2555.07,2001.656Zm.049-8.1a3.109,3.109,0,0,1,3.082,3.241,3.156,3.156,0,0,1-3.082,3.3,3.2,3.2,0,0,1-3.131-3.3A3.149,3.149,0,0,1,2555.119,1993.552Z" transform="translate(-2285.424 -1991.046)" fill="#fff"/>
      <path id="パス_143" data-name="パス 143" d="M2533.3,2053.624c.615,1.891,1.541,2.647,2.414,2.647,1.025,0,1.95-1.081,1.95-2.864,0-6.752-13.454-15.559-14.945-15.559-.1,0-.1.054-.1.109,0,.216.36.7,1.131,1.458C2527.441,2043.089,2531.756,2048.815,2533.3,2053.624Z" transform="translate(-2262.574 -2028.696)" fill="#fff"/>
      <path id="パス_144" data-name="パス 144" d="M2460.073,2265.382c1.336.162,2.361,1.35,2.361,5.025,0,.539,0,1.134-.05,1.781-.155,2.594-.1,4.268-.205,6.592-.41,11.831-5.445,21.338-12.941,26.147-1.488.972-2.053,1.458-2.053,1.62,0,.054.049.054.152.054,1.336,0,17.614-6.1,17.974-27.282.156-6.32.361-8.1,1.283-10.155a3.741,3.741,0,0,0,.515-1.567c0-1.783-4.519-4.214-6.11-4.214a1.8,1.8,0,0,0-1.851,1.243C2459.148,2265.057,2459.766,2265.328,2460.073,2265.382Z" transform="translate(-2200.649 -2213.856)" fill="#fff"/>
      <path id="パス_145" data-name="パス 145" d="M2454.961,2284.556c0-2.052-4.212-3.673-5.188-3.673-1.18,0-2.311.7-2.311,1.3,0,.432.618.648.976.7,2.671.163,3.134,4.159,3.134,10.481,0,1.729-.1,3.349-.307,5.727a5.675,5.675,0,0,0-.053.918c0,2.106.718,3.079,1.488,3.079,1.388,0,1.954-2.7,1.954-3.835,0-.325-.052-.7-.1-1.242a79.1,79.1,0,0,1-.311-9.509,8.23,8.23,0,0,1,.413-2.863A2.888,2.888,0,0,0,2454.961,2284.556Z" transform="translate(-2200.876 -2228.223)" fill="#fff"/>
      <path id="パス_146" data-name="パス 146" d="M2454.351,2666.686c0,.108.41.324,1.18.486a22.427,22.427,0,0,1,9.089,4.862,2.933,2.933,0,0,0,1.849.756,1.849,1.849,0,0,0,1.8-1.945c0-3.242-6.11-4.484-11.093-4.484C2455.019,2666.362,2454.351,2666.524,2454.351,2666.686Z" transform="translate(-2206.532 -2544.692)" fill="#fff"/>
      <path id="パス_147" data-name="パス 147" d="M2450.048,2738.951c0,.216.512.486,1.488.865,5.906,2.215,11.093,5.293,14.38,8.48a3.477,3.477,0,0,0,2.364,1.19,1.863,1.863,0,0,0,1.848-2.053c0-5.565-15.51-8.644-19.412-8.644C2450.253,2738.789,2450.048,2738.843,2450.048,2738.951Z" transform="translate(-2202.999 -2604.153)" fill="#fff"/>
      <path id="パス_148" data-name="パス 148" d="M2472.638,2606.5a3.289,3.289,0,0,0,1.951.757,1.707,1.707,0,0,0,1.7-1.836c0-1.783-2.106-4.539-10.733-4.539-2.622,0-5.753.27-5.753.593,0,.164.463.325,1.385.488A27.723,27.723,0,0,1,2472.638,2606.5Z" transform="translate(-2211.005 -2490.936)" fill="#fff"/>
      <path id="パス_149" data-name="パス 149" d="M2438.575,2891.747h-.308c-2.774,0-1.644.7-4.52,1.729-2.053.757-4.467,1.566-6.88,2.431-.668-2.324-1.233-4.592-1.8-6.969a65.982,65.982,0,0,1,8.012-2.431c1.388-.27,2.106-1.026,2.106-1.728,0-.918-.771-1.3-3.8-1.3h-.618c-1.8.163-2.414,1.3-3.7,1.783-.668.271-1.591.648-2.668,1.082l-.36-1.513a11.65,11.65,0,0,1-.565-2.972,9,9,0,0,1,.1-1.135,6.066,6.066,0,0,0,.1-.972c0-2.052-3.852-3.078-5.29-3.078a2.414,2.414,0,0,0-2.619,1.782c0,.377.36.486.721.486.152,0,.308-.054.46-.054a2,2,0,0,1,.565-.055c1.849,0,2.414,1.675,3.955,6.375.205.649.463,1.3.668,2-3.028,1.136-6.573,2.16-9.036,2.16a5.141,5.141,0,0,1-1.954-.323,2.14,2.14,0,0,0-.513-.108c-.258,0-.361.108-.361.379,0,1.026,1.184,2.808,4.057,2.808,1.184,0,1.8-.053,8.577-2.485.668,2.215,1.385,4.647,2.053,6.969-7.5,2.594-11.192,3.621-13.352,3.621a11.478,11.478,0,0,1-3.184-.434,3.362,3.362,0,0,0-1.127-.215c-.361,0-.566.108-.566.486a3.283,3.283,0,0,0,1.9,2.594,15.346,15.346,0,0,0,4.828.973c1.8,0,2.159-.811,4.262-1.729,2.774-1.188,5.343-2.215,7.807-3.135.926,3.351,1.8,6.592,2.414,9.078.258,1.134.258,2.053.463,2.864.155.594,1.283,5.836,3.131,5.836.668,0,1.078-.811,1.078-2.215a11.925,11.925,0,0,0-.976-4.54,110.079,110.079,0,0,1-4.16-11.723c7.549-2.647,10.22-2.808,14.33-2.863,1.385-.054,2.206-.811,2.206-1.622C2444.017,2892.558,2443.4,2891.747,2438.575,2891.747Z" transform="translate(-2167.441 -2717.355)" fill="#fff"/>
      <path id="パス_150" data-name="パス 150" d="M1770.25,2266.455c0,1.964,1.016,2.843,2.023,2.843a2.58,2.58,0,0,0,2.013-1.166,5.024,5.024,0,0,0,.889-3.043,11.151,11.151,0,0,0-1.907-5.553c-.017-.028-1.75-2.757-2.5-2.757h-.2l-.134.148a.76.76,0,0,0-.179.508,3.041,3.041,0,0,0,.068.692,33.232,33.232,0,0,1,.183,3.75,31.2,31.2,0,0,1-.185,3.557A5.742,5.742,0,0,0,1770.25,2266.455Z" transform="translate(-1644.9 -2208.433)" fill="#fff"/>
      <path id="パス_151" data-name="パス 151" d="M1880.464,2015.264c-.862,0-2.837,2.819-3.35,3.721a.718.718,0,0,1-.545.38h-6.86c-.052-1.2-.1-3.069-.106-5.249h9.732c1.427,0,1.581-.937,1.581-1.339,0-2.288-4.649-4.62-5.039-4.62-.787,0-2.316,1.963-3.013,3-.21.308-.343.35-.445.35H1869.6c0-.835.018-1.68.031-2.5.012-.769.024-1.5.028-2.2h13c1.528,0,1.647-.973,1.647-1.271,0-2.462-4.656-5.167-5.229-5.167-.528,0-1.323.415-3.211,3.5l-.01.017c-.1.185-.285.383-.488.383h-5.7c.007-.352.021-.683.033-.986.014-.346.027-.673.027-.938.093-2.337.159-2.372.8-2.705.168-.087.376-.2.615-.344.433-.261,1.159-.8,1.159-1.479,0-.832-1.106-1.5-3.585-2.178a30.616,30.616,0,0,0-3.464-.733.485.485,0,0,0-.516.519,2.25,2.25,0,0,0,.074.568,43.517,43.517,0,0,1,.618,8.276,88.463,88.463,0,0,1-12.307-1.089l-.516-.075v.521c0,1,1.9,3.936,3.216,3.936l.121,0a62.809,62.809,0,0,1,9.372-.748h.118c0,.287.009.637.016,1.039.016.965.038,2.253.042,3.661a71.759,71.759,0,0,1-9.979-1.017l-.517-.077v.522c0,1,1.936,3.936,3.281,3.936l.115,0c1.38-.165,2.381-.3,3.185-.4a27.559,27.559,0,0,1,3.915-.342c0,1.9,0,3.818-.047,5.245a114.809,114.809,0,0,1-14.273-1.088l-.513-.072v.519a5.093,5.093,0,0,0,1.138,2.324c.462.6,1.362,1.612,2.2,1.612h.089l.027,0a86.456,86.456,0,0,1,11.384-.68h18.859c1.525,0,1.644-.973,1.644-1.271C1886.006,2018.519,1881.566,2015.264,1880.464,2015.264Z" transform="translate(-1710.915 -1993.436)" fill="#fff"/>
      <path id="パス_152" data-name="パス 152" d="M1717.9,2019.468h.2c.833,0,3.162-2.932,4.911-5.545.093,1.591.17,2.97.17,3.385,0,3.288,0,10.989-.44,18.014v.233a1.962,1.962,0,0,0,1.9,2.228,2.551,2.551,0,0,0,2.523-2.57l-.042-.984h10.016v.027c0,1.633.952,2.365,1.9,2.365a2.631,2.631,0,0,0,2.464-2.775v-.156c-.188-4.48-.378-11.147-.378-15.221,0-3.5.093-3.568.809-4.069.521-.354,1.394-.946,1.394-1.876,0-.961-1.173-2.135-3.691-3.693-.073-.045-.124-.076-.143-.089l-.049-.031a1.334,1.334,0,0,0-.718-.192c-.547,0-1.083.517-1.794,1.728l-.045.076a1.35,1.35,0,0,1-.264.383h-3.743c1.127-1.429,2.423-3.22,3.5-4.7.4-.557.77-1.064,1.077-1.481.414-.562.574-.611.838-.691a2.739,2.739,0,0,0,.639-.268,1.965,1.965,0,0,0,1.251-1.7c0-1.785-3.758-4.415-4.412-4.415-.342,0-.342,0-1.673,1.674l-.032.045a.53.53,0,0,1-.557.332h-3.084c.129-.313.246-.625.362-.96.036-.093.068-.179.1-.26.215-.586.233-.634.781-.762,1.239-.3,1.979-.974,1.979-1.805,0-1.777-5.476-3.868-5.98-3.868-.571,0-.578.793-.578,1.188-.441,6.762-6.642,20.869-8.6,24.033-.746,1.172-.887,1.542-.887,1.814a.677.677,0,0,0,.179.44Zm9.137,1.148c0-6.319.021-6.337.919-7.141l.086-.09h2.02c.1,1.46.154,3.889.158,7.231Zm3.245,7.08c0,1.358,0,2.548-.046,3.923h-3.146c-.051-2.78-.054-5.625-.054-8.393h3.2C1730.282,2024.942,1730.282,2026.4,1730.282,2027.7Zm-2.067-16.99a15.488,15.488,0,0,0-2.342-1.507c1.063-2.009,2.177-4.314,3.393-7.022h4.137a72.19,72.19,0,0,1-2.48,8.529Zm5.737,9.91c0-1.77,0-3.588.062-5.358,0-.654.119-.719.206-.766a1.484,1.484,0,0,0,.795-1.107h2.006c.045,0,.114,0,.115.249.036.983.117,3.576.124,6.982Zm3.307,2.61c-.005,1.308-.032,2.66-.06,4.083s-.057,2.889-.062,4.31h-3.184v-8.393Z" transform="translate(-1601.664 -1990.929)" fill="#fff"/>
      <path id="パス_153" data-name="パス 153" d="M1902.025,2164.192c.1-.055.21-.115.328-.184l.125-.083c.52-.35,1.166-.786,1.166-1.536,0-.912-1.288-2.123-2.055-2.764-.331-.275-2.027-1.651-2.984-1.651-.769,0-1.39.918-1.9,1.818-.027.047-.047.083-.059.1l-.013.022a.576.576,0,0,1-.359.312h-12.434c-.816-.511-4.21-2.324-5.164-2.324a.62.62,0,0,0-.64.656,1.529,1.529,0,0,0,.077.524,56.449,56.449,0,0,1,.741,7.9c.062,1.632.062,3.552.062,5.587,0,4.666-.126,10.086-.376,16.11v.155a2,2,0,0,0,2.085,2.091,2.826,2.826,0,0,0,2-.856,2.561,2.561,0,0,0,.708-1.926c-.017-1.069-.038-2.218-.06-3.413-.056-3.042-.12-6.471-.126-9.593h13.869c0,2.993,0,5.553-.062,6.917-.053,1.888-.608,2.911-3.385,2.911a33.224,33.224,0,0,1-6.165-.8,1.576,1.576,0,0,0-.561-.083.7.7,0,0,0-.52.216l-.117.129v.174c0,.459.492.805,2.787,2.216a18.505,18.505,0,0,1,3.746,2.656c.3.515.6,1.047,1.4,1.047a8.321,8.321,0,0,0,3.878-1.23c1.563-.976,3.425-2.96,3.425-6.875,0-.59-.049-1.742-.1-2.855s-.094-2.246-.094-2.818c0-.778-.014-1.644-.029-2.561-.017-1.033-.034-2.1-.034-3.179,0-2.317.08-4.493.127-5.582C1901.362,2164.553,1901.477,2164.491,1902.025,2164.192Zm-18.808.929c.056-1.616.057-1.625.64-2.1l.061-.044h3.849c.093.964.143,2.335.143,3.923v5.5h-4.755c0-3.212,0-5.955.062-7.251Zm10.433-2.145h3.007c.167,0,.3.023.3.314.06,2.025.062,5.588.062,9.1h-4.947c0-.518-.017-1.061-.028-1.591-.015-.708-.031-1.44-.031-2.127,0-.751.019-1.488.036-2.138.013-.521.026-1.013.026-1.416,0-.674.009-.678.494-.89A1.615,1.615,0,0,0,1893.651,2162.976Z" transform="translate(-1733.394 -2127.261)" fill="#fff"/>
      <path id="パス_154" data-name="パス 154" d="M1724.895,2261.016a14.746,14.746,0,0,0-.3-3.026c-.246-1.132-.526-1.594-.967-1.594-.55,0-.646.59-.7.918-.473,2.281-1.421,5.563-4.174,7.792a4.529,4.529,0,0,0-1.865,3.359,2.342,2.342,0,0,0,2.271,2.5C1721.869,2270.966,1724.895,2266.711,1724.895,2261.016Z" transform="translate(-1601.094 -2208.12)" fill="#fff"/>
      <path id="パス_155" data-name="パス 155" d="M1831.679,2259.962c1.164,0,2.147-1.271,2.147-2.774,0-3.332-4.443-5.371-6.863-5.371-.805,0-.892.458-.892.656a1.41,1.41,0,0,0,.436.784,17.946,17.946,0,0,1,2.928,4.643C1830.132,2259.694,1831.14,2259.962,1831.679,2259.962Z" transform="translate(-1690.728 -2204.36)" fill="#fff"/>
      <path id="パス_156" data-name="パス 156" d="M1802.656,2262.4c0-4.254-5.733-7.148-6.549-7.148a.551.551,0,0,0-.575.587,1.906,1.906,0,0,0,.3.892,26.831,26.831,0,0,1,2.282,6.293c.312,1.938,1.31,2.629,2.14,2.629C1801.416,2265.652,1802.656,2264.345,1802.656,2262.4Z" transform="translate(-1665.656 -2207.179)" fill="#fff"/>
      <path id="パス_157" data-name="パス 157" d="M1755.865,2441.654c0,.353.269.573.922,1.1a20.094,20.094,0,0,1,4.72,5.458l0,0c.966,1.837,2.084,2.223,2.853,2.223a3.046,3.046,0,0,0,2.775-3.253c0-1.9-1.225-3.515-3.541-4.675a14.912,14.912,0,0,0-6.276-1.449C1756.444,2441.067,1755.865,2441.067,1755.865,2441.654Z" transform="translate(-1633.09 -2359.73)" fill="#fff"/>
      <path id="パス_158" data-name="パス 158" d="M1730.425,2527.679l0,0a3.293,3.293,0,0,0,2.7,1.7,2.858,2.858,0,0,0,2.588-3.116c0-3.055-3.286-5.03-8.372-5.03-2.859,0-3.091.359-3.091.793,0,.353.265.529.7.821l.248.167.022.014A19.558,19.558,0,0,1,1730.425,2527.679Z" transform="translate(-1607.134 -2425.545)" fill="#fff"/>
      <path id="パス_159" data-name="パス 159" d="M1780.714,2499.18l-.075-.033h-.088a.5.5,0,0,1-.074-.016,1.5,1.5,0,0,0-.37-.052c-.616,0-1.315.61-3.828,4.226l-.024.039a.825.825,0,0,1-.612.383H1766.4c-.054-3.125-.054-8.234-.054-13.627,0-8.721.059-18.748.124-21.034l.018-.524c.1-3.011.1-3.011,1.067-3.538.794-.43,1.18-.9,1.18-1.421a1,1,0,0,0-.137-.506h13.137c1.643,0,1.771-.973,1.771-1.271,0-1.977-4.529-5.328-5.633-5.752l-.073-.03h-.084a.58.58,0,0,1-.074-.016,1.483,1.483,0,0,0-.372-.052c-.726,0-1.341.848-3.577,4.09l-.025.04a.718.718,0,0,1-.546.38h-9.745a122.849,122.849,0,0,1-15.588-1.021l-.513-.071v.518a6.083,6.083,0,0,0,2.28,3.552.534.534,0,0,0-.2-.039c-.391,0-.8,0-5.612,9.464-2.5,4.912-5.4,10.881-7.056,14.513-1.2,2.609-2.4,2.881-4.868,2.881-.536,0-1.961,0-1.961.861,0,.5.553.857,1.839,1.186,2.217.621,4.762,1.886,4.762,6.195a29.05,29.05,0,0,1-.3,3.512c-.105.839-.214,1.707-.266,2.542v.848a7.814,7.814,0,0,0,.848,3.912,2.5,2.5,0,0,0,2.116,1.391,2.664,2.664,0,0,0,2.1-1.2c.526-.717,1.619-2.8.408-6.638a21.8,21.8,0,0,1-.984-6.762c0-6.251,2.307-13.934,9.143-30.446a4.83,4.83,0,0,0,.413-1.537.744.744,0,0,0-.216-.583,1.46,1.46,0,0,0,.706.213l.112,0a103.717,103.717,0,0,1,10.635-.679,50.656,50.656,0,0,1,.368,7.2c0,.053,0,.373,0,.911.015,3.017.061,12.2.061,20.616,0,4.668,0,9.09-.055,11.919h-1.883a133.148,133.148,0,0,1-16.221-1.021l-.51-.068v.515c0,1.008,1.9,3.868,3.278,3.868l.111,0a125.587,125.587,0,0,1,13.091-.681h25.268c1.6,0,1.771-.889,1.771-1.271C1786.465,2503.605,1782.745,2500.008,1780.714,2499.18Z" transform="translate(-1611.75 -2371.953)" fill="#fff"/>
      <path id="パス_160" data-name="パス 160" d="M1099.63,2030.68c5.445,0,11.615-9.133,12.468-10.487a9.245,9.245,0,0,0,3.742,1.07,1.937,1.937,0,0,0,2.1-1.713c0-.927-.92-2.14-3.545-3a66.614,66.614,0,0,0,6.825-16.34c6.694,1.213,11.68,7.207,11.68,14.841,0,13.842-15.093,20.763-21.785,22.618-1.9.5-2.757,1-2.757,1.285,0,.214.393.286,1.115.286,7.153,0,27.759-6.564,27.759-23.759,0-9.133-6.693-16.91-15.422-17.909a26.993,26.993,0,0,0,.329-3.782c0-5.851-3.282-7.064-4.857-7.064-2.035,0-2.493,1.356-2.493,1.5,0,.5,1.443.5,1.968,1.07,1.05,1.07,1.575,3.139,1.575,5.851,0,.784-.065,1.569-.132,2.426a25.286,25.286,0,0,0-14.305,6.207c-1.115-3-1.97-5.851-2.822-7.92-1.18-2.783-3.805-4.352-4.528-4.352-.262,0-.46.215-.46.57a4.036,4.036,0,0,0,.395,1.427c.787,2,1.9,5.279,2.888,8.206.525,1.569,1.115,3.139,1.772,4.781-4.464,5.065-6.892,10.987-6.892,15.84C1094.248,2027.541,1096.94,2030.68,1099.63,2030.68ZM1117.873,2000a50.806,50.806,0,0,1-5.84,15.7c-3.347-1.785-5.71-5.851-7.415-10.062A21.383,21.383,0,0,1,1117.873,2000Zm-15.88,8.491c1.9,4.209,4.463,8.135,8.005,10.56-3.872,5.923-8.2,7.563-9.383,7.563-1.969,0-3.61-2.569-3.61-6.278C1097.005,2016.839,1098.71,2012.557,1101.992,2008.491Z" transform="translate(-1089.918 -1986.729)" fill="#fff"/>
      <path id="パス_161" data-name="パス 161" d="M1276.553,2490.106c-.525,0-.853.072-.853.143,0,.214.722.57,2.165,1.142,3.412,1.5,8.662,3.282,8.662,8.776,0,3.854-2.69,5.066-7.285,6.065-1.115.214-1.9.5-1.9.713s.592.357,2.035.357,2.625-.071,3.609-.071a4.606,4.606,0,0,1,2.363.356,2.6,2.6,0,0,0,1.312.357c2.363,0,4.4-3,4.4-6.635C1291.057,2495.171,1285.282,2490.106,1276.553,2490.106Z" transform="translate(-1238.886 -2399.99)" fill="#fff"/>
      <path id="パス_162" data-name="パス 162" d="M1325.289,2418.364a8.358,8.358,0,0,0-4.135.856c0,.214.525.357,1.05.572a21.825,21.825,0,0,1,6.169,4.281,2.317,2.317,0,0,0,1.64.784,2.058,2.058,0,0,0,1.837-2.283C1331.851,2420.219,1329.291,2418.364,1325.289,2418.364Z" transform="translate(-1276.203 -2341.092)" fill="#fff"/>
      <path id="パス_163" data-name="パス 163" d="M1285.235,2441.4c0,.215.525.429,1.05.642a21.261,21.261,0,0,1,6.036,4.424,2.3,2.3,0,0,0,1.707.857,2.03,2.03,0,0,0,1.772-2.211c0-1.714-1.51-4.424-7.022-4.424C1287.006,2440.688,1285.235,2441.043,1285.235,2441.4Z" transform="translate(-1246.714 -2359.419)" fill="#fff"/>
      <path id="パス_164" data-name="パス 164" d="M1075.965,2449.108c3.675-7.421,8.925-18.837,12.075-26.971,2.953-2.283,4.528-2.425,4.922-2.425,2.755,0,3.806,3.354,3.806,8.2,0,9.276-3.936,19.336-9.515,19.336a5.769,5.769,0,0,1-4.66-2.853c-.853-1.284-1.443-1.926-1.705-1.926-.065,0-.131.072-.131.285a12.365,12.365,0,0,0,.525,2.426c.786,2.641-.46,5.281,2.427,6.28a6.467,6.467,0,0,0,2.428.427c6.694,0,13.912-7.706,13.912-22.546,0-9.419-3.084-11.915-6.693-11.915a10.731,10.731,0,0,0-3.939.927l.2-.572a38.017,38.017,0,0,0,2.1-9.276c0-4.138-2.493-4.5-3.412-4.5-1.378,0-4.135,1.427-4.135,2.426,0,.5.657.856,1.444,1,1.575.286,2.1,1.927,2.1,4.211a34.117,34.117,0,0,1-1.247,7.848,24.079,24.079,0,0,1-8.793,1.854c-1.64,0-3.15-.286-4.069-1.568-.46-.715-.918-1.356-1.246-1.356-.132,0-.525.213-.525,2.567a5.017,5.017,0,0,0,5.118,5.21c1.837,0,6.235-2,8.2-3.068-3.412,8.49-9.909,18.836-13.059,23.474-1.443,2.14-2.033,3.711-2.033,4.781,0,1.142.59,1.64,1.443,1.64C1072.75,2453.032,1074.653,2451.749,1075.965,2449.108Z" transform="translate(-1070.06 -2329.31)" fill="#fff"/>
      <path id="パス_165" data-name="パス 165" d="M1125.562,2815.263a32.944,32.944,0,0,0,1.64-10.916c0-8.277-2.035-20.835-10.762-20.835-5.577,0-12.4,5.422-18.506,14.555l.065-.856a58.235,58.235,0,0,1,3.544-7.064,4.512,4.512,0,0,0,.853-2.353c0-1.143-.787-2-2.69-2.071a61.462,61.462,0,0,0,.525-7.062,17.335,17.335,0,0,0-.59-5,5.26,5.26,0,0,0-4.66-3.782c-.787,0-2.232.715-2.232,1.142,0,.214.329.5.92,1,2.23,1.714,3.872,3,3.872,9.991,0,1.141-.067,2.353-.132,3.709v.5a3.636,3.636,0,0,0-1.378,1.356c-2.887,4.851-10.632,4.922-11.55,10.274,0,.213-.065.356-.065.57a2.451,2.451,0,0,0,1.9,2.569c.853.143,1.445.429,4.33,6.207-6.1,11.559-6.3,14.2-6.3,15.27,0,1.356.592,1.856,1.314,1.856a3.887,3.887,0,0,0,3.346-3,35.8,35.8,0,0,1,3.019-10.061c.918,3.354,1.968,7.992,1.968,10.346v.57c0,3.282,1.182,4.855,2.3,4.855.788,0,2.428-1.43,1.772-5.354a72.081,72.081,0,0,1-.919-11.7c0-3.139.2-6.136.46-8.918,9.253-13.771,15.29-15.625,18.047-15.625,5.643,0,7.612,7.705,7.612,18.835a27.729,27.729,0,0,1-1.247,9.49,21.21,21.21,0,0,0-6.628-1.142c-6.3,0-10.107,2.925-10.107,6.207s3.74,6.208,8.072,6.208a12.83,12.83,0,0,0,10.565-6.351,20.867,20.867,0,0,1,4.922,4.709c.853,1.213,1.641,1.642,2.3,1.642.918,0,1.508-1,1.508-2.283C1132.648,2821.328,1131.992,2818.688,1125.562,2815.263Zm-30.909-1.64c-.329,0-1.51-2.855-1.969-4,.262-.57.46-1.142.722-1.711.723-1.142,1.443-2.355,2.165-3.568C1094.783,2813.623,1094.783,2813.623,1094.653,2813.623Zm1.9-19.051a90.006,90.006,0,0,1-5.315,11.558c-2.495-5.779-2.692-6.778-2.692-8.062V2798c0-3.069,6.3-5.424,8.4-8.706l.2-.214C1097.015,2790.647,1096.753,2792.5,1096.556,2794.572Zm15.75,27.185c-1.968,0-5.053-.927-5.053-2.927,0-1.5,2.625-3.568,6.76-3.568a16.358,16.358,0,0,1,6.561,1.5A10.714,10.714,0,0,1,1112.305,2821.757Z" transform="translate(-1081.791 -2629.681)" fill="#fff"/>
      <path id="パス_166" data-name="パス 166" d="M1791.325,2861.5c-15.48,0-23.1,14.131-23.1,23.043a9.283,9.283,0,0,0,1.376,5.335c2.352,3.459,3.383,7.387,6.191,7.387,4.93,0,14.96-13.075,14.96-25.916,0-3.753-.8-6.743-2.234-7.8.686-.059,1.373-.117,2.063-.117,10.891,0,16.737,7.915,16.737,16.593,0,7.271-4.069,17.474-19.145,21.637-1.662.471-2.582.939-2.582,1.231,0,.118.289.236.8.236,4.7,0,24.649-5.045,24.649-22.87C1811.044,2870.71,1804.337,2861.5,1791.325,2861.5Zm-2.581,7.74c0,10.788-8.54,23.043-12.379,23.043-2.752,0-5.275-3.93-5.275-9.089a20.654,20.654,0,0,1,14.389-19.055,1.385,1.385,0,0,0,.457-.059,2.094,2.094,0,0,1,.575-.059C1787.771,2864.025,1788.743,2865.022,1788.743,2869.243Z" transform="translate(-1643.235 -2704.9)" fill="#fff"/>
      <rect id="長方形_62" data-name="長方形 62" width="1.541" height="198.153" transform="translate(82.251 0.213)" fill="#fff"/>
      <rect id="長方形_63" data-name="長方形 63" width="1.541" height="198.153" transform="translate(202.722 0.213)" fill="#fff"/>
    </g>
  </g>
</svg>
