<svg xmlns="http://www.w3.org/2000/svg" width="877.44" height="108.912" viewBox="0 0 877.44 108.912">
  <path id="kv_txt" d="M-427.584-16.92v1.632h-2.856a13.76,13.76,0,0,1-2.208-.12v1.416a14.361,14.361,0,0,1,2.184-.12h2.88v1.776h-3.936a15.017,15.017,0,0,1-2.448-.144v1.536a15.636,15.636,0,0,1,2.448-.144h10.2a18.588,18.588,0,0,1,2.376.144V-12.48a14.814,14.814,0,0,1-2.376.144h-4.848v-1.776h3.72a14.464,14.464,0,0,1,2.232.12v-1.416a13.578,13.578,0,0,1-2.208.12h-3.744V-16.92h4.464a15.07,15.07,0,0,1,2.328.12v-1.488a11.727,11.727,0,0,1-2.352.144h-4.44a7.972,7.972,0,0,1,.144-1.872h-1.7a8.093,8.093,0,0,1,.144,1.872h-3.576a11.207,11.207,0,0,1-2.28-.144V-16.8a13.874,13.874,0,0,1,2.256-.12Zm-3.432,14.592h8.712V-.456c0,.552-.144.648-.936.648A16.58,16.58,0,0,1-425.928-.1a5,5,0,0,1,.384,1.512c1.032.072,1.8.12,2.448.12,1.8,0,2.256-.384,2.256-1.872V-7.152a21.84,21.84,0,0,1,.1-2.568,11.877,11.877,0,0,1-2.208.12h-7.368a19.3,19.3,0,0,1-2.232-.1,16.176,16.176,0,0,1,.072,2.088V-.84a17.043,17.043,0,0,1-.12,2.592h1.728a16.485,16.485,0,0,1-.144-2.592Zm0-1.224v-1.8h8.712v1.8Zm0-3V-8.376h8.712v1.824Zm-8.448-1.9a24.1,24.1,0,0,0,1.032-6.6l-1.32-.36a18.948,18.948,0,0,1-1.008,6.36ZM-435.792,1.8a18.79,18.79,0,0,1-.168-2.736V-17.592a14.971,14.971,0,0,1,.168-2.424h-1.848a15.589,15.589,0,0,1,.168,2.424V-.96a19.141,19.141,0,0,1-.168,2.76Zm2.448-14.9a25.4,25.4,0,0,0-1.2-3.168l-1.08.456a13.748,13.748,0,0,1,1.1,3.264Zm34.752,1.872a28.635,28.635,0,0,1-5.952,4.176,4.292,4.292,0,0,1,.864,1.128c.672-.408.84-.5,1.632-1.032V-.7a17.293,17.293,0,0,1-.144,2.376h1.536V.456h6.768V1.68h1.56A18.316,18.316,0,0,1-392.472-.7v-6.12a15.92,15.92,0,0,1,.1-2.112,17.532,17.532,0,0,1-2.232.1h-4.9a30.888,30.888,0,0,0,2.736-2.4h3.672a12.2,12.2,0,0,1,2.064.12v-1.536a11.5,11.5,0,0,1-2.088.12H-395.5a29.775,29.775,0,0,0,3.552-4.632c.36-.552.5-.768.744-1.08l-1.488-.84a12.727,12.727,0,0,1-1.56,2.928l-.264.384a28.214,28.214,0,0,1-2.736,3.24H-398.4v-3.12h1.92a10.721,10.721,0,0,1,1.608.1V-17.04a9.836,9.836,0,0,1-1.656.1H-398.4V-18.12a8.061,8.061,0,0,1,.144-1.92h-1.7a8.408,8.408,0,0,1,.144,1.944v1.152h-1.872a12.47,12.47,0,0,1-1.8-.1v1.488a13.051,13.051,0,0,1,1.824-.1h1.848v3.12h-2.424a11.691,11.691,0,0,1-2.064-.12v1.512a15.773,15.773,0,0,1,1.992-.1Zm-2.064,3.672h6.768v2.688h-6.768Zm0,3.936h6.768V-.816h-6.768Zm-11.856-4.488c.312-.048.552-.072.888-.1,2.424-.12,2.424-.12,3-.144v7.68a16.929,16.929,0,0,1-.144,2.4h1.68a13.5,13.5,0,0,1-.144-2.4v-7.8c1.056-.1,1.056-.1,2.136-.216.12.312.192.528.36,1.032l1.128-.528a30.535,30.535,0,0,0-1.92-4.152l-1.056.48a21.429,21.429,0,0,1,.984,1.968c-1.3.144-1.944.192-3.48.264a60.425,60.425,0,0,0,4.128-6.264,6.638,6.638,0,0,1,.6-.912l-1.416-.744a26.525,26.525,0,0,1-2.4,4.44c-.648-.768-.888-1.032-1.584-1.776.624-.984,1.272-2.088,1.752-3a13.407,13.407,0,0,1,.936-1.728l-1.464-.6a17.031,17.031,0,0,1-2.112,4.392c-.36-.36-.5-.48-1.008-.984l-.864,1.1a28.938,28.938,0,0,1,3.576,3.792c-.624.96-.648.984-1.656,2.352h-.792a10.53,10.53,0,0,1-1.344-.072Zm1.3,1.3a18.6,18.6,0,0,1-1.44,6.384l1.3.648a24.7,24.7,0,0,0,1.488-6.72Zm4.992.24a24.879,24.879,0,0,1,.96,5.232l1.3-.36a34.675,34.675,0,0,0-1.056-5.184Zm35.088-11.808a9.156,9.156,0,0,1,.168-1.944h-1.7a8.656,8.656,0,0,1,.144,1.944h-3.816v-.12a8.282,8.282,0,0,1,.168-1.824h-1.7a8.654,8.654,0,0,1,.144,1.944h-2.712a19.976,19.976,0,0,1-2.592-.12,13.3,13.3,0,0,1,.1,1.9v3.744a12.667,12.667,0,0,1-.1,1.9,20.849,20.849,0,0,1,2.544-.1h12.408a25.3,25.3,0,0,1,2.544.1,12.468,12.468,0,0,1-.1-1.9v-3.744a12.672,12.672,0,0,1,.1-1.9,20.149,20.149,0,0,1-2.616.12Zm-6.6,1.176v1.848H-381.5v-1.848Zm1.392,0h3.816v1.848h-3.816Zm5.208,0h4.056v1.848h-4.056Zm-6.6,2.952v2.064H-381.5v-2.064Zm1.392,0h3.816v2.064h-3.816Zm5.208,0h4.056v2.064h-4.056ZM-382.368-.048a20,20,0,0,1-2.64-.144V1.416a16.027,16.027,0,0,1,2.64-.168h16.128a14.85,14.85,0,0,1,2.52.168V-.192a17.831,17.831,0,0,1-2.52.144h-4.368a12.678,12.678,0,0,0,1.152-1.776l-1.416-.552a9.276,9.276,0,0,1-1.3,2.328h-4.248a13.634,13.634,0,0,0-1.416-2.328l-1.368.528a10.145,10.145,0,0,1,1.3,1.8Zm18.384-9.7a15.223,15.223,0,0,1-2.664.168h-15.5a14.191,14.191,0,0,1-2.568-.168v1.56a18.346,18.346,0,0,1,2.568-.144h15.5a19.644,19.644,0,0,1,2.664.144Zm-17.9,5.688a8.8,8.8,0,0,1-.12,1.656,25.582,25.582,0,0,1,2.736-.1h9.768c1.1,0,1.872.024,2.688.1a8.642,8.642,0,0,1-.12-1.656v-1.32a8.31,8.31,0,0,1,.12-1.68,22.433,22.433,0,0,1-2.736.12h-9.672a23.04,23.04,0,0,1-2.784-.12,8.6,8.6,0,0,1,.12,1.68Zm1.536-1.7h11.9v2.088h-11.9Zm23.88-5.784a13.735,13.735,0,0,1,1.392-.312c.216-.048,1.368-.24,3.432-.552a39.621,39.621,0,0,1-2.64,7.608,23.014,23.014,0,0,1-2.5,4.344l1.632.96c.744-1.344,1.248-2.3,1.56-2.88a45.279,45.279,0,0,0,3.624-10.176,13.78,13.78,0,0,1,1.728-.12c2.232,0,2.952.816,2.952,3.36A18.578,18.578,0,0,1-346.3-2.64q-.468,1.152-1.368,1.152a8.971,8.971,0,0,1-3.576-1.1,4.648,4.648,0,0,1,.072.96,5.223,5.223,0,0,1-.048.84,9.029,9.029,0,0,0,3.624.936A2.507,2.507,0,0,0-345.24-.984c.984-1.392,1.608-4.584,1.608-8.256,0-1.968-.336-3.072-1.176-3.864-.744-.72-1.752-1.008-3.456-1.008a13.987,13.987,0,0,0-1.416.072c.216-1.152.384-2.04.5-2.736a14.755,14.755,0,0,1,.456-2.3l-1.92-.216v.312a29.335,29.335,0,0,1-.72,5.088c-1.944.312-4.44.6-5.3.624Zm14.16-3.168a19.646,19.646,0,0,1,4.9,8.616l1.536-.888a21.7,21.7,0,0,0-5.016-8.5Zm19.032-4.752a24.692,24.692,0,0,1-.816,4.512c-.456,0-1.248.024-1.728.024a15.166,15.166,0,0,1-2.856-.192l-.024,1.656h.312c.072,0,.264,0,.528.024.36,0,1.176.024,1.584.024.36,0,1.176-.024,1.776-.048A35.939,35.939,0,0,1-327-7.272a21.188,21.188,0,0,1-2.3,3.744l1.632.96c.12-.192.264-.48.48-.816.912-1.584,1.128-1.992,1.7-3.144a44.715,44.715,0,0,0,2.664-7.008,28.974,28.974,0,0,0,3.936-.5c.576-.1.576-.1.84-.144l-.072-1.656a19.971,19.971,0,0,1-4.3.792c.336-1.224.48-1.8.648-2.616a7.516,7.516,0,0,1,.384-1.536Zm14.136,6.624a33.079,33.079,0,0,0-6.336-3.168l-.888,1.344a26.03,26.03,0,0,1,6.36,3.264Zm.048,10.632a2.429,2.429,0,0,1-.432-.384,17.24,17.24,0,0,0-4.7-2.9,28.633,28.633,0,0,1-.264-3.648,7.366,7.366,0,0,1,.312-2.232l-1.632-.168a9.717,9.717,0,0,0-.24,2.328c0,.6.048,1.728.168,3.288a7.921,7.921,0,0,0-2.424-.36,7.014,7.014,0,0,0-2.832.528,3.4,3.4,0,0,0-2.232,3.048c0,2.136,1.8,3.48,4.68,3.48,2.928,0,4.56-1.368,4.56-3.84a4.974,4.974,0,0,0-.048-.768,13.728,13.728,0,0,1,4.2,3.264Zm-6.672-2.184s.048.744.048,1.032c0,1.8-.936,2.616-3,2.616-1.9,0-3.048-.744-3.048-1.968,0-1.32,1.3-2.16,3.336-2.16A7.122,7.122,0,0,1-315.768-4.392Zm18.984-12.48a22.7,22.7,0,0,1-2.832-.12,24.335,24.335,0,0,1,.12,2.976V-1.272a19.611,19.611,0,0,1-.144,2.808h1.656V.12h12.672V1.536h1.68a15.43,15.43,0,0,1-.144-2.784V-14.016a23.154,23.154,0,0,1,.12-2.976,23.745,23.745,0,0,1-2.9.12h-5.784a25.472,25.472,0,0,0,1.368-3.048l-1.728-.312a12.8,12.8,0,0,1-1.3,3.36Zm-1.2,1.416h12.7v3.672h-12.7Zm0,5.064h12.7V-6.6h-12.7Zm0,5.184h12.7V-1.3h-12.7Zm25.68-6.168a9.734,9.734,0,0,1,2.472,2.112A15.228,15.228,0,0,1-274.68-6a3.346,3.346,0,0,1,.984,1.2A18.9,18.9,0,0,0-270.5-6.792a17.629,17.629,0,0,0,4.344-4.992A21.9,21.9,0,0,0-264-17.136l-.864-.768a13.727,13.727,0,0,1-1.824.1h-2.16c.1-.24.12-.336.192-.5a9.214,9.214,0,0,1,.528-1.32l-1.632-.312a7.947,7.947,0,0,1-.792,2.592,12.97,12.97,0,0,1-4.32,5.28,4.738,4.738,0,0,1,1.008,1.08,16.232,16.232,0,0,0,4.464-5.544h3.816a15.8,15.8,0,0,1-1.248,3.216,10.98,10.98,0,0,0-2.472-1.8l-.744,1.008a10.644,10.644,0,0,1,2.568,1.9,15.385,15.385,0,0,1-1.44,1.968,11.787,11.787,0,0,0-2.52-2.088Zm16.176-1.656a15.382,15.382,0,0,1,2.28.144V-14.52a15.98,15.98,0,0,1-2.352.144h-3.528a25.23,25.23,0,0,0,.24-3.384,8.06,8.06,0,0,1,.144-1.92h-1.776a10.521,10.521,0,0,1,.144,1.8,24.779,24.779,0,0,1-.192,3.5h-1.1a17.027,17.027,0,0,1-2.208-.12v1.584a14.507,14.507,0,0,1,2.208-.12h.84a10.885,10.885,0,0,1-1.128,2.88,9.3,9.3,0,0,1-4.416,3.864,4.628,4.628,0,0,1,1.008,1.2,11.219,11.219,0,0,0,3.936-3.288A11.838,11.838,0,0,0-260.28-11.9a13.784,13.784,0,0,0,6.072,7.056,4.267,4.267,0,0,1,.912-1.368,13.281,13.281,0,0,1-4.272-3.456,10.921,10.921,0,0,1-1.848-3.36Zm-2.4-5.472a12.11,12.11,0,0,1,2.448,3.024l1.1-.816a18.3,18.3,0,0,0-2.448-2.9ZM-273.264,1.92a14.231,14.231,0,0,0,3.36-5.688l-1.344-.648a9.94,9.94,0,0,1-1.224,2.784A11.26,11.26,0,0,1-274.56.888Zm7.872-.528A28.015,28.015,0,0,0-266.3-4.08l-1.392.216a24.489,24.489,0,0,1,.744,5.472Zm5.568-.432a27.972,27.972,0,0,0-1.92-5.232l-1.344.36a20.832,20.832,0,0,1,1.752,5.256Zm6.384-.192a27.512,27.512,0,0,0-3.648-5.28l-1.176.768a22.429,22.429,0,0,1,3.456,5.376Zm9.792-18.552a24.109,24.109,0,0,1,1.728,4.56c-.384.12-.624.168-1.224.384a26.339,26.339,0,0,1-3.528,1.128l.624,1.7a22.873,22.873,0,0,1,3.288-1.32,10.373,10.373,0,0,0,1.3-.432A85.35,85.35,0,0,1-238.44,1.2L-236.5.768a7.616,7.616,0,0,1-.312-1.032c-1.008-4.512-1.872-7.9-3.1-11.976a28.3,28.3,0,0,1,7.824-1.7c2.424,0,3.84,1.08,3.84,2.9a2.91,2.91,0,0,1-1.152,2.448,4.861,4.861,0,0,1-2.88.936,8.157,8.157,0,0,1-4.032-1.1,10.686,10.686,0,0,1,.144,1.368,3.45,3.45,0,0,1-.024.432,10.163,10.163,0,0,0,4.056.888c3.288,0,5.64-2.064,5.64-4.944,0-2.688-2.064-4.416-5.28-4.416a12.087,12.087,0,0,0-1.8.144c-.024-.288-.024-.744-.024-.768a22.647,22.647,0,0,1,.12-3.24h-1.8a33.267,33.267,0,0,1,.1,4.248,42.562,42.562,0,0,0-5.16,1.344c-.336-1.08-.576-1.752-1.056-3.168a9.646,9.646,0,0,1-.456-1.464Zm30.576-.72h-3.84a13.949,13.949,0,0,1-2.448-.168v1.536a16.925,16.925,0,0,1,2.424-.168h3.84a5.707,5.707,0,0,1-.072,1.176h1.608a7.038,7.038,0,0,1-.072-1.176h5.544a7.444,7.444,0,0,1-.072,1.176h1.608c-.048-.408-.072-.672-.1-1.176h4.032a13.578,13.578,0,0,1,2.424.192v-1.536a16.958,16.958,0,0,1-2.448.144h-4.008v-.24a7.854,7.854,0,0,1,.1-1.416h-1.632a8.087,8.087,0,0,1,.1,1.392v.264h-5.544v-.264a7.74,7.74,0,0,1,.1-1.392h-1.632a8.089,8.089,0,0,1,.1,1.392Zm2.016,8.88a8.361,8.361,0,0,1-.912,1.248H-217.1a17.191,17.191,0,0,1-2.448-.144v1.512a17.668,17.668,0,0,1,2.448-.144h3.864a16.611,16.611,0,0,1-6.5,3.336,3.293,3.293,0,0,1,.912,1.248,20.462,20.462,0,0,0,3.408-1.608v3.84a15.726,15.726,0,0,1-.144,2.064h1.512V.672H-203.3V1.728h1.536a14.919,14.919,0,0,1-.144-2.064V-4.248a20.264,20.264,0,0,0,3.456,1.392,8.13,8.13,0,0,1,.888-1.3,18.753,18.753,0,0,1-4.656-1.608,9.041,9.041,0,0,1-2.088-1.392h3.816a18.29,18.29,0,0,1,2.472.144V-8.52a17.8,17.8,0,0,1-2.472.144h-9.912a10.025,10.025,0,0,0,.84-1.248h6.48q1.008,0,1.944.072c-.048-.5-.072-1.008-.072-1.608v-2.9c0-.624.024-1.152.072-1.656a16.82,16.82,0,0,1-1.92.072h-11.424a17.113,17.113,0,0,1-1.92-.072,12.772,12.772,0,0,1,.1,1.656v2.9a12.047,12.047,0,0,1-.1,1.608c.624-.048,1.272-.072,1.92-.072Zm5.064,2.472a17.09,17.09,0,0,0,1.584,1.344h-8.64a14.309,14.309,0,0,0,1.536-1.344Zm-8.976-7.368h12.408v1.344h-12.408Zm0,2.4h12.408v1.392h-12.408Zm.912,7.464H-203.3V-3.12h-10.752Zm0,2.64H-203.3V-.5h-10.752ZM-185.568-17.4a26.73,26.73,0,0,0,3.672,1.512,37.018,37.018,0,0,0,4.68,1.368l.672-1.68a28.935,28.935,0,0,1-8.136-2.664Zm-1.992,2.592a8.073,8.073,0,0,1-.168,1.272c-.336,2.016-.768,4.8-1.008,6.624-.1.768-.12.984-.192,1.416l1.872.048a4.173,4.173,0,0,1,.96-.984,11.627,11.627,0,0,1,6.72-2.088c2.928,0,4.656,1.152,4.656,3.12,0,2.448-2.52,4.032-6.48,4.032a17.046,17.046,0,0,1-6.12-1.2,5.551,5.551,0,0,1,.168,1.488,3.783,3.783,0,0,1-.024.456c1.464.36,1.464.36,1.92.48a19.94,19.94,0,0,0,4.2.432A9.961,9.961,0,0,0-175.08-1.3a5.131,5.131,0,0,0,2.16-4.128c0-2.808-2.52-4.632-6.432-4.632a11.88,11.88,0,0,0-6.936,2.064,6.72,6.72,0,0,0-.744.72l-.048-.024a2.892,2.892,0,0,0,.1-.552c.072-.552.12-.72.7-4.2a20.086,20.086,0,0,1,.552-2.64Zm27.528-3.912a7.382,7.382,0,0,1,.1,1.272c0,.384,0,.84-.024,1.56-.192,7.56-.216,8.16-.216,9.768,0,2.52.336,3.792,1.32,4.92A5.692,5.692,0,0,0-154.344.48a8.4,8.4,0,0,0,6.768-3,14.6,14.6,0,0,0,2.664-5.448A6.789,6.789,0,0,1-146.64-9.12a14.258,14.258,0,0,1-1.176,3.768,6.893,6.893,0,0,1-6.432,4.176,4.53,4.53,0,0,1-3-.936,3.778,3.778,0,0,1-1.128-2.88c-.024-.552-.048-1.152-.048-1.44,0-1.08.072-4.344.168-7.224a37,37,0,0,1,.312-5.064Zm35.328,2.808a6.907,6.907,0,0,1,2.784.6A6.327,6.327,0,0,1-118.1-9.288a7.245,7.245,0,0,1-4.248,6.72A14.386,14.386,0,0,1-126.36-1.44a3.813,3.813,0,0,1,.84,1.608,18.566,18.566,0,0,0,3.648-1.1,8.739,8.739,0,0,0,5.5-8.28,8.034,8.034,0,0,0-2.328-5.856,9.291,9.291,0,0,0-6.6-2.376,10.024,10.024,0,0,0-7.752,3.192,9.984,9.984,0,0,0-2.52,6.624c0,3.36,1.7,5.856,3.984,5.856,1.728,0,3.144-1.44,4.536-4.608A35.976,35.976,0,0,0-124.7-15.912Zm-1.728.024a32.965,32.965,0,0,1-2.184,8.88c-1.032,2.352-1.992,3.48-3,3.48-1.3,0-2.3-1.776-2.3-4.08a8.3,8.3,0,0,1,3.912-7.152A7.58,7.58,0,0,1-126.432-15.888ZM-99.456-5.16v3.792c-1.752.192-4.368.36-5.232.36-.168,0-.456-.024-.672-.048l.312,1.608a8.048,8.048,0,0,1,1.056-.144A85.519,85.519,0,0,0-94.1-.864a18.961,18.961,0,0,1,.84,2.16L-91.9.72A36.2,36.2,0,0,0-94.368-4.3l-1.176.5a13.9,13.9,0,0,1,.96,1.776c-1.488.264-2.04.336-3.456.5V-5.16h2.568c.72,0,1.3.024,1.872.072a10.549,10.549,0,0,1-.1-1.776V-9.648a13.244,13.244,0,0,1,.1-1.92,15.593,15.593,0,0,1-2.16.1h-2.28v-2.544A36.985,36.985,0,0,0-93.1-14.88l-.936-1.32a6.772,6.772,0,0,1-2.28.624,39.567,39.567,0,0,1-7.944.672,5.292,5.292,0,0,1,.6,1.3c1.968-.048,2.784-.1,4.2-.24v2.376h-2.112a16.925,16.925,0,0,1-2.184-.1c.048.7.072,1.176.072,2.016v2.64a12.719,12.719,0,0,1-.1,1.872,17.357,17.357,0,0,1,2.184-.12Zm0-5.088v3.84h-2.856v-3.84Zm1.416,0h2.976v3.84H-98.04Zm-6.288-8.472a22.99,22.99,0,0,1-2.736-.144,23.747,23.747,0,0,1,.192,3.792c0,9.216-.576,12.6-2.712,15.744a4.812,4.812,0,0,1,1.3,1.224c2.208-3.432,2.928-7.344,2.928-16.056v-3.192h13.488v3.168a71.742,71.742,0,0,0,.528,10.392c.5,3.216,1.608,5.424,2.688,5.424A1.353,1.353,0,0,0-87.5.744a10.584,10.584,0,0,0,.816-3.552,6.147,6.147,0,0,1-1.2-1.176,23.56,23.56,0,0,1-.432,2.952c-.12.528-.192.7-.336.7-.216,0-.7-1.2-.984-2.544a51.74,51.74,0,0,1-.7-10.392,55.871,55.871,0,0,1,.168-5.592,20.187,20.187,0,0,1-2.712.144Zm32.52,6.36v1.416h-7.248a16.7,16.7,0,0,1-2.4-.144v1.512a17.17,17.17,0,0,1,2.4-.144H-62.5a16.7,16.7,0,0,1,2.4.144v-1.512a16.465,16.465,0,0,1-2.4.144h-7.872V-12.36h5.088c.984,0,1.776.024,2.5.1a14.654,14.654,0,0,1-.1-1.9v-3.192a14.186,14.186,0,0,1,.1-1.9c-.792.072-1.512.1-2.592.1H-76.32a25.048,25.048,0,0,1-2.616-.1,14.186,14.186,0,0,1,.1,1.9v3.192a14.418,14.418,0,0,1-.1,1.9c.888-.072,1.512-.1,2.592-.1Zm-5.616-5.592H-64.3v1.632H-77.424Zm0,2.76H-64.3v1.7H-77.424Zm5.9,11.3V-.36c0,.552-.192.672-.96.672a13.034,13.034,0,0,1-2.472-.24,5.227,5.227,0,0,1,.384,1.488c.816.072,1.416.1,1.992.1,2.064,0,2.568-.336,2.568-1.7v-3.84h4.032c1.152,0,1.7.024,2.568.1a10.535,10.535,0,0,1-.1-1.68v-1.2a11.85,11.85,0,0,1,.1-1.8,23.748,23.748,0,0,1-2.568.1h-9.648a23.748,23.748,0,0,1-2.568-.1,12.47,12.47,0,0,1,.1,1.8v1.08a12.469,12.469,0,0,1-.1,1.8,24.615,24.615,0,0,1,2.568-.1Zm6.552-3.288v2.088H-76.632V-7.176Zm-10.68,3.792A13,13,0,0,1-81.192.144a4.526,4.526,0,0,1,1.008,1.248,16.6,16.6,0,0,0,5.76-3.984ZM-67.3-2.5A18.8,18.8,0,0,0-61.44,1.512,5.5,5.5,0,0,1-60.432.192,15.126,15.126,0,0,1-66.216-3.36ZM-41.9-15.912a6.907,6.907,0,0,1,2.784.6A6.327,6.327,0,0,1-35.3-9.288a7.245,7.245,0,0,1-4.248,6.72A14.386,14.386,0,0,1-43.56-1.44,3.813,3.813,0,0,1-42.72.168a18.566,18.566,0,0,0,3.648-1.1,8.739,8.739,0,0,0,5.5-8.28A8.034,8.034,0,0,0-35.9-15.072a9.291,9.291,0,0,0-6.6-2.376,10.024,10.024,0,0,0-7.752,3.192,9.984,9.984,0,0,0-2.52,6.624c0,3.36,1.7,5.856,3.984,5.856,1.728,0,3.144-1.44,4.536-4.608A35.976,35.976,0,0,0-41.9-15.912Zm-1.728.024a32.964,32.964,0,0,1-2.184,8.88c-1.032,2.352-1.992,3.48-3,3.48-1.3,0-2.3-1.776-2.3-4.08a8.3,8.3,0,0,1,3.912-7.152A7.58,7.58,0,0,1-43.632-15.888Zm27.048.432h-6.672a13.123,13.123,0,0,1-1.8-.1,15.129,15.129,0,0,1,.12,1.9V-7.1a15.194,15.194,0,0,1-.144,2.136h1.728V-6.6h6.768v5.592a16.537,16.537,0,0,1-.168,2.736h1.92A13.55,13.55,0,0,1-15-1.008V-6.6h7.152v1.632H-6.12A15.193,15.193,0,0,1-6.264-7.1v-6.552a11.454,11.454,0,0,1,.12-1.9,12.833,12.833,0,0,1-1.824.1H-15v-2.112a14.315,14.315,0,0,1,.168-2.448h-1.92a13.828,13.828,0,0,1,.168,2.5Zm0,1.44V-8.04h-6.768v-5.976ZM-15-8.04v-5.976h7.152V-8.04ZM4.656-18.72A13.364,13.364,0,0,1,4.32-16.8,39.7,39.7,0,0,0,3.24-7.3,34.4,34.4,0,0,0,3.864-.5c.072.456.1.576.144.96L5.736.312v-.36a20.92,20.92,0,0,1,1.944-6.6L6.528-7.2a22.3,22.3,0,0,0-1.56,4.68c-.1-1.272-.144-2.688-.144-4.56a35.48,35.48,0,0,1,.72-7.512,34.1,34.1,0,0,1,1.008-3.84ZM9.6-14.184a31.967,31.967,0,0,0,3.84.24,40.516,40.516,0,0,0,5.16-.312q1.584-.216,1.656-.216l-.12-1.7a25.753,25.753,0,0,1-6.432.648,16.3,16.3,0,0,1-4.08-.36ZM11.352-9.5C9.864-7.8,9.264-6.5,9.264-5.04a3.392,3.392,0,0,0,.72,2.208c1.032,1.248,2.76,1.824,5.5,1.824a24.76,24.76,0,0,0,4.92-.48c.48-.072.528-.1.84-.12L21-3.456a15.8,15.8,0,0,1-5.52.84c-3.1,0-4.608-.864-4.608-2.64a5.576,5.576,0,0,1,1.8-3.528ZM28.7-3.648a23.953,23.953,0,0,1,4.728,5.232L34.776.312a24.455,24.455,0,0,0-4.824-5.088Zm46.536-10.8a18.16,18.16,0,0,1,2.688.144v-1.7a16.729,16.729,0,0,1-2.736.168H67.7v-1.9a10.139,10.139,0,0,1,.168-2.04h-1.92a10.554,10.554,0,0,1,.168,2.064v1.872H59.232a16.667,16.667,0,0,1-2.688-.168v1.7a19.162,19.162,0,0,1,2.664-.144h1.776a21.4,21.4,0,0,0,2.232,5.16,21.1,21.1,0,0,0,2.9,3.936A23.618,23.618,0,0,1,56.16-.024a4.657,4.657,0,0,1,1.008,1.488A25.806,25.806,0,0,0,67.224-4.272a24.961,24.961,0,0,0,9.96,5.76A4.585,4.585,0,0,1,78.24-.1,22.267,22.267,0,0,1,72.672-2.28a21.2,21.2,0,0,1-4.344-3.1,20.018,20.018,0,0,0,3.528-5.136,21.93,21.93,0,0,0,1.464-3.936Zm-3.672,0a18.683,18.683,0,0,1-4.344,8.016,20.313,20.313,0,0,1-2.616-3.432,18.041,18.041,0,0,1-1.968-4.584ZM95.976-8.592a38.312,38.312,0,0,0,7.56-5.256c1.128-1.032,1.128-1.032,1.464-1.32l-1.392-1.272a16.911,16.911,0,0,1-3.432,3.336,32.6,32.6,0,0,1-4.2,2.76v-6.792a18.727,18.727,0,0,1,.144-2.592H94.248a22.741,22.741,0,0,1,.144,2.592V-1.224c0,1.872.624,2.16,4.632,2.16,3.6,0,4.776-.216,5.376-1.008.5-.7.84-2.064,1.128-4.7a5.478,5.478,0,0,1-1.584-.744c-.192,2.592-.432,3.864-.816,4.392-.36.432-1.272.576-4.008.576-2.784,0-3.144-.12-3.144-.96ZM87.888-1.2a28.472,28.472,0,0,1-.168,2.976h1.872c-.1-.984-.144-1.968-.144-2.9V-13.7c.888-1.992,1.7-3.912,1.92-4.464.408-1.1.408-1.1.5-1.344l-1.776-.5a10.679,10.679,0,0,1-.816,2.88,22.462,22.462,0,0,1-5.424,8.088,8.722,8.722,0,0,1,1.032,1.392,19.323,19.323,0,0,0,3.048-4.032c-.048,1.272-.048,1.584-.048,2.928Zm27.264-16.584a24.109,24.109,0,0,1,1.728,4.56c-.384.12-.624.168-1.224.384a26.338,26.338,0,0,1-3.528,1.128l.624,1.7a22.874,22.874,0,0,1,3.288-1.32,10.372,10.372,0,0,0,1.3-.432A85.348,85.348,0,0,1,120.36,1.2L122.3.768a7.617,7.617,0,0,1-.312-1.032c-1.008-4.512-1.872-7.9-3.1-11.976a28.3,28.3,0,0,1,7.824-1.7c2.424,0,3.84,1.08,3.84,2.9a2.91,2.91,0,0,1-1.152,2.448,4.861,4.861,0,0,1-2.88.936,8.157,8.157,0,0,1-4.032-1.1,10.686,10.686,0,0,1,.144,1.368,3.451,3.451,0,0,1-.024.432,10.163,10.163,0,0,0,4.056.888c3.288,0,5.64-2.064,5.64-4.944,0-2.688-2.064-4.416-5.28-4.416a12.087,12.087,0,0,0-1.8.144c-.024-.288-.024-.744-.024-.768a22.645,22.645,0,0,1,.12-3.24h-1.8a33.264,33.264,0,0,1,.1,4.248,42.562,42.562,0,0,0-5.16,1.344c-.336-1.08-.576-1.752-1.056-3.168a9.645,9.645,0,0,1-.456-1.464ZM152.4-10.968h-3.024a13.8,13.8,0,0,1-2.136-.144v1.584c.576-.072.864-.1,1.44-.12a11.853,11.853,0,0,0,1.1,2.592,15.641,15.641,0,0,0,2.52,3.5,19.092,19.092,0,0,1-7.08,3.744,4.885,4.885,0,0,1,.888,1.44,22.152,22.152,0,0,0,7.224-4.152,22.7,22.7,0,0,0,6.792,4.272,6.432,6.432,0,0,1,.936-1.536A18.318,18.318,0,0,1,154.44-3.5a20.974,20.974,0,0,0,4.056-5.3,12.015,12.015,0,0,1,.744-1.344l-.816-.912a9.134,9.134,0,0,1-1.656.1h-2.9V-14.88h4.08a17.7,17.7,0,0,1,2.5.144v-1.656a17.933,17.933,0,0,1-2.5.144h-4.08v-1.2a14.391,14.391,0,0,1,.168-2.424h-1.8a15.174,15.174,0,0,1,.168,2.424v1.2h-2.88a19.915,19.915,0,0,1-2.52-.12v1.608a20.936,20.936,0,0,1,2.544-.12H152.4Zm4.872,1.32a16.079,16.079,0,0,1-3.888,5.16,12.97,12.97,0,0,1-3.216-5.16Zm-14.52-4.2v5.4A14.536,14.536,0,0,1,139.416-7.3l.48,1.632c.36-.192.6-.288.96-.456.7-.288,1.248-.5,1.9-.792V-.48c0,.552-.192.7-.936.7a15.558,15.558,0,0,1-2.208-.192,4.344,4.344,0,0,1,.36,1.512c.6.048,1.224.072,1.8.072,1.992,0,2.5-.336,2.5-1.7V-7.608c.864-.408.864-.408,2.328-1.128l-.024-1.488c-1.08.552-1.464.744-2.3,1.128v-4.752h.5a14.7,14.7,0,0,1,1.824.1v-1.56a10.165,10.165,0,0,1-1.776.12h-.552V-17.52a14.279,14.279,0,0,1,.168-2.4h-1.848a15.38,15.38,0,0,1,.168,2.424v2.3h-1.3a11.588,11.588,0,0,1-1.968-.144V-13.7a12.61,12.61,0,0,1,1.968-.144ZM178.128-15v-2.472a15.263,15.263,0,0,1,.144-2.256h-1.728a15.969,15.969,0,0,1,.144,2.256V-15h-1.536a11.829,11.829,0,0,1-2.088-.12v1.584a10.16,10.16,0,0,1,1.872-.12h1.752V-1.128a22.43,22.43,0,0,1-.144,2.688h1.728a21.326,21.326,0,0,1-.144-2.688V-13.656h1.56a10.161,10.161,0,0,1,1.872.12V-15.12A11.859,11.859,0,0,1,179.5-15Zm6.5,3V-.624c0,.432-.168.528-.792.528a14.785,14.785,0,0,1-2.88-.264,5.792,5.792,0,0,1,.312,1.56c.552.048,1.584.1,2.184.1a5.8,5.8,0,0,0,2.016-.264c.456-.192.672-.744.672-1.632V-12h.528a10.7,10.7,0,0,1,1.944.12v-1.608a10.541,10.541,0,0,1-1.944.12h-3.264a9.154,9.154,0,0,1-1.824-.12v1.608a9.452,9.452,0,0,1,1.824-.12Zm-13.608-7.992a13.473,13.473,0,0,1-4.416,4.8,3.5,3.5,0,0,1,.936,1.176,21.8,21.8,0,0,0,3.864-3.864c.72-.96.72-.96,1.032-1.32Zm2.568,8.4a24.274,24.274,0,0,1-1.872,9.7,6.84,6.84,0,0,1,1.3.768c1.1-2.688,1.68-5.64,1.968-10.32Zm5.736.288a42.159,42.159,0,0,1,1.8,8.952l1.416-.5a53.54,53.54,0,0,0-1.944-8.832Zm-.624-7.44A13.617,13.617,0,0,1,180.7-15.7l1.128-.744a18.072,18.072,0,0,0-2.016-2.928Zm9.48.36a12.011,12.011,0,0,1-1.8.12h-2.376a12.011,12.011,0,0,1-1.8-.12v1.608a12.924,12.924,0,0,1,1.776-.12h2.4a12.5,12.5,0,0,1,1.8.12ZM169.2-1.2a17.245,17.245,0,0,1-.144,2.832h1.752a16.748,16.748,0,0,1-.144-2.808v-9.816c.36-.48.96-1.368,1.224-1.8.264-.48.552-.912.792-1.3l-1.392-.888a9.777,9.777,0,0,1-1.056,2.136,15.53,15.53,0,0,1-3.864,4.176,5.016,5.016,0,0,1,.84,1.344A12.614,12.614,0,0,0,169.272-9.5c-.048,1.128-.072,1.848-.072,2.808Zm41.472-17.64a18.4,18.4,0,0,1,2.472,3.816l1.2-.72a18.22,18.22,0,0,0-2.472-3.72Zm-15.456,7.392a31.242,31.242,0,0,1,4.824-.864C198.96-7.776,196.9-2.976,194.9-.36l1.632.96a46.613,46.613,0,0,0,5.184-13.056,13.78,13.78,0,0,1,1.728-.12c2.232,0,2.952.816,2.952,3.36a18.578,18.578,0,0,1-1.008,6.672q-.468,1.152-1.368,1.152a8.971,8.971,0,0,1-3.576-1.1,4.428,4.428,0,0,1,.072.936,5.362,5.362,0,0,1-.048.864A9.029,9.029,0,0,0,204.1.24a2.507,2.507,0,0,0,2.352-1.128c.984-1.392,1.608-4.584,1.608-8.256,0-1.968-.336-3.072-1.176-3.864-.744-.72-1.752-1.008-3.456-1.008a13.987,13.987,0,0,0-1.416.072c.192-1.032.408-2.136.5-2.736a14.752,14.752,0,0,1,.456-2.3l-1.92-.216v.312a29.645,29.645,0,0,1-.72,5.088,49.233,49.233,0,0,1-5.3.624Zm18.192-8.664a17.382,17.382,0,0,1,2.448,3.768l1.2-.7a19.277,19.277,0,0,0-2.472-3.72Zm-4.032,5.472a20.267,20.267,0,0,1,4.9,8.616l1.536-.864a21.977,21.977,0,0,0-5.016-8.5Zm18.6-3.12a27.521,27.521,0,0,1-2.784-.1,24.056,24.056,0,0,1,.1,2.664v6.216a20.016,20.016,0,0,1-.1,2.592,26.233,26.233,0,0,1,2.712-.1h9.744a26.306,26.306,0,0,1,2.688.1,20.764,20.764,0,0,1-.1-2.592v-6.216a24.061,24.061,0,0,1,.1-2.664,27.521,27.521,0,0,1-2.784.1H232.32a14.83,14.83,0,0,0,1.176-2.112l-1.656-.384a9.732,9.732,0,0,1-1.128,2.5Zm-1.248,1.272H238.8v2.016H226.728Zm0,3.264H238.8v2.088H226.728Zm0,3.312H238.8v2.184H226.728ZM223.368.84A16.67,16.67,0,0,0,226.3-4.392l-1.32-.552a13.183,13.183,0,0,1-2.9,4.872Zm6.24-4.032a10.364,10.364,0,0,1,.144-2.112h-1.8a10.932,10.932,0,0,1,.144,2.112v2.4c0,1.848.6,2.136,4.656,2.136,3.216,0,4.632-.216,5.184-.792.432-.432.648-1.224.84-2.976A4.245,4.245,0,0,1,237.288-3c-.072,1.464-.24,2.256-.528,2.52-.336.36-1.344.48-3.888.48-3.048,0-3.264-.072-3.264-1.056ZM243.552-.144a31.209,31.209,0,0,0-3.36-5.04l-1.2.648A24.426,24.426,0,0,1,242.184.72Zm-8.088-2.784A23.664,23.664,0,0,0,232.32-6l-1.1.816a18.349,18.349,0,0,1,3.12,3.264Zm15.288-8.688a10.547,10.547,0,0,1,1.728-.576,38.122,38.122,0,0,1,9.792-1.7c3.264,0,5.256,1.632,5.256,4.32s-1.848,4.848-5.136,6.048a20.792,20.792,0,0,1-6.672,1.1,4.526,4.526,0,0,1,.744,1.8,20.684,20.684,0,0,0,7.944-1.848c3.216-1.56,4.992-4.08,4.992-7.08,0-3.672-2.784-6-7.176-6a32.063,32.063,0,0,0-6.96.888c-1.8.408-2.784.624-2.952.672-.552.12-.936.192-1.128.24-.36.048-.5.072-.912.1ZM265.9-18.84a18.367,18.367,0,0,1,2.448,3.816l1.224-.72a18.22,18.22,0,0,0-2.472-3.72Zm2.736-1.272a19.379,19.379,0,0,1,2.448,3.768l1.2-.7a18.342,18.342,0,0,0-2.5-3.72Zm22.224.768c-.84,1.32-3.84,4.128-7.032,6.576a18.543,18.543,0,0,0-2.04,1.632,2.324,2.324,0,0,0-.7,1.608c0,.816.384,1.344,1.728,2.4,3.5,2.736,4.464,3.528,6.072,5.016a22.656,22.656,0,0,1,3.1,3.288L293.5-.312a6.108,6.108,0,0,1-.672-.6,70.766,70.766,0,0,0-7.68-6.552c-1.944-1.512-2.136-1.68-2.136-2.112,0-.336.168-.528,1.056-1.2a69.913,69.913,0,0,0,5.52-4.536c2.5-2.4,2.688-2.568,2.952-2.784Zm23.808,5.352v3.72H312.1a12.56,12.56,0,0,1-2.184-.12V-8.88A13.254,13.254,0,0,1,312.1-9h2.568v4.392H311.04a16.108,16.108,0,0,1-2.376-.144v1.584a16.8,16.8,0,0,1,2.376-.144h9.144a16.681,16.681,0,0,1,2.352.144V-4.752a15.98,15.98,0,0,1-2.352.144h-4.032V-9H319.1a12.934,12.934,0,0,1,2.16.12v-1.512a12.417,12.417,0,0,1-2.16.12h-2.952v-3.72h3.7a15.26,15.26,0,0,1,2.328.12v-1.536a14.682,14.682,0,0,1-2.352.144h-8.472a11.656,11.656,0,0,1-2.256-.144v1.536a14.425,14.425,0,0,1,2.256-.12Zm3.384,6.024a13.217,13.217,0,0,1,2.136,2.976l1.128-.72a14.818,14.818,0,0,0-2.256-2.856Zm-12.336,6.5a23.258,23.258,0,0,1-.144,3.288h1.68V.36H323.9V1.824h1.68a23.5,23.5,0,0,1-.144-3.288V-16.08a25.482,25.482,0,0,1,.144-2.952,24.091,24.091,0,0,1-2.856.12H308.376a22.047,22.047,0,0,1-2.808-.12,27.622,27.622,0,0,1,.144,2.952Zm1.536-16.08H323.9V-1.008H307.248ZM332.3-3.648a23.954,23.954,0,0,1,4.728,5.232L338.376.312a24.454,24.454,0,0,0-4.824-5.088ZM363-1.08a18.445,18.445,0,0,1-.144,2.544h1.752V-.1h12.384v1.56h1.752A18.345,18.345,0,0,1,378.6-1.1V-16.488a15.092,15.092,0,0,1,.12-2.208,17.411,17.411,0,0,1-2.472.12h-10.8a19.581,19.581,0,0,1-2.568-.12,16.815,16.815,0,0,1,.12,2.352Zm1.608-16.032h12.384v6.72H364.608Zm0,8.184h12.384V-1.56H364.608Zm32.208-5.328A26.245,26.245,0,0,1,392.9-8.568,21.9,21.9,0,0,1,387.288-3.7a4.527,4.527,0,0,1,1.128,1.416,25.676,25.676,0,0,0,4.56-4.032,22.435,22.435,0,0,0,4.536-6.936c-.072,1.3-.1,2.208-.1,3.1V-4.7h-2.352a14.456,14.456,0,0,1-2.376-.12v1.68a13.47,13.47,0,0,1,2.424-.144h2.3v2.256a19.046,19.046,0,0,1-.168,2.784h1.9a17.856,17.856,0,0,1-.168-2.76v-2.28h2.568a13.205,13.205,0,0,1,2.376.144v-1.68a14.148,14.148,0,0,1-2.328.12h-2.616v-5.448c0-.792-.024-1.68-.1-3.12a22.843,22.843,0,0,0,4.488,6.744,27.238,27.238,0,0,0,4.992,4.2,6.357,6.357,0,0,1,1.1-1.56c-3.984-2.16-7.2-5.52-9.888-10.368h6.48a25.9,25.9,0,0,1,2.688.144v-1.752a15.715,15.715,0,0,1-2.688.168h-7.08V-17.76a12.9,12.9,0,0,1,.168-2.16h-1.9a13.6,13.6,0,0,1,.168,2.184v2.04H390.7a17.872,17.872,0,0,1-2.64-.168v1.752a23.677,23.677,0,0,1,2.64-.144Zm22.1,8.616a3.6,3.6,0,0,0-3.6,3.6,3.6,3.6,0,0,0,3.6,3.6,3.6,3.6,0,0,0,3.6-3.6A3.6,3.6,0,0,0,418.92-5.64Zm0,1.368a2.243,2.243,0,0,1,2.232,2.232A2.243,2.243,0,0,1,418.92.192a2.243,2.243,0,0,1-2.232-2.232A2.243,2.243,0,0,1,418.92-4.272ZM-418.992,42.792c-.5-.216-1.392-1.9-1.992-3.792a24.1,24.1,0,0,0,1.872-4.512c.336-1.08.36-1.176.48-1.488l-1.3-.648a19.284,19.284,0,0,1-1.512,4.9,34.436,34.436,0,0,1-.624-6.288h1.56a14.993,14.993,0,0,1,2.52.144V29.568a14.014,14.014,0,0,1-2.52.144h-1.608c-.024-1.68-.024-2.088-.024-3.936a13.921,13.921,0,0,1,.12-2.376H-423.6a7.014,7.014,0,0,1,.1,1.224c.048,3.792.048,3.792.1,5.088h-4.128v-2.4h1.224c.768,0,1.248.024,1.824.072V26.016a12,12,0,0,1-1.824.1h-1.224V25.44a10.447,10.447,0,0,1,.12-2.04h-1.56a10.182,10.182,0,0,1,.144,2.016v.7H-430.1a9.034,9.034,0,0,1-1.8-.12v1.392c.624-.048,1.1-.072,1.8-.072h1.272v2.4h-1.776a15.147,15.147,0,0,1-2.28-.12V31.08a11.794,11.794,0,0,1,1.992-.12h1.032V41.52a14.256,14.256,0,0,1-3.288.5l.336,1.56c.384-.12.6-.168,1.32-.336a54.5,54.5,0,0,0,7.44-2.088V39.912c-1.08.36-1.272.408-2.136.672V30.96h2.832a38.26,38.26,0,0,0,1.032,8.016,14.746,14.746,0,0,1-4.464,4.824,4.451,4.451,0,0,1,1.08,1.032,15.963,15.963,0,0,0,3.864-4.32c.96,2.544,2.064,4.056,3,4.056.336,0,.72-.36.936-.864a8.665,8.665,0,0,0,.624-2.928,4.791,4.791,0,0,1-1.152-.912,6.448,6.448,0,0,1-.528,2.928ZM-428.64,30.96h1.224v9.984c-.528.12-.528.12-1.224.312Zm-11.088,4.176a5.223,5.223,0,0,1,.984-.168c1.848-.168,1.848-.168,2.232-.192v7.416a18.4,18.4,0,0,1-.144,2.76h1.632a15.122,15.122,0,0,1-.144-2.76v-7.56c.96-.1.96-.1,1.416-.168.168.648.168.672.288,1.272l1.128-.5a30.672,30.672,0,0,0-1.488-4.2l-1.008.36c.384.936.5,1.272.744,1.968-.7.1-.7.1-2.928.24a59.985,59.985,0,0,0,3.408-5.328,15.2,15.2,0,0,1,.984-1.7l-1.344-.7a19.036,19.036,0,0,1-2.16,4.2,17.583,17.583,0,0,0-1.248-1.632,27.6,27.6,0,0,0,1.68-2.856,10,10,0,0,1,1.008-1.776l-1.488-.7a15.5,15.5,0,0,1-2.04,4.344c-.288-.336-.408-.48-.816-.936l-.768,1.128a29.814,29.814,0,0,1,2.952,3.6c-.648,1.056-.7,1.128-1.584,2.4-.432.024-.48.024-.552.024-.312,0-.552-.024-.936-.048Zm.984,1.056a21.054,21.054,0,0,1-1.08,6.216l1.2.576a24.5,24.5,0,0,0,1.08-6.528Zm4.3.12a27.375,27.375,0,0,1,.864,4.608l1.128-.336a33.739,33.739,0,0,0-.984-4.536Zm2.04-3.048a27.875,27.875,0,0,1,.792,6.1l1.152-.384a43,43,0,0,0-.84-6.048Zm7.464-.576a30.388,30.388,0,0,1-.864,6.024l1.032.24a41.122,41.122,0,0,0,1.032-5.9Zm6.288-4.416a28.505,28.505,0,0,0-1.824-3.744l-1.128.528a18.1,18.1,0,0,1,1.776,3.888Zm6.72,6.96a7.594,7.594,0,0,1,1.344-.144c.792-.048,1.488-.1,2.424-.168v7.656a16.694,16.694,0,0,1-.144,2.4h1.7a16.237,16.237,0,0,1-.144-2.4v-7.8c1.008-.1,1.224-.12,2.184-.264.144.5.216.744.384,1.512l1.224-.576a29.2,29.2,0,0,0-1.824-4.68l-1.128.528c.456.936.6,1.224.912,2.016-1.32.168-2.04.24-3.72.36,1.152-1.44,2.736-3.7,4.032-5.736.312-.5.5-.768.7-1.032l-1.416-.768a21.543,21.543,0,0,1-2.376,4.176c-.7-.84-.72-.888-1.44-1.7a43.077,43.077,0,0,0,2.16-3.768,10.481,10.481,0,0,1,.6-1.08l-1.512-.6a16.1,16.1,0,0,1-2.136,4.488c-.432-.456-.5-.528-1.08-1.1l-.864,1.128a33.825,33.825,0,0,1,3.48,3.792c-.576.84-.888,1.248-1.68,2.28-.624.024-.768.024-.96.024a5.7,5.7,0,0,1-.936-.072Zm1.056,1.2a16.469,16.469,0,0,1-1.3,6.384l1.32.648c.768-2.064.96-3.024,1.344-6.792Zm5.064.216a23.875,23.875,0,0,1,1.176,5.736l1.32-.36a33.076,33.076,0,0,0-1.272-5.76Zm3.24,5.544a20.775,20.775,0,0,1-.144,2.64h1.584v-1.56h8.352v1.536h1.584a20.922,20.922,0,0,1-.144-2.664V27.264a26.683,26.683,0,0,1,.1-2.76,18.356,18.356,0,0,1-2.424.1H-400.3a19.424,19.424,0,0,1-2.376-.1c.072.72.1,1.536.1,2.664Zm1.416-16.2h3.36v6.984h-3.36Zm4.752,0h3.648V33h-3.648Zm-4.752,8.328h3.36v7.608h-3.36Zm4.752.024h3.648v7.584h-3.648Zm18.648-10.608a24.692,24.692,0,0,1-.816,4.512c-.456,0-1.248.024-1.728.024a15.166,15.166,0,0,1-2.856-.192l-.024,1.656h.312c.072,0,.264,0,.528.024.36,0,1.176.024,1.584.024.36,0,1.176-.024,1.776-.048a35.939,35.939,0,0,1-2.5,6.192,21.188,21.188,0,0,1-2.3,3.744l1.632.96c.12-.192.264-.48.48-.816.912-1.584,1.128-1.992,1.7-3.144a44.715,44.715,0,0,0,2.664-7.008,28.974,28.974,0,0,0,3.936-.5c.576-.1.576-.1.84-.144l-.072-1.656a19.971,19.971,0,0,1-4.3.792c.336-1.224.48-1.8.648-2.616A7.516,7.516,0,0,1-375.864,24Zm14.136,6.624a33.079,33.079,0,0,0-6.336-3.168l-.888,1.344a26.03,26.03,0,0,1,6.36,3.264Zm.048,10.632a2.429,2.429,0,0,1-.432-.384,17.239,17.239,0,0,0-4.7-2.9,28.633,28.633,0,0,1-.264-3.648,7.366,7.366,0,0,1,.312-2.232l-1.632-.168a9.717,9.717,0,0,0-.24,2.328c0,.6.048,1.728.168,3.288a7.921,7.921,0,0,0-2.424-.36,7.014,7.014,0,0,0-2.832.528,3.4,3.4,0,0,0-2.232,3.048c0,2.136,1.8,3.48,4.68,3.48,2.928,0,4.56-1.368,4.56-3.84a4.974,4.974,0,0,0-.048-.768,13.728,13.728,0,0,1,4.2,3.264Zm-6.672-2.184s.048.744.048,1.032c0,1.8-.936,2.616-3,2.616-1.9,0-3.048-.744-3.048-1.968,0-1.32,1.3-2.16,3.336-2.16A7.122,7.122,0,0,1-370.248,38.808Zm16.368,3.312a18.445,18.445,0,0,1-.144,2.544h1.752V43.1h12.384v1.56h1.752a18.345,18.345,0,0,1-.144-2.568V26.712a15.092,15.092,0,0,1,.12-2.208,17.411,17.411,0,0,1-2.472.12h-10.8A19.581,19.581,0,0,1-354,24.5a16.815,16.815,0,0,1,.12,2.352Zm1.608-16.032h12.384v6.72h-12.384Zm0,8.184h12.384V41.64h-12.384Zm32.208-5.328a26.245,26.245,0,0,1-3.912,5.688,21.9,21.9,0,0,1-5.616,4.872,4.527,4.527,0,0,1,1.128,1.416,25.676,25.676,0,0,0,4.56-4.032,22.435,22.435,0,0,0,4.536-6.936c-.072,1.3-.1,2.208-.1,3.1V38.5h-2.352a14.456,14.456,0,0,1-2.376-.12v1.68a13.471,13.471,0,0,1,2.424-.144h2.3v2.256a19.046,19.046,0,0,1-.168,2.784h1.9a17.856,17.856,0,0,1-.168-2.76v-2.28h2.568a13.205,13.205,0,0,1,2.376.144v-1.68a14.148,14.148,0,0,1-2.328.12H-317.9V33.048c0-.792-.024-1.68-.1-3.12a22.843,22.843,0,0,0,4.488,6.744,27.238,27.238,0,0,0,4.992,4.2,6.357,6.357,0,0,1,1.1-1.56c-3.984-2.16-7.2-5.52-9.888-10.368h6.48a25.9,25.9,0,0,1,2.688.144V27.336a15.715,15.715,0,0,1-2.688.168h-7.08V25.44a12.9,12.9,0,0,1,.168-2.16h-1.9a13.6,13.6,0,0,1,.168,2.184V27.5h-6.72a17.872,17.872,0,0,1-2.64-.168v1.752a23.677,23.677,0,0,1,2.64-.144Zm30.48-1.656a6.907,6.907,0,0,1,2.784.6,6.327,6.327,0,0,1,3.816,6.024,7.245,7.245,0,0,1-4.248,6.72,14.387,14.387,0,0,1-4.008,1.128,3.814,3.814,0,0,1,.84,1.608,18.566,18.566,0,0,0,3.648-1.1,8.739,8.739,0,0,0,5.5-8.28,8.034,8.034,0,0,0-2.328-5.856,9.291,9.291,0,0,0-6.6-2.376,10.024,10.024,0,0,0-7.752,3.192,9.984,9.984,0,0,0-2.52,6.624c0,3.36,1.7,5.856,3.984,5.856,1.728,0,3.144-1.44,4.536-4.608A35.976,35.976,0,0,0-289.584,27.288Zm-1.728.024a32.963,32.963,0,0,1-2.184,8.88c-1.032,2.352-1.992,3.48-3,3.48-1.3,0-2.3-1.776-2.3-4.08a8.3,8.3,0,0,1,3.912-7.152A7.58,7.58,0,0,1-291.312,27.312ZM-255.72,38.16a18.043,18.043,0,0,1,2.472.144V36.7a16.014,16.014,0,0,1-2.4.144h-7.344a11.491,11.491,0,0,0,.216-1.32,3.764,3.764,0,0,1,.072-.576l-1.728-.024a5.563,5.563,0,0,1,.048.576,7.346,7.346,0,0,1-.144,1.344h-6.36a16.7,16.7,0,0,1-2.4-.144V38.3a17.913,17.913,0,0,1,2.448-.144h5.88a7.014,7.014,0,0,1-2.664,3.048,14.309,14.309,0,0,1-6.192,2.16,5.023,5.023,0,0,1,.744,1.536,16.974,16.974,0,0,0,5.952-2.232A9.366,9.366,0,0,0-263.5,38.52a11.168,11.168,0,0,0,3.528,3.84,17.7,17.7,0,0,0,6.5,2.592,5.171,5.171,0,0,1,.744-1.632,14.953,14.953,0,0,1-5.664-1.728,9.9,9.9,0,0,1-3.768-3.432Zm-14.5-12.072a16.7,16.7,0,0,1-2.4-.144v1.584a16.7,16.7,0,0,1,2.4-.144h6.048v2.16h-5.28a12.2,12.2,0,0,1-2.064-.12V30.96a12.2,12.2,0,0,1,2.064-.12h5.28v2.328h-7.056a16.014,16.014,0,0,1-2.4-.144v1.608a16.931,16.931,0,0,1,2.4-.144h15.864a17.132,17.132,0,0,1,2.4.12V33.024a16.238,16.238,0,0,1-2.4.144h-7.32V30.84h5.544a12.2,12.2,0,0,1,2.064.12V29.424a12.372,12.372,0,0,1-2.064.12h-5.544v-2.16h6.312a16.465,16.465,0,0,1,2.4.144V25.944a16.237,16.237,0,0,1-2.4.144h-3.6a18.549,18.549,0,0,0,1.7-2.256l-1.488-.552a12.113,12.113,0,0,1-1.848,2.808h-3.6a19.219,19.219,0,0,0-2.04-2.9l-1.344.624a12.911,12.911,0,0,1,1.752,2.28Zm28.1-1.608a7.382,7.382,0,0,1,.1,1.272c0,.384,0,.84-.024,1.56-.192,7.56-.216,8.16-.216,9.768,0,2.52.336,3.792,1.32,4.92a5.692,5.692,0,0,0,4.512,1.68,8.4,8.4,0,0,0,6.768-3,14.6,14.6,0,0,0,2.664-5.448,6.789,6.789,0,0,1-1.728-1.152,14.257,14.257,0,0,1-1.176,3.768,6.893,6.893,0,0,1-6.432,4.176,4.53,4.53,0,0,1-3-.936,3.778,3.778,0,0,1-1.128-2.88c-.024-.552-.048-1.152-.048-1.44,0-1.08.072-4.344.168-7.224a37,37,0,0,1,.312-5.064Zm25.656,6.024a5.3,5.3,0,0,1,.936-.072,70.667,70.667,0,0,0,8.544-.624c.144.24.144.288.408.792a29.265,29.265,0,0,0,2.88,4.7,11.984,11.984,0,0,0-4.968-.864,10.2,10.2,0,0,0-4.656.888,4.486,4.486,0,0,0-2.712,3.912,3.871,3.871,0,0,0,1.08,2.64c1.1,1.152,3.312,1.8,6.24,1.8a19.9,19.9,0,0,0,7.056-1.3l-.264-1.848a15.823,15.823,0,0,1-6.816,1.536,8.129,8.129,0,0,1-4.68-1.1,2.4,2.4,0,0,1-.912-1.872,2.726,2.726,0,0,1,1.3-2.232,8.508,8.508,0,0,1,4.56-1.008,13.005,13.005,0,0,1,4.2.624,4.8,4.8,0,0,1,1.656.984l1.608-.912a44.446,44.446,0,0,1-4.32-6.984c.24-.048.24-.048.816-.168,1.512-.288,1.8-.36,3.24-.744.72-.192.912-.24,1.416-.336l-.24-1.7a28.088,28.088,0,0,1-5.808,1.512,19.743,19.743,0,0,1-.864-2.112,7.65,7.65,0,0,1-.7-2.16l-1.9.264c.216.432.36.768.624,1.392.432,1.08.816,2.04,1.176,2.856a56.019,56.019,0,0,1-7.152.5,10.522,10.522,0,0,1-1.848-.12Zm32.784.312h.1a1.1,1.1,0,0,1,.24.024,3.574,3.574,0,0,1,.408.024,6.294,6.294,0,0,1,.768.048c.84.048,1.728.072,2.712.072.912,0,1.656-.024,2.736-.072.072,3.5.168,5.76.24,6.264a6.78,6.78,0,0,0-2.664-.48c-2.664,0-4.56,1.416-4.56,3.408,0,2.088,1.752,3.408,4.536,3.408,1.968,0,3.432-.744,4.008-2.016a4.137,4.137,0,0,0,.288-1.632,3.443,3.443,0,0,0-.048-.624,1.683,1.683,0,0,1,.216.144,1.54,1.54,0,0,0,.24.144,12.969,12.969,0,0,1,3.408,2.5l.744-1.68c-.264-.168-.312-.216-.6-.408a17.372,17.372,0,0,0-4.008-2.352c-.192-3.192-.24-4.416-.264-6.792a22.943,22.943,0,0,0,2.544-.384c1.632-.336,1.632-.336,1.68-.336l-.072-1.632a16.357,16.357,0,0,1-4.152.888c-.024-.528-.024-.912-.024-1.176a24.556,24.556,0,0,1,.168-3.768h-1.8a5.323,5.323,0,0,1,.072.984c0,1.824,0,1.824.024,4.08-.984.048-1.632.072-2.568.072a16.613,16.613,0,0,1-4.32-.384Zm7.224,7.824s.024.552.024.72a2.8,2.8,0,0,1-.456,1.872,3.308,3.308,0,0,1-2.448.84c-1.68,0-2.784-.768-2.784-1.944,0-1.2,1.224-1.992,3.1-1.992A6.2,6.2,0,0,1-176.448,38.64ZM-187.92,24.36a11.056,11.056,0,0,1-.264,1.512,40.665,40.665,0,0,0-1.248,9.864,38.2,38.2,0,0,0,.672,7.128c.1.552.12.672.144.888l1.7-.168a2.615,2.615,0,0,1-.048-.48,20.725,20.725,0,0,1,2.064-6.816l-1.176-.552a3.311,3.311,0,0,1-.192.48,21.3,21.3,0,0,0-1.416,4.224l-.1-.024V39.96c-.024-.432-.024-.48-.024-.672-.048-1.1-.1-2.52-.1-3.36a34.2,34.2,0,0,1,1.848-11.256Zm24.144,15.192a23.953,23.953,0,0,1,4.728,5.232l1.344-1.272a24.455,24.455,0,0,0-4.824-5.088Zm30.7,2.568a18.448,18.448,0,0,1-.144,2.544h1.752V43.1h12.384v1.56h1.752a18.346,18.346,0,0,1-.144-2.568V26.712a15.094,15.094,0,0,1,.12-2.208,17.411,17.411,0,0,1-2.472.12h-10.8a19.581,19.581,0,0,1-2.568-.12,16.817,16.817,0,0,1,.12,2.352Zm1.608-16.032h12.384v6.72h-12.384Zm0,8.184h12.384V41.64h-12.384Zm32.208-5.328a26.245,26.245,0,0,1-3.912,5.688,21.9,21.9,0,0,1-5.616,4.872,4.527,4.527,0,0,1,1.128,1.416,25.677,25.677,0,0,0,4.56-4.032,22.435,22.435,0,0,0,4.536-6.936c-.072,1.3-.1,2.208-.1,3.1V38.5h-2.352a14.456,14.456,0,0,1-2.376-.12v1.68a13.47,13.47,0,0,1,2.424-.144h2.3v2.256a19.045,19.045,0,0,1-.168,2.784h1.9a17.855,17.855,0,0,1-.168-2.76v-2.28h2.568a13.205,13.205,0,0,1,2.376.144v-1.68a14.148,14.148,0,0,1-2.328.12H-97.1V33.048c0-.792-.024-1.68-.1-3.12a22.843,22.843,0,0,0,4.488,6.744,27.238,27.238,0,0,0,4.992,4.2,6.357,6.357,0,0,1,1.1-1.56c-3.984-2.16-7.2-5.52-9.888-10.368h6.48a25.9,25.9,0,0,1,2.688.144V27.336a15.715,15.715,0,0,1-2.688.168H-97.1V25.44a12.9,12.9,0,0,1,.168-2.16h-1.9a13.6,13.6,0,0,1,.168,2.184V27.5h-6.72a17.872,17.872,0,0,1-2.64-.168v1.752a23.678,23.678,0,0,1,2.64-.144Zm19.464.264a79.9,79.9,0,0,1,8.28-.792,49.118,49.118,0,0,0,5.28-.528,15.711,15.711,0,0,0-2.28,1.272c-2.856,1.944-4.488,4.584-4.488,7.368a5.811,5.811,0,0,0,2.664,4.9,12.106,12.106,0,0,0,5.184,1.848c.432.072.48.1.744.144l.312-1.944h-.24a12.3,12.3,0,0,1-3.6-.768,4.706,4.706,0,0,1-3.36-4.44,7.336,7.336,0,0,1,2.952-5.544,11.8,11.8,0,0,1,4.608-2.4,10.066,10.066,0,0,1,2.688-.336l-.144-1.776a16.209,16.209,0,0,1-2.856.264l-1.368.048c-.792.024-1.1.048-4.056.216l-3.768.24c-2.952.168-3.1.192-4.44.288-.744.048-1.032.072-1.368.072-.168,0-.408,0-.864-.024Zm14.736,2.3a16.878,16.878,0,0,1,2.448,3.816l1.224-.72a18.22,18.22,0,0,0-2.472-3.72Zm2.736-1.3a18.992,18.992,0,0,1,2.448,3.768l1.2-.672a19.449,19.449,0,0,0-2.472-3.744Zm26.808,2.52a18.861,18.861,0,0,1,2.76.12V31.08a15.756,15.756,0,0,1-2.784.144h-14.04a15.922,15.922,0,0,1-2.784-.144v1.776a18.861,18.861,0,0,1,2.76-.12h6.5c-.192,5.472-2.064,8.04-7.032,9.7a4.2,4.2,0,0,1,1.128,1.56c5.424-2.112,7.44-5.04,7.728-11.256Zm-14.424-5.784a16.72,16.72,0,0,1,2.736-.12h7.3q2.268.036,2.736.072V25.176a21.677,21.677,0,0,1-2.76.12h-7.248a12.463,12.463,0,0,1-2.76-.168Zm12.864-3.264a18.288,18.288,0,0,1,2.328,3.888l1.224-.672a18.676,18.676,0,0,0-2.352-3.792Zm2.952-.888A18.8,18.8,0,0,1-31.8,26.664l1.224-.672A19.976,19.976,0,0,0-32.928,22.2Zm15.36,6.48V26.424a12.786,12.786,0,0,1,.1-1.944h-1.944a11.721,11.721,0,0,1,.1,2.016V29.28h-1.992a16.407,16.407,0,0,1-2.808-.144V30.96a19.247,19.247,0,0,1,2.784-.12h2.016v3.936a11.536,11.536,0,0,1-.1,2.016h1.944a12.585,12.585,0,0,1-.1-1.944V30.84h7.3c-.048,3.84-.192,5.28-.72,6.72-.96,2.424-3.384,4.3-6.528,5.088a4.3,4.3,0,0,1,1.08,1.512c3.24-1.1,5.4-2.784,6.7-5.184.888-1.728,1.152-3.5,1.176-8.136h2.112a19.247,19.247,0,0,1,2.784.12V29.136a16.407,16.407,0,0,1-2.808.144H-9.744V26.76a18.333,18.333,0,0,1,.1-2.28H-11.52a16.783,16.783,0,0,1,.072,2.448V29.28Zm10.032-5.952a18.531,18.531,0,0,1,1.7,4.008L-5.76,26.9a19.07,19.07,0,0,0-1.7-3.936Zm2.808-.744a19.166,19.166,0,0,1,1.68,3.936L-3,26.088a18.6,18.6,0,0,0-1.7-3.912Zm24,1.56a20.146,20.146,0,0,1-4.584,4.536A33.794,33.794,0,0,1,1.032,34.9,5.557,5.557,0,0,1,1.968,36.5a37.518,37.518,0,0,0,9.264-4.2v9.12a12.509,12.509,0,0,1-.144,2.5h2.088a15.944,15.944,0,0,1-.12-2.544V31.152a42.269,42.269,0,0,0,5.616-4.824,5.433,5.433,0,0,1,1.056-1.008Zm12.552,3.384a26.5,26.5,0,0,1,5.712,4.7l1.248-1.488A31.265,31.265,0,0,0,31.8,26.232Zm.168,15.6a12.61,12.61,0,0,1,1.44-.384,24.2,24.2,0,0,0,8.952-3.576A21.05,21.05,0,0,0,48.5,30a4.807,4.807,0,0,1-1.464-1.416,18.135,18.135,0,0,1-9.792,10.68,20.889,20.889,0,0,1-6.984,1.848ZM58.1,30.5a5.3,5.3,0,0,1,.936-.072,70.667,70.667,0,0,0,8.544-.624c.144.24.144.288.408.792a29.265,29.265,0,0,0,2.88,4.7A11.984,11.984,0,0,0,65.9,34.44a10.2,10.2,0,0,0-4.656.888,4.486,4.486,0,0,0-2.712,3.912,3.871,3.871,0,0,0,1.08,2.64c1.1,1.152,3.312,1.8,6.24,1.8a19.9,19.9,0,0,0,7.056-1.3l-.264-1.848a15.823,15.823,0,0,1-6.816,1.536,8.129,8.129,0,0,1-4.68-1.1A2.4,2.4,0,0,1,60.24,39.1a2.726,2.726,0,0,1,1.3-2.232,8.508,8.508,0,0,1,4.56-1.008,13.005,13.005,0,0,1,4.2.624,4.8,4.8,0,0,1,1.656.984l1.608-.912a44.445,44.445,0,0,1-4.32-6.984c.24-.048.24-.048.816-.168,1.512-.288,1.8-.36,3.24-.744.72-.192.912-.24,1.416-.336l-.24-1.7a28.088,28.088,0,0,1-5.808,1.512,19.745,19.745,0,0,1-.864-2.112,7.65,7.65,0,0,1-.7-2.16l-1.9.264c.216.432.36.768.624,1.392.432,1.08.816,2.04,1.176,2.856a56.019,56.019,0,0,1-7.152.5,10.522,10.522,0,0,1-1.848-.12Zm26.616,9.72a5.086,5.086,0,0,1,.624-.768c.408-.456.744-.84,1.008-1.128.816-.912.816-.912,1.176-1.32a2.666,2.666,0,0,0,.432-.576h.048c-.072,1.08-.072,1.08-.072,3.888a20.521,20.521,0,0,1-.168,3.96H89.64a37.214,37.214,0,0,1-.072-3.984V35.112a38.917,38.917,0,0,1,4.632-4.08A6.832,6.832,0,0,1,97.824,29.4a1.216,1.216,0,0,1,1.32,1.3,17.99,17.99,0,0,1-.6,3.6c-.864,4.1-.912,4.368-.912,5.592a2.763,2.763,0,0,0,2.808,3.24,4.132,4.132,0,0,0,3.312-1.728,11.846,11.846,0,0,0,1.488-2.376,7.9,7.9,0,0,1-1.1-1.632,9.876,9.876,0,0,1-1.368,2.76,2.894,2.894,0,0,1-2.04,1.32c-.936,0-1.44-.6-1.44-1.7,0-.984.144-1.824,1.032-5.688a16.03,16.03,0,0,0,.552-3.5,2.609,2.609,0,0,0-2.808-2.808c-1.44,0-3.24.888-5.424,2.64a17.132,17.132,0,0,0-3.048,2.808l-.048-.024c0-.144.024-.192.024-.384a1.225,1.225,0,0,0,.024-.216c.024-1.128.024-1.128.048-1.608a4.09,4.09,0,0,0,.024-.6A8.271,8.271,0,0,1,90.888,28.9l-.624-.744a1.567,1.567,0,0,1-.48.12A27.938,27.938,0,0,1,90.072,24l-1.9-.024a9.769,9.769,0,0,1,.072,1.2c0,.312-.024,1.392-.1,3.216-2.016.12-3.072.192-3.144.192a4.856,4.856,0,0,1-.744-.048l.1,1.656a24.456,24.456,0,0,1,3.768-.336c-.072,2.112-.12,3.624-.144,4.584A36.854,36.854,0,0,1,83.76,38.5Zm26.064-.672a23.953,23.953,0,0,1,4.728,5.232l1.344-1.272a24.455,24.455,0,0,0-4.824-5.088Zm39.24,4.9a12.459,12.459,0,0,1-.1-2.088V36.408a5.592,5.592,0,0,0-.1-1.224,6.71,6.71,0,0,0,.7.36,49.811,49.811,0,0,1,7.92,4.2l.984-1.584a52.319,52.319,0,0,0-8.784-4.176,26.484,26.484,0,0,0,5.568-4.968,4.108,4.108,0,0,1,.648-.648l-.888-1.056a2.555,2.555,0,0,1-1.056.168h-5.04V25.272a7.456,7.456,0,0,1,.12-1.584h-1.92a9.7,9.7,0,0,1,.1,1.632v2.16h-4.464a12.176,12.176,0,0,1-2.328-.168v1.8a20.062,20.062,0,0,1,2.328-.1l9.168-.048c.36,0,.744-.024,1.368-.072a26.886,26.886,0,0,1-8.064,5.928,32.6,32.6,0,0,1-6.936,2.472,5.041,5.041,0,0,1,.888,1.584,31.765,31.765,0,0,0,8.112-3.5.984.984,0,0,0-.024.264v6.768a12.106,12.106,0,0,1-.144,2.04Zm20.04-18.168a25.907,25.907,0,0,1,5.9,3.192l.984-1.608A37.386,37.386,0,0,0,171,24.84Zm-1.9,5.76a26.5,26.5,0,0,1,6.12,3.288l.936-1.632a38.4,38.4,0,0,0-6.1-3.12Zm.816,11.472a7.348,7.348,0,0,1,.936-.24c8.64-1.632,13.584-5.4,16.608-12.672a7.386,7.386,0,0,1-1.488-1.3,17.155,17.155,0,0,1-10.08,10.752,21.791,21.791,0,0,1-6.312,1.488H168.5ZM182.376,24.36a19.406,19.406,0,0,1,2.448,3.816l1.2-.72a19.131,19.131,0,0,0-2.448-3.72Zm2.712-1.272a18.474,18.474,0,0,1,2.472,3.768l1.2-.7a18.343,18.343,0,0,0-2.5-3.72Zm10.464,4.584.7-.072a21.53,21.53,0,0,0,5.352-.72,10.644,10.644,0,0,0-2.16,2.136,12.83,12.83,0,0,0-3.192,7.992c0,3.936,2.616,6.672,6.384,6.672a6.878,6.878,0,0,0,6.432-4.176,12.486,12.486,0,0,0,.936-4.92,15.368,15.368,0,0,0-.96-5.448l.48.84c.24.456.432.768.816,1.392a15.374,15.374,0,0,0,3.048,3.5c.552.48.552.48.984.888l.912-1.68a2.531,2.531,0,0,1-.888-.576,15.971,15.971,0,0,1-3.456-3.744,18.552,18.552,0,0,1-2.256-4.368l-1.728.576A19.87,19.87,0,0,1,208.44,33.7a12.37,12.37,0,0,1-.864,5.016A5.455,5.455,0,0,1,202.632,42a4.694,4.694,0,0,1-4.728-4.968c0-2.448,1.1-5.04,3.288-7.68A11.938,11.938,0,0,1,204,26.784l-1.008-1.512a20.407,20.407,0,0,1-6.336.768,5.344,5.344,0,0,1-1.128-.1ZM227.52,24.36a8.029,8.029,0,0,1,.408,1.512,48.888,48.888,0,0,0,1.752,6.72,14.945,14.945,0,0,0-3.144,1.944,5.192,5.192,0,0,0-2.136,4.08,3.985,3.985,0,0,0,2.976,3.936,16.327,16.327,0,0,0,5.328.648,48.144,48.144,0,0,0,5.3-.312,12.439,12.439,0,0,1,1.776-.144l-.192-1.992a23.829,23.829,0,0,1-6.864.816c-4.7,0-6.552-.84-6.552-3.024,0-1.992,1.776-3.576,5.88-5.208a55.2,55.2,0,0,1,7.224-2.328l-.72-1.824a12.978,12.978,0,0,1-1.536.624c-3.72,1.3-4.392,1.56-5.808,2.136a41.744,41.744,0,0,1-1.8-7.944Zm22.728,7.056a10.547,10.547,0,0,1,1.728-.576,38.122,38.122,0,0,1,9.792-1.7c3.264,0,5.256,1.632,5.256,4.32s-1.848,4.848-5.136,6.048a21.475,21.475,0,0,1-6.672,1.1,4.233,4.233,0,0,1,.744,1.776A20.727,20.727,0,0,0,263.9,40.56c3.216-1.56,4.992-4.08,4.992-7.08,0-3.672-2.784-6-7.176-6a32.063,32.063,0,0,0-6.96.888c-4.272.96-4.272.96-4.992,1.008Zm28.1-3.744.7-.072a21.53,21.53,0,0,0,5.352-.72,10.646,10.646,0,0,0-2.16,2.136,12.83,12.83,0,0,0-3.192,7.992c0,3.936,2.616,6.672,6.384,6.672a6.878,6.878,0,0,0,6.432-4.176,12.486,12.486,0,0,0,.936-4.92,15.368,15.368,0,0,0-.96-5.448l.48.84c.24.456.432.768.816,1.392a15.374,15.374,0,0,0,3.048,3.5c.552.48.552.48.984.888l.912-1.68a2.532,2.532,0,0,1-.888-.576,15.971,15.971,0,0,1-3.456-3.744,18.552,18.552,0,0,1-2.256-4.368l-1.728.576A19.87,19.87,0,0,1,291.24,33.7a12.37,12.37,0,0,1-.864,5.016A5.455,5.455,0,0,1,285.432,42a4.694,4.694,0,0,1-4.728-4.968c0-2.448,1.1-5.04,3.288-7.68a11.938,11.938,0,0,1,2.808-2.568l-1.008-1.512a20.407,20.407,0,0,1-6.336.768,5.344,5.344,0,0,1-1.128-.1ZM310.32,24.36a8.029,8.029,0,0,1,.408,1.512,48.888,48.888,0,0,0,1.752,6.72,14.945,14.945,0,0,0-3.144,1.944,5.192,5.192,0,0,0-2.136,4.08,3.985,3.985,0,0,0,2.976,3.936,16.327,16.327,0,0,0,5.328.648,48.144,48.144,0,0,0,5.3-.312,12.438,12.438,0,0,1,1.776-.144l-.192-1.992a23.829,23.829,0,0,1-6.864.816c-4.7,0-6.552-.84-6.552-3.024,0-1.992,1.776-3.576,5.88-5.208a55.2,55.2,0,0,1,7.224-2.328l-.72-1.824a12.98,12.98,0,0,1-1.536.624c-3.72,1.3-4.392,1.56-5.808,2.136a41.745,41.745,0,0,1-1.8-7.944Zm22.728,7.056a10.548,10.548,0,0,1,1.728-.576,38.122,38.122,0,0,1,9.792-1.7c3.264,0,5.256,1.632,5.256,4.32s-1.848,4.848-5.136,6.048a21.475,21.475,0,0,1-6.672,1.1,4.233,4.233,0,0,1,.744,1.776A20.727,20.727,0,0,0,346.7,40.56c3.216-1.56,4.992-4.08,4.992-7.08,0-3.672-2.784-6-7.176-6a32.063,32.063,0,0,0-6.96.888c-4.272.96-4.272.96-4.992,1.008Zm29.688-6.936a13.366,13.366,0,0,1-.336,1.92,39.7,39.7,0,0,0-1.08,9.5,34.4,34.4,0,0,0,.624,6.792c.072.456.1.576.144.96l1.728-.144v-.36a20.921,20.921,0,0,1,1.944-6.6L364.608,36a22.3,22.3,0,0,0-1.56,4.68c-.1-1.272-.144-2.688-.144-4.56a35.48,35.48,0,0,1,.72-7.512,34.1,34.1,0,0,1,1.008-3.84Zm4.944,4.536a31.967,31.967,0,0,0,3.84.24,40.516,40.516,0,0,0,5.16-.312q1.584-.216,1.656-.216l-.12-1.7a25.752,25.752,0,0,1-6.432.648,16.3,16.3,0,0,1-4.08-.36Zm1.752,4.68c-1.488,1.7-2.088,3-2.088,4.464a3.392,3.392,0,0,0,.72,2.208c1.032,1.248,2.76,1.824,5.5,1.824a24.76,24.76,0,0,0,4.92-.48c.48-.072.528-.1.84-.12l-.24-1.848a15.8,15.8,0,0,1-5.52.84c-3.1,0-4.608-.864-4.608-2.64a5.575,5.575,0,0,1,1.8-3.528ZM406.68,41.28a8.2,8.2,0,0,1-.816-.552,21.008,21.008,0,0,0-6.7-3.5c-.1-2.328-.1-2.328-.144-3.672,1.776-.12,3.672-.312,5.328-.576.84-.12,1.08-.144,1.392-.168l-.1-1.656a28.967,28.967,0,0,1-6.648.984c-.024-1.272-.024-1.272-.048-3.24a49.857,49.857,0,0,0,5.568-.576c1.248-.168,1.248-.168,1.656-.192l-.12-1.632a33.832,33.832,0,0,1-7.1.984,26.781,26.781,0,0,1,.168-3.384h-1.848a18.8,18.8,0,0,1,.12,3.456c-.792,0-1.608.024-2.088.024a29.815,29.815,0,0,1-6.144-.48l-.024,1.632a1.961,1.961,0,0,1,.336-.024,2.913,2.913,0,0,1,.432.024c2.16.168,4.1.24,5.856.24.552,0,.936,0,1.632-.024l.048,3.288c-.672.024-1.512.024-2.136.024a29.456,29.456,0,0,1-5.5-.384l-.024,1.584h.192c.144,0,.336,0,.6.024,1.488.12,2.616.168,4.056.168.768,0,1.968-.024,2.832-.048.024.624.024,1.08.048,1.392.024.7.024,1.2.048,1.416a1.913,1.913,0,0,0,.024.264c0,.216,0,.216.024.288a10.675,10.675,0,0,0-2.16-.192,10.454,10.454,0,0,0-2.5.24c-2.112.48-3.36,1.728-3.36,3.312a3.139,3.139,0,0,0,1.3,2.52,6.252,6.252,0,0,0,3.72.96c1.9,0,3.36-.528,4.056-1.512a4.168,4.168,0,0,0,.6-2.616,6.9,6.9,0,0,0-.048-.864c.648.264,1.2.5,1.608.72a19.313,19.313,0,0,1,4.9,3.432Zm-9.048-1.944a3.143,3.143,0,0,1-.48,2.16,3.467,3.467,0,0,1-2.64.792c-2.088,0-3.288-.72-3.288-1.992s1.56-2.136,3.936-2.136a8.81,8.81,0,0,1,2.448.264ZM415.56,29.208a79.9,79.9,0,0,1,8.28-.792,49.119,49.119,0,0,0,5.28-.528,15.712,15.712,0,0,0-2.28,1.272c-2.856,1.944-4.488,4.584-4.488,7.368a5.811,5.811,0,0,0,2.664,4.9,12.106,12.106,0,0,0,5.184,1.848c.432.072.48.1.744.144l.312-1.944h-.24a12.3,12.3,0,0,1-3.6-.768,4.706,4.706,0,0,1-3.36-4.44,7.336,7.336,0,0,1,2.952-5.544,11.8,11.8,0,0,1,4.608-2.4,10.066,10.066,0,0,1,2.688-.336l-.144-1.776a16.209,16.209,0,0,1-2.856.264l-1.368.048c-.792.024-1.1.048-4.056.216l-3.768.24c-2.952.168-3.1.192-4.44.288-.744.048-1.032.072-1.368.072-.168,0-.408,0-.864-.024Zm14.736,2.3a16.877,16.877,0,0,1,2.448,3.816l1.224-.72a18.22,18.22,0,0,0-2.472-3.72Zm2.736-1.3a18.994,18.994,0,0,1,2.448,3.768l1.2-.672a19.449,19.449,0,0,0-2.472-3.744ZM-392.76,85.32a18.445,18.445,0,0,1-.144,2.544h1.752V86.3h12.384v1.56h1.752a18.344,18.344,0,0,1-.144-2.568V69.912a15.092,15.092,0,0,1,.12-2.208,17.411,17.411,0,0,1-2.472.12h-10.8a19.581,19.581,0,0,1-2.568-.12,16.815,16.815,0,0,1,.12,2.352Zm1.608-16.032h12.384v6.72h-12.384Zm0,8.184h12.384V84.84h-12.384Zm32.208-5.328a26.245,26.245,0,0,1-3.912,5.688,21.9,21.9,0,0,1-5.616,4.872,4.527,4.527,0,0,1,1.128,1.416,25.676,25.676,0,0,0,4.56-4.032,22.435,22.435,0,0,0,4.536-6.936c-.072,1.3-.1,2.208-.1,3.1V81.7H-360.7a14.456,14.456,0,0,1-2.376-.12v1.68a13.47,13.47,0,0,1,2.424-.144h2.3v2.256a19.046,19.046,0,0,1-.168,2.784h1.9a17.856,17.856,0,0,1-.168-2.76v-2.28h2.568a13.2,13.2,0,0,1,2.376.144v-1.68a14.148,14.148,0,0,1-2.328.12h-2.616V76.248c0-.792-.024-1.68-.1-3.12a22.843,22.843,0,0,0,4.488,6.744,27.239,27.239,0,0,0,4.992,4.2,6.358,6.358,0,0,1,1.1-1.56c-3.984-2.16-7.2-5.52-9.888-10.368h6.48a25.9,25.9,0,0,1,2.688.144V70.536a15.716,15.716,0,0,1-2.688.168h-7.08V68.64a12.9,12.9,0,0,1,.168-2.16h-1.9a13.6,13.6,0,0,1,.168,2.184V70.7h-6.72a17.873,17.873,0,0,1-2.64-.168v1.752a23.677,23.677,0,0,1,2.64-.144Zm30.48-1.656a6.907,6.907,0,0,1,2.784.6,6.327,6.327,0,0,1,3.816,6.024,7.245,7.245,0,0,1-4.248,6.72,14.386,14.386,0,0,1-4.008,1.128,3.814,3.814,0,0,1,.84,1.608,18.567,18.567,0,0,0,3.648-1.1,8.739,8.739,0,0,0,5.5-8.28,8.034,8.034,0,0,0-2.328-5.856,9.291,9.291,0,0,0-6.6-2.376,10.024,10.024,0,0,0-7.752,3.192,9.984,9.984,0,0,0-2.52,6.624c0,3.36,1.7,5.856,3.984,5.856,1.728,0,3.144-1.44,4.536-4.608A35.976,35.976,0,0,0-328.464,70.488Zm-1.728.024a32.963,32.963,0,0,1-2.184,8.88c-1.032,2.352-1.992,3.48-3,3.48-1.3,0-2.3-1.776-2.3-4.08a8.3,8.3,0,0,1,3.912-7.152A7.58,7.58,0,0,1-330.192,70.512Zm30.432,4.92h-3.024a13.8,13.8,0,0,1-2.136-.144v1.584c.576-.072.864-.1,1.44-.12a11.855,11.855,0,0,0,1.1,2.592,15.64,15.64,0,0,0,2.52,3.5,19.092,19.092,0,0,1-7.08,3.744,4.885,4.885,0,0,1,.888,1.44,22.152,22.152,0,0,0,7.224-4.152,22.7,22.7,0,0,0,6.792,4.272,6.433,6.433,0,0,1,.936-1.536,18.318,18.318,0,0,1-6.624-3.72,20.974,20.974,0,0,0,4.056-5.3,12.016,12.016,0,0,1,.744-1.344l-.816-.912a9.133,9.133,0,0,1-1.656.1h-2.9V71.52h4.08a17.694,17.694,0,0,1,2.5.144V70.008a17.933,17.933,0,0,1-2.5.144h-4.08v-1.2a14.388,14.388,0,0,1,.168-2.424h-1.8a15.176,15.176,0,0,1,.168,2.424v1.2h-2.88a19.913,19.913,0,0,1-2.52-.12V71.64a20.936,20.936,0,0,1,2.544-.12h2.856Zm4.872,1.32a16.079,16.079,0,0,1-3.888,5.16,12.971,12.971,0,0,1-3.216-5.16Zm-14.52-4.2v5.4a14.536,14.536,0,0,1-3.336,1.152l.48,1.632c.36-.192.6-.288.96-.456.7-.288,1.248-.5,1.9-.792V85.92c0,.552-.192.7-.936.7a15.559,15.559,0,0,1-2.208-.192,4.344,4.344,0,0,1,.36,1.512c.6.048,1.224.072,1.8.072,1.992,0,2.5-.336,2.5-1.7V78.792c.864-.408.864-.408,2.328-1.128l-.024-1.488c-1.08.552-1.464.744-2.3,1.128V72.552h.5a14.7,14.7,0,0,1,1.824.1v-1.56a10.164,10.164,0,0,1-1.776.12h-.552V68.88a14.28,14.28,0,0,1,.168-2.4h-1.848a15.38,15.38,0,0,1,.168,2.424v2.3h-1.3a11.588,11.588,0,0,1-1.968-.144V72.7a12.611,12.611,0,0,1,1.968-.144Zm35.376-1.152V68.928a15.262,15.262,0,0,1,.144-2.256h-1.728a15.967,15.967,0,0,1,.144,2.256V71.4h-1.536a11.829,11.829,0,0,1-2.088-.12v1.584a10.161,10.161,0,0,1,1.872-.12h1.752V85.272a22.427,22.427,0,0,1-.144,2.688h1.728a21.323,21.323,0,0,1-.144-2.688V72.744h1.56a10.161,10.161,0,0,1,1.872.12V71.28a11.858,11.858,0,0,1-2.064.12Zm6.5,3V85.776c0,.432-.168.528-.792.528a14.785,14.785,0,0,1-2.88-.264,5.791,5.791,0,0,1,.312,1.56c.552.048,1.584.1,2.184.1a5.8,5.8,0,0,0,2.016-.264c.456-.192.672-.744.672-1.632V74.4h.528a10.7,10.7,0,0,1,1.944.12V72.912a10.541,10.541,0,0,1-1.944.12h-3.264a9.154,9.154,0,0,1-1.824-.12V74.52a9.451,9.451,0,0,1,1.824-.12Zm-13.608-7.992a13.473,13.473,0,0,1-4.416,4.8,3.505,3.505,0,0,1,.936,1.176,21.8,21.8,0,0,0,3.864-3.864c.72-.96.72-.96,1.032-1.32Zm2.568,8.4a24.274,24.274,0,0,1-1.872,9.7,6.838,6.838,0,0,1,1.3.768c1.1-2.688,1.68-5.64,1.968-10.32Zm5.736.288a42.16,42.16,0,0,1,1.8,8.952l1.416-.5a53.543,53.543,0,0,0-1.944-8.832Zm-.624-7.44a13.616,13.616,0,0,1,1.992,3.048l1.128-.744a18.072,18.072,0,0,0-2.016-2.928Zm9.48.36a12.012,12.012,0,0,1-1.8.12h-2.376a12.012,12.012,0,0,1-1.8-.12v1.608a12.924,12.924,0,0,1,1.776-.12h2.4a12.5,12.5,0,0,1,1.8.12ZM-282.96,85.2a17.247,17.247,0,0,1-.144,2.832h1.752a16.747,16.747,0,0,1-.144-2.808V75.408c.36-.48.96-1.368,1.224-1.8.264-.48.552-.912.792-1.3l-1.392-.888a9.776,9.776,0,0,1-1.056,2.136,15.53,15.53,0,0,1-3.864,4.176,5.016,5.016,0,0,1,.84,1.344,12.616,12.616,0,0,0,2.064-2.184c-.048,1.128-.072,1.848-.072,2.808Zm41.472-17.64a18.4,18.4,0,0,1,2.472,3.816l1.2-.72a18.22,18.22,0,0,0-2.472-3.72Zm-15.456,7.392a31.243,31.243,0,0,1,4.824-.864c-1.08,4.536-3.144,9.336-5.136,11.952l1.632.96a46.613,46.613,0,0,0,5.184-13.056,13.78,13.78,0,0,1,1.728-.12c2.232,0,2.952.816,2.952,3.36a18.578,18.578,0,0,1-1.008,6.672q-.468,1.152-1.368,1.152a8.971,8.971,0,0,1-3.576-1.1,4.428,4.428,0,0,1,.072.936,5.362,5.362,0,0,1-.048.864,9.029,9.029,0,0,0,3.624.936,2.507,2.507,0,0,0,2.352-1.128c.984-1.392,1.608-4.584,1.608-8.256,0-1.968-.336-3.072-1.176-3.864-.744-.72-1.752-1.008-3.456-1.008a13.988,13.988,0,0,0-1.416.072c.192-1.032.408-2.136.5-2.736a14.753,14.753,0,0,1,.456-2.3l-1.92-.216v.312a29.645,29.645,0,0,1-.72,5.088,49.233,49.233,0,0,1-5.3.624Zm18.192-8.664a17.382,17.382,0,0,1,2.448,3.768l1.2-.7a19.277,19.277,0,0,0-2.472-3.72Zm-4.032,5.472a20.267,20.267,0,0,1,4.9,8.616l1.536-.864a21.977,21.977,0,0,0-5.016-8.5Zm22.944,1.2v5.16h-4.392a16.621,16.621,0,0,1-2.544-.144v1.68a17.735,17.735,0,0,1,2.544-.144h4.392V85.8h-7.128a18.532,18.532,0,0,1-2.808-.168v1.752a19.523,19.523,0,0,1,2.832-.168h15.432a19.393,19.393,0,0,1,2.808.168V85.632a18.457,18.457,0,0,1-2.832.168h-6.7V79.512h4.848a18.109,18.109,0,0,1,2.568.144v-1.68a16.765,16.765,0,0,1-2.568.144h-4.848V72.96h5.928a23.438,23.438,0,0,1,2.712.144V71.4a22.707,22.707,0,0,1-2.736.144h-5.9V69a16.137,16.137,0,0,1,.168-2.544h-1.944A17.424,17.424,0,0,1-219.84,69v2.544h-5.04c.5-1.32.792-2.112.864-2.328a9.741,9.741,0,0,1,.48-1.272l-1.8-.48a7.208,7.208,0,0,1-.528,2.256,19.659,19.659,0,0,1-4.3,7.368,4.7,4.7,0,0,1,1.368,1.008A22.721,22.721,0,0,0-225.5,72.96Zm19.8-.528a13.1,13.1,0,0,1,1.488-.072,51.058,51.058,0,0,0,6.48-.432c.6,1.3.744,1.56,1.368,2.736a47.81,47.81,0,0,1-7.56.6,18.652,18.652,0,0,1-1.92-.072l.048,1.584c.432-.048.528-.048,1.68-.1a50,50,0,0,0,8.424-.7,22,22,0,0,0,2.568,3.7,14.427,14.427,0,0,0-4.848-.7c-4.56,0-7.32,1.56-7.32,4.152a3.353,3.353,0,0,0,1.8,2.976,9.684,9.684,0,0,0,4.944,1.008,20.9,20.9,0,0,0,6.144-.888,13.975,13.975,0,0,1,1.44-.408l-.336-1.872a16.178,16.178,0,0,1-7.1,1.608c-3.288,0-5.112-.864-5.112-2.448,0-1.656,2.232-2.736,5.688-2.736a24.264,24.264,0,0,1,3.144.216,6.507,6.507,0,0,1,2.64.912l1.416-1.008A28.131,28.131,0,0,1-188.5,75.72c.888-.168,2.088-.432,3.768-.864.792-.216.888-.216,1.3-.312l-.192-1.608a24.414,24.414,0,0,1-5.5,1.488c-.36-.648-1.008-1.92-1.368-2.712,1.344-.216,3.912-.768,6.048-1.344l-.144-1.56a30.361,30.361,0,0,1-6.408,1.584,19.988,19.988,0,0,1-1.272-3.384l-1.8.312a31.081,31.081,0,0,1,1.44,3.288,47.42,47.42,0,0,1-5.688.336c-.816,0-1.224-.024-1.8-.072Zm29.664-2.112a11.824,11.824,0,0,1,1.3-.12c3.648-.12,6.528-.288,7.3-.432a.929.929,0,0,1,.216-.024l.048.048-.1.1-.1.1-.336.336c-1.656,1.632-5.448,4.968-8.016,7.008a26.737,26.737,0,0,1-3.36,2.448l1.08,1.536a15.4,15.4,0,0,1,10.1-4.1c3.24,0,5.16,1.368,5.16,3.672,0,2.04-1.32,3.5-3.84,4.2a6.87,6.87,0,0,0-1.1-2.3,4.834,4.834,0,0,0-3.96-1.968c-1.992,0-3.48,1.2-3.48,2.808,0,2.208,1.944,3.456,5.328,3.456,5.328,0,8.808-2.472,8.808-6.216,0-3.072-2.568-5.04-6.576-5.04a12.16,12.16,0,0,0-5.88,1.488l-.048-.072a61.584,61.584,0,0,0,7.9-6.816,4.429,4.429,0,0,1,1.224-1.008l-1.008-1.32a2.454,2.454,0,0,1-1.152.264c-2.16.168-5.352.312-7.344.312a11.084,11.084,0,0,1-2.256-.144Zm7.872,15.192a8.642,8.642,0,0,1-1.752.168,6.132,6.132,0,0,1-2.688-.552,1.638,1.638,0,0,1-.96-1.464c0-.912.744-1.488,1.944-1.488C-164.232,82.176-163.032,83.328-162.5,85.512Zm19.272-16.848a5.6,5.6,0,0,1,.312,1.272c.216,1.2.5,2.616.672,3.384a9.232,9.232,0,0,0-2.4,2.448,8.618,8.618,0,0,0-1.392,4.584c0,2.832,1.368,4.7,3.456,4.7,1.392,0,2.736-.864,4.272-2.736a27.153,27.153,0,0,0,4.656-9.408c3.312.7,5.064,2.616,5.064,5.544a5.9,5.9,0,0,1-1.056,3.408,7.809,7.809,0,0,1-3.6,2.616,10.876,10.876,0,0,1-3.576.888,3.966,3.966,0,0,1,.936,1.608c1.032-.24,1.152-.264,1.512-.36a12.732,12.732,0,0,0,4.848-2.376,7.545,7.545,0,0,0,2.616-5.76c0-3.624-2.376-6.24-6.36-6.984.12-.456.168-.72.288-1.128a18.947,18.947,0,0,1,.648-2.52l-1.8-.384a26.95,26.95,0,0,1-.744,3.864c-.336-.024-.624-.024-.792-.024a11.435,11.435,0,0,0-5.136,1.2,31.116,31.116,0,0,1-.648-4.176Zm1.392,6.264a33.177,33.177,0,0,0,2.256,6.456c-1.08,1.32-2.112,2.04-2.952,2.04-1.176,0-1.944-1.248-1.944-3.144a7.155,7.155,0,0,1,.96-3.36A7.08,7.08,0,0,1-141.84,74.928Zm3.336,5.136a3.867,3.867,0,0,0-.192-.552,34.026,34.026,0,0,1-1.8-5.568,8.969,8.969,0,0,1,4.632-1.224c.12,0,.336.024.6.024a27.405,27.405,0,0,1-2.928,6.792,3.928,3.928,0,0,0-.288.528Zm35.016-12.5a18.4,18.4,0,0,1,2.472,3.816l1.2-.72a18.22,18.22,0,0,0-2.472-3.72Zm-15.456,7.392a31.242,31.242,0,0,1,4.824-.864c-1.08,4.536-3.144,9.336-5.136,11.952l1.632.96a46.613,46.613,0,0,0,5.184-13.056,13.78,13.78,0,0,1,1.728-.12c2.232,0,2.952.816,2.952,3.36a18.578,18.578,0,0,1-1.008,6.672q-.468,1.152-1.368,1.152a8.971,8.971,0,0,1-3.576-1.1,4.429,4.429,0,0,1,.072.936,5.363,5.363,0,0,1-.048.864,9.029,9.029,0,0,0,3.624.936,2.507,2.507,0,0,0,2.352-1.128c.984-1.392,1.608-4.584,1.608-8.256,0-1.968-.336-3.072-1.176-3.864-.744-.72-1.752-1.008-3.456-1.008a13.988,13.988,0,0,0-1.416.072c.192-1.032.408-2.136.5-2.736a14.755,14.755,0,0,1,.456-2.3l-1.92-.216v.312a29.644,29.644,0,0,1-.72,5.088,49.233,49.233,0,0,1-5.3.624Zm18.192-8.664A17.382,17.382,0,0,1-98.3,70.056l1.2-.7a19.276,19.276,0,0,0-2.472-3.72Zm-4.032,5.472a20.267,20.267,0,0,1,4.9,8.616l1.536-.864a21.977,21.977,0,0,0-5.016-8.5ZM-91.3,73.344a31.914,31.914,0,0,1,3.744-.384c-.072,2.328-.072,2.328-.1,4.248-3.912,3.936-3.912,3.936-4.488,4.344l1.008,1.584a24.32,24.32,0,0,1,2.016-2.28c.7-.744,1.248-1.368,1.512-1.7-.048.816-.072,1.368-.072,2.832a50.141,50.141,0,0,1-.1,5.52h1.848c-.12-1.008-.144-2.568-.144-6.288v-3.36a37.3,37.3,0,0,1,3.7-3.24,7.894,7.894,0,0,1,4.44-1.944c2.352,0,3.672,2.256,3.672,6.24a16.212,16.212,0,0,1-.192,2.568,7.291,7.291,0,0,0-3.744-1.056c-2.352,0-3.984,1.32-3.984,3.24,0,1.824,1.68,3.12,4.056,3.12a5.155,5.155,0,0,0,3.552-1.3,3.891,3.891,0,0,0,1.08-1.632,17.288,17.288,0,0,1,2.448,2.208l.768-1.68a5.807,5.807,0,0,1-.576-.456c-.216-.192-.432-.36-.624-.5L-72.936,82.3a16.334,16.334,0,0,0,.36-3.48c0-4.9-1.92-7.68-5.232-7.68-1.8,0-3.576.792-5.808,2.544a20.915,20.915,0,0,0-2.472,2.232l.072-2.448a9.99,9.99,0,0,1,1.3-1.392l-.648-.864a.911.911,0,0,1-.432.144h-.12a36.116,36.116,0,0,1,.24-4.272l-1.8-.024a10.241,10.241,0,0,1,.048,1.176c0,.384-.024,1.728-.072,3.288-2.112.168-2.76.216-3.36.216-.12,0-.288,0-.576-.024Zm16.464,9.6a2.028,2.028,0,0,1-.168.384,3.233,3.233,0,0,1-1.248,1.464,3.329,3.329,0,0,1-1.968.552c-1.416,0-2.448-.72-2.448-1.7,0-1.056,1.032-1.8,2.52-1.8A5.727,5.727,0,0,1-74.832,82.944ZM-64.44,72.408a79.9,79.9,0,0,1,8.28-.792,49.116,49.116,0,0,0,5.28-.528,15.712,15.712,0,0,0-2.28,1.272c-2.856,1.944-4.488,4.584-4.488,7.368a5.811,5.811,0,0,0,2.664,4.9A12.106,12.106,0,0,0-49.8,86.472c.432.072.48.1.744.144l.312-1.944h-.24a12.3,12.3,0,0,1-3.6-.768,4.706,4.706,0,0,1-3.36-4.44,7.336,7.336,0,0,1,2.952-5.544,11.8,11.8,0,0,1,4.608-2.4,10.066,10.066,0,0,1,2.688-.336l-.144-1.776a16.21,16.21,0,0,1-2.856.264l-1.368.048c-.792.024-1.1.048-4.056.216l-3.768.24c-2.952.168-3.1.192-4.44.288-.744.048-1.032.072-1.368.072-.168,0-.408,0-.864-.024Zm14.736,2.3a16.878,16.878,0,0,1,2.448,3.816l1.224-.72a18.22,18.22,0,0,0-2.472-3.72Zm2.736-1.3a18.992,18.992,0,0,1,2.448,3.768l1.2-.672a19.449,19.449,0,0,0-2.472-3.744Zm13.488-2.568a5.637,5.637,0,0,1,.792.072,46.947,46.947,0,0,0,5.28.312,18.969,18.969,0,0,0,3.624-.312c-.24.144-.288.144-.456.24-.288.144-.336.168-.6.312a37.185,37.185,0,0,0-3.192,1.992l1.224.984A34.182,34.182,0,0,1-20.76,70.8l-.12-1.584a26.247,26.247,0,0,1-6.072.5,27.438,27.438,0,0,1-6.384-.576Zm1.44,6.144c-1.848,1.56-2.76,3.072-2.76,4.632a3.823,3.823,0,0,0,2.736,3.624,16.932,16.932,0,0,0,5.52.744,39.15,39.15,0,0,0,6.48-.552,6.713,6.713,0,0,1,.816-.12l-.216-1.968a22.768,22.768,0,0,1-7.2.912,15.283,15.283,0,0,1-4.392-.48c-1.344-.456-2.04-1.248-2.04-2.352,0-1.128.72-2.232,2.28-3.528Zm25.32-6.768c.48-.048.576-.048,1.488-.1a58.156,58.156,0,0,0,7.512-.576,7.941,7.941,0,0,0-.792.672A50.893,50.893,0,0,1-6.48,76.416a31.756,31.756,0,0,1-4.2.48h-.168l.192,1.824a61.611,61.611,0,0,1,7.08-1.08c1.368-.168,3.5-.456,3.912-.5.984-.168.984-.168,1.32-.216-3.456,1.512-5.232,3.408-5.232,5.544A3.908,3.908,0,0,0-2.16,85.488c1.152.984,3.24,1.512,6.048,1.56,1.224.024,1.224.024,1.632.048l-.072-1.848a8.6,8.6,0,0,1-1.632.144c-3.648,0-5.712-1.128-5.712-3.1A3.033,3.033,0,0,1-1.128,80.3a8.485,8.485,0,0,1,3-2.28,15.943,15.943,0,0,1,6.6-1.3H9l-.168-1.68a3.245,3.245,0,0,1-.7.1c-.48.048-1.2.12-2.184.192-1.824.168-3.288.312-4.272.384a55.62,55.62,0,0,0-5.76.648,46.644,46.644,0,0,0,7.872-6.12A7.8,7.8,0,0,1,4.968,69.24L3.96,67.968a4.683,4.683,0,0,1-1.344.288c-1.7.192-5.16.336-7.32.336a18.758,18.758,0,0,1-2.16-.1ZM15.264,82.752a23.953,23.953,0,0,1,4.728,5.232l1.344-1.272a24.455,24.455,0,0,0-4.824-5.088ZM45.48,72.432a13.1,13.1,0,0,1,1.488-.072,51.057,51.057,0,0,0,6.48-.432c.6,1.3.744,1.56,1.368,2.736a47.81,47.81,0,0,1-7.56.6,18.652,18.652,0,0,1-1.92-.072l.048,1.584c.432-.048.528-.048,1.68-.1a50,50,0,0,0,8.424-.7,22,22,0,0,0,2.568,3.7,14.427,14.427,0,0,0-4.848-.7c-4.56,0-7.32,1.56-7.32,4.152a3.353,3.353,0,0,0,1.8,2.976,9.684,9.684,0,0,0,4.944,1.008,20.9,20.9,0,0,0,6.144-.888,13.975,13.975,0,0,1,1.44-.408l-.336-1.872a16.178,16.178,0,0,1-7.1,1.608c-3.288,0-5.112-.864-5.112-2.448,0-1.656,2.232-2.736,5.688-2.736a24.263,24.263,0,0,1,3.144.216,6.507,6.507,0,0,1,2.64.912L60.552,80.5a28.131,28.131,0,0,1-3.528-4.776c.888-.168,2.088-.432,3.768-.864.792-.216.888-.216,1.3-.312L61.9,72.936a24.414,24.414,0,0,1-5.5,1.488c-.36-.648-1.008-1.92-1.368-2.712,1.344-.216,3.912-.768,6.048-1.344l-.144-1.56a30.361,30.361,0,0,1-6.408,1.584,19.988,19.988,0,0,1-1.272-3.384l-1.8.312a31.081,31.081,0,0,1,1.44,3.288,47.42,47.42,0,0,1-5.688.336c-.816,0-1.224-.024-1.8-.072Zm28.248,5.976a10.591,10.591,0,0,1,2.568-.792,27.9,27.9,0,0,1,6.312-.96c2.9,0,4.44,1.176,4.44,3.36,0,2.136-1.656,3.96-4.392,4.848a16.364,16.364,0,0,1-4.728.744,1.825,1.825,0,0,1-.336-.024,5.257,5.257,0,0,1,.624,1.656,22.731,22.731,0,0,0,4.944-.912c3.336-1.056,5.5-3.5,5.5-6.192a5.25,5.25,0,0,0-.744-2.736C87,75.912,85.3,75.168,82.824,75.168a30.986,30.986,0,0,0-7.32,1.056,11.268,11.268,0,0,1-2.208.432ZM104.4,67.56a8.029,8.029,0,0,1,.408,1.512,48.889,48.889,0,0,0,1.752,6.72,14.945,14.945,0,0,0-3.144,1.944,5.192,5.192,0,0,0-2.136,4.08,3.985,3.985,0,0,0,2.976,3.936,16.327,16.327,0,0,0,5.328.648,48.145,48.145,0,0,0,5.3-.312,12.439,12.439,0,0,1,1.776-.144l-.192-1.992a23.829,23.829,0,0,1-6.864.816c-4.7,0-6.552-.84-6.552-3.024,0-1.992,1.776-3.576,5.88-5.208a55.2,55.2,0,0,1,7.224-2.328l-.72-1.824a12.979,12.979,0,0,1-1.536.624c-3.72,1.3-4.392,1.56-5.808,2.136a41.742,41.742,0,0,1-1.8-7.944Zm21.264,15.192a23.953,23.953,0,0,1,4.728,5.232l1.344-1.272a24.454,24.454,0,0,0-4.824-5.088Zm29.5-4.392a2.5,2.5,0,0,1,.744.144,25.3,25.3,0,0,0,3.624.6c-.024.216-.024.216-.048.576a12.69,12.69,0,0,0-.1,1.584,6.508,6.508,0,0,0,.744,3.312c.936,1.536,2.856,2.4,5.376,2.4,4.2,0,7.032-2.28,7.032-5.664,0-1.752-.552-2.928-2.256-4.776a4.75,4.75,0,0,1-1.752.48,5.472,5.472,0,0,1,2.28,4.176c0,2.544-2.088,4.2-5.3,4.2a5.046,5.046,0,0,1-3.384-1.032,3.542,3.542,0,0,1-1.1-2.88c0-.408.048-1.2.1-1.776a4.357,4.357,0,0,0,.024-.48c1.08.048,1.464.048,2.064.048a27.7,27.7,0,0,0,3.384-.192c.336-.024.408-.024.648-.048l.048-1.608a20.985,20.985,0,0,1-4.416.384c-.336,0-.672,0-1.584-.024.144-1.344.168-1.584.552-4.344,1.32.048,1.728.048,2.112.048.7,0,1.416-.024,2.16-.1,1.2-.1,1.2-.1,1.68-.144l.072-1.656a19.475,19.475,0,0,1-4.392.408c-.384,0-.72,0-1.392-.024.12-.672.168-.912.24-1.44.216-1.32.216-1.32.24-1.536a12.345,12.345,0,0,1,.384-1.608l-1.92-.216v.192a37.768,37.768,0,0,1-.576,4.512,15.489,15.489,0,0,1-4.32-.936l-.216,1.584c.336.072.432.1.744.168a31.892,31.892,0,0,0,3.576.648c-.192,1.272-.432,3.144-.552,4.32a15.959,15.959,0,0,1-4.3-.96Zm28.968.048a10.591,10.591,0,0,1,2.568-.792,27.9,27.9,0,0,1,6.312-.96c2.9,0,4.44,1.176,4.44,3.36,0,2.136-1.656,3.96-4.392,4.848a16.364,16.364,0,0,1-4.728.744,1.825,1.825,0,0,1-.336-.024,5.256,5.256,0,0,1,.624,1.656,22.731,22.731,0,0,0,4.944-.912c3.336-1.056,5.5-3.5,5.5-6.192a5.25,5.25,0,0,0-.744-2.736c-.912-1.488-2.616-2.232-5.088-2.232a30.986,30.986,0,0,0-7.32,1.056,11.268,11.268,0,0,1-2.208.432ZM214.8,67.56a8.029,8.029,0,0,1,.408,1.512,48.887,48.887,0,0,0,1.752,6.72,14.945,14.945,0,0,0-3.144,1.944,5.192,5.192,0,0,0-2.136,4.08,3.985,3.985,0,0,0,2.976,3.936,16.327,16.327,0,0,0,5.328.648,48.145,48.145,0,0,0,5.3-.312,12.439,12.439,0,0,1,1.776-.144l-.192-1.992a23.829,23.829,0,0,1-6.864.816c-4.7,0-6.552-.84-6.552-3.024,0-1.992,1.776-3.576,5.88-5.208a55.2,55.2,0,0,1,7.224-2.328l-.72-1.824a12.979,12.979,0,0,1-1.536.624c-3.72,1.3-4.392,1.56-5.808,2.136a41.744,41.744,0,0,1-1.8-7.944Zm21.264,15.192a23.953,23.953,0,0,1,4.728,5.232l1.344-1.272a24.455,24.455,0,0,0-4.824-5.088Zm36.144-13.92c-.84,0-1.248-.024-1.824-.072a12.286,12.286,0,0,1,.072,1.824V75.7a17.385,17.385,0,0,1-.072,1.848c.5-.048,1.128-.072,1.8-.072h4.728c.6,0,1.2.024,1.68.072a11.952,11.952,0,0,1-.072-1.848V70.608a11.952,11.952,0,0,1,.072-1.848c-.624.048-.984.072-1.752.072h-2.4c.432-.936.624-1.368.984-2.28l-1.56-.288A12.924,12.924,0,0,1,273,68.832Zm-.408,1.224h5.376V72.5H271.8Zm0,3.672h5.376v2.52H271.8Zm10.32,7.464a18.313,18.313,0,0,1,2.712.144V79.752a17.656,17.656,0,0,1-2.712.144h-6.912V79.7a7.427,7.427,0,0,1,.12-1.608H273.6a9.887,9.887,0,0,1,.12,1.632V79.9h-6.744a17.569,17.569,0,0,1-2.664-.144v1.584A17.94,17.94,0,0,1,267,81.192h6.024c-2.064,2.112-5.16,3.768-9.408,4.992a4.756,4.756,0,0,1,1.056,1.392c4.608-1.752,6.84-3.12,9.144-5.568-.048.576-.1,1.9-.1,2.28v1.3a17.829,17.829,0,0,1-.144,2.52h1.776a17.371,17.371,0,0,1-.144-2.52v-1.3c0-.312-.024-1.032-.048-1.32-.024-.672-.024-.672-.048-.984,2.5,2.616,5.016,4.1,9.528,5.64a5.676,5.676,0,0,1,1.008-1.464,29.312,29.312,0,0,1-5.352-1.92,16.14,16.14,0,0,1-4.368-3.048Zm-17.664-12.24a19.47,19.47,0,0,1,3.528,3.36l1.08-1.1a26.586,26.586,0,0,0-3.552-3.312Zm4.92,4.68a21.9,21.9,0,0,1-5.568,2.9l.648,1.488c.288-.168.408-.24.84-.456a34.923,34.923,0,0,0,4.44-2.592Zm14.064-5.88a16.987,16.987,0,0,1-4.008,3.816l.984,1.032a23.7,23.7,0,0,0,4.176-3.84Zm-4.368,7.008a34.1,34.1,0,0,1,5.448,3.192l.888-1.2a52.636,52.636,0,0,0-5.544-3.1Zm16.656-7.08a7.38,7.38,0,0,1,.1,1.272c0,.384,0,.84-.024,1.56-.192,7.56-.216,8.16-.216,9.768,0,2.52.336,3.792,1.32,4.92a5.692,5.692,0,0,0,4.512,1.68,8.4,8.4,0,0,0,6.768-3,14.6,14.6,0,0,0,2.664-5.448,6.789,6.789,0,0,1-1.728-1.152,14.257,14.257,0,0,1-1.176,3.768,6.893,6.893,0,0,1-6.432,4.176,4.53,4.53,0,0,1-3-.936,3.778,3.778,0,0,1-1.128-2.88c-.024-.552-.048-1.152-.048-1.44,0-1.08.072-4.344.168-7.224a37,37,0,0,1,.312-5.064Zm27.36.984a5.6,5.6,0,0,1,.312,1.272c.216,1.2.5,2.616.672,3.384a9.233,9.233,0,0,0-2.4,2.448,8.618,8.618,0,0,0-1.392,4.584c0,2.832,1.368,4.7,3.456,4.7,1.392,0,2.736-.864,4.272-2.736a27.153,27.153,0,0,0,4.656-9.408c3.312.7,5.064,2.616,5.064,5.544a5.9,5.9,0,0,1-1.056,3.408,7.809,7.809,0,0,1-3.6,2.616,10.876,10.876,0,0,1-3.576.888,3.966,3.966,0,0,1,.936,1.608c1.032-.24,1.152-.264,1.512-.36a12.732,12.732,0,0,0,4.848-2.376,7.545,7.545,0,0,0,2.616-5.76c0-3.624-2.376-6.24-6.36-6.984.12-.456.168-.72.288-1.128a18.942,18.942,0,0,1,.648-2.52l-1.8-.384a26.95,26.95,0,0,1-.744,3.864c-.336-.024-.624-.024-.792-.024a11.435,11.435,0,0,0-5.136,1.2,31.111,31.111,0,0,1-.648-4.176Zm1.392,6.264a33.174,33.174,0,0,0,2.256,6.456c-1.08,1.32-2.112,2.04-2.952,2.04-1.176,0-1.944-1.248-1.944-3.144a7.155,7.155,0,0,1,.96-3.36A7.08,7.08,0,0,1,324.48,74.928Zm3.336,5.136a3.867,3.867,0,0,0-.192-.552,34.021,34.021,0,0,1-1.8-5.568,8.97,8.97,0,0,1,4.632-1.224c.12,0,.336.024.6.024a27.405,27.405,0,0,1-2.928,6.792,3.932,3.932,0,0,0-.288.528Zm23.328-9.744a11.825,11.825,0,0,1,1.3-.12c3.648-.12,6.528-.288,7.3-.432a.928.928,0,0,1,.216-.024l.048.048-.1.1-.1.1-.336.336c-1.656,1.632-5.448,4.968-8.016,7.008a26.738,26.738,0,0,1-3.36,2.448l1.08,1.536a15.4,15.4,0,0,1,10.1-4.1c3.24,0,5.16,1.368,5.16,3.672,0,2.04-1.32,3.5-3.84,4.2a6.87,6.87,0,0,0-1.1-2.3,4.834,4.834,0,0,0-3.96-1.968c-1.992,0-3.48,1.2-3.48,2.808,0,2.208,1.944,3.456,5.328,3.456,5.328,0,8.808-2.472,8.808-6.216,0-3.072-2.568-5.04-6.576-5.04a12.16,12.16,0,0,0-5.88,1.488l-.048-.072a61.585,61.585,0,0,0,7.9-6.816,4.429,4.429,0,0,1,1.224-1.008l-1.008-1.32a2.454,2.454,0,0,1-1.152.264c-2.16.168-5.352.312-7.344.312a11.084,11.084,0,0,1-2.256-.144Zm7.872,15.192a8.642,8.642,0,0,1-1.752.168,6.132,6.132,0,0,1-2.688-.552,1.638,1.638,0,0,1-.96-1.464c0-.912.744-1.488,1.944-1.488C357.288,82.176,358.488,83.328,359.016,85.512ZM377.88,80.76a3.6,3.6,0,1,0,3.6,3.6A3.6,3.6,0,0,0,377.88,80.76Zm0,1.368a2.232,2.232,0,1,1-2.232,2.232A2.243,2.243,0,0,1,377.88,82.128Z" transform="translate(440.76 20.76)" fill="#fff"/>
</svg>
