<svg xmlns="http://www.w3.org/2000/svg" width="270.686" height="47.429" viewBox="0 0 270.686 47.429">
  <g id="logo-wh" transform="translate(-525 -589)">
    <g id="グループ_4" data-name="グループ 4" transform="translate(525 589)">
      <g id="グループ_1" data-name="グループ 1">
        <path id="パス_3" data-name="パス 3" d="M19.923,16.2c-.118-.118-.235.118-.235.235-.235-.118-.235.118-.471.118,0,0,0-.235-.118-.118-.118,0-.471,0-.471.235,0,.118,0,.118.118.118-.1.209-.3.235-.423.321a.191.191,0,0,0-.048-.086c-.353,0-.588.471-.471.824,0,.118.235.235.353.235.235,0,.471.118.706,0a.865.865,0,0,0,.706-.235.118.118,0,0,0,.235,0c.118.118.235,0,.353-.118,0-.118.118-.118.118-.235.118,0,.235-.235.235-.235a1.191,1.191,0,0,0-.471-.824A.411.411,0,0,0,19.923,16.2Z" transform="translate(3.144 2.861)" fill="#fff"/>
        <path id="パス_4" data-name="パス 4" d="M12.488,11.646a29.567,29.567,0,0,0,.471,3.178c0,.235,0,.471.235.588.118.118.353,0,.588,0s.471-.353.706-.235.588,0,.942,0a.647.647,0,0,0,.588-.353c0-.118.118-.118.235-.118.118-.118.118-.353.235-.471-.235-.118.118-.235.118-.471H16.49c0-.235.235-.353.353-.588.235-.471.588-.824.588-1.295-.118-.588,0-1.177-.471-1.53v-.235l-.353-.353c-.118-.235-.235-.118-.353-.235a4.357,4.357,0,0,0-2.589-1.412c-.471-.235-1.059,0-1.53,0,0,.118-.235.118-.235.235,0,.235.353.471.353.706A21.137,21.137,0,0,0,12.488,11.646Z" transform="translate(2.105 1.417)" fill="#fff"/>
        <path id="パス_5" data-name="パス 5" d="M0,0V47.429H47.429V0ZM37.072,22.714c.118,0,.235-.353.353-.353s.235.118.353.118,0,.235.235.235c.118,0,.235-.118.471-.118.353.353.706.353.824.706v.353c0,.118,0,.235.235.353a.581.581,0,0,0,.118.353h.118a1.017,1.017,0,0,1-.353.706c.118.118,0,.235,0,.353-.118.235-.353.353-.471.588,0,.118-.118,0-.235,0a.432.432,0,0,0-.353.118c0-.353-.118,0-.353,0-.118,0-.118-.235-.235-.353h-.118c-.118-.118-.118-.235-.353-.353-.118,0,0-.235,0-.471-.118-.235-.471-.235-.706-.588-.118-.118-.235,0-.353.118-.235.235-.118.706-.588.588-.235-.118-.118-.471,0-.706a4.129,4.129,0,0,1,.588-.942c.118-.118.353-.118.471-.235.118,0,0-.353.235-.471Zm.353,9.886v.471h-.118c-.118-.118-.118-.235-.471-.235L36.6,32.6c0,.118-.118.353-.353.235-.118,0-.235-.235-.235-.353,0-1.295,0-2.589-.118-3.884a15.95,15.95,0,0,0-.235-2.354c.588.588.942.471,1.059.353s.235-.235.118-.353l.118.118V26.6s0,.353.235,0c.118-.118,0-.471,0-.471.235-.118.235.235.471.235.118.118,0,.235,0,.353V27.3h.118v-.235c.118,0,.118.118.118.235v.588c0,.118,0,.235.118.235.235,0,.118-.353.235-.588a1.061,1.061,0,0,1-.118.588c-.235.471,0,.824,0,1.295a1.438,1.438,0,0,1-.471,1.059c.235.235.118.471,0,.706,0,0,.235,0,.235.118-.235.235-.235.588,0,.706v.118c.235.118.235.471.471.471a.411.411,0,0,0,.118-.235c.235.235.118.588.118.942a.253.253,0,0,0-.235-.235c-.235.118-.118.118-.353,0l-.118.118a.518.518,0,0,1-.118-.588C37.543,32.718,37.778,32.247,37.425,32.6Zm-4.59-16.477c0-.235.235-.471.235-.824a.115.115,0,0,1-.118-.118,1.582,1.582,0,0,1,.706-.824c.118-.118.353.118.588,0a.581.581,0,0,0,.353-.118c0-.118.235,0,.235,0,.235.118.588.118.824.353.118.118.353.118.353.235s-.235,0-.353.118a.892.892,0,0,0-.235.471c-.235.118-.588,0-.706.235-.118.118-.353.353-.353.471v.353l.118.118a.115.115,0,0,0-.118.118c0,.353-.235.471-.235.824,0,.118,0,.353.118.353A20.49,20.49,0,0,0,35.9,19.3a1.175,1.175,0,0,1,.471.588c.118,0,.118.118.235.235a1.125,1.125,0,0,1,0,1.059c0,.118.235.118.118.235a.8.8,0,0,1-.471.706h-.235a2.442,2.442,0,0,0-.706,1.177c0,.118.235.118.118.235a.611.611,0,0,1-.471.235c-.118,0-.235.235-.353.353-.118,0-.235-.235-.353-.235-.235,0-.235.235-.235.353-.235-.118-.353.118-.588.235,0-.118-.118-.353,0-.588.118-.118.353-.353.353-.471s.235-.118.118-.353c.235,0,.353-.235.471-.353a4.325,4.325,0,0,0,.942-1.765,1.271,1.271,0,0,0-.353-.824,7.625,7.625,0,0,1-2-1.883,1.268,1.268,0,0,1-.235-.942c0-.118.235-.353.235-.471C32.953,16.594,32.835,16.359,32.835,16.123Zm-2.354-2.118c0-.118.118-.118.235-.235s0-.235.118-.235l.118-.118c.118,0,.118.235.235.235h.235c.118.235,0,.353.235.471a.411.411,0,0,1,.235.118,1.514,1.514,0,0,1,.471,1.412c-.118.235-.471.471-.588.118h-.118c-.118-.118-.235-.353-.353-.353a.115.115,0,0,1-.118.118c-.118,0-.235,0-.235-.118a.782.782,0,0,0-.471-.588.411.411,0,0,0,.118-.235A1.061,1.061,0,0,0,30.482,14.005ZM25.656,15.77c0-.118.235-.118.235-.235a3.086,3.086,0,0,1,1.059.588,3.576,3.576,0,0,1,.588.824c.235-.118.353-.353.588-.471a11.4,11.4,0,0,1,1.295-.353c.126-.064.214-.021.254.065a1.961,1.961,0,0,0,.334-.418c.118.235.471.118.471.471.588,0,1.295.118,1.412.706.235.824-.118,1.765.353,2.471.118.118.353-.118.471,0a1.561,1.561,0,0,1,1.177.706.581.581,0,0,1-.118.353.253.253,0,0,1-.235.235c-.235.118-.471.118-.706.235a.432.432,0,0,1-.353.118.882.882,0,0,1-.588-.118A4.792,4.792,0,0,1,30.482,19.3c0-.118-.118-.118-.235,0,0,.118.118.118.118.235-.118,0-.235-.235-.235-.353v-.706c-.118-.353-.118-.706-.235-.942-.094-.281-.187-.625-.281-.936a2.945,2.945,0,0,0-.189.583.432.432,0,0,1-.118.353,2.066,2.066,0,0,1-.471.588c-.118.471-.235.824-.353,1.295,0,.118-.118.118-.118.235a1.25,1.25,0,0,0-.118.942c.118.235.353.706.118.824h-.471a.432.432,0,0,0-.353-.118c-.118-.118-.235-.118-.353-.235-.235-.118-.235-.471-.235-.588a6.073,6.073,0,0,0-.235-1.295c-.118-.235-.235-.588-.353-.588a.535.535,0,0,1,0-.588.115.115,0,0,1-.118-.118c.118-.588-.471-.588-.471-1.177a.892.892,0,0,0-.235-.471C25.421,16.006,25.656,16.006,25.656,15.77ZM8.238,10.827v-.235a6.717,6.717,0,0,1,5.178-2.354,12.358,12.358,0,0,1,2.825.353,14.357,14.357,0,0,1,2,.824c.118.235.353.235.471.471,0-.118.118-.118.235,0a5.583,5.583,0,0,1,2,1.648,4.567,4.567,0,0,1,.706,1.295,3.581,3.581,0,0,1-.235,2.707c-.118.118-.118.353-.235.471s-.353.471-.471.588l-.235.235-.353.353c-.118.118-.353.118-.471.353s-.235.353-.353.353c-.235,0-.353,0-.471.118-.353-.118-.706,0-1.059-.118a.115.115,0,0,1-.118-.118c-.118-.118-.235,0-.353,0-.353,0-.588.118-.824,0l-.118.118c-.471,0-1.177-.118-1.295.353l.118.118v.353c.235.706.353,1.648.588,2.354a.518.518,0,0,1-.118.588.9.9,0,0,1-1.059.235c-.118,0-.118.118-.235.118l-.118-.118h-.353c-.235-.118-.471-.235-.471-.353a23.157,23.157,0,0,1-.706-4.119c-.471-1.883-.942-3.648-1.295-5.531-.118-.471.118-.942-.235-1.412,0-.118-.235.118-.353.118a7.029,7.029,0,0,1-1.295.706H9.062c-.353.118-.706.235-.942,0C8.121,11.181,8.238,10.945,8.238,10.827ZM19.654,36.366c0,.118-.353.118-.471.235a.358.358,0,0,0-.471,0c-.235,0-.471-.353-.588-.471-.235-.118-.353-.353-.588-.353v.235c-.118.118-.235-.235-.353-.235h-.118V35.66l-.118-.118v-.235c-.118-.235,0-.471,0-.824a10.931,10.931,0,0,0-.471-1.53c-.235-.588-.118-1.295-.471-1.883-.471-.942-.706-1.883-1.177-2.825h-.118c-.118.471-.353.824-.471,1.295a7.612,7.612,0,0,1-.471,1.53c-.118.235-.118.471-.235.588a2.462,2.462,0,0,0-.471.706c0,.235-.118.471-.118.706-.353-.118-.824.118-1.059-.235-.471.118-.824-.118-1.295-.471-.118-.118-.471-.118-.471-.235A6.673,6.673,0,0,1,9.18,30.6c-.118-.471-.235-.824-.353-1.295A15.718,15.718,0,0,0,8,27.186c-.235.471-.471,1.059-.706,1.53-.118.235-.118.471-.235.706a.364.364,0,0,0-.235.118c0,.353-.118.706-.118.942a.115.115,0,0,1,.118.118,3.945,3.945,0,0,0,0,1.177c.824,1.295.235,2.825.235,4.119,0,.235-.471.235-.588.353a3.476,3.476,0,0,1-1.53-.235c-.118,0-.118-.235-.118-.353.118-1.412.118-2.707.353-4.119a39.1,39.1,0,0,1,1.883-7.3c.118-.471.471-.588.824-.942A4.52,4.52,0,0,1,10.592,24.6c.353,1.412.353,2.942.824,4.237a.115.115,0,0,1,.118.118l2.118-4.237c.235-.471,0-1.295.706-1.53a5.1,5.1,0,0,1,.588.118h.588a.9.9,0,0,0,.588.235h.353c.353.588,0,1.177.118,1.765.118.471,0,.942.118,1.412a26.923,26.923,0,0,1,1.177,2.707,18.454,18.454,0,0,1,.942,3.413l.353,1.412c.118.353.353.588.353.942A2.122,2.122,0,0,1,19.654,36.366Zm3.531-.588c0,.235-.471.118-.588.118-.235,0-.471-.118-.824-.118-.471,0-.471-.588-.824-.824,0,.235-.353.235-.471.118-.471-.471,0-1.177-.235-1.765.118,0,.118,0,.235.235,0,0,.235,0,.235-.118,0-.588-.235-.353-.235-.942a.115.115,0,0,1-.118-.118c0-.235-.118-.471-.118-.824a8.849,8.849,0,0,1,0-1.765.411.411,0,0,0-.118-.235c.118-.353.118-.706.471-.824a2.123,2.123,0,0,1,1.412.353c.118.118.353.235.471.353a1.448,1.448,0,0,1,.588,1.177,30.837,30.837,0,0,0,.118,3.3.411.411,0,0,0-.118.235c0,.353.235.706.235,1.059A.882.882,0,0,1,23.185,35.778Zm-1.648-9.768a3.665,3.665,0,0,1,1.059.824c.118.353.471.588.471.824,0,.353-.235.942-.824.706l-.118.118c-.118-.118-.235-.353-.353-.353-.235,0-.471,0-.471-.353-.118,0-.118.235-.235.235s-.235-.471-.471-.353l.118-.118a1.136,1.136,0,0,1,.471-1.765C21.066,25.774,21.3,25.892,21.537,26.009Zm2.354-4.237a1.418,1.418,0,0,1-.588.588.865.865,0,0,1-.706.235,2,2,0,0,1-.824-.118l-.118-.118c-.353.118-.824-.235-1.177-.353a2.69,2.69,0,0,1-.824-1.177,2.77,2.77,0,0,1,.235-.942c.235-.353.353-.824.588-1.177a1.625,1.625,0,0,1,.353-.471c.118-.118.235-.235.353-.235h.235c.118.118.118.235.235.235l.118-.118c0-.118.353,0,.235-.235a.581.581,0,0,1-.353-.118c-.118,0-.235-.118-.235,0-.235-.118-.588-.118-.706-.353s.118-.353.353-.471a2.3,2.3,0,0,1,.824-.118c.118.118.353.118.471.235.706.471,1.53.706,2,1.412h.118v.118c.353.235.471.706.824,1.059.235.235.353.235.471.235s.353.118.471.118a.691.691,0,0,1,.471.706c0,.471.118.471.118.706,0,.118,0,.353-.118.353-.353,0-.471.118-.824,0-.353,0-.588-.235-.942-.353-.235-.118-.353-.353-.471-.353C24.244,21.184,24.126,21.537,23.891,21.773ZM28.245,36.6a.139.139,0,0,0,.038-.071.167.167,0,0,0,.08.071Zm10.592-.588c-.029-.007-.058-.021-.087-.031C38.82,36,39.347,36.1,38.838,36.013Zm5.649.588a.432.432,0,0,0-.353.118.627.627,0,0,1-.824.588s-.235.118-.235,0a7.243,7.243,0,0,0-2.707-.824c-.118,0-.588-.353-.706-.353a1.493,1.493,0,0,1-.706-.118c-.161-.027-.211-.034-.211-.033a5.036,5.036,0,0,0-1.319-.438H37.19a6.146,6.146,0,0,0-2.471-.471c-.118,0-.235-.235-.353-.235-1.059-.118-2-.706-2.942-.824a6.325,6.325,0,0,1-2.471-.588c-.118.235-.471.118-.588.353V34.6a2.883,2.883,0,0,1,.471,1.412c0,.235.118.471,0,.471a.432.432,0,0,1-.353-.118.26.26,0,0,0-.2.1.57.57,0,0,0-.155-.213c-.118,0-.235,0-.235.118-.118-.118-.353-.235-.353-.471a.253.253,0,0,0-.235.235v.118c-.235-.118-.118-.235,0-.471,0-.118,0,.235.235.118.118-.118.235-.235.118-.353a.163.163,0,0,0-.235,0c-.235-.118-.353-.353-.588-.471-.118-.118-.353-.235-.471-.353-.118-.235.118-.471.118-.824-.118-.588-.471-1.059-.588-1.648a12.968,12.968,0,0,0-.235-2.118,6.946,6.946,0,0,1-.235-1.648.411.411,0,0,1-.118-.235,10.3,10.3,0,0,0-.235-1.883c-.235,0-.235.353-.235.471a15.916,15.916,0,0,0,.471,3.413,25.868,25.868,0,0,1-.706-4.355l.118-.118V23.3a.432.432,0,0,1,.118-.353c-.118,0,0-.118,0-.235a9.473,9.473,0,0,0,1.648,1.059c.471.235,1.295.353,1.295,1.059a17.7,17.7,0,0,0,0,3.531.708.708,0,0,0,.118.471c.118.824-.118,1.648.353,2.354.118.118.353.353.588.235.235,0,.353-.235.471-.353.118-.235,0-.471,0-.588.118-.235.471-.588.353-.942a.411.411,0,0,1,.235-.118c.235,0,.471.353.588,0,.118-.235-.235-.353-.235-.471,0-.353.471-.235.588-.118.235.118.471.471.706.706s.471.588.353.824c0,.353-.471.353-.706.588-.235.353-.588.588-.471.942s.706.353,1.059.588a2.612,2.612,0,0,0,1.295.588v.235a7.187,7.187,0,0,0,1.53.353v.118a7.885,7.885,0,0,0,2.118.824c.118.118.353,0,.471.118a.411.411,0,0,0,.235.118,7.947,7.947,0,0,0,1.648.235c.118,0,.118.353.235.353,1.059.471.824.235,2,.353.235,0,.471-.118.353-.471l.118.118h.353v.235H41.78c-.118,0,0,.118,0,.235.118.235.235,0,.353,0,0,.118-.118.353,0,.353.471,0,.824-.471,1.412-.588,0,.118,0,.235.118.235.235,0,.353-.235.588-.118A.675.675,0,0,1,44.487,36.6Z" fill="#fff"/>
      </g>
      <g id="グループ_3" data-name="グループ 3" transform="translate(71.202 12.475)">
        <path id="パス_6" data-name="パス 6" d="M185.272,10.6l-7.885,13.652L169.5,10.6h-4V33.2h4V17.426l7.3,13.064h.706l7.3-12.946V33.2h4V10.6Z" transform="translate(-41.926 -10.6)" fill="#fff"/>
        <path id="パス_7" data-name="パス 7" d="M115.093,33.179h5.649l-7.885-8.474h2.354a3.832,3.832,0,0,0,3.648-3.648V14.348a3.832,3.832,0,0,0-3.648-3.648H100.5V33.3h3.884V24.823h3.766ZM104.5,14.466h8.827a1.61,1.61,0,0,1,1.765,1.765v2.707a1.61,1.61,0,0,1-1.765,1.765H104.5Z" transform="translate(-53.424 -10.582)" fill="#fff"/>
        <path id="パス_8" data-name="パス 8" d="M78.86,14.248A3.832,3.832,0,0,0,75.211,10.6H60.5V33.2h3.884V24.723H75.211a3.832,3.832,0,0,0,3.648-3.648ZM73.21,20.721H64.384V14.484H73.21a1.61,1.61,0,0,1,1.765,1.765v2.707C75.094,20.015,74.387,20.721,73.21,20.721Z" transform="translate(-60.5 -10.6)" fill="#fff"/>
        <path id="パス_9" data-name="パス 9" d="M95.895,33.2h4.472L90.6,10.6H86.833L77.3,33.2h3.884L83.3,28.136H93.894ZM84.832,24.134l3.766-9.18,3.648,9.18Z" transform="translate(-57.528 -10.6)" fill="#fff"/>
        <g id="グループ_2" data-name="グループ 2" transform="translate(85.796)">
          <path id="パス_10" data-name="パス 10" d="M152.113,16.131V14.248a3.667,3.667,0,0,0-3.648-3.648h-10.71a3.667,3.667,0,0,0-3.648,3.648V19.9a3.832,3.832,0,0,0,3.648,3.648h10.827v5.767H137.048V26.37l-3.648.824v2.354a3.667,3.667,0,0,0,3.648,3.648H148.7a3.667,3.667,0,0,0,3.648-3.648V23.31a3.832,3.832,0,0,0-3.648-3.648H137.872V14.484h10.71v2.589Z" transform="translate(-133.4 -10.6)" fill="#fff"/>
        </g>
        <rect id="長方形_7" data-name="長方形 7" width="4.001" height="22.596" transform="translate(74.027)" fill="#fff"/>
        <rect id="長方形_8" data-name="長方形 8" width="4.001" height="22.596" transform="translate(156.292)" fill="#fff"/>
        <path id="パス_11" data-name="パス 11" d="M218.723,33.2h6.355l-12.593-12,11.3-10.592h-5.767L208.6,20.015V10.6h-4V33.2h4V24.958l.942-.824Z" transform="translate(-35.009 -10.6)" fill="#fff"/>
        <rect id="長方形_9" data-name="長方形 9" width="4.001" height="22.596" transform="translate(195.482)" fill="#fff"/>
      </g>
    </g>
  </g>
</svg>
