<svg id="logo" xmlns="http://www.w3.org/2000/svg" width="422.5" height="74.029" viewBox="0 0 422.5 74.029">
  <g id="グループ_34" data-name="グループ 34">
    <g id="グループ_29" data-name="グループ 29">
      <rect id="長方形_56" data-name="長方形 56" width="74.029" height="74.029" fill="#f7eeda"/>
    </g>
    <g id="グループ_31" data-name="グループ 31" transform="translate(7.532 34.902)">
      <path id="パス_123" data-name="パス 123" d="M23.839,20.953c.735.367,2.021.551,2.021,1.653,0,1.837-.367,3.674,0,5.511a1.1,1.1,0,0,0,.184.735c.184,1.286-.184,2.572.551,3.674.184.184.551.551.918.367.367,0,.551-.367.735-.551.184-.367,0-.735,0-.918.184-.367.735-.918.551-1.47a.641.641,0,0,1,.367-.184c.367,0,.735.551.918,0,.184-.367-.367-.551-.367-.735,0-.551.735-.367.918-.184.367.184.735.735,1.1,1.1s.735.918.551,1.286c0,.551-.735.551-1.1.918-.367.551-.918.918-.735,1.47s1.1.551,1.653.918a4.078,4.078,0,0,0,2.021.918v.367a11.217,11.217,0,0,0,2.388.551v.184a12.308,12.308,0,0,0,3.307,1.286c.184.184.551,0,.735.184a.641.641,0,0,0,.367.184,12.4,12.4,0,0,0,2.572.367c.184,0,.184.551.367.551,1.653.735,1.286.367,3.123.551.367,0,.735-.184.551-.735l.184.184h.551v.367H47.72c-.184,0,0,.184,0,.367.184.367.367,0,.551,0,0,.184-.184.551,0,.551.735,0,1.286-.735,2.2-.918,0,.184,0,.367.184.367.367,0,.551-.367.918-.184a1.054,1.054,0,0,1,.367,1.286.675.675,0,0,0-.551.184.979.979,0,0,1-1.286.918s-.367.184-.367,0a11.3,11.3,0,0,0-4.225-1.286c-.184,0-.918-.551-1.1-.551a2.33,2.33,0,0,1-1.1-.184c-1.1-.184.918.184-.184,0a10.356,10.356,0,0,0-2.2-.735h-.367a9.593,9.593,0,0,0-3.858-.735c-.184,0-.367-.367-.551-.367-1.653-.184-3.123-1.1-4.592-1.286a9.872,9.872,0,0,1-3.858-.918c-.184.367-.735.184-.918.551v1.286a4.5,4.5,0,0,1,.735,2.2c0,.367.184.735,0,.735a.675.675,0,0,1-.551-.184c-.184,0-.551.184-.184.367h-.184c.184-.184,0-.367-.184-.551-.184,0-.367,0-.367.184-.184-.184-.551-.367-.551-.735a.4.4,0,0,0-.367.367v.184c-.367-.184-.184-.367,0-.735,0-.184,0,.367.367.184.184-.184.367-.367.184-.551a.254.254,0,0,0-.367,0c-.367-.184-.551-.551-.918-.735-.184-.184-.551-.367-.735-.551-.184-.367.184-.735.184-1.286-.184-.918-.735-1.653-.918-2.572a20.242,20.242,0,0,0-.367-3.307,10.841,10.841,0,0,1-.367-2.572A.641.641,0,0,1,22,27.934a16.078,16.078,0,0,0-.367-2.939c-.367,0-.367.551-.367.735A24.842,24.842,0,0,0,22,31.057c-.735-2.2-.735-4.409-1.1-6.8l.184-.184V20.218a.675.675,0,0,1,.184-.551c-.184,0,0-.184,0-.367A14.787,14.787,0,0,0,23.839,20.953Z" transform="translate(9.961 -18.749)" fill="#004094"/>
      <path id="パス_124" data-name="パス 124" d="M19.078,22.267a5.72,5.72,0,0,1,1.653,1.286c.184.551.735.918.735,1.286,0,.551-.367,1.47-1.286,1.1L20,26.125c-.184-.184-.367-.551-.551-.551-.367,0-.735,0-.735-.551-.184,0-.184.367-.367.367s-.367-.735-.735-.551l.184-.184a1.773,1.773,0,0,1,.735-2.755C18.343,21.9,18.711,22.084,19.078,22.267Z" transform="translate(7.007 -16.573)" fill="#004094"/>
      <path id="パス_125" data-name="パス 125" d="M20.039,24.973c.184.184.551.367.735.551a2.261,2.261,0,0,1,.918,1.837,48.132,48.132,0,0,0,.184,5.143.641.641,0,0,0-.184.367c0,.551.367,1.1.367,1.653a1.377,1.377,0,0,1-.184.918c0,.367-.735.184-.918.184-.367,0-.735-.184-1.286-.184-.735,0-.735-.918-1.286-1.286,0,.367-.551.367-.735.184-.735-.735,0-1.837-.367-2.755.184,0,.184,0,.367.367,0,0,.367,0,.367-.184,0-.918-.367-.551-.367-1.47a.18.18,0,0,1-.184-.184c0-.367-.184-.735-.184-1.286a13.811,13.811,0,0,1,0-2.755.641.641,0,0,0-.184-.367c.184-.551.184-1.1.735-1.286A3.313,3.313,0,0,1,20.039,24.973Z" transform="translate(6.78 -14.503)" fill="#004094"/>
      <path id="パス_126" data-name="パス 126" d="M21.735,20.251h.551c.551.918,0,1.837.184,2.755.184.735,0,1.47.184,2.2a42.023,42.023,0,0,1,1.837,4.225,28.8,28.8,0,0,1,1.47,5.327l.551,2.2c.184.551.551.918.551,1.47a3.311,3.311,0,0,1,.184,1.837c0,.184-.551.184-.735.367a.559.559,0,0,0-.735,0c-.367,0-.735-.551-.918-.735-.367-.184-.551-.551-.918-.551v.367c-.184.184-.367-.367-.551-.367H23.2v-.184l-.184-.184v-.367c-.184-.367,0-.735,0-1.286a17.061,17.061,0,0,0-.735-2.388c-.367-.918-.184-2.021-.735-2.939-.735-1.47-1.1-2.939-1.837-4.409H19.53c-.184.735-.551,1.286-.735,2.021a11.882,11.882,0,0,1-.735,2.388c-.184.367-.184.735-.367.918a3.843,3.843,0,0,0-.735,1.1c0,.367-.184.735-.184,1.1-.551-.184-1.286.184-1.653-.367-.735.184-1.286-.184-2.021-.735-.184-.184-.735-.184-.735-.367a10.415,10.415,0,0,1-1.47-2.388c-.184-.735-.367-1.286-.551-2.021A24.533,24.533,0,0,0,9.06,25.946c-.367.735-.735,1.653-1.1,2.388-.184.367-.184.735-.367,1.1a.569.569,0,0,0-.367.184c0,.551-.184,1.1-.184,1.47a.18.18,0,0,1,.184.184,6.158,6.158,0,0,0,0,1.837c1.286,2.021.367,4.409.367,6.429,0,.367-.735.367-.918.551a5.425,5.425,0,0,1-2.388-.367c-.184,0-.184-.367-.184-.551.184-2.2.184-4.225.551-6.429A61.032,61.032,0,0,1,7.59,21.353c.184-.735.735-.918,1.286-1.47,1.47.367,3.307.735,4.225,2.021.551,2.2.551,4.592,1.286,6.613a.18.18,0,0,1,.184.184l3.307-6.613c.367-.735,0-2.021,1.1-2.388a7.956,7.956,0,0,1,.918.184h.918A1.405,1.405,0,0,0,21.735,20.251Z" transform="translate(-4.1 -18.414)" fill="#004094"/>
      <g id="グループ_30" data-name="グループ 30" transform="translate(47.916)">
        <path id="パス_127" data-name="パス 127" d="M36.091,20.47v.551c0,.184,0,.367.367.551a.907.907,0,0,0,.184.551h.184a1.588,1.588,0,0,1-.551,1.1c.184.184,0,.367,0,.551-.184.367-.551.551-.735.918,0,.184-.184,0-.367,0a.675.675,0,0,0-.551.184c0-.551-.184,0-.551,0-.184,0-.184-.367-.367-.551h-.184c-.184-.184-.184-.367-.551-.551-.184,0,0-.367,0-.735-.184-.367-.735-.367-1.1-.918-.184-.184-.367,0-.551.184-.367.367-.184,1.1-.918.918-.367-.184-.184-.735,0-1.1a6.444,6.444,0,0,1,.918-1.47c.184-.184.551-.184.735-.367.184,0,0-.551.367-.735H32.6c.184,0,.367-.551.551-.551s.367.184.551.184,0,.367.367.367c.184,0,.367-.184.735-.184C35.356,19.918,35.908,19.918,36.091,20.47Z" transform="translate(-30.185 -19)" fill="#004094"/>
        <path id="パス_128" data-name="パス 128" d="M31.953,22.952c.184-.184.367-.367.184-.551l.184.184v.367s0,.551.367,0c.184-.184,0-.735,0-.735.367-.184.367.367.735.367.184.184,0,.367,0,.551v.918h.184v-.367c.184,0,.184.184.184.367v.918c0,.184,0,.367.184.367.367,0,.184-.551.367-.918a1.656,1.656,0,0,1-.184.918c-.367.735,0,1.286,0,2.021a2.244,2.244,0,0,1-.735,1.653c.367.367.184.735,0,1.1,0,0,.367,0,.367.184-.367.367-.367.918,0,1.1v.184c.367.184.367.735.735.735a.641.641,0,0,0,.184-.367c.367.367.184.918.184,1.47a.4.4,0,0,0-.367-.367c-.367.184-.184.184-.551,0l-.184.184a.808.808,0,0,1-.184-.918c-.367.184,0-.551-.551,0v.735h-.184c-.184-.184-.184-.367-.735-.367l-.367-.367c0,.184-.184.551-.551.367-.184,0-.367-.367-.367-.551,0-2.021,0-4.041-.184-6.062A24.9,24.9,0,0,0,30.3,22.4C31.218,23.319,31.77,23.136,31.953,22.952Z" transform="translate(-30.088 -16.339)" fill="#004094"/>
      </g>
    </g>
    <g id="グループ_33" data-name="グループ 33" transform="translate(12.675 12.859)">
      <path id="パス_129" data-name="パス 129" d="M30.739,12.137c0-.184.367,0,.367,0,.367.184.918.184,1.286.551.184.184.551.184.551.367s-.367,0-.551.184a1.393,1.393,0,0,0-.367.735c-.367.184-.918,0-1.1.367-.184.184-.551.551-.551.735v.551l.184.184a.18.18,0,0,0-.184.184c0,.551-.367.735-.367,1.286,0,.184,0,.551.184.551a31.982,31.982,0,0,0,2.572,2.2,1.834,1.834,0,0,1,.735.918c.184,0,.184.184.367.367a1.757,1.757,0,0,1,0,1.653c0,.184.367.184.184.367a1.24,1.24,0,0,1-.735,1.1h-.367a3.812,3.812,0,0,0-1.1,1.837c0,.184.367.184.184.367a.954.954,0,0,1-.735.367c-.184,0-.367.367-.551.551-.184,0-.367-.367-.551-.367-.367,0-.367.367-.367.551-.367-.184-.551.184-.918.367,0-.184-.184-.551,0-.918.184-.184.551-.551.551-.735s.367-.184.184-.551c.367,0,.551-.367.735-.551a6.751,6.751,0,0,0,1.47-2.755,1.984,1.984,0,0,0-.551-1.286c-1.1-.918-2.388-1.653-3.123-2.939a1.979,1.979,0,0,1-.367-1.47c0-.184.367-.551.367-.735,0-.367-.184-.735-.184-1.1s.367-.735.367-1.286a.18.18,0,0,1-.184-.184,2.47,2.47,0,0,1,1.1-1.286c.184-.184.551.184.918,0A.907.907,0,0,0,30.739,12.137Z" transform="translate(10.592 -2.769)" fill="#00a1af"/>
      <g id="グループ_32" data-name="グループ 32" transform="translate(33.433 8.083)">
        <path id="パス_130" data-name="パス 130" d="M27.737,12.5a.641.641,0,0,1,.367.184,2.363,2.363,0,0,1,.735,2.2c-.184.367-.735.735-.918.184h-.184c-.184-.184-.367-.551-.551-.551a.18.18,0,0,1-.184.184c-.184,0-.367,0-.367-.184A1.22,1.22,0,0,0,25.9,13.6a.641.641,0,0,0,.184-.367,1.656,1.656,0,0,0-.184-.918c0-.184.184-.184.367-.367s0-.367.184-.367l.184-.184c.184,0,.184.367.367.367h.367C27.553,12.135,27.37,12.318,27.737,12.5Z" transform="translate(-24.43 -11.4)" fill="#00a1af"/>
        <path id="パス_131" data-name="パス 131" d="M25.651,16.155c.184.367.184.918.367,1.47v1.1c0,.184.184.551.367.551,0-.184-.184-.184-.184-.367.184-.184.367-.184.367,0a7.479,7.479,0,0,0,2.2,2.572,1.377,1.377,0,0,0,.918.184.675.675,0,0,0,.551-.184c.367-.184.735-.184,1.1-.367a.4.4,0,0,0,.367-.367A.907.907,0,0,0,31.9,20.2a2.436,2.436,0,0,0-1.837-1.1c-.184-.184-.551.184-.735,0-.735-1.1-.184-2.572-.551-3.858-.184-.918-1.286-1.1-2.2-1.1,0-.551-.551-.367-.735-.735-.184.367-.551.551-.735.918C25.284,14.87,25.467,15.6,25.651,16.155Z" transform="translate(-25.1 -9.726)" fill="#00a1af"/>
      </g>
      <path id="パス_132" data-name="パス 132" d="M23.009,17.976c.184,0,.367.551.551.918a9.479,9.479,0,0,1,.367,2.021c0,.184,0,.735.367.918.184.184.367.184.551.367a.675.675,0,0,1,.551.184h.735c.367-.184,0-.918-.184-1.286a1.952,1.952,0,0,1,.184-1.47c0-.184.184-.184.184-.367.184-.735.367-1.286.551-2.021a3.225,3.225,0,0,0,.735-.918.675.675,0,0,0,.184-.551,7.224,7.224,0,0,1,.367-1.1c.184-.367,0-.735-.367-.551a17.79,17.79,0,0,0-2.021.551c-.367.184-.551.551-.918.735a5.582,5.582,0,0,0-.918-1.286,4.816,4.816,0,0,0-1.653-.918c0,.184-.367.184-.367.367,0,.367-.367.367-.184.735a1.393,1.393,0,0,1,.367.735c0,.918.918.918.735,1.837a.18.18,0,0,0,.184.184A.834.834,0,0,0,23.009,17.976Z" transform="translate(5.464 -1.811)" fill="#00a1af"/>
      <path id="パス_133" data-name="パス 133" d="M24.351,22.063q.276,0,.551-.551c.184-.367.551-.367.735-.551l.551-.551.367-.367c.184-.184.551-.735.735-.918s.184-.551.367-.735a5.59,5.59,0,0,0,.367-4.225,7.128,7.128,0,0,0-1.1-2.021A8.714,8.714,0,0,0,23.8,9.572c-.184-.184-.367-.184-.367,0-.184-.367-.551-.367-.735-.735a22.409,22.409,0,0,0-3.123-1.286A19.289,19.289,0,0,0,15.166,7c-3.123.184-6.062,1.1-8.083,3.674v.367c0,.184-.184.551-.184.735.367.367.918.184,1.47,0H9.1a10.972,10.972,0,0,0,2.021-1.1c.184,0,.551-.367.551-.184.551.735.184,1.47.367,2.2.551,2.939,1.286,5.695,2.021,8.634.367,2.021.367,4.592,1.1,6.429,0,.184.367.367.735.551h.551l.184.184c.184,0,.184-.184.367-.184a1.4,1.4,0,0,0,1.653-.367.808.808,0,0,0,.184-.918c-.367-1.1-.551-2.572-.918-3.674V22.8l-.184-.184c.184-.735,1.286-.551,2.021-.551l.184-.184c.367.184.735,0,1.286,0,.184,0,.367-.184.551,0a.18.18,0,0,0,.184.184c.551.184,1.1,0,1.653.184C23.8,22.063,23.984,22.063,24.351,22.063ZM23.8,16.92c-.184.367-.551.551-.551.918h.184c0,.367-.551.551-.184.735-.184.184-.184.551-.367.735-.184,0-.367,0-.367.184a1.01,1.01,0,0,1-.918.551c-.551,0-1.1.184-1.47,0s-.735.367-1.1.367-.735.184-.918,0c-.367-.184-.367-.551-.367-.918A46.149,46.149,0,0,1,17,14.532a32.991,32.991,0,0,1-.367-4.041c0-.367-.551-.735-.551-1.1,0-.184.367-.184.367-.367.735,0,1.653-.367,2.388,0a6.8,6.8,0,0,1,4.041,2.2c.184.184.367,0,.551.367l.551.551v.367c.735.551.551,1.47.735,2.388C24.718,15.634,24.167,16.185,23.8,16.92Z" transform="translate(-6.9 -7)" fill="#00a1af"/>
      <path id="パス_134" data-name="パス 134" d="M19.823,15.77a.907.907,0,0,0,.551.184c.184.367-.367.184-.367.367l-.184.184c-.184,0-.184-.184-.367-.367h-.367c-.184,0-.367.184-.551.367a2.536,2.536,0,0,0-.551.735c-.367.551-.551,1.286-.918,1.837a4.323,4.323,0,0,0-.367,1.47,4.2,4.2,0,0,0,1.286,1.837c.551.184,1.286.735,1.837.551l.184.184a3.126,3.126,0,0,0,1.286.184,1.35,1.35,0,0,0,1.1-.367,2.214,2.214,0,0,0,.918-.918c.367-.367.551-.918.918-1.1.184,0,.367.367.735.551.551.184.918.551,1.47.551.551.184.735,0,1.286,0,.184,0,.184-.367.184-.551,0-.367-.184-.367-.184-1.1a1.079,1.079,0,0,0-.735-1.1c-.184,0-.551-.184-.735-.184s-.367,0-.735-.367c-.551-.551-.735-1.286-1.286-1.653v-.184h-.184c-.735-1.1-2.021-1.47-3.123-2.2-.184-.184-.551-.184-.735-.367a3.586,3.586,0,0,0-1.286.184c-.367.184-.735.367-.551.735s.735.367,1.1.551C19.455,15.586,19.639,15.77,19.823,15.77Zm2.755,4.041h0c0,.184-.184.184-.184.367-.184.184-.367.367-.551.184a.184.184,0,0,1-.367,0,1.35,1.35,0,0,1-1.1.367c-.367.184-.735,0-1.1,0-.184,0-.551-.184-.551-.367-.184-.551.184-1.286.735-1.286,0,0,.184.184,0,.184.184-.184.551-.184.735-.551-.184,0-.184,0-.184-.184,0-.367.551-.367.735-.367.184-.184.184.184.184.184.367,0,.367-.367.735-.184,0-.184.184-.551.367-.367a.641.641,0,0,1,.184.367,1.859,1.859,0,0,1,.735,1.286S22.762,19.811,22.578,19.811Z" transform="translate(1.302 -0.89)" fill="#00a1af"/>
    </g>
  </g>
  <g id="グループ_36" data-name="グループ 36" transform="translate(111.136 19.472)">
    <path id="パス_135" data-name="パス 135" d="M196.361,10.6,184.053,31.909,171.746,10.6H165.5V45.87h6.246V21.254l11.389,20.39h1.1l11.389-20.207V45.87h6.246V10.6Z" transform="translate(27.38 -10.6)" fill="#003d6d"/>
    <path id="パス_136" data-name="パス 136" d="M123.278,45.786H132.1L119.788,32.56h3.674a5.98,5.98,0,0,0,5.695-5.695V16.395a5.98,5.98,0,0,0-5.695-5.695H100.5V45.97h6.062V32.743h5.878ZM106.746,16.578h13.777a2.513,2.513,0,0,1,2.755,2.755v4.225a2.513,2.513,0,0,1-2.755,2.755H106.746Z" transform="translate(-27.022 -10.516)" fill="#003d6d"/>
    <path id="パス_137" data-name="パス 137" d="M89.157,16.295A5.98,5.98,0,0,0,83.462,10.6H60.5V45.87h6.062V32.643h16.9a5.98,5.98,0,0,0,5.695-5.695ZM80.339,26.4H66.562V16.662H80.339a2.513,2.513,0,0,1,2.755,2.755v4.225C83.278,25.3,82.176,26.4,80.339,26.4Z" transform="translate(-60.5 -10.6)" fill="#003d6d"/>
    <path id="パス_138" data-name="パス 138" d="M106.324,45.87h6.98L98.058,10.6H92.179L77.3,45.87h6.062l3.307-7.9H103.2ZM89.057,31.725,94.935,17.4l5.695,14.328Z" transform="translate(-46.439 -10.6)" fill="#003d6d"/>
    <g id="グループ_35" data-name="グループ 35" transform="translate(133.914 0)">
      <path id="パス_139" data-name="パス 139" d="M162.608,19.234V16.295a5.723,5.723,0,0,0-5.695-5.695H140.2a5.723,5.723,0,0,0-5.695,5.695v8.817a5.98,5.98,0,0,0,5.695,5.695h16.9v9h-18V35.215L133.4,36.5v3.674a5.723,5.723,0,0,0,5.695,5.695H157.28a5.723,5.723,0,0,0,5.695-5.695V30.439a5.98,5.98,0,0,0-5.695-5.695h-16.9V16.662H157.1V20.7Z" transform="translate(-133.4 -10.6)" fill="#003d6d"/>
    </g>
    <rect id="長方形_57" data-name="長方形 57" width="6.246" height="35.27" transform="translate(115.544 0)" fill="#003d6d"/>
    <rect id="長方形_58" data-name="長方形 58" width="6.246" height="35.27" transform="translate(243.948 0)" fill="#003d6d"/>
    <path id="パス_140" data-name="パス 140" d="M226.643,45.87h9.92L216.908,27.133,234.542,10.6h-9l-14.7,14.7V10.6H204.6V45.87h6.246V33.011l1.47-1.286Z" transform="translate(60.105 -10.6)" fill="#003d6d"/>
    <rect id="長方形_59" data-name="長方形 59" width="6.246" height="35.27" transform="translate(305.118 0)" fill="#003d6d"/>
  </g>
</svg>
