<svg xmlns="http://www.w3.org/2000/svg" width="302.549" height="39.912" viewBox="0 0 302.549 39.912">
  <path id="section-sabae-plant_ttl" d="M23.32-8.184v-8.4h7.436c1.364,0,2.112-.308,2.068-.924,0-.924-2.684-3.344-3.52-3.344-.572,0-1.54,1.32-2.332,2.508H23.32V-23.8c.792-.22,1.188-.528,1.188-1.012a.625.625,0,0,0-.088-.264h6.952c1.5,0,2.2-.308,2.2-.924,0-.968-2.9-3.344-3.7-3.344-.572,0-1.628,1.32-2.42,2.508H11.616c-.572,0-.968.22-.968.88,0,.7.4.88.968.88h8.756v6.732H13.288c-.572,0-.968.22-.968.88,0,.7.4.88.968.88h7.084v8.4H11c-.572,0-.968.22-.968.88,0,.7.4.88.968.88H33c.88,0,1.76-.308,1.76-.968,0-.924-2.376-3.564-3.256-3.564-.572,0-1.584,1.408-2.42,2.772Zm2.772-6.864c-1.144-.264-1.452.572-.836,1.276.44.572,1.012,1.232,1.408,1.8.572.924,1.012,1.8,1.98,1.672a1.608,1.608,0,0,0,1.5-1.936C29.964-13.86,28.028-14.7,26.092-15.048ZM7.612-1.98c-.044-5.1-.088-13.64-.088-14.784,0-1.8,0-11.968.22-15.048a4.755,4.755,0,0,0,.924-.22H36.652c.088,4.268-.044,22.4-.132,30.052ZM8.888-33.792A12.837,12.837,0,0,0,4.8-35.464a.6.6,0,0,0-.616.616c.748,6.688.176,31.24.176,36.74,0,.836.352,1.32,1.232,1.32C7,3.212,7.612,2.64,7.612,1.628V-.22H36.52V1.408a1.321,1.321,0,0,0,1.364,1.5c1.232,0,2.068-.352,2.068-1.716,0-3.432-.528-25.652-.176-32.3.88-.352,1.716-.836,1.716-1.452,0-.968-2.728-3.036-3.652-3.036-.484,0-1.276.924-1.936,1.8ZM85.008-9.9a1.864,1.864,0,0,0,1.232-2.64c-.616-2.068-3.52-4.8-8.668-5.94-1.012-.22-1.452.836-.792,1.32a35.1,35.1,0,0,1,3.256,2.948c1.232,1.276,2.068,2.552,2.772,3.344C83.512-10.032,84.04-9.636,85.008-9.9ZM76.3-28.38c.088-1.584.088-3.256.044-5.1,1.5-.264,1.98-.88,1.98-1.452,0-.968-2.684-1.452-4.664-1.452-.836,0-1.188.176-1.056,1.012a42.578,42.578,0,0,1,.4,4.664c0,.792,0,1.584-.044,2.332H62a13,13,0,0,0-4.136-1.672.6.6,0,0,0-.616.616c.66,5.984.176,26.4.176,31.284A1.122,1.122,0,0,0,58.7,3.124c1.408,0,2.068-.528,2.068-1.5,0-1.584-.088-14.124-.088-15.444,0-1.5,0-9.988.176-12.584a4.754,4.754,0,0,0,.924-.22H72.864c-.66,8.712-3.872,12.452-10.428,16.5-1.364.836-.66,2.288.88,1.628,8.008-3.52,11.968-8.184,12.848-18.128H88.616v12.276c0,3.784.088,9.064-.088,11.7-.088,1.232-.572,1.672-1.716,1.672-.968,0-2.772-.264-3.168-.264-.836,0-1.012,1.144-.088,1.452,3.036.836,2.068,2.64,3.74,2.64a3.99,3.99,0,0,0,4.18-3.872c0-8.1-.044-18.3.132-24.508,1.012-.352,1.936-.836,1.936-1.452,0-.836-2.948-3.344-4.048-3.344-.308,0-1.188,1.012-1.892,1.936ZM117.568-2.42l-.044-7.436h20.284l-.044,7.436Zm-.088-11.836v-4.488h20.372l-.044,7.128H117.48Zm.044-6.248c0-2.64.044-5.368.132-6.644a3.531,3.531,0,0,0,.792-.176h19.4v6.82Zm9.02-8.58a37.92,37.92,0,0,0,2.816-4.488c.88-.088,1.848-.44,1.892-1.012.088-1.1-2.244-1.8-4.532-2.112-.528-.044-.88.264-.836.572a34.42,34.42,0,0,1-1.892,7.04h-5.148A11.935,11.935,0,0,0,114.62-30.8a.6.6,0,0,0-.616.616c.66,6.072.176,27.06.176,31.988a1.122,1.122,0,0,0,1.276,1.276c1.408,0,2.112-.528,2.112-1.5V-.66H137.72V1.32a1.354,1.354,0,0,0,1.408,1.5c1.276,0,2.112-.352,2.112-1.716,0-3.124-.44-21.428-.132-27.676.968-.352,1.892-.836,1.892-1.54,0-1.012-2.86-3.124-3.872-3.124-.572,0-1.584,1.188-2.288,2.156ZM171.688-27.5v-6.512c1.056-.22,1.76-.528,1.76-1.232,0-1.012-3.74-1.364-4.488-1.364a.553.553,0,0,0-.616.66c.22,1.848.176,5.72.132,8.448h-7.04c-.572,0-.968.22-.968.88,0,.7.4.88.968.88h12.012a31.363,31.363,0,0,1-3.608,6.116,5.746,5.746,0,0,0-1.5-.484.545.545,0,0,0-.616.572c.044.66.132,1.408.132,2.288a47.326,47.326,0,0,1-8.36,7.392c-1.012.836-.308,2.024.836,1.364a41.718,41.718,0,0,0,7.656-5.28C168.036-8.008,167.9-.7,167.86,1.98a1.05,1.05,0,0,0,1.188,1.188c1.32,0,1.936-.44,1.98-1.408,0-1.144-.044-8.536-.044-10.076,0-1.1,0-6.116.044-8.4A37.6,37.6,0,0,0,176.7-24.6c1.232-.176,2.156-.7,2.156-1.232-.044-1.012-2.64-3.564-3.52-3.52-.484,0-1.364.968-2.068,1.848Zm5.676,17.2a1.747,1.747,0,0,0,1.628-2.068c-.132-1.892-2.376-3.344-4.884-4.18-1.188-.352-1.584.616-.924,1.408.616.792,1.276,1.716,1.8,2.552C175.824-11.264,176.264-10.208,177.364-10.3ZM188.5-.66V-18.612H196.5c1.408,0,2.332-.4,2.332-1.056,0-1.1-3.124-3.872-4.048-3.872-.7,0-1.936,1.716-2.9,3.168H188.5v-12.32c1.364-.308,2.332-.66,2.332-1.628,0-1.144-4.708-1.276-5.456-1.276-.4,0-.66.22-.616.616.264,2.024.352,8.052.4,14.608H177.5c-.572,0-.968.22-.968.88,0,.7.4.88.968.88h7.656c0,7.04-.088,14.388-.132,17.952H174.944c-.572,0-.968.22-.968.88,0,.7.4.88.968.88H198.7c1.452,0,2.332-.4,2.332-1.056,0-1.1-3.08-3.916-4.048-3.916-.7,0-1.98,1.716-2.948,3.212Zm46.2-2.068V-27.984a1.428,1.428,0,0,0,.748-.528H249.26c1.76,0,2.552-.4,2.552-1.056,0-1.144-3.344-3.872-4.268-3.872-.7,0-2.024,1.716-2.992,3.168h-28.6c-.572,0-.968.22-.968.88,0,.7.4.88.968.88h15.664l-.044,25.784H214.148c-.572,0-.968.22-.968.88,0,.7.4.88.968.88h36.74c1.8,0,2.552-.44,2.552-1.056,0-1.144-3.344-3.872-4.268-3.872-.7,0-2.024,1.716-2.992,3.168Zm63.1-29.7v3.7h-10.6c0-1.32.044-2.9.088-3.7Zm-10.56,9.064-.044-3.564v-.044h10.56l-.044,3.608Zm0,1.76H297.7v.484c0,.7.308,1.5,1.32,1.5,1.232,0,1.936-.352,1.936-1.716-.044-1.452-.132-7.568-.044-10.472.792-.308,1.5-.7,1.5-1.276,0-.968-2.6-2.86-3.476-2.86-.484,0-1.276.924-1.892,1.76h-8.668a9.719,9.719,0,0,0-3.784-1.672.526.526,0,0,0-.616.572c.44,4.048.176,12.232.176,15.224a1.056,1.056,0,0,0,1.144,1.188c1.276,0,1.936-.44,1.936-1.364Zm-11.792-1.8h5.016c1.012,0,1.848-.308,1.848-.924,0-.968-2.508-3.476-3.344-3.476-.528,0-1.54,1.364-2.376,2.64H275.44V-32.6c1.364-.308,2.332-.66,2.332-1.628,0-1.144-4.356-1.276-5.1-1.276-.4,0-.66.22-.616.616.22,1.584.308,5.456.352,9.724h-5.412c-.572,0-.968.22-.968.88,0,.7.4.88.968.88H272.4c.044,4.444,0,9.108-.044,12.056-1.98.66-4.18,1.276-6.512,1.848-.352.044-.528.176-.44.572.528,2.376,1.32,4.18,2.244,4.136.748-.044,1.1-1.056,1.232-2.156a56.71,56.71,0,0,0,11.792-5.72c1.452-1.056.968-2.2-.7-1.54-1.32.572-2.816,1.188-4.532,1.848Zm4.092,5.148c-.572,0-.968.22-.968.88,0,.7.4.88.968.88h5.984c-1.716,3.916-4.884,7.436-9.02,11.044-.968.836-.264,1.892.836,1.276a37.516,37.516,0,0,0,8.272-7.128h3.344C286.264-6.688,282.216-3.08,276.936,0c-1.1.66-.66,1.936.748,1.364A27.885,27.885,0,0,0,291.9-10.516c.528,0,1.012-.176,1.1-.616v-.176h2.772c-2.2,6.38-6.512,9.9-12.5,12.672-1.144.572-.7,1.848.528,1.452,7.876-2.2,12.584-6.952,15.048-13.42a1.021,1.021,0,0,0,.924-.7h1.98A22.288,22.288,0,0,1,299.376-2.2c-.748,1.364-1.452,1.8-2.684,1.8-.968,0-1.936-.132-2.332-.132-.352,0-.66.132-.7.484-.088.44.132.7.7.968a2.215,2.215,0,0,1,1.188.924c.264.572.352.924,1.584.924,1.98,0,3.256-1.1,4.312-2.772,1.276-2.024,2.42-5.72,2.992-10.252.968-.484,1.716-1.056,1.716-1.628,0-.748-2.332-2.552-3.3-2.552-.352,0-1.012.66-1.584,1.364H287.012a20.889,20.889,0,0,0,1.54-2.288c1.32,0,1.936-.352,1.892-.968,0-.044-.044-.132-.044-.176h14.168c1.452,0,2.156-.308,2.156-.924,0-1.012-2.86-3.476-3.7-3.476-.616,0-1.672,1.408-2.508,2.64Z" transform="translate(-4.175 36.7)" fill="#fff"/>
</svg>
