<svg xmlns="http://www.w3.org/2000/svg" width="313.384" height="86.364" viewBox="0 0 313.384 86.364">
  <path id="section-brand_stylej_copy" d="M25.312-14.368a5.311,5.311,0,0,0-3.968-1.856c-2.624,0-4.576,3.456-7.584,8.064-.96,1.472-1.888,2.976-2.784,2.976C9.7-5.184,7.712-6.56,7.712-9.5c0-2.112,1.152-4.064,1.152-5.7,0-1.536-1.984-3.456-4.064-3.84-.672-.128-1.024.32-.576.832,1.472,1.7,1.92,2.208,1.92,3.9,0,1.44-.352,2.432-.352,4.992,0,3.68,2.784,6.944,5.472,6.944,1.408,0,1.92-.7,3.072-2.784,1.856-3.36,4.448-9.5,6.816-9.5,1.856,0,3.2,2.208,3.744,4.8.352,1.7.384,3.744,1.5,3.744.992,0,1.6-.8,1.6-2.08A9.559,9.559,0,0,0,25.312-14.368Zm17.44-.928a.522.522,0,0,0-.928.256,4.024,4.024,0,0,0,.064,1.728,3.577,3.577,0,0,0,3.1,2.656c1.216.064,3.712-1.632,5.024-2.528,1.472-.992,5.024-3.84,8.672-3.84a5.364,5.364,0,0,1,5.632,5.5c0,5.7-6.656,7.456-13.44,7.872-1.056.064-1.056,1.152,0,1.248,8.256.736,16-1.632,16-8.8,0-3.776-3.328-7.3-8.288-7.3-4.48,0-8.544,2.848-11.68,4.352a5.638,5.638,0,0,1-2.208.576C43.9-13.568,43.168-14.816,42.752-15.3Zm51.872.992c-.96-.288-1.28.512-.448,1.056C96-12.064,99.68-9.824,99.68-6.3c0,2.656-1.536,5.184-5.824,5.184-1.952,0-3.68-.672-3.68-3.168a15.9,15.9,0,0,1,.16-1.984,16.67,16.67,0,0,0,2.048.128c1.856,0,2.176-.672,2.176-1.248,0-.672-.576-.96-3.84-1.312.448-2.368,1.024-4.864,1.376-6.336a60.576,60.576,0,0,0,1.5-6.432c0-1.92-2.5-3.424-4.192-3.424-.736,0-1.344.352-1.344.672,0,.384.672.736,1.28,1.152,1.056.7,1.568,1.152,1.568,2.08a38.911,38.911,0,0,1-.864,5.664c-.32,1.536-.832,3.936-1.216,6.368-2.272-.448-4.512-1.248-4.512-2.24,0-.9,2.016-2.176,3.264-2.912,1.184-.7,1.44-1.376,1.12-2.4-.544-1.728-2.5-3.264-4.576-3.84-.7-.192-.992.384-.576.8a13.7,13.7,0,0,1,2.112,2.336,1.521,1.521,0,0,1,0,2.048c-.7.992-2.816,2.752-2.816,4.256,0,2.048,3.072,3.488,5.664,4.224-.1.96-.16,1.856-.16,2.656C88.352-.64,91.3.9,93.952.9c5.184,0,8.224-3.008,8.224-6.784C102.176-10.112,98.24-13.216,94.624-14.3Zm38.3-2.4c-1.5,4.288-6.112,10.528-9.184,10.528-.928,0-1.792-1.5-1.952-3.968a8.466,8.466,0,0,1,2.528-7.04,9.209,9.209,0,0,1,6.5-2.368,14.2,14.2,0,0,1,2.688.256A9.99,9.99,0,0,1,132.928-16.7Zm-2.016-4.448a12.192,12.192,0,0,0-7.84,2.848,10.436,10.436,0,0,0-3.36,8.9C120-5.632,121.664-3.3,123.36-3.3c3.84,0,9.184-6.368,11.04-11.488a15.431,15.431,0,0,0,.9-3.936,7.885,7.885,0,0,1,4.96,7.616c0,5.248-3.584,7.584-9.12,8.672-.992.192-.928,1.184.192,1.184,6.592,0,11.52-3.168,11.52-9.312C142.848-16.32,138.56-21.152,130.912-21.152ZM163.936-15.3h5.6c.928,0,1.632-.288,1.632-.768,0-.768-2.176-2.816-2.848-2.816-.512,0-1.408,1.216-2.112,2.3h-2.272v-5.216c.832-.1,1.216-.384,1.216-.768a.391.391,0,0,0-.128-.288c1.248-.256,2.368-.512,3.232-.768,1.152.608,1.792.224,1.408-.48a6.771,6.771,0,0,0-1.44-1.632c-.672-.544-.8-.512-1.536-.128a38.714,38.714,0,0,1-10.752,2.944c-.992.192-.8,1.184.1,1.152a53.472,53.472,0,0,0,5.792-.544v5.728h-6.112c-.416,0-.7.16-.7.64,0,.512.288.64.7.64h5.472a34.4,34.4,0,0,1-6.752,11.648c-.7.832,0,1.472.832.832a25.447,25.447,0,0,0,6.56-7.808c0,6.848-.128,10.528-.128,11.872,0,.608.256.96.864.96.992,0,1.536-.48,1.536-1.152,0-1.248-.16-5.184-.16-12.288Zm4.16,7.68a1.4,1.4,0,0,0,1.536-1.472c0-1.568-1.76-2.656-3.52-3.168-.864-.256-1.184.352-.768.96a19.87,19.87,0,0,1,1.12,1.92C166.976-8.384,167.264-7.616,168.1-7.616Zm11.1-1.472c-.608-.48-1.216.128-.864.7a31.2,31.2,0,0,1,2.016,3.84c.1.256.192.48.288.736a81.39,81.39,0,0,1-8.1,1.024,114.155,114.155,0,0,0,4.416-20.032c.7-.1,1.632-.32,1.632-.928,0-.672-1.984-1.344-3.584-1.568-.288-.032-.608.1-.608.416-.128,5.792-1.7,15.072-3.488,22.24-1.344.064-2.816.16-4.352.192-.256,0-.384.1-.384.384.224,1.728.736,3.264,1.408,3.3.544.064.864-.608,1.024-1.376A69.457,69.457,0,0,0,181.056-2.5c.192.64.352,1.28.48,1.888.224,1.024.544,1.44,1.184,1.5.864.128,1.472-.32,1.6-1.344C184.544-2.144,182.88-6.176,179.2-9.088Zm24.128-14.88c0,.416.512.576,1.184.992.544.352.7.736.7,1.7,0,1.216-.16,4.352-.16,5.856a3.639,3.639,0,0,0,1.152,2.752c-3.264,1.568-5.12,3.9-5.024,7.488.128,4.032,4.256,5.152,7.36,5.152,3.52,0,7.2-.512,7.2-2.112,0-.7-.8-1.184-1.888-1.184-1.184,0-2.912.768-5.312.768-2.816,0-5.184-.48-5.312-3.488a5.075,5.075,0,0,1,4.7-5.28c1.024-.1,2.336-.128,3.168-.192,1.632-.128,2.816-.608,2.816-1.6,0-.8-1.152-1.376-2.464-1.344-1.6.032-2.272.8-3.2.832s-1.216-.64-1.216-1.92c0-2.048,1.024-5.568,1.024-6.752,0-1.568-1.792-2.464-3.264-2.464C204.16-24.768,203.328-24.416,203.328-23.968ZM233.824-4.9c-.768-.064-.96.416-.416.9a22.016,22.016,0,0,1,2.3,2.208A12.912,12.912,0,0,1,237.28.672c.384.8.864,1.28,1.568,1.28,1.408,0,2.016-1.6,1.152-3.264A7.678,7.678,0,0,0,233.824-4.9ZM14.912,48.256a.6.6,0,0,0-1.12.416c.768,4.256,4.544,6.656,9.152,6.656,2.752,0,4.864-.352,4.864-1.632,0-.9-.864-1.056-1.6-1.056-.96,0-2.3.128-3.9.128C17.728,52.768,15.936,50.432,14.912,48.256ZM14.08,43.04a13.566,13.566,0,0,1,6.528-1.984c1.248.032,1.408.384.8,1.12-.448.512-1.12,1.152-1.664,1.7-.576.576,0,1.216.736.768,1.184-.7,2.88-1.7,4.032-2.4.864-.512,1.184-.8,1.184-1.408,0-.768-1.472-1.792-4.16-1.792a14.874,14.874,0,0,0-8.16,2.592,20.317,20.317,0,0,0-4.352,3.936c-.512.576-.736.384-.608-.256.32-1.536,1.216-2.976,2.048-5.28a3.5,3.5,0,0,0-.032-2.912A5.152,5.152,0,0,0,7.52,34.432c-.736-.288-1.088.1-.768.7.768,1.44,1.408,2.176,1.408,3.744,0,3.168-2.5,7.488-2.5,13.184,0,2.3.9,4.96,2.176,4.96.928,0,1.312-.448,1.312-1.28,0-1.12-.832-2.016-.832-4.32C8.32,48.512,10.5,45.184,14.08,43.04Zm30.88,2.848a.582.582,0,0,0-1.024.288,3.146,3.146,0,0,0,.032,1.44,3.1,3.1,0,0,0,2.656,2.272c1.024.064,3.04-1.344,4.1-2.048,1.184-.8,4-3.072,6.848-3.072a4.131,4.131,0,0,1,4.352,4.256c0,3.648-3.52,5.664-10.592,6.144-1.056.1-1.056,1.216,0,1.312,6.624.576,12.96-1.344,12.96-7.2,0-3.328-3.008-5.984-6.784-5.984-3.648,0-6.912,2.272-9.408,3.488a4.447,4.447,0,0,1-1.7.448C45.824,47.232,45.28,46.272,44.96,45.888ZM100.9,35.552c0-.864-.9-1.216-1.792-1.216A17.5,17.5,0,0,0,92.32,36a19.186,19.186,0,0,0-7.872,6.592c-.288.416-.384.32-.288-.128a40.382,40.382,0,0,0,1.088-5.472c0-1.728-1.632-3.04-2.784-3.52-.832-.352-1.216.032-.736.9A8.2,8.2,0,0,1,82.88,38.56c0,2.368-2.016,9.248-2.016,13.664,0,3.232.672,6.464,2.752,6.464.768,0,.992-.352.992-.832,0-1.344-1.248-3.456-1.248-8.288,0-3.072,2.4-7.136,5.44-9.5,2.944-2.272,6.88-3.072,9.792-3.424C100.48,36.416,100.9,36.128,100.9,35.552ZM94.72,54.816c-1.216,0-2.368-.416-2.368-1.632,0-1.056.96-1.728,2.688-1.728a7.2,7.2,0,0,1,3.136.768A3.124,3.124,0,0,1,94.72,54.816ZM99.552,40.1a1.386,1.386,0,0,0-1.44-1.472A1.664,1.664,0,0,0,96.48,39.68c0,.512.864,1.216,1.248,2.4a6.411,6.411,0,0,1,.288,1.184,8.157,8.157,0,0,1-3.584.864c-1.568,0-2.112-.8-3.616-2.24-.48-.448-.832-.32-.832.48,0,2.272,2.144,3.456,4.352,3.456a14.2,14.2,0,0,0,3.968-.736,31.114,31.114,0,0,1,.192,3.3c0,.832-.032,1.408-.1,2.144a12.686,12.686,0,0,0-3.2-.416c-1.824,0-4.48.928-4.48,3.488,0,2.144,2.144,3.328,4.032,3.328,2.848,0,4.384-1.184,4.928-3.776a14.025,14.025,0,0,1,3.136,3.168c.736.992,1.12,1.632,2.016,1.632.608,0,.96-.448.96-1.216a4.255,4.255,0,0,0-1.344-2.592,14.1,14.1,0,0,0-4.48-3.072c.064-1.088.064-2.016.064-2.88s-.064-2.3-.16-3.712c1.632-.672,3.456-1.6,3.456-2.624,0-.448-.1-.9-1.024-.992-.864-.1-1.984.32-2.752-.736Zm5.728-2.176a2.384,2.384,0,1,1,2.368-2.4A2.377,2.377,0,0,1,105.28,37.92Zm0-6.144a3.76,3.76,0,1,0,3.744,3.744A3.776,3.776,0,0,0,105.28,31.776Zm38.912,21.536a14.947,14.947,0,0,1-6.848,1.952c-2.816,0-3.36-1.056-3.36-1.856,0-2.944,2.4-5.664,2.4-7.84,0-1.632-.928-3.04-3.3-3.04-2.432,0-4.544,1.408-6.4,2.816a49.893,49.893,0,0,1,5.568-8.672c.928-1.056.864-1.408.256-1.984a6.4,6.4,0,0,0-4.032-1.12c-1.024,0-1.312.544-.576,1.12.544.416,1.376.864,1.376,1.312,0,1.12-2.272,5.216-4.64,9.6-1.408,2.624-4.352,8.128-4.352,10.176,0,.928.512,1.5,1.312,1.5a1.432,1.432,0,0,0,1.44-1.088,40.433,40.433,0,0,1,1.28-4.608,12.272,12.272,0,0,1,2.112-3.744c1.408-1.792,3.808-3.648,5.856-3.648,1.088,0,1.76.256,1.76,1.216,0,2.592-2.56,5.44-2.56,8.64,0,2.688,2.592,3.328,5.28,3.328a10.884,10.884,0,0,0,8.16-3.168C145.5,53.536,145.088,52.832,144.192,53.312ZM171.328,40.9c-1.5,4.288-6.112,10.528-9.184,10.528-.928,0-1.792-1.5-1.952-3.968a8.466,8.466,0,0,1,2.528-7.04,9.209,9.209,0,0,1,6.5-2.368,14.2,14.2,0,0,1,2.688.256A9.99,9.99,0,0,1,171.328,40.9Zm-2.016-4.448a12.192,12.192,0,0,0-7.84,2.848,10.436,10.436,0,0,0-3.36,8.9c.288,3.776,1.952,6.112,3.648,6.112,3.84,0,9.184-6.368,11.04-11.488a15.432,15.432,0,0,0,.9-3.936,7.885,7.885,0,0,1,4.96,7.616c0,5.248-3.584,7.584-9.12,8.672-.992.192-.928,1.184.192,1.184,6.592,0,11.52-3.168,11.52-9.312C181.248,41.28,176.96,36.448,169.312,36.448ZM206.88,47.136a10.623,10.623,0,0,1-1.952-1.664,9.467,9.467,0,0,1-1.824-2.944,10.347,10.347,0,0,1,6.048-2.176,7.8,7.8,0,0,1,.864.032A25.193,25.193,0,0,1,206.88,47.136Zm-5.792,5.024c-.9,0-1.824-1.248-1.824-3.456a7.321,7.321,0,0,1,2.336-4.832,12.126,12.126,0,0,0,1.792,3.2,13.587,13.587,0,0,0,2.016,2.048C204.192,50.5,202.272,52.16,201.088,52.16Zm11.3-12.928a24.368,24.368,0,0,0,.832-4.128c0-.8-1.728-1.76-3.072-1.76a2.725,2.725,0,0,0-1.408.288c-.32.192-.416.544.032.832a11.19,11.19,0,0,1,1.376.832,1.387,1.387,0,0,1,.576,1.344,16.285,16.285,0,0,1-.32,2.336,6.166,6.166,0,0,0-.768-.032,13.856,13.856,0,0,0-7.008,2.016,14.077,14.077,0,0,0-1.344-3.9,3.82,3.82,0,0,0-2.08-1.344c-.768-.16-.928.224-.576.7a12.558,12.558,0,0,1,2.464,5.7,10.134,10.134,0,0,0-3.776,7.328c0,2.752,1.376,5.344,3.3,5.344,1.728,0,4.512-2.144,6.5-4.672a4.434,4.434,0,0,0,1.536.416.847.847,0,0,0,.832-.832,2.471,2.471,0,0,0-.992-1.568,34.737,34.737,0,0,0,3.456-7.424c3.04.864,4.992,3.232,4.992,6.976,0,4.64-4.224,7.04-9.792,8.288-.96.224-.8.992.128.992,7.648.064,12.192-3.872,12.192-8.992A8.491,8.491,0,0,0,212.384,39.232Zm43.328.1c.736.864.96,1.408,1.7,1.408a1.066,1.066,0,0,0,1.088-1.12c0-1.5-2.24-2.912-4.32-3.072a.484.484,0,0,0-.384.864C254.432,38.016,255.168,38.688,255.712,39.328Zm-9.728,1.952a8.794,8.794,0,0,0-1.216.1c.64-1.728,1.28-3.52,1.568-4.7.384-1.6-1.728-2.56-3.36-2.56-.928,0-1.728.288-1.728.7,0,.256.16.48,1.408,1.12.7.384,1.12.736,1.12,1.408a15.085,15.085,0,0,1-1.152,4.416,40.359,40.359,0,0,1-5.664.9,4.358,4.358,0,0,1-2.752-1.28c-.608-.448-1.024-.32-1.024.416,0,1.536,1.152,3.232,2.72,3.232a34.666,34.666,0,0,0,5.984-1.376A53.369,53.369,0,0,1,234.88,54.5c-.8.928-1.184,1.5-1.184,2.176s.32,1.248,1.056,1.248c.64,0,1.056-.288,1.792-1.152,1.952-2.336,5.792-9.472,7.552-13.728a9.382,9.382,0,0,1,1.856-.256c2.176,0,2.5,1.952,2.5,3.968,0,2.944-1.44,6.88-3.68,6.88-1.344,0-2.592-1.28-3.328-1.856-.608-.48-.928,0-.736.48.736,1.856,2.592,4.064,4.32,4.064,3.424,0,5.44-5.152,5.44-8.832C250.464,43.2,249.184,41.28,245.984,41.28Zm8.32.672c-.736-.1-1.12.576-.416.96a6.689,6.689,0,0,1,3.648,6.112c.128,2.624.448,3.232,1.344,3.232.928,0,1.6-.8,1.6-2.176C260.48,45.952,258.08,42.5,254.3,41.952Zm2.4-8.064c-.608,0-.832.544-.32.928a16.223,16.223,0,0,1,2.368,1.984c.608.672.928.928,1.408.928a1.026,1.026,0,0,0,1.056-1.12C261.216,34.976,258.752,33.92,256.7,33.888Zm31.648,19.488c-1.312,0-2.592-.576-2.592-1.7,0-.96.96-1.568,2.336-1.568a5.83,5.83,0,0,1,3.648,1.568C290.368,53.216,289.536,53.376,288.352,53.376Zm-9.344-6.016c.288-.448.736-1.12,1.184-1.792a35.737,35.737,0,0,1-.672,7.008c-.256.992-.64.832-1.184.256-.384-.416-.928-1.088-1.536-1.888Zm-5.6-2.176c0-1.632,4.768-3.072,5.6-3.3.672-.192.9.1.7.64a33.3,33.3,0,0,1-4.128,6.656C274.432,47.456,273.408,45.728,273.408,45.184Zm2.624,7.04c.384.64.7,1.184.9,1.472a6.969,6.969,0,0,1,1.28,2.368c.224.96.512,1.632,1.12,1.632.832,0,1.344-.608,1.632-1.7.448-1.728.576-6.848.736-11.712,2.464-2.848,6.3-5.568,8.448-5.568,3.52,0,4.1,4,4.1,6.624a8.092,8.092,0,0,1-1.28,4.8,9.381,9.381,0,0,0-4.512-1.376c-2.464,0-4.288,1.344-4.288,3.392,0,2.368,2.336,3.36,4.352,3.36a6.459,6.459,0,0,0,4.864-2.176c.992,1.088,1.984,2.336,2.5,2.976.64.8.928,1.12,1.664,1.12.576,0,1.216-.736.768-1.984a10.9,10.9,0,0,0-3.328-3.9,10.961,10.961,0,0,0,1.664-5.824c0-4.992-2.72-8.512-6.08-8.512-2.816,0-6.336,2.5-8.384,4.32a1.524,1.524,0,0,0-.384-.832c.032-2.144.1-4.672.1-5.76,0-1.728-.608-2.112-3.008-2.112-1.12,0-1.856.48-1.856.9s.7.64,1.44.928a1.6,1.6,0,0,1,1.248,1.5c.128.736.256,2.112.352,3.648a1.87,1.87,0,0,0-.608-.064,13.9,13.9,0,0,0-6.368,2.688,3.344,3.344,0,0,0-1.472,2.5,3.092,3.092,0,0,0,1.216,2.464,17.643,17.643,0,0,1,1.984,2.784c-1.12,1.5-2.176,2.848-2.848,3.776a3.694,3.694,0,0,0-.8,1.984,1.125,1.125,0,0,0,.992,1.216c.48,0,.96-.256,1.5-1.12Zm36.9,8a4.48,4.48,0,1,0-4.48-4.48A4.493,4.493,0,0,0,312.928,60.224Zm0-1.536a2.944,2.944,0,1,1,2.944-2.944A2.936,2.936,0,0,1,312.928,58.688Z" transform="translate(-4.024 26.141)"/>
</svg>
