<svg xmlns="http://www.w3.org/2000/svg" width="350.504" height="196.988" viewBox="0 0 350.504 196.988">
  <path id="section-intro_ttl_2" d="M38.72-24.684a.558.558,0,0,0-.264-.044c-.7,0-2.288,2.332-2.376,2.508a.913.913,0,0,1-.748.4h-3.52l.22-7.568c.088-2.288.176-1.8,1.276-2.42.44-.22.66-.484.66-.7,0-.968-4.444-1.5-4.488-1.5a.1.1,0,0,0-.088.088c0,.044.044.132.088.308a44.563,44.563,0,0,1,.44,7v4.8H22.352l.22-7.92c.088-2.288.176-1.716,1.276-2.42.4-.264.616-.484.616-.748,0-1.012-4.4-1.452-4.488-1.452-.044,0-.044,0-.044.044a1.161,1.161,0,0,0,.044.308,44.563,44.563,0,0,1,.44,7v5.192H16.5c-.836,0-2.244-.044-3.916-.088l.132-6.028c.088-2.376.22-1.76,1.32-2.508.4-.264.616-.528.616-.792,0-.88-3.916-1.54-4.444-1.54-.044,0-.044,0-.044.044a1.161,1.161,0,0,0,.044.308,48.045,48.045,0,0,1,.44,7.26c0,.968.044,2.068.044,3.212-3.124-.088-6.776-.308-9.328-.616v.044c0,.572,1.144,2.288,1.98,2.288h.044c2.068-.22,4.752-.308,7.26-.4-.044,6.6-.176,15.312-.44,22.088V1.54c0,.924.484,1.32,1.056,1.32a1.559,1.559,0,0,0,1.5-1.5V1.32L12.716-.308h25.74c.792,0,1.012-.264,1.012-.528,0-.7-2.376-2.992-3.828-3.476a.558.558,0,0,0-.264-.044c-.264,0-.7.044-2.332,2.552a1,1,0,0,1-.792.4H12.672c-.088-4.928-.132-8.844-.132-12.364,0-2.464,0-4.708.044-6.908,1.54-.044,2.9-.044,3.74-.044h4.092c-.044,4.576-.176,9.284-.352,13.068v.088c0,.836.44,1.188.924,1.188A1.492,1.492,0,0,0,22.44-7.832V-9.548h7.3c0,.572-.044,1.144-.044,1.716v.044c0,.88.44,1.232.968,1.232a1.439,1.439,0,0,0,1.364-1.408v-.044c-.176-4.312-.22-7.392-.22-10.252v-2.464h9.724c.748,0,.968-.264.968-.528C42.5-22,40.172-24.2,38.72-24.684Zm-8.8,3.96c0,3.388-.044,6.776-.132,10.076H22.4c-.044-3.08-.044-5.456-.044-7.524v-2.552ZM80.652,1.32c-.176-3.388-.22-6.248-.22-8.624,0-1.364,0-2.6.044-3.7.044-1.408.044-1.276,1.056-1.716C86.24-9.24,90.64-7.832,91.388-7.832a.7.7,0,0,0,.528-.176C93.192-9.2,96.1-9.988,96.1-10.3c0-.088-.176-.132-.616-.176A29.52,29.52,0,0,1,76.3-18.964a.4.4,0,0,0,.132-.308c0-.264-.352-.352-1.1-.616h9.328v1.364c0,.7.352,1.012.792,1.012a1.564,1.564,0,0,0,1.408-1.5v-.044c-.088-2.6-.264-5.412-.264-8.844v-1.716c0-1.1.132-1.54.88-1.98.352-.22.968-.484.968-.968,0-.924-2.684-2.244-3.08-2.244-.176,0-.308.044-1.188.924-.132.132-.22.176-.528.176H65.34a24.325,24.325,0,0,0-3.476-1.584.1.1,0,0,0-.088.088,1.979,1.979,0,0,0,.088.352,28.66,28.66,0,0,1,.528,5.06c0,3.3-.132,7.26-.352,11.088v.088a.963.963,0,0,0,.968,1.1,1.39,1.39,0,0,0,1.408-1.232v-1.144H72.6c-.264,1.8-8.4,10.252-17.512,13.64-.44.176-.616.308-.616.4,0,.044.088.088.308.088,1.232,0,7.964-2.156,14.168-6.908a17.2,17.2,0,0,1,.22,1.848,5.9,5.9,0,0,1,.044.88c0,4.62-3.256,10.648-13.86,12.8-.792.176-1.1.308-1.1.4,0,.132.264.176.66.176a3.117,3.117,0,0,0,.616-.044C69.256,1.8,71.324-5.06,71.456-10.6c.044-1.584,0-1.584.748-2.068.528-.308.7-.572.7-.792,0-.308-.352-.44-.44-.484a14.012,14.012,0,0,0-1.628-.264,24.789,24.789,0,0,0,3.344-3.476c.572-.7.792-.836,1.232-.924A24.9,24.9,0,0,0,80.08-13.86c-.748-.088-1.54-.176-1.936-.176h-.22c-.088,0-.132,0-.132.044a1.73,1.73,0,0,0,.088.264,37.013,37.013,0,0,1,.4,6.292c0,2.376-.088,5.676-.176,8.844V1.5a1.079,1.079,0,0,0,1.1,1.232,1.445,1.445,0,0,0,1.452-1.32Zm4.092-27.808c0,1.672-.044,3.52-.044,5.456H75.152v-5.456ZM73.26-24.464c0,1.276,0,1.892-.044,3.432h-8.8c-.044-1.936-.088-3.828-.088-5.456H73.26Zm11-8.1a.387.387,0,0,1,.4.352c.088,1.452.088,2.948.088,4.576H75.152V-30.8c0-.44,0-.7.308-.836s.7-.44.7-.748a.334.334,0,0,0-.088-.176Zm-11.22,0a36.286,36.286,0,0,1,.176,4.928H64.328c0-3.784,0-4.356,1.188-4.928Zm74.624,7.524a1.019,1.019,0,0,0,1.012-1.1c0-1.012-1.1-2.6-4.972-2.6-1.012,0-2.112.132-2.112.308,0,.132.4.22.7.352a14.96,14.96,0,0,1,4.312,2.552A1.609,1.609,0,0,0,147.664-25.036Zm-4.488,2.552a1.1,1.1,0,0,0,1.012-1.188c0-1.848-2.64-2.64-5.148-2.64-.088,0-1.8,0-1.8.264,0,.088.4.22.66.352a15.3,15.3,0,0,1,4.224,2.684A1.607,1.607,0,0,0,143.176-22.484Zm.308,12.364c1.144,0,2.728-1.452,2.728-3.96,0-3.344-3.784-6.864-9.328-6.864-.308,0-.528.044-.528.132s.352.308,1.32.66c2.288.836,6.028,2.024,6.028,5.632,0,2.816-3.3,3.124-5.192,3.52-.66.132-1.1.264-1.1.4,0,.22.66.22,3.784.22a4.867,4.867,0,0,1,1.672.132A1.405,1.405,0,0,0,143.484-10.12Zm-21.868-8.756c-2.376,5.5-7.172,12.5-8.932,15.136a5.675,5.675,0,0,0-1.1,2.552.706.706,0,0,0,.748.792c.88,0,2.024-1.144,2.64-2.2,2.772-5.148,6.292-12.144,8.316-16.808,2.2-1.32,2.64-1.452,3.476-1.452,1.716,0,2.684,1.848,2.684,5.28,0,5.984-2.86,12.232-6.732,12.232a3.916,3.916,0,0,1-3.168-1.892c-.572-.792-.924-1.188-1.1-1.188q-.132,0-.132.264A6.273,6.273,0,0,0,118.58-4.8c.308,1.188-.176,2.772,1.452,3.344a6.082,6.082,0,0,0,1.892.308c4.268,0,9.46-4.664,9.46-13.772,0-1.892-.088-7.216-4.312-7.216a8.918,8.918,0,0,0-2.948.66,2.691,2.691,0,0,0,.22-.528,21.721,21.721,0,0,0,1.364-5.72c0-.792-.4-2.772-2.2-2.772-1.1,0-2.508.836-2.508,1.276,0,.352.44.572.88.66,1.1.176,1.452,1.144,1.452,2.508a18.227,18.227,0,0,1-.924,5.148,18.929,18.929,0,0,1-6.028,1.276,3.322,3.322,0,0,1-2.816-1.144c-.308-.4-.528-.66-.7-.66-.22,0-.308.308-.308,1.188a3.138,3.138,0,0,0,3.388,3.256C116.732-16.984,117.876-17.16,121.616-18.876Zm53.416,5.324a34.033,34.033,0,0,1,14.08,2.86A23.988,23.988,0,0,1,175.692.132c-1.1.352-1.76.66-1.76.836,0,.044.088.088.308.088,1.276,0,12.012-2.244,16.72-10.824a24.3,24.3,0,0,1,6.688,5.324c.748.836,1.364,1.188,1.8,1.188.572,0,.88-.528.88-1.232a3.367,3.367,0,0,0-1.144-2.42,26.54,26.54,0,0,0-7.392-4.62,10.465,10.465,0,0,0,.836-3.916c0-2.464-1.188-4.136-3.3-4.136-.88,0-2.156.528-2.156,1.1,0,.176.22.22.264.22a2.925,2.925,0,0,1,2.992,3.168,7.962,7.962,0,0,1-.616,2.816,42.619,42.619,0,0,0-14.08-2.376h-.4a81.76,81.76,0,0,1,8.976-12.32c.528-.572,1.452-1.408,1.452-2.288,0-1.1-1.452-2.024-3.08-2.024a5.3,5.3,0,0,0-3.388,1.5c-1.144.88-1.672.924-2.068.924a3.271,3.271,0,0,1-1.98-.7c-.22-.176-.44-.44-.616-.44-.44,0-.528,1.54-.528,1.716a2.426,2.426,0,0,0,2.068,2.068c1.98,0,3.124-2.684,4.884-2.992h.22c.836,0,1.144.352,1.144.66a1.913,1.913,0,0,1-.308.88c-2.772,4.356-5.852,9.2-8.492,13.068-4.884.352-10.692,2.9-10.692,6.776,0,1.892,1.276,3.784,3.212,3.784,1.408,0,3.124-1.012,4.972-3.784,1.056-1.628,2.244-3.608,3.564-5.72Zm-2.156.088c-4.312,5.72-5.1,6.644-6.424,6.644A1.561,1.561,0,0,1,165-8.536C165-10.3,167.948-12.936,172.876-13.464Zm64.284-.22c.176,0,.4.044.572.044,2.112,0,3.168-1.056,3.168-1.892,0-.484-.308-1.144-1.8-1.144a8.56,8.56,0,0,0-3.256.792c-2.508-.484-3.608-2.112-3.608-4.8a37.849,37.849,0,0,1,1.276-7.48,13.68,13.68,0,0,0,.44-2.508,4.627,4.627,0,0,0-4-4.092c-.968,0-1.672.66-1.672,1.056a.468.468,0,0,0,.4.44c2.112.44,2.684,1.188,2.684,2.86a24.745,24.745,0,0,1-.22,2.728,52.407,52.407,0,0,0-.7,6.6c0,2.6.616,5.06,2.948,6.116-4.752,2.112-7.964,5.808-7.964,9.416,0,2.376,2.068,7.392,9.9,7.392,3.608,0,7.744-1.1,7.744-2.86a1.382,1.382,0,0,0-1.54-1.276,2.647,2.647,0,0,0-1.188.308,13.444,13.444,0,0,1-6.072,1.364c-5.632,0-7.128-3.168-7.128-5.324,0-4.092,5.9-7.744,9.636-7.744Zm53.548-9.9a9.543,9.543,0,0,1,8.228,9.328c0,6.908-7.436,12.232-14.96,13.992-1.188.308-1.76.572-1.76.748,0,.088.308.176.792.176,4.136,0,18.3-3.872,18.3-14.564a11.232,11.232,0,0,0-10.3-11,11.885,11.885,0,0,0,.264-2.376c0-4.268-2.992-4.312-3.256-4.312-.616,0-1.5.528-1.5.836s.968.308,1.276.528c.748.572,1.144,1.848,1.144,3.7,0,.484-.044,1.012-.088,1.584A17.585,17.585,0,0,0,279-20.988c-.836-2.068-1.452-4.048-2.112-5.324a3.66,3.66,0,0,0-2.464-2.2c-.176,0-.264.088-.264.308a1.522,1.522,0,0,0,.132.528c.572,1.276,1.276,3.168,1.98,5.06.352.968.748,2.024,1.188,3.036-3.08,3.168-4.664,6.864-4.664,9.856,0,2.684,1.32,4.928,3.476,4.928,3.3,0,7.568-5.148,8.448-6.468a9.111,9.111,0,0,0,2.376.616c.748,0,1.188-.44,1.188-.792,0-.4-.44-1.1-2.332-1.672A39.46,39.46,0,0,0,290.708-23.584Zm-2.068-.088A30.475,30.475,0,0,1,284.5-13.64c-2.332-1.144-3.872-3.652-5.06-6.292A14.841,14.841,0,0,1,288.64-23.672ZM283.4-11.924c-2.156,3.212-5.148,5.1-6.556,5.1-1.76,0-2.6-2.552-2.6-3.96,0-2.332,1.32-5.06,3.74-7.7A14.482,14.482,0,0,0,283.4-11.924ZM340.428-1.056a4.027,4.027,0,0,0,.4-1.672,4.612,4.612,0,0,0-4.664-4.356c-1.408,0-4,.748-4,3.256,0,2.64,3.344,4.268,6.776,4.268,7.216,0,12.188-4.488,12.188-9.68,0-4.444-3.652-8.14-9.108-8.14a14.154,14.154,0,0,0-7.172,2.068c-.132.088-.176.088-.22.088h-.044c0-.132,5.412-8.052,9.328-11,.924-.66,1.5-1.32,1.5-1.98,0-.572-1.012-2.464-3.7-2.464-2.464,0-5.016,2.068-5.72,2.684a3,3,0,0,1-1.892.66,3.281,3.281,0,0,1-1.144-.176,3.529,3.529,0,0,0-.88-.308c-.176,0-.264.132-.264.484a2.377,2.377,0,0,0,2.6,2.332c2.816,0,4.18-3.916,6.292-3.916.352,0,1.188.132,1.188.748a3.3,3.3,0,0,1-.66,1.452c-1.936,2.948-5.1,6.864-6.512,8.932a55.753,55.753,0,0,1-4,5.412c-.616.7-3.564,4.224-3.564,5.368A1.028,1.028,0,0,0,328.2-5.9,2.218,2.218,0,0,0,329.912-7c.352-.528,1.232-2.42,1.716-3.124.968-1.364,4.092-5.94,9.768-5.94,4.224,0,7.348,3.036,7.348,6.864,0,3.256-2.288,6.908-7.744,8.052Zm-2.112.088c-2.376-.132-4.62-1.276-4.62-2.86,0-1.276,1.144-1.8,2.2-1.8a2.874,2.874,0,0,1,2.9,2.9A3.44,3.44,0,0,1,338.316-.968Zm-302.28,62a.592.592,0,0,0-.352-.088.33.33,0,0,0-.22.044,3.066,3.066,0,0,0-.7.88.687.687,0,0,1-.572.352H24.86a17.064,17.064,0,0,0-3.08-1.276c-.044,0-.044.044-.044.088a.859.859,0,0,0,.044.308,29.742,29.742,0,0,1,.528,5.236c.044,1.1.044,2.288.044,3.608,0,3.256-.088,7.084-.22,11.044v.044a.865.865,0,0,0,.924.88,1.321,1.321,0,0,0,1.32-1.32v-.044c-.044-2.244-.132-5.06-.132-7.7H35.068c0,5.324-.044,6.072-2.772,6.072a36.478,36.478,0,0,1-5.06-.572.859.859,0,0,0-.308-.044c-.088,0-.132.044-.132.088,0,.352,4.268,2.288,4.84,2.816.264.264.22.484.572.484A4.813,4.813,0,0,0,37,77c0-.66-.132-3.08-.132-3.52,0-.66-.044-1.628-.044-2.728,0-1.892.044-4.136.132-5.676.044-.836.528-.792.924-.968.264-.132.792-.4.792-.836C38.676,62.788,38.5,62.656,36.036,61.028Zm-20.68-4.884c-.528,0-1.672,1.848-1.672,1.848a.754.754,0,0,1-.528.352h-1.32V56.32c1.848-1.584,3.476-3.388,4.488-4.4.308-.308.4-.484.792-.484h.176c.176,0,.308.044.44.044.484,0,.7-.176.7-.4,0-.484-2.552-2.6-2.772-2.6-.088,0-.088.132-.176.44-.528,1.936-2.816,5.368-3.652,6.556,0-3.344,0-6.028.088-7.656s.44-1.452,1.276-1.936c.44-.264.66-.484.66-.748,0-.88-3.96-1.54-4.048-1.54-.044,0-.088.044-.088.132A.774.774,0,0,0,9.768,44a32.429,32.429,0,0,1,.308,5.412v1.056c.044,1.452.044,3.256.044,5.28v2.6a66.608,66.608,0,0,1-7.876-.616c0,.484,1.276,2.112,1.8,2.112h.044a48.168,48.168,0,0,1,6.028-.4v.572c-.7,2.42-5.06,10.736-8.844,14.08q-.66.594-.66.792c0,.044.044.088.132.088.528,0,6.248-4.048,9.284-10.252L9.636,80.7v.044c0,.968.484,1.408,1.056,1.408a1.587,1.587,0,0,0,1.452-1.584V80.52c-.132-4.928-.264-11.352-.308-17.292A11.691,11.691,0,0,1,15.708,66.7c.528.7,1.012.968,1.408.968.528,0,.88-.484.88-1.1,0-2.464-3.7-3.476-6.16-3.564V59.444h5.632c.66,0,.836-.308.836-.572C18.3,58.168,16.148,56.144,15.356,56.144Zm23.232-.7c-.264,0-1.232,1.1-1.848,1.936a1.044,1.044,0,0,1-.66.44H30.316c-.044-.836-.044-2.156-.044-3.784h7.436c.572,0,.792-.264.792-.528C38.5,52.448,35.42,51,35.332,51a5.132,5.132,0,0,0-1.716,1.54c-.176.176-.352.4-.528.4H30.272V49.324h9.812c.66,0,.836-.308.836-.572,0-.88-2.464-2.728-3.168-2.728-.528,0-1.54,1.408-1.848,1.848a.816.816,0,0,1-.572.4h-5.06c0-.264.044-.528.044-.748.044-2.464.176-1.892,1.32-2.552.352-.176.528-.4.528-.572,0-.968-4.048-1.452-4.092-1.452a.1.1,0,0,0-.088.088,1.731,1.731,0,0,0,.088.264,20.722,20.722,0,0,1,.44,4.972h-1.1a52.847,52.847,0,0,1-8.272-.7c0,.572,1.232,2.288,1.936,2.288h.044a43.544,43.544,0,0,1,6.116-.528h1.276v.22c0,.088.044,1.584.044,3.388a51.512,51.512,0,0,1-7.48-.616c0,.528,1.232,2.112,1.98,2.112H23.1a38.154,38.154,0,0,1,5.456-.4c0,1.32-.044,2.684-.088,3.784h-.132a79.414,79.414,0,0,1-10.3-.748c0,.572,1.364,2.332,2.112,2.332H20.2a58.9,58.9,0,0,1,7.92-.528H41.228c.7,0,.88-.308.88-.572C42.108,57.156,38.94,55.44,38.588,55.44ZM35.024,67.188H24.244c0-.836.044-1.5.044-1.892.044-1.452,0-1.276.66-1.76l.132-.088h9.46c.44,0,.484.264.484.352Zm.044,4.708H24.244v-3.52H35.068ZM3.784,49.94c-.044,0-.088,0-.088.044s.132.176.4.4a10.652,10.652,0,0,1,2.376,3.476C6.776,54.648,7.216,55,7.656,55a1.376,1.376,0,0,0,1.188-1.452C8.844,51.436,5.192,49.94,3.784,49.94Zm92,29.348c-3.96-1.012-6.82-4.136-8.756-8.4A40.584,40.584,0,0,0,90.464,58.96c.132-.836.264-1.364.66-1.452.484-.088.88-.4.88-.748,0-.132-.352-.572-1.232-.836h3.74c.616,0,.792-.176.792-.4,0-1.012-2.64-3.036-3.212-3.036-.22,0-.924.792-1.628,1.98a.754.754,0,0,1-.528.352H84.128c.968-2.464,1.8-5.1,2.508-7.612.176-.7.176-.572.88-.748.572-.132.968-.44.968-.792,0-.616-3.3-1.584-4-1.584-.132,0-.132,0-.132.132v.264c0,.088.044.308.044.616,0,4.4-3.388,14.564-5.236,18.04a1.069,1.069,0,0,0-.176.484c0,.088.044.132.088.132.22,0,1.628-1.144,4.136-6.732a50.113,50.113,0,0,0,1.848,13.552c-2.64,5.06-7.084,8.976-13.86,11-.44.132-.968.4-.968.528,0,.044.088.088.264.088.484,0,10.164-1.144,15.356-9.284,2.288,6.072,5.588,8.052,5.9,8.052a.71.71,0,0,0,.4-.132c1.584-.88,4.136-1.056,4.136-1.32C96.272,79.42,96.14,79.376,95.788,79.288ZM64.856,57.86c-.088,0-.088.044-.088.088a.959.959,0,0,0,.176.44,18.646,18.646,0,0,1,1.408,2.684c-1.54.22-3.7.4-5.72.484a80.773,80.773,0,0,0,6.16-9.284,1.121,1.121,0,0,1,.88-.616c.7-.044,1.012-.308,1.012-.66,0-.66-2.948-2.156-3.124-2.156-.088,0-.088.088-.132.44-.22,2.64-3.652,9.284-5.588,12.32-.308,0-.616.044-.924.044h-.572a19.769,19.769,0,0,1-2.728-.176,1.556,1.556,0,0,1-.264-.044c-.088,0-.132.044-.132.088,0,.264,1.144,2.772,1.584,2.772.308,0,.572-.4.968-.484l3.96-.836a25.683,25.683,0,0,1,.088,2.816c0,5.588-.176,10.34-.44,14.828v.176c0,.792.4,1.144.88,1.144a1.461,1.461,0,0,0,1.364-1.5c-.044-4.048-.176-9.548-.176-12.892,0-3.476.044-3.52.528-3.784.308-.176.484-.4.484-.572,0-.22-.264-.4-.968-.616a31.2,31.2,0,0,0,3.036-.836,6.833,6.833,0,0,1,.176.924c.132,1.056.616,1.5,1.1,1.5a1.364,1.364,0,0,0,1.188-1.5C68.992,60.764,65.56,57.86,64.856,57.86ZM82.1,71.236c0-.132-.088-.176-.22-.176a.558.558,0,0,0-.264.044A51.565,51.565,0,0,1,75.2,73.3c-.044-1.452-.044-4.136-.044-6.336h4.664c.7,0,.88-.264.88-.484a4.219,4.219,0,0,0-2.552-2.376c-.088,0-.176-.044-.264-.044-.308,0-.484.264-1.32,1.5a.661.661,0,0,1-.484.264H75.2V63.668c.088-1.672-.044-1.408,1.1-2.156.352-.22.616-.484.616-.792,0-.968-3.828-1.32-3.916-1.32-.044,0-.044,0-.044.044a.774.774,0,0,0,.044.264,38.119,38.119,0,0,1,.308,5.236c0,.22.044.528.044.88-1.32-.044-2.288-.132-5.588-.484,0,.484,1.1,1.98,1.848,1.98h.044c2.728-.264,2.948-.352,3.7-.352,0,.88.044,1.892.044,2.9,0,1.408-.044,2.86-.088,3.916a33.8,33.8,0,0,1-7,1.188c-.088,0-.132.044-.132.088a5.211,5.211,0,0,0,1.98,2.2.537.537,0,0,0,.4.176c.308,0,.528-.4.924-.572C75.724,74.536,82.1,71.72,82.1,71.236ZM79.332,45.452c-.088,0-.22-.044-.308-.044-.572,0-1.452,1.232-1.848,1.8a.9.9,0,0,1-.616.352H75.284a62.911,62.911,0,0,1-8.184-.616c0,.44.968,2.112,1.716,2.112h.044c2.2-.22,3.08-.308,3.916-.352,0,1.628-.088,2.288-1.716,7.7a21.346,21.346,0,0,1-2.42.264,10.03,10.03,0,0,1-1.584-.132c-.088,0-.132-.044-.176-.044a.1.1,0,0,0-.088.088.774.774,0,0,0,.044.264,15.656,15.656,0,0,0,1.672,2.376c.22,0,.352-.44.616-.528,1.056-.352,6.688-1.628,8.932-2.464.176.352.308.748.484,1.144.264.66.616.924.924.924.572,0,1.056-.748,1.056-1.584,0-2.816-5.1-4.8-5.192-4.8s-.132,0-.132.088.132.264.352.528a16.866,16.866,0,0,1,2.112,2.9c-1.364.264-3.784.616-5.72.88.88-1.892,2.024-4.312,2.508-5.676.176-.44.264-.616.66-.7.572-.132.88-.4.88-.616,0-.4-.66-.616-.7-.66h6.028c.748,0,.968-.264.968-.572C82.28,47.344,80.476,45.892,79.332,45.452ZM88.4,55.924v.7a35.27,35.27,0,0,1-2.332,11.88,44.767,44.767,0,0,1-2.2-12.584ZM64.46,44.66A24.038,24.038,0,0,0,61.336,43.3c-.088,0-.088.044-.088.176v.572c0,1.892-1.188,5.324-2.332,8.4a7.372,7.372,0,0,0-2.728-.7c-.176,0-.264,0-.264.088,0,.044.132.176.352.4a10.656,10.656,0,0,1,2.9,3.52c.352.748.792,1.056,1.188,1.056.572,0,1.012-.616,1.012-1.408a3.094,3.094,0,0,0-1.892-2.64,52.8,52.8,0,0,0,3.564-6.116c.22-.44.308-.616.792-.66.7-.088,1.012-.4,1.012-.7A.766.766,0,0,0,64.46,44.66Zm-7,22.044c-.088,0-.132.044-.132.176a.991.991,0,0,0,.044.308,7.418,7.418,0,0,1,.088,1.1,43.359,43.359,0,0,1-2.2,10.252,1.814,1.814,0,0,0-.176.66c0,.044,0,.088.088.088.66,0,2.64-4.532,4.136-9.064.176-.572.176-.836.748-.968.616-.176.88-.484.88-.792C60.94,67.584,57.552,66.7,57.464,66.7Zm7.128-.7c-.044,0-.044,0-.044.044a.789.789,0,0,0,.176.352A14.71,14.71,0,0,1,66.4,71.368c.132.836.528,1.188.968,1.188a1.394,1.394,0,0,0,1.188-1.5C68.552,68.728,64.944,66,64.592,66Zm74.976-6.468c.44.044.88.22,1.276.22.748,0,1.5-1.012,1.5-2.2,0-2.332-3.168-4.224-5.28-4.224-.308,0-.44.044-.44.176s.132.308.4.572c.132.132.7.572.968.88a1.8,1.8,0,0,1,.528,1.188c0,.968-1.056,1.936-2.684,2.9-3.256,1.98-4.224,4.224-4.224,7.788V67.1c0,1.716.22,3.74.22,5.676a14.657,14.657,0,0,0-3.432-.4c-2.552,0-7.524.748-7.524,3.872,0,2.024,2.332,4.708,5.72,4.708a7.1,7.1,0,0,0,6.908-5.632,10.288,10.288,0,0,1,4.224,3.784c.4.748.88,1.056,1.276,1.056.572,0,1.012-.616,1.012-1.452,0-1.98-3.124-4.268-6.424-5.412-.132-1.98-.484-5.764-.484-5.764-.088-.924-.132-1.716-.132-2.464,0-2.42.616-3.96,3.52-5.1a10.592,10.592,0,0,1,2.9-.44Zm-12.936-12.1c0-.264-.132-2.816-2.64-2.816a1.663,1.663,0,0,0-1.628,1.144c0,.308.4.4,1.1.4.484,0,1.276.044,1.276,2.9a19.357,19.357,0,0,1-.176,2.156,13.5,13.5,0,0,1-3.344.484,8.747,8.747,0,0,1-4.532-1.408c-.132-.088-.616-.484-.88-.484-.088,0-.132.088-.132.22,0,.176.836,3.74,5.456,3.74a12.151,12.151,0,0,0,2.948-.44c-.924,2.816-3.124,7.26-8.1,14.608a3.924,3.924,0,0,0-.836,1.936.731.731,0,0,0,.836.792,3.15,3.15,0,0,0,2.464-1.936c1.408-3.08,5.368-11.132,6.644-14.3.22-.528.4-1.056.572-1.584,3.476-1.276,4.664-2.948,4.664-3.74s-.088-.836-2.288-1.32Zm5.06,27.1a5.45,5.45,0,0,1-5.5,4.224c-1.892,0-4.092-.88-4.092-2.42,0-1.276,1.628-2.6,5.192-2.6A13.636,13.636,0,0,1,131.692,74.536Zm-5.06-26.708c1.628.66,1.848.836,1.848,1.1,0,.572-1.056,1.188-2.2,1.672A13.636,13.636,0,0,0,126.632,47.828ZM194.788,58.96c-.22,0-.528.132-2.2,2.508a1.069,1.069,0,0,1-.792.4h-10.78c-.044-1.056-.044-2.948-.044-4.752h11c.7,0,.924-.308.924-.572,0-.616-2.816-2.948-3.652-2.948-.352,0-.7.4-2.068,2.024a1.043,1.043,0,0,1-.66.4h-5.544c0-2.9.044-3.52.616-3.74.44-.176.7-.44.7-.66,0-.088,0-.132-.044-.176h12.54c.7,0,.924-.264.924-.572,0-.792-2.816-3.256-3.784-3.256-.44,0-.88.528-2.156,2.332a.969.969,0,0,1-.7.4H181.72c1.32-1.1,3.74-3.256,4.532-3.96a1.416,1.416,0,0,1,1.188-.484c.836,0,1.364-.176,1.364-.528,0-.308-1.232-1.54-3.52-2.684a.554.554,0,0,0-.308-.176c-.132,0-.132.132-.176.4-.088,1.1-.748,3.652-3.564,7.436h-5.1a107.108,107.108,0,0,1-12.144-.748v.044c0,.572,1.144,2.288,1.936,2.288h.044c3.7-.4,7.744-.484,9.988-.484H178.9c.088,1.144.132,3.256.132,4.576h-.968a106.643,106.643,0,0,1-11.836-.616v.044c0,.528,1.188,2.112,1.936,2.112h.044a92.516,92.516,0,0,1,9.636-.44h1.188c-.044,2.6,0,3.168-.088,4.752h-1.936c-2.42,0-10.516-.132-14.916-.7V61.2c0,.572,1.408,2.244,2.2,2.244h.044c3.872-.4,10.12-.484,12.452-.484h21.076c.748,0,.924-.264.924-.572C198.792,61.688,195.932,58.96,194.788,58.96Zm6.424,20.416h-.572c-10.516,0-16.72-4.224-19.492-9.592h16.72c.7,0,.924-.264.924-.528,0-.616-2.728-3.476-3.96-3.476-.352,0-.528.176-2.244,2.508a1.057,1.057,0,0,1-.748.4H180.532a1.564,1.564,0,0,0,.088-.44c.308-2.464.352-2.244,1.1-2.508.616-.22.88-.44.88-.66,0-.748-3.784-1.408-4-1.408-.088,0-.088.044-.088.264.044.484.044.968.044,1.408,0,.792-.132,2.772-.22,3.344H176.7c-2.42,0-10.252-.132-14.564-.7,0,.572,1.452,2.288,2.288,2.288h.044c3.784-.4,9.68-.484,12.012-.484h1.584c-1.672,5.9-8.4,10.868-17.38,12.188-.528.088-.968.264-.968.4,0,.088.176.132.7.132,3.652,0,17.336-2.068,19.888-12.672,2.332,5.984,9.372,11.968,16.28,12.276a.9.9,0,0,0,.66-.264c1.276-1.056,4.4-2.068,4.4-2.376C201.652,79.42,201.52,79.376,201.212,79.376Zm-29.3-35.86c-.132,0-.22,0-.22.088a.927.927,0,0,0,.264.352,15.116,15.116,0,0,1,2.816,3.784c.4,1.012.968,1.408,1.5,1.408a1.469,1.469,0,0,0,1.276-1.628C177.54,45.1,173.668,43.516,171.908,43.516Zm77.044,28.292a.117.117,0,0,0-.132-.132,1.047,1.047,0,0,0-.572.352c-4.4,4-9.2,6.028-13.112,6.028-8.008,0-8.1-7.392-8.1-9.5,0-5.676,1.584-13.068,2.024-15.84a8.888,8.888,0,0,0,.132-1.452,4.24,4.24,0,0,0-4.268-4.532c-.264,0-.44.088-.44.264,0,.132.176.4.572.792.968.88,1.32,2.728,1.32,5.148,0,4.884-1.012,9.856-1.012,14.74a29.006,29.006,0,0,0,.308,4.356c.924,5.676,4.576,8.448,9.108,8.448C242.44,80.476,248.952,72.556,248.952,71.808Zm43.516-20.724a5.74,5.74,0,0,1-1.012.088,14.6,14.6,0,0,1-6.512-2.376,4,4,0,0,0-1.364-.924,2.491,2.491,0,0,0-.792-.132,1.934,1.934,0,0,0-1.936,1.98,2.5,2.5,0,0,0,1.012,1.936c1.012.836,2.772,2.112,4.708,3.74a16.012,16.012,0,0,1-5.764,1.408,8.438,8.438,0,0,1-5.94-2.552c-.484-.44-.748-.66-.968-.66-.176,0-.264.616-.264.836,0,1.584,2.728,4.444,6.952,4.444,1.584,0,3.828-.4,7.568-2.112,7.26,6.6,7.436,10.824,7.436,11.264,0,.484-.22.792-.968.792a7.406,7.406,0,0,1-.88-.088,36.666,36.666,0,0,0-7-.748c-5.808,0-10.428,1.936-10.428,5.764,0,1.584,1.32,6.16,9.856,6.16,2.288,0,5.06-.4,5.06-1.628,0-.616-.792-1.144-1.76-1.144a3.4,3.4,0,0,0-.66.088,12.421,12.421,0,0,1-3.388.44c-4.4,0-7.216-1.98-7.216-4.4,0-1.936,1.98-3.96,6.732-3.96,3.476,0,7.568.836,8.844,1.716.792.528,1.32,1.188,2.068,1.188a2.583,2.583,0,0,0,2.42-2.86c0-4.884-5.1-9.856-8.888-13.156,2.992-1.452,4.268-2.6,4.268-3.784a1.34,1.34,0,0,0-1.144-1.32Zm-4.664,3.74c-4.18-3.608-4.532-4-4.532-4.444,0-.264.176-.484.7-.484.088,0,6.424,1.32,6.424,2.86C290.4,53.416,289.52,53.988,287.8,54.824ZM30.492,134.288c0-.308.044-.616.132-.616.044,0,.088.088.132.308.836,4.356,5.28,11.22,7.744,11.22a1.078,1.078,0,0,0,1.056-1.188,1.931,1.931,0,0,0-1.1-1.716c-6.16-3.124-7.436-9.592-7.436-12.584v-.572c.044-.792.088-1.628.088-2.464a2.034,2.034,0,0,0-1.1-1.76c-1.232,0-1.364,1.672-1.364,2.728,0,1.892.88,4.356.88,6.38,0,1.364-.484,9.372-.88,11.4a12.707,12.707,0,0,1-3.52,7.26c-1.98,1.848-5.1,3.7-8.008,3.7-4.576,0-6.38-4.62-6.38-8.4,0-7,5.544-16.588,8.976-17.776a5.679,5.679,0,0,1,1.188-.352c.66-.088,1.012-.44,1.012-.792,0-.748-1.276-1.188-2.156-1.188a5.061,5.061,0,0,0-2.772,1.056,7.846,7.846,0,0,1-4.18,1.232,3.054,3.054,0,0,1-2.112-.528c-.088-.088-.176-.484-.352-.484-.22,0-.66.572-.66,1.32a1.968,1.968,0,0,0,2.2,1.892,5.713,5.713,0,0,0,2.728-.88.68.68,0,0,1,.264-.132c.044,0,.044.044.044.088s-.044.132-.044.176c-.308.836-2.156,3.432-3.564,6.864-1.232,2.992-2.464,6.16-2.464,9.68,0,5.06,2.552,10.692,8.1,10.692,2.244,0,11.264-1.76,12.98-13.112a80.99,80.99,0,0,0,.616-9.636,16.107,16.107,0,0,0-.044-1.628Zm37.884-.044c.968-.352,5.1-1.848,5.1-3.784a1.1,1.1,0,0,0-.924-1.056,26.743,26.743,0,0,1-3.124-.792c-.176-2.552-1.892-3.256-2.816-3.256-.792,0-1.848.616-1.848,1.012,0,.264.484.44,1.144.528,1.012.132,1.364,1.408,1.364,3.036a16.468,16.468,0,0,1-.264,2.86,17.091,17.091,0,0,1-3.652.484,8.6,8.6,0,0,1-4.8-1.5,1.931,1.931,0,0,0-.836-.44c-.132,0-.176.044-.176.22,0,.616,1.188,3.74,5.808,3.74a13.376,13.376,0,0,0,3.256-.528C65.208,139.92,59.972,153.3,59,154.792a4.359,4.359,0,0,0-.748,2.288c0,.308.044,1.716,1.232,1.716,1.144,0,1.936-1.672,2.2-2.9,1.628-6.952,4.092-13.816,6.424-20.768Zm15.84,21.648c-1.276.044-2.112.176-2.9.176-4.268-.088-7.348-2.024-7.348-4a2.164,2.164,0,0,1,.22-.88,1.522,1.522,0,0,0,.22-.748q0-.264-.132-.264a2.746,2.746,0,0,0-1.364,2.6c0,3.124,5.148,5.764,10.472,5.764,3.168,0,3.7-.968,3.7-1.408,0-.66-.924-1.232-2.684-1.232Zm3.476-18.7c.4-.132.88-.44.88-.88,0-.88-3.344-2.9-7.04-2.9-2.64,0-3.388,1.056-3.388,1.1,0,.132.22.22.528.22a3.452,3.452,0,0,0,.616-.088,4.3,4.3,0,0,1,.836-.044c1.98,0,3.652.572,3.652,1.5,0,.572-.616,1.188-.924,1.584-.748.968-1.1,1.232-2.2,2.552a.613.613,0,0,0-.176.4c0,.088.044.176.132.176s.22-.088.44-.264A14.914,14.914,0,0,1,87.692,137.192Zm-18.26-8.228c.572.264,1.892.924,1.892,1.364,0,.484-1.056,1.232-2.332,1.8A12.414,12.414,0,0,0,69.432,128.964Zm71.148,12.5a1.918,1.918,0,0,0,2.112-2.112c0-3.212-3.344-5.1-5.72-5.1-4.312,0-4.356,6.072-4.356,7.876,0,1.98.176,4.444.4,7.7,0,.22.044.44.044.66,0,5.456-5.588,7.3-9.328,7.3-.616,0-6.688,0-6.688-4.62a13.166,13.166,0,0,1,1.584-5.192,8.516,8.516,0,0,0,.968-3.52,4.485,4.485,0,0,0-.572-2.244c.088-2.64.22-5.412.528-7.92,5.72-1.408,5.94-3.476,5.94-3.7,0-1.056-1.188-1.188-2.112-1.188a8.273,8.273,0,0,1-2.9-.748v-.44c0-1.584-1.716-2.156-2.376-2.156a1.465,1.465,0,0,0-1.276,1.1c0,.176.176.308.352.528a2.713,2.713,0,0,1,.88,2.2v.4c-.044.7-.088,1.5-.088,2.332a12.443,12.443,0,0,1-1.8.132,5.317,5.317,0,0,1-3.388-1.056,2.422,2.422,0,0,0-1.232-.616c-.132,0-.22.044-.22.22a4.829,4.829,0,0,0,4.752,3.52,9.771,9.771,0,0,0,1.892-.176v6.116a3.945,3.945,0,0,0-2.772-1.232c-2.376,0-2.9,2.64-2.9,4.092,0,1.892.968,6.952,3.608,6.952h.22a11.535,11.535,0,0,0-.352,2.684c0,5.236,5.148,6.556,8.448,6.556,8.008,0,10.868-5.632,10.868-8.008,0-1.936-1.1-3.872-1.276-6.468-.088-1.232-.22-2.684-.22-4.048,0-5.72,2.86-5.94,3.52-5.94a3.037,3.037,0,0,1,3.036,2.816c0,1.716-4.312,3.344-4.4,3.388-.352.132-.528.308-.528.4s.088.176.308.176a2.874,2.874,0,0,0,.484-.088,15.4,15.4,0,0,1,3.916-.572Zm-24.552,6.82c-.924,0-2.552-2.024-2.552-4.928,0-1.584.616-2.64,1.5-2.64,1.232,0,2.728,2.156,2.728,4.268C117.7,146.7,116.776,148.28,116.028,148.28Zm4.048-17.336.308-1.76c2.6,1.452,2.6,1.452,2.6,1.584,0,.836-2.332,1.364-3.168,1.54ZM184.1,149.82c-.88-.044-3.7-.4-6.424-.4-8.316,0-8.448,4.444-8.448,5.06,0,2.64,2.64,6.16,8.624,6.16,3.96,0,4.752-.924,4.752-1.628a1.409,1.409,0,0,0-1.54-1.188,3.028,3.028,0,0,0-.572.088,14.06,14.06,0,0,1-3.388.44c-4.664,0-6.336-2.772-6.336-4.092,0-.88,1.056-3.872,5.764-3.872,3.124,0,7.04,1.012,7.656,1.76.352.484.616.748,1.1.748.924,0,2.376-.836,2.376-3.036a4.922,4.922,0,0,0-.792-2.64,54.929,54.929,0,0,1-2.948-5.368c2.728-.968,5.148-2.244,5.148-3.344,0-.44-.484-.792-1.232-.792a11.639,11.639,0,0,1-2.772-1.056,5.1,5.1,0,0,0-1.5-.572c-.044,0-.088,0-.088.044,0,.088.264.4.836.792,1.1.792,1.364,1.364,1.364,1.76a.66.66,0,0,1-.264.528,8.475,8.475,0,0,1-2.2,1.1c-.792-1.628-1.54-3.256-2.332-5.016.792-.308,3.256-1.276,3.256-2.376,0-.22-.176-.836-.748-.836a4.645,4.645,0,0,0-2.112,1.012,5.556,5.556,0,0,1-1.144.616c-3.828-8.008-4.928-9.46-7.216-9.46-.352,0-2.068.264-2.068,1.056,0,.176.044.308.22.352.44.044,1.188-.132,2.772,1.452a30.794,30.794,0,0,1,5.148,7,5.862,5.862,0,0,1-2.024.352c-2.42,0-4.444-1.5-5.764-2.2a2.566,2.566,0,0,0-.792-.352c-.088,0-.176.044-.176.132,0,.132,1.232,4.048,6.732,4.048a9.57,9.57,0,0,0,2.816-.44c.836,1.672,1.584,3.388,2.288,5.06a20.289,20.289,0,0,1-6.468,1.144,8.976,8.976,0,0,1-6.424-2.508,1.37,1.37,0,0,0-.66-.4c-.132,0-.176.088-.176.264,0,0,.572,4.488,6.2,4.488a29.094,29.094,0,0,0,8.184-1.408c.748,1.8,1.5,3.564,2.332,5.236a3.3,3.3,0,0,1,.352,1.276c0,.616-.352,1.012-1.232,1.012Zm52.932-19.536a5.741,5.741,0,0,1-1.012.088A14.6,14.6,0,0,1,229.5,128a4,4,0,0,0-1.364-.924,2.492,2.492,0,0,0-.792-.132,1.934,1.934,0,0,0-1.936,1.98,2.5,2.5,0,0,0,1.012,1.936c1.012.836,2.772,2.112,4.708,3.74A16.012,16.012,0,0,1,225.368,136a8.438,8.438,0,0,1-5.94-2.552c-.484-.44-.748-.66-.968-.66-.176,0-.264.616-.264.836,0,1.584,2.728,4.444,6.952,4.444,1.584,0,3.828-.4,7.568-2.112,7.26,6.6,7.436,10.824,7.436,11.264,0,.484-.22.792-.968.792a7.4,7.4,0,0,1-.88-.088,36.666,36.666,0,0,0-7-.748c-5.808,0-10.428,1.936-10.428,5.764,0,1.584,1.32,6.16,9.856,6.16,2.288,0,5.06-.4,5.06-1.628,0-.616-.792-1.144-1.76-1.144a3.4,3.4,0,0,0-.66.088,12.421,12.421,0,0,1-3.388.44c-4.4,0-7.216-1.98-7.216-4.4,0-1.936,1.98-3.96,6.732-3.96,3.476,0,7.568.836,8.844,1.716.792.528,1.32,1.188,2.068,1.188a2.583,2.583,0,0,0,2.42-2.86c0-4.884-5.1-9.856-8.888-13.156,2.992-1.452,4.268-2.6,4.268-3.784a1.34,1.34,0,0,0-1.144-1.32Zm-4.664,3.74c-4.18-3.608-4.532-4-4.532-4.444,0-.264.176-.484.7-.484.088,0,6.424,1.32,6.424,2.86C234.96,132.616,234.08,133.188,232.364,134.024ZM268.8,161.7a5.126,5.126,0,1,0-5.148-5.148A5.145,5.145,0,0,0,268.8,161.7Zm0-1.5a3.7,3.7,0,0,1-3.652-3.652,3.662,3.662,0,0,1,3.652-3.608,3.624,3.624,0,0,1,3.608,3.608A3.662,3.662,0,0,1,268.8,160.2Z" transform="translate(-0.616 35.288)"/>
</svg>
