<svg xmlns="http://www.w3.org/2000/svg" width="405.152" height="277.333" viewBox="0 0 405.152 277.333">
  <path id="section-middle_ttl_2" d="M20.064-4.62a17.644,17.644,0,0,1-.176-1.848v-.484a50.783,50.783,0,0,1,.924-5.764,8.262,8.262,0,0,0,.176-1.232c0-.176,0-.264-.088-.264s-.264.308-.66,1.188c-.748,1.716-1.76,4.444-2.64,5.984a1.623,1.623,0,0,1-1.452.924c-.572,0-5.544-.968-5.544-9.24a25.9,25.9,0,0,1,.66-5.72,7.75,7.75,0,0,0,.176-1.5,3.522,3.522,0,0,0-2.552-3.7q-.264,0-.264.4c0,.088.044.176.044.308a11.907,11.907,0,0,1,.176,2.244c0,.4,0,.836-.044,1.276-.088,1.716-.22,3.432-.22,5.1,0,4.576.836,8.8,4.928,12.276a7.392,7.392,0,0,0,4.4,1.892c2.024,0,2.156-1.232,2.156-1.716Zm17.072-7.04c.7,0,1.452-.7,1.452-2.068,0-4.18-4.928-9.064-10.912-9.064-.528,0-.836.088-.836.22,0,.176.616.484,1.936.792a9.6,9.6,0,0,1,7.084,8.536C35.948-12.188,36.52-11.66,37.136-11.66Zm29.7-20.724c1.188,0,1.364,1.408,1.364,3.564,0,.88-.088,2.024-.176,3.3-.088,0-.132.044-.176.044a8.874,8.874,0,0,1-2.376.4c-1.188,0-2.244-.44-4.224-1.5a1.645,1.645,0,0,0-.66-.22.233.233,0,0,0-.264.264,5.291,5.291,0,0,0,5.148,3.52A5.986,5.986,0,0,0,67.8-23.5c-.4,3.388-.968,7.128-1.276,9.108a25.66,25.66,0,0,0-.4,4.268c0,2.816,1.1,3.96,1.8,3.96.484,0,.924-.484,1.276-1.364.7-1.8,4.532-6.556,8.448-6.556,2.728,0,5.544,1.98,5.544,4.928a7.327,7.327,0,0,1-1.364,3.96C79.6-1.672,73.876.22,70.312,1.188c-1.364.4-2.024.66-2.024.792,0,.088.176.132.484.132.176,0,11.088-.4,15.18-6.6a8.723,8.723,0,0,0,1.54-4.752c0-4.884-5.368-6.38-7.26-6.38a9.98,9.98,0,0,0-5.412,1.98c-1.1.7-3.52,2.244-4.4,2.244-.4,0-.44-.792-.44-1.32a106.225,106.225,0,0,1,1.54-11.308c2.684-1.144,6.072-2.9,6.072-4.092,0-.4-.4-.616-.88-.616a2.171,2.171,0,0,0-1.012.264c-.572.308-2.288,1.364-3.828,2.156.616-4.4.616-4.4.616-4.752A2.472,2.472,0,0,0,68.2-33.836c-.924,0-1.936.572-1.936,1.232,0,.132.088.22.308.22ZM133.364-22.4a7.789,7.789,0,0,1-1.012.044,9.734,9.734,0,0,1-3.168-.528c-.88-.308-2.376-1.012-3.08-1.276a3.551,3.551,0,0,0-.968-.264c-.132,0-.176.044-.176.132,0,.264,1.936,3.74,7.04,3.74a14.469,14.469,0,0,0,2.332-.264c0,4.356.088,8.756.132,10.736,0,.748,0,1.54-.044,2.376a15.888,15.888,0,0,0-3.212-.308c-4.488,0-7.612,1.98-7.612,4.312,0,1.98,2.684,4.444,5.852,4.444a7.111,7.111,0,0,0,6.732-6.38,11.8,11.8,0,0,1,4.8,4.224c.44.748.88,1.012,1.232,1.012.572,0,.968-.66.968-1.408,0-1.408-2.772-4.136-6.908-5.456,0-1.276-.132-2.684-.176-3.96-.088-1.364-.176-4.048-.176-7.128,0-.924.044-1.892.044-2.86.748-.176,5.9-1.54,5.9-3.916a1.286,1.286,0,0,0-.792-1.188c-.308-.088-1.232-.264-1.8-.484-.44-.132-1.892-.836-2.772-1.232a4.336,4.336,0,0,0,.088-.748c0-1.672-2.244-3.08-3.036-3.08a2.039,2.039,0,0,0-1.672,1.232c0,.264.484.4,1.232.66.88.352,1.276.352,1.276,4.224v.616c0,.836-.044,1.672-.044,2.552ZM114.312,1.5c.528,0,.88-.44.88-1.144a2.524,2.524,0,0,0-.22-1.056,5.925,5.925,0,0,1-.352-2.2c0-3.036,1.892-8.756,3.784-12.584a1.166,1.166,0,0,0,.132-.44c0-.176-.088-.264-.176-.264-.7,0-3.344,5.72-4.444,8.36-.264.616-.44.88-.572.88-.44,0-.572-2.244-.572-2.9,0-3.08,1.188-6.336,2.2-9.24.88-2.508,1.848-3.7,1.848-5.368,0-2.948-3.212-7.04-4.752-7.04-.044,0-.484,0-.484.176,0,.132.308.4.572.748a9.431,9.431,0,0,1,2.112,5.764,24.693,24.693,0,0,1-.836,4.884c-.7,3.256-2.2,7.084-2.2,11.924C111.232-2.9,112.728,1.5,114.312,1.5Zm19.932-7.7c-.528,2.9-2.684,5.016-5.28,5.016-1.892,0-4-1.1-4-2.508,0-2.024,3.08-2.948,5.852-2.948A14.119,14.119,0,0,1,134.244-6.2Zm7-23.1a1.105,1.105,0,0,0,1.056-1.188c0-2.024-3.52-2.948-5.676-2.948-.572,0-.968.088-.968.176s.4.264.66.4a14.371,14.371,0,0,1,3.872,2.992A1.429,1.429,0,0,0,141.24-29.3Zm4.532-2.068a1.1,1.1,0,0,0,1.012-1.188c0-1.98-3.08-2.816-5.456-2.816-.836,0-1.276.088-1.276.176s.4.22.66.352a14.362,14.362,0,0,1,4,2.9A1.5,1.5,0,0,0,145.772-31.372Zm-9.328,3.74c2.6,1.892,2.992,2.2,2.992,2.772,0,.264-.308,1.1-3.432,1.936.044-1.276.176-2.552.308-3.784ZM183.04-12.1c0-4.18-2.684-6.292-5.94-6.292a10.5,10.5,0,0,0-8.228,4.752c-.22.308-.352.484-.4.484a.043.043,0,0,1-.044-.044,4.575,4.575,0,0,1,.22-.528c2.2-4.488,5.148-7.92,8.8-12.1a5.226,5.226,0,0,0,1.628-3.256c0-1.54-1.98-3.652-3.564-3.652-1.012,0-1.452.352-1.452.528,0,.132.176.352.7.572,1.188.528,1.672,1.012,1.672,1.716a7.67,7.67,0,0,1-1.012,2.684c-1.276,2.6-10.78,14.52-13.068,25.74a1.974,1.974,0,0,0-.044.484c0,.792.44,1.188,1.012,1.188.924,0,2.156-.968,2.376-2.772.44-3.828,1.232-7.3,3.828-10.428,2.068-2.42,4.928-3.916,7.3-3.916,2.288,0,4.092,1.408,4.092,4.752,0,1.408-.132,2.024-1.056,5.5a8.256,8.256,0,0,0-.308,2.2c0,2.992,2.068,4.576,4.884,4.576,5.94,0,10.692-6.2,10.692-7.26,0-.044,0-.088-.044-.088-.176,0-.616.4-1.232.968-3.256,2.86-6.512,4-8.8,4-1.76,0-3.08-.748-3.08-2.9a8.741,8.741,0,0,1,.22-1.672,19.719,19.719,0,0,0,.836-5.192Zm49.148,4.312a26.279,26.279,0,0,1-5.148-7.348h20.724c.748,0,.968-.264.968-.528,0-.7-2.332-2.9-3.74-3.388-.088,0-.176-.044-.308-.044-.528,0-.924.528-2.244,2.464a.98.98,0,0,1-.748.4H224.84c-.748,0-1.892-.044-3.344-.088,0-1.188-.044-2.9-.044-4.8H239.58c.484,0,.616-.132.616-.264,0-.924-3.124-3.212-3.872-3.212-.616,0-2.068,1.936-2.112,1.98a.887.887,0,0,1-.66.4h-12.1c0-1.584.044-3.212.044-4.62H239.14c.66,0,.88-.22.88-.44,0-1.012-3.036-3.036-3.7-3.036-.44,0-1.672,1.408-2.112,2.024a.818.818,0,0,1-.66.4H221.5c0-3.52.088-3.916,1.452-4.576h19.1c.748,0,.924-.264.924-.528,0-.616-2.068-2.772-3.608-3.3-.088,0-.176-.044-.308-.044-.308,0-.616.132-2.2,2.376a.9.9,0,0,1-.7.4H222.816c-.044-.044-.132-.044-.22-.088a21.31,21.31,0,0,0-3.432-1.364c-.044,0-.088.044-.088.132a.774.774,0,0,0,.044.264,41.4,41.4,0,0,1,.44,7.26v11c-3.212-.088-7.04-.308-9.68-.616v.044c0,.616,1.232,2.288,1.98,2.288h.044c2.112-.22,4.928-.308,7.436-.4.176,2.552.176,6.952.176,13.728-4.18,1.056-5.28,1.188-7.3,1.188h-.7c-.264,0-.264.044-.264.044,0,.088,1.936,3.256,2.552,3.256.308,0,.528-.484,1.056-.66,10.56-3.564,17.116-7.128,17.6-7.612,5.984,6.292,12.276,7.3,13.068,7.3.176,0,.264-.044.484-.264C247.412.7,250.58-.264,250.58-.572c0-.088-.176-.132-.572-.132a24.906,24.906,0,0,1-17.2-6.512c1.716-.572,5.588-2.244,7-2.728a3.128,3.128,0,0,1,1.188-.308,4.1,4.1,0,0,1,.616.088,3.8,3.8,0,0,0,.66.044c.7,0,1.1-.22,1.1-.528,0-.572-2.464-2.9-3.344-3.344a.585.585,0,0,0-.308-.132c-.044,0-.088.088-.132.176C238.788-11.792,237.2-10.6,232.188-7.788Zm-10.824,5.94c0-3.7-.044-9.328-.044-10.868s.132-1.408.748-1.8a1.187,1.187,0,0,0,.572-.616H226.2a28.739,28.739,0,0,0,5.984,9.768C228.536-3.96,224.664-2.772,221.364-1.848Zm59.18-2.772a17.642,17.642,0,0,1-.176-1.848v-.484a50.777,50.777,0,0,1,.924-5.764,8.265,8.265,0,0,0,.176-1.232c0-.176,0-.264-.088-.264s-.264.308-.66,1.188c-.748,1.716-1.76,4.444-2.64,5.984a1.623,1.623,0,0,1-1.452.924c-.572,0-5.544-.968-5.544-9.24a25.9,25.9,0,0,1,.66-5.72,7.751,7.751,0,0,0,.176-1.5,3.522,3.522,0,0,0-2.552-3.7q-.264,0-.264.4c0,.088.044.176.044.308a11.908,11.908,0,0,1,.176,2.244c0,.4,0,.836-.044,1.276-.088,1.716-.22,3.432-.22,5.1,0,4.576.836,8.8,4.928,12.276a7.392,7.392,0,0,0,4.4,1.892c2.024,0,2.156-1.232,2.156-1.716Zm17.072-7.04c.7,0,1.452-.7,1.452-2.068,0-4.18-4.928-9.064-10.912-9.064-.528,0-.836.088-.836.22,0,.176.616.484,1.936.792a9.6,9.6,0,0,1,7.084,8.536C296.428-12.188,297-11.66,297.616-11.66ZM329.384-6.6c-.22-5.5-.352-11.264-.352-15.444,0-6.16,0-6.2.88-6.732.264-.176,1.012-.528,1.012-1.1,0-1.1-2.772-2.332-3.124-2.332a.33.33,0,0,0-.22.044,3.39,3.39,0,0,0-.88,1.012.887.887,0,0,1-.66.4h-3.784l-.176-.132a21.682,21.682,0,0,0-3.432-1.628c-.044,0-.044.044-.044.088a.774.774,0,0,0,.044.264c.4,1.98.44,5.72.44,12.276,0,4.972-.044,11.572-.264,15.884v.088c0,.748.44,1.056.924,1.056a1.322,1.322,0,0,0,1.364-1.276c0-1.452-.044-2.948-.044-4.488h5.94V-6.2c0,.836.44,1.144.968,1.144a1.455,1.455,0,0,0,1.408-1.452Zm24.64-13.728c.836,0,1.1-.308,1.1-.572,0-.748-2.64-2.86-3.168-3.036-.088,0-.22-.044-.308-.044-.4,0-.44.044-1.936,2.244a.907.907,0,0,1-.616.308h-6.688v-5.984h9.064c.7,0,.924-.264.924-.528,0-.572-1.848-2.464-2.86-2.9-.088,0-.22-.044-.308-.044-.44,0-.748.44-1.8,2.112a.921.921,0,0,1-.572.352h-4.444c.132-5.324.132-5.324.748-5.544.66-.264,1.012-.616,1.012-.968,0-1.012-3.564-1.364-3.96-1.408-.44,0-.44.044-.44.088a.478.478,0,0,0,.044.22,28.291,28.291,0,0,1,.616,6.468v1.144a66.441,66.441,0,0,1-8.536-.616c0,.484.968,2.024,1.716,2.024h.044a55.046,55.046,0,0,1,6.732-.4c0,2.288,0,3.916-.044,5.984h-.176A101.9,101.9,0,0,1,329.956-22c0,.484,1.012,2.068,1.76,2.068h.044c4.268-.308,6.16-.4,8.272-.4Zm.528,7.656c.836,0,1.1-.308,1.1-.616,0-.572-2.2-2.6-3.344-2.992-.088,0-.176-.044-.308-.044-.4,0-.616.176-1.98,2.2a.921.921,0,0,1-.572.352h-2.156c0-.528.044-.924.044-1.276.088-2.156.352-2.112,1.144-2.464a.5.5,0,0,0,.352-.484c0-.968-3.96-1.32-4-1.32a.161.161,0,0,0-.176.176.775.775,0,0,0,.044.264,21.9,21.9,0,0,1,.528,5.1H339.9c-2.2,0-3.96-.088-9.944-.616,0,.484,1.012,2.112,1.76,2.112h.044c4.268-.308,5.9-.4,8.008-.4h5.5c.044,1.232.088,2.9.088,5.06,0,1.54,0,3.432-.088,5.588-.044,1.5-1.188,2.376-3.916,2.376a24.285,24.285,0,0,1-4.488-.528,4.622,4.622,0,0,0-.572-.088.154.154,0,0,0-.088.044c0,.308,5.016,2.244,5.544,2.772.308.352.352.528.7.528.968,0,5.016-1.056,5.016-4.928,0-.924-.22-4.048-.22-4.444,0-.924-.044-2.024-.044-3.124,0-1.144.044-2.288.044-3.256Zm-33.484,2.9c0-3.432-.044-6.82-.044-9.768H327.1c0,3.168-.044,6.644-.044,9.768Zm-.044-10.912c0-8.052.132-8.228.748-8.624l.4-.264h4.444a.388.388,0,0,1,.4.4c.088,1.056.088,4.4.088,8.492ZM339.372-4.444a1.3,1.3,0,0,0,1.188-1.408c0-2.244-3.96-3.7-6.864-3.7-.176,0-.264,0-.264.044s.176.176.484.4a16.433,16.433,0,0,1,3.96,3.564C338.36-4.752,338.888-4.444,339.372-4.444Zm62.7-16.412c.044,5.324.132,11.352.132,15.136,0,4.8,0,5.676-2.772,5.676-1.32,0-3.08-.308-5.412-.572a3.421,3.421,0,0,0-.572-.044c-.132,0-.176,0-.176.044,0,.264,4.972,1.76,5.456,2.86a.827.827,0,0,0,.792.572,4.918,4.918,0,0,0,4.884-4.8c0-.572-.132-3.872-.132-4.312-.088-2.9-.264-12.76-.264-19.14,0-1.54,0-2.86.044-3.828.044-1.056-.044-1.32.924-2.024.22-.176.792-.44.792-.836,0-.968-3.168-2.156-3.3-2.156-.308,0-.836.528-1.012.748a.7.7,0,0,1-.616.308h-6.38l-.264-.22a13.135,13.135,0,0,0-3.7-1.5c-.088,0-.088,0-.088.088a.991.991,0,0,0,.044.308,42.3,42.3,0,0,1,.572,7.612c0,1.5-.044,3.652-.308,6.6v.176a.958.958,0,0,0,1.012,1.056,1.228,1.228,0,0,0,1.408-1.232v-.088c0-.132-.044-.308-.044-.44ZM374.484,1.5c-.132-2.9-.176-9.548-.176-16.236v-6.116h8.4c0,.264-.044.484-.044.7v.088c0,.7.4.968.88.968A1.555,1.555,0,0,0,385-20.548c-.264-6.248-.264-9.108-.264-9.152,0-.7.044-.968.88-1.584.22-.176.792-.44.792-.836,0-.88-2.728-2.156-3.08-2.156-.308,0-.66.22-1.056.748a.638.638,0,0,1-.572.308h-5.852c-.088-.088-.176-.22-.264-.264a17.21,17.21,0,0,0-3.74-1.672c-.044,0-.088.044-.088.176a.991.991,0,0,0,.044.308,39.1,39.1,0,0,1,.484,5.456c0,1.628.044,3.388.044,5.148,0,8.932-.22,19.052-.572,25.784v.132c0,.924.484,1.276,1.056,1.276a1.7,1.7,0,0,0,1.672-1.584Zm19.932-5.324c-.044-1.584-.264-6.072-.264-8.228,0-1.672.176-1.892.748-2.244.22-.088.968-.352.968-.836,0-.748-2.552-2.024-2.948-2.024-.22,0-.572.088-.968.7a.887.887,0,0,1-.66.4h-7.26a9.888,9.888,0,0,0-3.124-1.32.117.117,0,0,0-.132.132c0,.088.044.176.044.264a28.8,28.8,0,0,1,.4,4.8c0,2.024,0,7.612-.22,9.636v.176c0,.66.352.968.792.968a1.344,1.344,0,0,0,1.276-1.32V-4h9.24v.616c0,.836.4,1.188.836,1.188a1.456,1.456,0,0,0,1.276-1.584ZM402.028-22h-8.976c-.044-1.672-.044-3.3-.044-4.664h8.932Zm-9.68,12.408c0,1.54,0,3.124-.044,4.488h-9.24c0-1.408-.044-3.036-.044-4.488ZM382.8-26.664c0,1.628,0,3.3-.044,4.664h-8.448c0-1.672.044-3.256.088-4.664Zm9.108,11.748c.22,0,.352.4.352.44.088,1.012.088,2.332.088,3.784H383.02v-2.464c.044-1.5.044-1.144.968-1.628l.22-.132Zm9.46-17.116c.44,0,.484,0,.572,4.224h-8.932c0-1.232.044-2.068.044-2.376.044-1.408.044-1.408.924-1.848Zm-19.14,0c.572,0,.572.792.572,4.224h-8.4c0-3.564.132-3.784.748-4.136l.176-.088ZM39.776,58.124c.484,0,.792-.132.792-.44,0-1.012-3.256-2.992-3.256-2.992a.435.435,0,0,0-.264-.088c-.044,0-.044.088-.132.264-.616,1.716-1.452,3.432-5.544,7.656,0-1.32-.044-2.6-.044-3.872,0-7.348.044-7.392,1.012-8.052.22-.176.748-.44.748-.924,0-.88-2.508-2.288-2.816-2.288-.352,0-.924.7-1.188,1.056a.684.684,0,0,1-.572.308H20.24a26.788,26.788,0,0,0,2.376-3.08c.22-.308.264-.528.836-.616.968-.132,1.452-.44,1.452-.792q0-.33-.528-.66a31.872,31.872,0,0,0-3.916-1.452c-.088,0-.176.044-.176.264a15.728,15.728,0,0,1,.088,1.628,18.9,18.9,0,0,1-1.144,4.708H16.192a19.669,19.669,0,0,0-3.784-1.716.154.154,0,0,0-.044.088c0,.044.044.132.088.308a40.158,40.158,0,0,1,.528,5.676s-.044,11.484-.044,14.476c-3.432.264-4.268.308-4.576.308-.748,0-2.244-.132-3.388-.264H4.708c-.044,0-.088,0-.088.044,0,.264,1.76,3.432,2.288,3.432.308,0,.616-.352,1.012-.44,6.512-1.188,15-3.124,19.4-4.18-8.36,7.48-17.908,12.5-24.112,14.344-.4.132-.968.44-.968.616,0,.088.088.088.308.088.308,0,12.232-1.056,26.84-14.3,0,3.872-.044,7.524-.132,9.988-.044,1.144-.176,2.112-3.08,2.112a38.028,38.028,0,0,1-6.028-.7c-.308-.044-.484-.088-.616-.088-.044,0-.088,0-.088.044,0,.308,5.808,2.332,6.292,3.256.176.308.132.572.528.572.352,0,5.324-.792,5.368-4.84,0-.88-.044-2.288-.044-2.992,0-2.288-.132-5.676-.176-9.24,1.98-1.936,4-4,5.984-6.248.88-.968,1.056-1.056,1.276-1.056.132,0,.4.044.748.088ZM29.392,64.548l-.924.924c-3.212.616-8.448,1.364-13.288,1.892,0-1.276.044-3.652.044-6.16H29.392ZM28.776,49.94c.484,0,.484.264.484.308,0,1.1.044,2.552.044,4.224H15.18v-3.08c0-1.012.176-.968.616-1.188l.44-.264Zm.528,5.676c0,1.364.044,2.9.044,4.444H15.18V55.616ZM64.24,79.464c.572,0,.968-.44.968-1.144a1.973,1.973,0,0,0-.044-.484,11.837,11.837,0,0,1-.352-2.772c0-3.476,2.376-9.372,3.344-11.572a2.126,2.126,0,0,0,.22-.792c0-.088-.044-.132-.088-.132-.748,0-3.828,7.04-4.312,8.228-.264.572-.484.792-.616.792-.352,0-.748-1.32-.748-3.036,0-3.08,1.32-6.776,2.508-9.724A11.018,11.018,0,0,0,66.176,54.6c0-4.312-2.9-5.324-3.124-5.324-.132,0-.88.044-.88.22s.308.352.484.616a9.743,9.743,0,0,1,1.056,4.84,14.621,14.621,0,0,1-.264,2.948c-.484,2.508-1.5,5.148-2.068,8.228a22.363,22.363,0,0,0-.44,4.312C60.94,74.624,62.3,79.464,64.24,79.464ZM87.6,74.14a20.384,20.384,0,0,0-3.256.748,15.846,15.846,0,0,1-2.464.176c-3.3,0-6.292-.924-7.26-2.288-.352-.484-.7-.792-.88-.792-.132,0-.176.088-.176.264,0,.66,1.144,5.368,9.5,5.368,2.772,0,6.688-.616,6.688-2.332,0-.66-.616-1.144-1.8-1.144ZM87.34,55.176c0-.572-.616-1.056-1.716-1.056a4.932,4.932,0,0,0-1.056.132,16.418,16.418,0,0,1-1.76.616,27.866,27.866,0,0,1-3.608.308,8.354,8.354,0,0,1-4.312-1.056,1.976,1.976,0,0,0-.66-.308c-.088,0-.132.044-.132.176,0,0,.352,3.432,6.292,3.432C82.368,57.42,87.34,57.068,87.34,55.176Zm56.936,7.612c0-4.62-5.148-9.064-11.132-9.064-3.916,0-8.052,1.628-11.836,3.872-2.9,1.716-6.424,4.136-9.5,4.356-.572.044-.748.22-.748.4a3.6,3.6,0,0,0,3.256,1.936,8.312,8.312,0,0,0,5.368-2.6c4.444-4.092,9.592-6.292,13.86-6.292,5.852,0,8.448,4.048,8.448,6.952,0,1.54-.968,10.428-21.384,13.772a5.152,5.152,0,0,0-1.76.484c0,.088.484.176,1.848.176C136.884,76.78,144.276,68.64,144.276,62.788Zm44.7,1.892c0,7.084-4.708,14.388-9.812,16.9-1.276.616-1.716.924-1.716,1.056,0,.044.088.088.22.088a9.15,9.15,0,0,0,1.936-.44c6.82-2.64,11.264-8.316,11.264-16.72,0-.572,0-1.144-.044-1.76-.132-1.98-.308-3.916-.352-6.072,5.632-1.276,5.808-4,5.808-4.136a1.557,1.557,0,0,0-1.232-1.408,13.139,13.139,0,0,1-1.5-.176c-.616-.132-1.892-.484-2.772-.748v-.352a3.763,3.763,0,0,0-3.608-3.74c-.924,0-1.892.528-1.892,1.056,0,.264.4.484,1.408.484h.264c1.54,0,1.892,2.816,1.892,4.8v2.6a11.373,11.373,0,0,1-1.672.176h-.968a17.881,17.881,0,0,1-5.06-.572,9.789,9.789,0,0,0-1.232-.4c-.132,0-.176.044-.176.132,0,.044.7,2.684,6.292,2.684h1.056a12.3,12.3,0,0,0,1.76-.132l.132,6.2ZM172.612,78.32a.763.763,0,0,0,.836-.836,2,2,0,0,0-.176-.792,9.387,9.387,0,0,1-.44-3.124c0-3.3,1.8-8.184,4.18-13.42a2.85,2.85,0,0,0,.22-.924q0-.264-.132-.264c-.352,0-3.344,5.368-5.5,11-.22.616-.44.836-.66.836-.264,0-1.232-1.32-1.232-4.268a35.428,35.428,0,0,1,2.068-10.12,10.27,10.27,0,0,0,.792-3.08c0-2.244-2.992-4.488-3.036-4.532a3.586,3.586,0,0,0-1.628-.308c-.528,0-1.1.132-1.1.484,0,.132.176.352.66.66,2.2,1.232,2.684,2.508,2.684,4.4a19.964,19.964,0,0,1-.22,2.6c-.4,2.64-1.452,6.424-1.452,10.824C168.476,73.392,170.544,78.32,172.612,78.32ZM190.74,51.7c2.42,1.232,2.772,1.452,2.772,1.892,0,.616-1.232,1.54-3.036,2.112.044-1.1.088-2.244.22-3.476C190.7,52.052,190.74,51.876,190.74,51.7Zm42.328,26.444a4.027,4.027,0,0,0,.4-1.672,4.612,4.612,0,0,0-4.664-4.356c-1.408,0-4,.748-4,3.256,0,2.64,3.344,4.268,6.776,4.268,7.216,0,12.188-4.488,12.188-9.68,0-4.444-3.652-8.14-9.108-8.14a14.154,14.154,0,0,0-7.172,2.068c-.132.088-.176.088-.22.088h-.044c0-.132,5.412-8.052,9.328-11,.924-.66,1.5-1.32,1.5-1.98,0-.572-1.012-2.464-3.7-2.464-2.464,0-5.016,2.068-5.72,2.684a3,3,0,0,1-1.892.66,3.281,3.281,0,0,1-1.144-.176,3.528,3.528,0,0,0-.88-.308c-.176,0-.264.132-.264.484a2.377,2.377,0,0,0,2.6,2.332c2.816,0,4.18-3.916,6.292-3.916.352,0,1.188.132,1.188.748a3.3,3.3,0,0,1-.66,1.452c-1.936,2.948-5.1,6.864-6.512,8.932a55.761,55.761,0,0,1-4,5.412c-.616.7-3.564,4.224-3.564,5.368a1.028,1.028,0,0,0,1.056,1.1,2.218,2.218,0,0,0,1.716-1.1c.352-.528,1.232-2.42,1.716-3.124.968-1.364,4.092-5.94,9.768-5.94,4.224,0,7.348,3.036,7.348,6.864,0,3.256-2.288,6.908-7.744,8.052Zm-2.112.088c-2.376-.132-4.62-1.276-4.62-2.86,0-1.276,1.144-1.8,2.2-1.8a2.874,2.874,0,0,1,2.9,2.9A3.44,3.44,0,0,1,230.956,78.232ZM21.78,146.212c-.572.044-1.056.4-1.584.484a8.546,8.546,0,0,1-1.056.088c-.264,0-.528-.044-.748-.044.308-2.772.836-5.588,1.364-8.184a24.047,24.047,0,0,1,2.6-1.188c.44-.176.7-.44.7-.792,0-.4-.352-.836-1.232-1.276a6.841,6.841,0,0,0-1.408-.176,71.558,71.558,0,0,0,1.056-7.216,4.57,4.57,0,0,0-3.784-4.62c-.792,0-.836.44-.836.528s.044.176.22.264c1.584.88,1.936,3.08,1.936,5.28a42.7,42.7,0,0,1-.4,5.28A9.847,9.847,0,0,1,13.86,131.3a.816.816,0,0,0-.572-.4c-.132,0-.22.088-.22.308,0,1.276,2.464,4.048,5.236,5.5l-.176,1.144c-3.344,2.288-4.972,4.4-4.972,6.336a4.8,4.8,0,0,0,3.74,4.268c0,.528-.044,1.056-.044,1.54,0,8.932,3.652,10.736,6.292,10.736,3.608,0,8.448-3.872,8.448-9.02,0-6.688-7.876-11.968-8.36-11.968-.044,0-.088,0-.088.044,0,.308.88,1.32,1.056,1.5,2.728,2.86,5.06,6.6,5.06,10.208,0,4.18-3.168,7.172-6.028,7.172-4.972,0-5.06-6.82-5.06-7.7,0-.7.044-1.5.088-2.244.44.044.924.088,1.408.088.616,0,4.488-.308,4.488-1.584,0-.572-.88-1.012-2.068-1.012Zm-4.752.308c-1.144-.308-2.772-1.188-2.772-2.728,0-1.848,2.288-3.784,3.652-4.4C17.556,141.68,17.2,144.1,17.028,146.52ZM74.36,129.756c.572-.044,1.144-.132,1.716-.132,8.712.088,12.98,6.116,12.98,12.54,0,5.236-2.508,12.76-15,16.28-1.144.352-1.848.7-1.848.924,0,.088.22.176.616.176,3.08,0,18.612-3.564,18.612-17.16,0-7.128-4.972-14.036-14.916-14.036-11.792,0-17.6,10.56-17.6,17.2a6.79,6.79,0,0,0,1.012,3.96c1.892,2.64,2.508,5.368,4.532,5.368,3.432,0,11.572-9.108,11.572-19.58C76.032,132.528,75.46,130.372,74.36,129.756Zm-2.64.572a5.22,5.22,0,0,1,1.232-.22c.968,0,1.76.66,1.76,4.092,0,8.712-7.084,17.556-9.768,17.556-1.936,0-4.092-3.212-4.092-6.908C60.852,139.084,65.384,132.308,71.72,130.328Zm52.1,3.916c.968-.352,5.1-1.848,5.1-3.784A1.1,1.1,0,0,0,128,129.4a26.743,26.743,0,0,1-3.124-.792c-.176-2.552-1.892-3.256-2.816-3.256-.792,0-1.848.616-1.848,1.012,0,.264.484.44,1.144.528,1.012.132,1.364,1.408,1.364,3.036a16.468,16.468,0,0,1-.264,2.86,17.091,17.091,0,0,1-3.652.484,8.6,8.6,0,0,1-4.8-1.5,1.931,1.931,0,0,0-.836-.44c-.132,0-.176.044-.176.22,0,.616,1.188,3.74,5.808,3.74a13.376,13.376,0,0,0,3.256-.528c-1.408,5.148-6.644,18.524-7.612,20.02a4.359,4.359,0,0,0-.748,2.288c0,.308.044,1.716,1.232,1.716,1.144,0,1.936-1.672,2.2-2.9,1.628-6.952,4.092-13.816,6.424-20.768Zm15.84,21.648c-1.276.044-2.112.176-2.9.176-4.268-.088-7.348-2.024-7.348-4a2.164,2.164,0,0,1,.22-.88,1.521,1.521,0,0,0,.22-.748q0-.264-.132-.264a2.746,2.746,0,0,0-1.364,2.6c0,3.124,5.148,5.764,10.472,5.764,3.168,0,3.7-.968,3.7-1.408,0-.66-.924-1.232-2.684-1.232Zm3.476-18.7c.4-.132.88-.44.88-.88,0-.88-3.344-2.9-7.04-2.9-2.64,0-3.388,1.056-3.388,1.1,0,.132.22.22.528.22a3.452,3.452,0,0,0,.616-.088,4.3,4.3,0,0,1,.836-.044c1.98,0,3.652.572,3.652,1.5,0,.572-.616,1.188-.924,1.584-.748.968-1.1,1.232-2.2,2.552a.613.613,0,0,0-.176.4c0,.088.044.176.132.176s.22-.088.44-.264A14.914,14.914,0,0,1,143.132,137.192Zm3.08-9.548a1.139,1.139,0,0,0,1.1-1.188c0-1.452-2.024-2.948-5.764-2.948-.968,0-1.232.132-1.232.176,0,.088.4.22.66.352a14.387,14.387,0,0,1,4.136,2.992A1.575,1.575,0,0,0,146.212,127.644Zm-4.664,2.156a1.08,1.08,0,0,0,1.056-1.188c0-1.716-2.728-3.08-5.852-3.08-.528,0-1.012.044-1.012.132s.4.264.66.4a14.622,14.622,0,0,1,4,3.124A1.575,1.575,0,0,0,141.548,129.8Zm-16.676-.836c.572.264,1.892.924,1.892,1.364,0,.484-1.056,1.232-2.332,1.8A12.414,12.414,0,0,0,124.872,128.964Zm71.412,19.316c1.144,0,2.728-1.452,2.728-3.96,0-3.344-3.784-6.864-9.328-6.864-.308,0-.528.044-.528.132s.352.308,1.32.66c2.288.836,6.028,2.024,6.028,5.632,0,2.816-3.3,3.124-5.192,3.52-.66.132-1.1.264-1.1.4,0,.22.66.22,3.784.22a4.867,4.867,0,0,1,1.672.132A1.405,1.405,0,0,0,196.284,148.28Zm-21.868-8.756c-2.376,5.5-7.172,12.5-8.932,15.136a5.675,5.675,0,0,0-1.1,2.552.706.706,0,0,0,.748.792c.88,0,2.024-1.144,2.64-2.2,2.772-5.148,6.292-12.144,8.316-16.808,2.2-1.32,2.64-1.452,3.476-1.452,1.716,0,2.684,1.848,2.684,5.28,0,5.984-2.86,12.232-6.732,12.232a3.916,3.916,0,0,1-3.168-1.892c-.572-.792-.924-1.188-1.1-1.188q-.132,0-.132.264a6.273,6.273,0,0,0,.264,1.364c.308,1.188-.176,2.772,1.452,3.344a6.082,6.082,0,0,0,1.892.308c4.268,0,9.46-4.664,9.46-13.772,0-1.892-.088-7.216-4.312-7.216a8.917,8.917,0,0,0-2.948.66,2.692,2.692,0,0,0,.22-.528,21.721,21.721,0,0,0,1.364-5.72c0-.792-.4-2.772-2.2-2.772-1.1,0-2.508.836-2.508,1.276,0,.352.44.572.88.66,1.1.176,1.452,1.144,1.452,2.508a18.227,18.227,0,0,1-.924,5.148,18.93,18.93,0,0,1-6.028,1.276,3.322,3.322,0,0,1-2.816-1.144c-.308-.4-.528-.66-.7-.66-.22,0-.308.308-.308,1.188a3.138,3.138,0,0,0,3.388,3.256C169.532,141.416,170.676,141.24,174.416,139.524Zm58.168-12.364c0,.44-.352.88-1.1,1.276-.968.528-2.068,1.012-2.992,1.584a5.535,5.535,0,0,0-2.9,4.752c0,.22.044.4.044.616a19.236,19.236,0,0,1,.132,2.024c0,.484-.044.924-.088,1.5a76.17,76.17,0,0,0-.792,8.272c0,5.412,2.948,6.336,3.476,6.336.484,0,1.012-.352,1.716-1.188,2.068-2.6,2.772-3.828,4.84-5.368a5.266,5.266,0,0,1,8.4,3.7c0,2.552-2.288,7.788-12.32,10.252a6.215,6.215,0,0,0-2.068.66c0,.044.132.044.352.044,7.3,0,16.412-4.4,16.412-11,0-4.268-4.62-6.2-6.952-6.2a8.071,8.071,0,0,0-4.576,1.452c-2.112,1.452-3.3,2.816-4.356,3.52a3.752,3.752,0,0,1-1.672.748c-.572,0-1.672-.22-1.672-4a28.057,28.057,0,0,1,.616-5.5,24.064,24.064,0,0,0,.66-4,8.089,8.089,0,0,0-.264-1.892,6.067,6.067,0,0,1-.088-.968c0-3.344,2.816-3.476,3.96-3.476a8.121,8.121,0,0,1,2.508.308,3.966,3.966,0,0,0,1.408.4,1.812,1.812,0,0,0,1.5-1.892c0-2.816-5.236-4.928-5.456-4.928-.132,0-.176.088-.176.132,0,.176.264.528.308.616a5.81,5.81,0,0,1,1.144,2.112ZM36.7,211.508a4.019,4.019,0,0,0-4.048-3.96,3.96,3.96,0,1,0,0,7.92A4.019,4.019,0,0,0,36.7,211.508Zm-12.1,2.728c-.044,0-.088,0-.088.044,0,.176.44.616,1.012,1.188,3.168,3.036,7.172,7.48,8.492,11.484.484,1.408,1.188,1.98,1.8,1.98.7,0,1.364-.792,1.364-2.024C37.18,221.54,25.784,214.236,24.6,214.236Zm-6.424,6.952a4.923,4.923,0,0,0,1.276-2.772c0-2.2-2.86-3.74-3.828-3.74-1.056,0-1.584.616-1.584.968a.373.373,0,0,0,.308.352,2.173,2.173,0,0,1,2.156,2.332c0,3.388-8.008,11.572-15.312,13.552-.308.088-.572.264-.572.4s.132.176.4.176C2.2,232.452,11.792,230.956,18.172,221.188Zm17.2-9.724a2.684,2.684,0,1,1-5.368,0,2.684,2.684,0,0,1,5.368,0Zm36.212,9.988a81.949,81.949,0,0,1-.308-8.272,5.051,5.051,0,0,1,.308-1.98,2.054,2.054,0,0,0,.308-.88c0-1.5-3.036-2.772-4.18-2.772-1.364,0-1.848.836-1.848.968,0,.22.264.352.66.4,2.024.4,2.992.66,2.992,8.624,0,1.452-.088,2.816-.264,4.752a4.026,4.026,0,0,0-.044.7c0,1.54.528,2.288,1.056,2.288.968,0,1.408-2.068,1.408-2.9A9.072,9.072,0,0,0,71.588,221.452Zm10.6-12.364a1.876,1.876,0,0,0,.264-.792c0-1.276-3.784-3.344-4.972-3.344a1.609,1.609,0,0,0-1.408.968c0,.176.22.308.616.44,1.54.484,2.332,1.188,2.332,4.312,0,.4,0,.836-.044,1.32-.088,2.112-.088,3.476-.176,5.368-.352,9.768-4.752,17.16-11.308,21.164-1.32.792-1.76,1.188-1.76,1.32,0,.044.044.044.132.044,1.144,0,14.74-4.576,15.092-22.088C81.092,211.244,81.444,210.408,82.192,209.088Zm42.592-.792c-1.8,0-4.268.132-4.268.44,0,.132.4.264,1.1.352a24.141,24.141,0,0,1,10.032,3.476,2.572,2.572,0,0,0,1.5.528,1.156,1.156,0,0,0,1.188-1.188C134.332,209.792,130.724,208.3,124.784,208.3Zm-3.608,9.548h-.44c-.792,0-1.144.088-1.144.264,0,.088.308.264,1.012.4a18.473,18.473,0,0,1,7.92,3.7,2.366,2.366,0,0,0,1.452.528,1.307,1.307,0,0,0,1.364-1.32C131.34,219.736,128.348,217.844,121.176,217.844Zm-1.628,10.6c-.352,0-.528.088-.528.176,0,.176.4.4,1.188.7,5.236,1.892,9.68,4.092,12.584,6.688a2.931,2.931,0,0,0,1.848.88,1.273,1.273,0,0,0,1.276-1.364C135.916,230.868,120.692,228.448,119.548,228.448Zm72.952-9.5h-.4c-2.244,0-1.056.4-3.652,1.276-1.848.616-4,1.364-6.16,2.068-.616-1.98-1.144-4-1.672-5.984a70.34,70.34,0,0,1,7.04-1.98c1.012-.22,1.584-.748,1.584-1.232s-.572-.924-1.76-.924c-.528,0-1.276-.044-1.628-.044-1.848.088-2.068,1.056-3.432,1.54-.572.22-1.32.484-2.288.836-.132-.484-.22-.924-.352-1.364a11,11,0,0,1-.572-2.816,2.706,2.706,0,0,1,.044-.572,6.075,6.075,0,0,0,.132-.88c0-1.408-2.992-2.244-4.532-2.244-1.056,0-1.936.7-1.936,1.276,0,.22.176.352.528.352h.176a3.331,3.331,0,0,1,.66-.044c1.716,0,2.244,1.1,3.608,5.06.22.572.4,1.188.616,1.8-.836.264-1.716.616-2.772.924a20.2,20.2,0,0,1-5.1.968,4.34,4.34,0,0,1-1.76-.308.749.749,0,0,0-.308-.044c-.176,0-.308.044-.308.264,0,.484.88,1.98,3.3,1.98a9.205,9.205,0,0,0,2.816-.484c1.32-.44,2.948-1.012,4.708-1.584.616,1.892,1.232,3.96,1.8,5.984-8.976,2.992-10.384,3.036-11.528,3.036a9.632,9.632,0,0,1-2.816-.4,3.287,3.287,0,0,0-.88-.132c-.308,0-.528.088-.528.352,0,1.8,3.3,2.86,5.412,2.86,1.5,0,1.892-.748,3.828-1.54,2.42-.968,4.8-1.848,7-2.64.792,2.772,1.5,5.412,2.024,7.48.22.924.308,1.716.484,2.376,1.056,4.576,2.42,4.576,2.508,4.576.44,0,.7-.528.7-1.5a9.758,9.758,0,0,0-.792-3.7,93.953,93.953,0,0,1-3.52-9.768,36.089,36.089,0,0,1,12.54-2.508c1.056-.044,1.628-.528,1.628-1.1C196.944,218.988,195.052,218.944,192.5,218.944Zm50.732-1.056c-.088-2.6-.264-5.808-.264-8.228,0-2.508,0-2.64.792-2.948.4-.176,1.1-.44,1.1-.968,0-.88-2.86-2.376-3.08-2.376-.352,0-.88.484-1.232.924a.71.71,0,0,1-.572.264H227a20.2,20.2,0,0,0-3.608-1.672c-.044,0-.044,0-.044.044a1.238,1.238,0,0,0,.044.352,45.461,45.461,0,0,1,.616,5.632c0,1.452-.22,6.908-.4,9.636v.132c0,.792.44,1.1.924,1.1a1.394,1.394,0,0,0,1.408-1.276v-1.452h15.092c0,.484-.044.924-.044,1.364v.044c0,.7.352,1.012.792,1.012a1.576,1.576,0,0,0,1.452-1.54Zm6.82,20.592c-.22-3.256-.352-6.38-.352-8.8,0-2.816.088-3.124.88-3.608.308-.176.968-.4.968-.924,0-.572-.66-1.32-2.728-2.332a1.032,1.032,0,0,0-.484-.088.33.33,0,0,0-.22.044c-.22.088-.572.616-.792.924a.811.811,0,0,1-.616.4H239.36l-.176-.132a15.686,15.686,0,0,0-3.476-1.628c-.088,0-.088.044-.088.132a.991.991,0,0,0,.044.308,51.159,51.159,0,0,1,.572,8.1c0,1.848-.044,4.268-.308,8.492v.132a.866.866,0,0,0,.924.968,1.35,1.35,0,0,0,1.364-1.276c0-.792-.044-1.5-.044-2.156h9.592l-.044,1.716v.044a1.01,1.01,0,0,0,1.012,1.144,1.362,1.362,0,0,0,1.32-1.364Zm-19.624-.264c-.176-2.6-.352-6.82-.352-9.24,0-2.376.176-2.508.836-2.86.308-.176.968-.44.968-.968,0-.352-.308-1.056-2.772-2.288a.87.87,0,0,0-.44-.088c-.308,0-.352.088-1.012,1.012a.836.836,0,0,1-.66.352h-6.82l-.22-.132a12.36,12.36,0,0,0-3.256-1.5c-.088,0-.088.044-.088.132a.991.991,0,0,0,.044.308,38.494,38.494,0,0,1,.4,5.676c-.044,2.024.044,6.776-.308,10.6v.132a.822.822,0,0,0,.88.924,1.3,1.3,0,0,0,1.32-1.188v-2.068h9.108c0,.528-.044,1.012-.044,1.5a.945.945,0,0,0,1.012,1.012,1.357,1.357,0,0,0,1.408-1.232Zm10.34-32.516s.22.176.22.264c.044,1.1.088,3.036.088,5.236,0,1.54-.044,3.168-.044,4.708H225.94c0-2.552-.044-5.368-.044-6.82,0-2.464,0-2.508,1.32-3.388Zm-2.6,30.184c-.044-1.584-.044-2.948-.044-4.532,0-1.1,0-2.376.044-3.916.044-1.628.088-1.408.88-1.98a.92.92,0,0,1,.264-.176h7.832c.66,0,.7.22.7,4.62,0,1.672-.044,3.652-.088,5.984Zm-19.272,0c0-1.188-.044-2.508-.044-3.74,0-1.76.044-3.388.088-4.62.088-1.936.132-1.5.968-2.068l.176-.132h7.348c.132,0,.572,0,.572.44.088.924.088,2.288.088,3.872,0,1.892,0,4.092-.044,6.248Zm76.252-18.92c-.352,0-.352,0-1.144,1.1a.636.636,0,0,1-.616.264h-14.52a15.252,15.252,0,0,0-3.652-1.584c-.044,0-.044.044-.044.088a.859.859,0,0,0,.044.308,39.087,39.087,0,0,1,.484,5.5c-.044,2.156-.176,8.756-.308,11.132v.088a.9.9,0,0,0,1.012.924,1.228,1.228,0,0,0,1.32-1.1V232.5H294.4v.88a.876.876,0,0,0,.924.924,1.4,1.4,0,0,0,1.408-1.32v-.044c-.088-1.98-.4-7.128-.4-10.208V222.2c0-1.364.132-1.628.88-2.024.308-.176,1.1-.484,1.1-1.056C298.32,218.328,295.812,216.964,295.152,216.964Zm-10.868-9.856c-.088,0-.176-.044-.264-.044a.475.475,0,0,0-.308.132c-.572.572-.924,1.144-1.452,1.76a.751.751,0,0,1-.484.22h-7.92a16.844,16.844,0,0,0,.132-2.068c0-.836.22-.7.66-.88a2.205,2.205,0,0,0,.792-.44,59.95,59.95,0,0,0,7.48-1.188,2.972,2.972,0,0,1,.616-.088,1.728,1.728,0,0,1,.616.132,1.521,1.521,0,0,0,.528.132.548.548,0,0,0,.572-.572c0-.572-1.848-2.552-2.024-2.552-.088,0-.132.132-.264.22a5.781,5.781,0,0,1-1.5,1.056c-2.816,1.012-4.752,1.672-6.38,2.112l-.264-.132a13.828,13.828,0,0,0-3.256-1.144.043.043,0,0,0-.044.044v.132a22.235,22.235,0,0,1,.352,3.256c0,3.872-.7,8.184-5.456,11.484a6.187,6.187,0,0,0-.792.572h.044c.264,0,6.424-1.1,8.008-9.064h4.268c.044,1.012.044,1.54.044,1.936,0,1.056-.044,2.024-.176,3.96v.088a.889.889,0,0,0,.924.968A1.246,1.246,0,0,0,279.972,216v-.044c-.132-1.848-.22-2.508-.22-3.608v-.528c.044-1.1-.088-.88.528-1.276a.4.4,0,0,0,.176-.352h5.94c.66,0,.88-.264.88-.528C287.276,209.22,285.648,207.68,284.284,207.108Zm16.984-.044c-.088,0-.176-.044-.264-.044-.308,0-1.32.88-1.892,1.892a.671.671,0,0,1-.528.264H290a16.414,16.414,0,0,0,.176-2.024c0-.836.176-.7.616-.88a2.462,2.462,0,0,0,.836-.484,65.717,65.717,0,0,0,7.744-1.232,1.8,1.8,0,0,1,.484-.044,2.492,2.492,0,0,1,.792.132,1.521,1.521,0,0,0,.528.132.558.558,0,0,0,.616-.528c0-.572-2.024-2.6-2.112-2.6s-.132.132-.264.22a6,6,0,0,1-1.54,1.056c-2.9,1.012-4.928,1.672-6.644,2.112l-.264-.132a15.464,15.464,0,0,0-3.256-1.188.043.043,0,0,0-.044.044v.132a24.554,24.554,0,0,1,.352,3.432c0,5.676-2.6,8.272-5.456,9.944-.44.264-.836.44-.836.528h.044a9.917,9.917,0,0,0,8.052-7.612h4.928c.044,1.012.044,1.54.044,1.936,0,1.1-.088,1.716-.22,3.652v.088a.889.889,0,0,0,.924.968,1.222,1.222,0,0,0,1.276-1.144v-.044c-.088-1.716-.176-2.244-.176-3.168v-.66c.044-1.1-.088-.88.528-1.276a.4.4,0,0,0,.176-.352h6.16c.7,0,.924-.264.924-.484C304.392,209.22,302.588,207.592,301.268,207.064Zm-6.776,20.856c0,1.232-.088,2.42-.088,3.476h-16.72c-.044-1.276-.044-2.376-.044-3.476Zm0-5.324H277.64c0-.308.044-.66.044-.968.044-1.8.264-1.584.836-2.024l.088-.088h15.444c.264,0,.352.308.352.352C294.448,220.528,294.492,221.5,294.492,222.6Zm0,4.18H277.6c0-.968.044-1.936.044-3.036h16.852Zm-13.288,7c-.088,0-.088.132-.176.264a4.966,4.966,0,0,1-1.452,1.584c-4.4,2.728-10.736,4.224-14.3,4.8-.7.088-1.012.22-1.012.352s.352.22,1.012.22c2.376,0,10.956-.924,16.148-3.74a2,2,0,0,1,.88-.22,2.142,2.142,0,0,1,.528.044,1.8,1.8,0,0,0,.484.044c.572,0,.924-.22.924-.528C284.24,235.972,281.38,233.772,281.2,233.772Zm7.172.4c-.22,0-.352.044-.352.132,0,.044.132.176.352.264,2.684,1.012,7.744,3.212,9.724,5.06a3.718,3.718,0,0,0,2.42,1.232,1.227,1.227,0,0,0,1.32-1.232C301.84,236.016,290.312,234.168,288.376,234.168Zm35.86,6.732a5.126,5.126,0,1,0-5.148-5.148A5.145,5.145,0,0,0,324.236,240.9Zm0-1.5a3.7,3.7,0,0,1-3.652-3.652,3.662,3.662,0,0,1,3.652-3.608,3.624,3.624,0,0,1,3.608,3.608A3.662,3.662,0,0,1,324.236,239.4Z" transform="translate(-0.616 36.344)"/>
</svg>
