<svg xmlns="http://www.w3.org/2000/svg" width="299.4" height="39.072" viewBox="0 0 299.4 39.072">
  <path id="section-brand_ttl" d="M10.6-26.972c0-1.628,0-3.256-.044-4.972l.44-.132H34.408c0,1.32-.044,3.432-.044,5.1Zm23.716,1.76v.484a1.321,1.321,0,0,0,1.364,1.5c1.232,0,1.892-.308,1.892-1.672,0-1.144-.088-4.312,0-6.468.792-.308,1.54-.7,1.54-1.276,0-.968-2.64-2.9-3.52-2.9-.484,0-1.276.88-1.892,1.716H10.956a12.124,12.124,0,0,0-3.3-1.5c-.572-.088-.88.132-.836.836.352,4.488.44,9.416.4,13.464C7.128-10.78,5.544-5.236,1.54.352.7,1.54,1.848,2.376,2.9,1.408c6.6-5.72,7.3-14.432,7.524-21.208.088-1.892.132-3.652.176-5.412ZM20.944-17.644h6.6c0,1.76,0,3.564-.044,5.148H20.944Zm18.348,6.908c1.628,0,2.376-.352,2.376-.968,0-1.056-3.124-3.608-3.96-3.608-.66,0-1.76,1.5-2.684,2.816H30.536v-5.148H37.62c1.628,0,2.288-.352,2.288-.924,0-1.012-2.992-3.476-3.784-3.476-.616,0-1.716,1.408-2.552,2.64H30.536v-2.2c1.1-.264,1.8-.572,1.8-1.32,0-1.012-3.652-1.188-4.4-1.188-.4,0-.66.22-.616.616.088.924.176,2.42.176,4.092H20.944v-2.244c1.1-.264,1.8-.572,1.8-1.276,0-1.012-3.608-1.188-4.356-1.188-.4,0-.66.22-.616.616.088.924.176,2.42.176,4.092H11.924c-.572,0-.968.22-.968.88,0,.7.4.88.968.88H18c0,1.76,0,3.564-.044,5.148h-7c-.572,0-.968.22-.968.88,0,.7.4.88.968.88H16.5v8.4c-2.112.308-4.4.572-6.908.748-.352.044-.528.176-.528.572.352,2.376,1.056,4.224,1.98,4.268.748,0,1.1-.924,1.32-1.98A55.632,55.632,0,0,0,25.7-2.6c1.628-.792,1.276-2.068-.484-1.584-1.628.44-3.52.924-5.72,1.32V-9.108c.748-.22,1.1-.528,1.1-1.012,0-.264-.264-.484-.66-.616h4.752C26.576-3.652,31.02.836,37.8,2.42c1.364.352,1.584.044,2.112-.66A3.383,3.383,0,0,1,41.668.484C42.592.132,42.9-.66,41.492-.792a20.7,20.7,0,0,1-10.076-3.52,29.623,29.623,0,0,0,5.412-2.772c1.364.4,1.8.264,2.024-.264.264-.616-1.144-2.024-2.552-2.9a.711.711,0,0,0-1.1.088A23.682,23.682,0,0,1,29.832-5.72a13.478,13.478,0,0,1-3.212-5.016ZM60.28-32.12h8.756v3.344H59.884c.044-1.364.088-2.552.132-3.3Zm-.44,8.58v-3.476h9.152v3.476Zm9.108,1.76v.572c0,.7.264,1.5,1.276,1.5,1.144,0,1.8-.352,1.8-1.716S71.94-29,71.984-31.68c.748-.264,1.452-.66,1.452-1.232,0-.968-2.464-2.816-3.3-2.816-.484,0-1.32.968-1.892,1.848H61.38a11.8,11.8,0,0,0-4.312-1.848.6.6,0,0,0-.616.616c.748,6.688.176,31.372.176,36.916,0,.836.352,1.276,1.232,1.276,1.408,0,2.024-.528,2.024-1.54,0-1.848-.088-16.94-.088-18.48v-4.84Zm8.008,5.94v5.28H72.248c.132-1.452.176-2.948.176-4.356,1.012-.22,1.5-.44,1.584-.924ZM85.272-8.8c1.232,0,1.98-.264,1.936-.924,0-.924-2.552-3.344-3.388-3.344-.528,0-1.5,1.32-2.332,2.508H79.9v-4.268c1.056-.132,1.584-.528,1.628-1.012h2.816c1.5,0,2.156-.308,2.156-.88-.044-.924-2.816-3.256-3.608-3.256-.528,0-1.5,1.232-2.288,2.376H63.888c-.572,0-.968.22-.968.88,0,.7.4.88.968.88h5.28a30.312,30.312,0,0,1,.088,5.28H63.228c-.572,0-.968.22-.968.88,0,.7.4.88.968.88H69.08a13.184,13.184,0,0,1-1.188,3.652c-1.144,2.112-3.08,3.476-5.5,4.928-1.1.7-.44,1.936.836,1.364,2.728-1.1,5.72-2.772,7.172-5.192A12.679,12.679,0,0,0,72.028-8.8h4.928c0,4.488-.132,7.436-.132,8.844,0,.836.308,1.32,1.144,1.32,1.408,0,2.024-.66,2.024-1.584,0-1.232-.088-4.268-.088-8.58ZM80.608-23.54l-.044-3.476h9.68v3.476Zm9.636-8.58v3.344h-9.68c0-1.188.044-2.6.088-3.344Zm-8.492-1.76a11.23,11.23,0,0,0-3.784-1.672.526.526,0,0,0-.616.572c.4,3.872.176,11.132.176,13.992A1.037,1.037,0,0,0,78.672-19.8c1.276,0,1.936-.4,1.936-1.364v-.616h9.636v5.016c0,4.532.088,10.956-.088,14.036-.088,1.364-.528,1.8-1.628,1.8-.836,0-2.332-.22-2.684-.22-.836,0-1.012,1.1-.088,1.408,2.772.836,1.848,2.728,3.432,2.728a3.9,3.9,0,0,0,4.048-3.96c.044-9.9-.044-22.66.176-30.184.924-.352,1.8-.836,1.8-1.408,0-.836-2.9-3.256-3.96-3.256-.308,0-1.32,1.056-2.024,1.936Zm33.836,8.36c-.968-.528-1.628-.132-1.364.968.528,2.2,2.86,4.18,4.356,4.18,1.32,0,2.464-.572,4.576-1.1a113.028,113.028,0,0,1,11.7-2.112c1.188-.088,1.364-.044,1.012,1.144-2.156,7.26-9.02,14.916-19.14,19.58-1.452.66-.792,2.244.66,1.8,12.54-4,18.26-12.012,21.3-18.656.924-2.024,2.288-2.024,2.288-3.344,0-1.232-2.772-3.608-4.708-3.608-.968,0-1.232.572-3.256.836-3.74.528-11.968,1.584-14.08,1.584C117.656-24.244,116.864-24.816,115.588-25.52ZM142.56-34.8c-.836,0-1.144.748-.44,1.276a22.306,22.306,0,0,1,3.256,2.728c.836.924,1.276,1.276,1.936,1.276a1.41,1.41,0,0,0,1.452-1.54C148.764-33.308,145.376-34.76,142.56-34.8Zm-3.476,3.652a.665.665,0,0,0-.528,1.188c.88.836,1.892,1.76,2.64,2.64,1.012,1.188,1.32,1.936,2.332,1.936a1.466,1.466,0,0,0,1.5-1.54C145.024-29,141.944-30.932,139.084-31.152Zm34.452,1.628c-.968-.484-1.364.132-1.012.924a5.067,5.067,0,0,0,4.972,3.124,31.33,31.33,0,0,0,8.624-1.54c1.188-.4,1.8-.836,1.8-1.716,0-.792-1.276-1.364-2.772-1.364-1.54,0-4.4,1.628-8.184,1.628A8.946,8.946,0,0,1,173.536-29.524Zm-4.312,9.2c-.792-.572-1.5-.176-1.364.7.352,2.508,2.728,4.268,3.96,4.268A17.457,17.457,0,0,0,176-16.368a100.4,100.4,0,0,1,10.736-2.288c1.276-.132,1.232.088.968.836-2.024,5.544-7.7,12.232-15.84,15.8-1.584.7-.88,2.244.616,1.8,9.328-2.86,14.608-8.756,18.7-15.884.528-.924,1.8-1.672,1.8-2.552,0-1.188-2.552-3.124-4.532-3.124-.748,0-1.056.44-2.2.66-2.464.484-11.748,2.156-14.124,2.156C170.9-18.964,170.236-19.536,169.224-20.328Zm52.58-4.708a31.413,31.413,0,0,1,4.84,4.84c1.628,2.112,2.464,2.42,3.52,1.98,1.364-.572,1.232-2.9,0-4.4a12.487,12.487,0,0,0-7.524-4.048C221.276-26.884,220.792-25.872,221.8-25.036Zm-.088,16.28c-.616-.352-1.188.044-1.056.836.4,2.42,3.256,4.884,5.324,4.884,1.144,0,2.376-.748,3.828-1.54,8.14-4.444,15.532-10.956,19.272-16.544a.959.959,0,0,0-1.54-1.144c-4.928,5.148-12.364,11.528-19.712,14.784a4.152,4.152,0,0,1-3.74.088C223.476-7.7,222.332-8.4,221.716-8.756Zm59.708-22.308c-.924,0-2.772.792-2.772,1.408,0,.572.528.7,1.8,1.32.792.4,1.056.572,1.188,2.024.22,2.464.176,4.8.176,8.976,0,8.668-.836,12.628-.836,14.3,0,2.288.88,3.608,2.244,3.608,1.1,0,1.76-.792,1.76-2.86,0-2.024-.352-9.108-.352-13.024,0-2.728.088-5.94.22-8.58s.836-3.784.836-4.8C285.692-30.008,283.008-31.064,281.424-31.064Zm6.16,14.344c5.236,2.728,6.16,5.148,7.568,5.148,1.276,0,1.76-.88,1.76-1.936,0-2.772-4.62-4.884-8.8-4.884C286.7-18.392,286.572-17.248,287.584-16.72Zm6.864-15.356c-.836,0-1.144.748-.44,1.276a22.306,22.306,0,0,1,3.256,2.728c.836.924,1.276,1.276,1.936,1.276a1.41,1.41,0,0,0,1.452-1.54C300.652-30.58,297.264-32.032,294.448-32.076Zm-3.476,3.652a.665.665,0,0,0-.528,1.188c.88.836,1.892,1.76,2.64,2.64,1.012,1.188,1.32,1.936,2.332,1.936a1.466,1.466,0,0,0,1.5-1.54C296.912-26.268,293.832-28.2,290.972-28.424Z" transform="translate(-1.252 35.816)"/>
</svg>
