<svg xmlns="http://www.w3.org/2000/svg" width="654.287" height="571.004" viewBox="0 0 654.287 571.004">
  <g id="section-intro_map-bg" transform="translate(0.056 0.36)">
    <g id="グループ_6" data-name="グループ 6" transform="translate(194.072 142.458)">
      <path id="パス_12" data-name="パス 12" d="M1808.716,536.295c-.124.2-.2.327-.32.518h.006a69.594,69.594,0,0,1-4.823,7.224c-.54,1.089-.352,1.516.3,2.159a16.246,16.246,0,0,1,5.322,12.564,34.152,34.152,0,0,1-.387,4.752l-.444,2.649a16.2,16.2,0,0,0,.87,10.412c1.059,3.078,2.493,4.4,4.644,6.435a28.086,28.086,0,0,1,6.37,7.957,49.507,49.507,0,0,1,3.56,10.765c.274,1.1.633,2.5,1.017,3.827.056.2.11.411.17.6a10.256,10.256,0,0,0,1.382,3.248c.792.485,4.393,1.044,6.771,1.424,4.871.772,10.924,1.715,16.072,4.616,1.636.931,3.247,1.681,4.855,2.4a38.148,38.148,0,0,0,17.937,3.637l2.782-.2c1.793-.131,3.519-.239,5.214-.3.443-.017.889-.012,1.329-.022,1.347-.029,2.683.022,4,.123.481.038.966.068,1.442.125a25.15,25.15,0,0,1,4.844,1.052c.072.018.146.026.219.049l.009.008c.512-.8,1.044-1.459,1.56-2.212.578-.843,1.2-1.728,1.787-2.524a52.549,52.549,0,0,1,5.878-6.8,19.748,19.748,0,0,1,6.421-4.066c.079-.03.152-.076.229-.108a22.238,22.238,0,0,1,7.847-1.372c.023,0,.039-.013.064-.013.069,0,.133.018.206.018a40.241,40.241,0,0,1,9.825,1.467c.761.2,1.565.4,2.36.575q.524.106,1.048.2a16.18,16.18,0,0,0,1.847.218c.281.016.576.059.835.046.1,0,.2-.012.3-.017a3.181,3.181,0,0,0,.93-.247,2.2,2.2,0,0,0,.558-.29,3.916,3.916,0,0,0,1.112-1.48c.023-.043.046-.055.068-.1a14.38,14.38,0,0,0,.968-3.17,159.355,159.355,0,0,1,4.037-16.98,39.2,39.2,0,0,1,5.291-11.069c.08-.121.187-.2.273-.309a13.937,13.937,0,0,1,11.317-6.109h.026c4.983.005,9.791,2.824,13.2,7.721,2.1,3.027,3.749,3.814,4.078,3.859-.088-.026.415-.4,1.095-1.391a39.934,39.934,0,0,1,4.718-5.622c.306-.309.609-.626.923-.917a27.174,27.174,0,0,1,4.831-3.593c.337-.194.675-.372,1.015-.546a21.358,21.358,0,0,1,5.09-1.865c.3-.062.6-.126.894-.177a20.657,20.657,0,0,1,5.951-.192,14.8,14.8,0,0,0,4.481-.078,14.634,14.634,0,0,0,1.492-.208,7.73,7.73,0,0,0,2.93-1.434h0a6.77,6.77,0,0,0,1.629-2.191,12.083,12.083,0,0,0,.759-2.116,21.171,21.171,0,0,1,1.534-4.076c.138-.276.288-.5.434-.762a15.171,15.171,0,0,1,1.583-2.339c.147-.172.289-.341.44-.5a12.487,12.487,0,0,1,1.833-1.663c.12-.087.231-.187.355-.269a12.608,12.608,0,0,1,1.839-1.032c.076-.037.165-.1.238-.138.021-.007.038,0,.055-.012a13.087,13.087,0,0,1,4.2-1c.056-.005.107-.005.164-.005.251-.018.528-.045.742-.045a14.422,14.422,0,0,1,2.964.334.176.176,0,0,1,.054.012,15.6,15.6,0,0,1,2.712.813l.178.062c.613.259,1.1.487,1.281.579.328.108.73.246,1.145.378-.063-.458-.152-.976-.263-1.56-.478-2.6-.981-4.746-1.473-6.69-.369-1.454-.731-2.82-1.057-4-1.1-4.025-2.021-7.406-1.816-11.16a20,20,0,0,1,.62-3.922,25.9,25.9,0,0,1,1.755-4.765,19.62,19.62,0,0,1,.991-1.7,20.064,20.064,0,0,1,1.244-1.938,15.983,15.983,0,0,1,1.718-1.864c.287-.276.544-.584.846-.837a16.016,16.016,0,0,1,2.871-1.952c4.523-2.31,9.951-2.258,16.077.013.26.093.5.133.766.239,3.64,1.439,6.937,2.983,10.106,4.589.709.357,1.431.737,2.118,1.107a93.134,93.134,0,0,1,8.851,5.286c.384-.9.783-1.807,1.136-2.681.089-.228.188-.46.278-.692.434-1.076.88-2.159,1.335-3.229,1.708-4.033,3.739-7.9,7.163-10.635,2.606-2.075,3.207-4.921,3.876-9.376a40.836,40.836,0,0,1,.781-4.216c1.863-7.158,8.985-11.347,14.713-14.714,6.921-4.048,17.483-3,24.593,2.5a23.659,23.659,0,0,0,5.271,3.08c.116.047.23.121.347.167a14.5,14.5,0,0,0,4.827,1.089,8.06,8.06,0,0,0,.855.043c.027,0,.061.008.085.008l1.2-.039c.729,0,1.621.121,2.455.2,2.13.194,4.348.529,6.846.989a86.757,86.757,0,0,0,13.769,1.723,48.929,48.929,0,0,0,14.472-2.3,72.712,72.712,0,0,1,8.3-2c6.439-1.077,13.319-.026,18.5,1.41.422.113.913.194,1.313.314a31.777,31.777,0,0,1,4.5,1.7,12.531,12.531,0,0,0,3.067,1.073,4.409,4.409,0,0,0,.6.084,3.264,3.264,0,0,0,.574.024c4.795-3.524,7.864-4.071,12.479-4.669l1.771-.1c.166,0,.328.068.493.075a22.936,22.936,0,0,1,5.271.806c.237.062.457.139.688.206,1.778.511,3.532,1.115,5.193,1.719,1.536.54,3.007,1.082,4.3,1.424.328-6.924,7.44-13.041,11.565-15.476,1.913-1.115,5.036-5.507,5.45-9.282a6.3,6.3,0,0,0-.382-2.516c-.924-2.9-3.241-6.76-4.915-9.548l-.547-.917-.814-1.347c-1.585-2.707-4.732-3.461-13.329-4.914l-1.32-.234c-5.513-.951-8.344-3.789-9.756-5.991-3.521-5.524-1.723-12.184-.652-16.16a121.765,121.765,0,0,0,4.092-21.616,24.726,24.726,0,0,1,1.126-5.706c.131-.412.254-.809.4-1.191a18.79,18.79,0,0,1,2-3.935c.072-.1.145-.169.215-.264a19.561,19.561,0,0,1,1.555-1.906c-.132.03-.285.038-.416.07a34.414,34.414,0,0,1-4.2.75c-.328.042-.637.081-.961.1a24.531,24.531,0,0,1-5.017-.012c-.07-.007-.131-.029-.209-.037a17.148,17.148,0,0,1-4.339-1.174c-.368-.147-.721-.312-1.078-.489a12.958,12.958,0,0,1-3.938-2.887c-2.126-2.367-3.877-4.116-5.323-5.563-1.173-1.158-2.166-2.17-3.035-3.141-.415-.453-1.182-1.068-2.087-1.844-3.423-2.933-8.585-7.362-11.065-12.61a11.65,11.65,0,0,0-4.612-5.406,21.994,21.994,0,0,0-3.288-1.68c-1.3-.555-2.632-.989-3.94-1.41-4.217-1.37-8.987-2.934-12.85-7.256h-.012a28.721,28.721,0,0,0-3.073,1.152c-1.056.428-2.151.862-3.3,1.273-6.519,2.277-10.3,2.5-16.147,1.006-3.777-.989-7.476-4.007-11.391-7.213-2.327-1.907-5.224-4.272-6.81-4.921-9.389-3.935-14.65-7.936-16.576-12.585-1.282-3.116-2.667-9.722-4.656-19.446l-1.41-6.816c-.5-2.359-2.193-5.409-4.139-8.488a146.509,146.509,0,0,0-9.314-12.776c-.026-.037-.029-.075-.052-.105-2.49,1.592-5.085,3.039-7.448,4.724-1.652,1.173-3.172,3.148-5,3.991-1.687.767-3.757.383-5.543.988-5.106,1.7-6.454,3.99-13.167,3.191-1.947-.234-4.416-1.517-5.28-.045-1.346,2.267-3.374,8.093-2.881,10.263.2.913,1.42,2.04,1.42,3.014-.012,2.486-3.167,7.218-4.582,9.169-2.942,4.041-6.95,7.37-9.981,11.289-1.609,2.078-2.738,4.482-4.657,6.067-2.609,2.138-8.756,4.108-10.562,6.732-2.228,3.235-3.279,6.76-5.718,9.314-2.085,2.17-5.664,3.861-7.2,6.507-1.353,2.317-1.14,4.551-2.234,6.911-.947,2.024-3.379,2.832-4.491,4.562-1.534,2.365-1.752,5.059-3.371,7.059-2.927,3.576-8.757,6.232-11.724,9.518-1.6,1.762-2.956,6.021-4.367,8.342-.775,1.258-2.792,2.531-3.4,3.747a2.358,2.358,0,0,0-.069,1.962c.639,2.3,2.993,3.806,3.984,5.882,1.055,2.223.426,4.679.71,7.453.223,2.215,2.342,4.422,2.68,6.645.513,3.392-2.233,8.533-1.912,11.624a16.863,16.863,0,0,0,3.011,4.528c.452.215.632-.364,1.085.059.273.25.1,1.081.3,1.4.84,1.354,2.287,2.217,3.28,3.493,2.813,3.626,3.006,9.037,5.729,12.723,1.894,2.556,4.02,5.689,6.087,7.968,2.339,2.566,5.306,5.017,6.706,8.131,1.236,2.743,1.112,6.186,2.038,9.118,1.048,3.317,3.325,6.753,3.426,10.585.025,1.253-.717,2.2-.757,3.769-.129,4.488.067,5.419-4.719,7.15-.136,2.417,1.218,3.342,1.039,5.336-.406,4.369-4.31,4.184-5.645,6.471-1.447,2.453.385,4.195.259,5.793-.2,2.325-2.387,4.242-3.053,5.821-1.069,2.506-.36,5.508-.533,8.011-2.42.907-8.523,1.135-8.933-2.095-.187-1.46.673-2.9-.071-3.982-.913-1.341-4.279-1.656-5.609-3,1.312-3.441,4.175-3.077,5.431-5.643,1.571-3.244-.965-11.317-1.429-14.034-.654-3.769,2.19-3.218,2.479-5.3.343-2.568-3.55-9.837-5.6-10.7-1.882,1.818-3.97,3.248-5.734,5.122-2.008-.524-3.494-1.038-4.606-.095-1.27,1.07-2.278,4.01-3.815,4.518-1.389.453-3.35-.667-5.062-.868a8.5,8.5,0,0,1-4.426,3.475c-.293,2.4-.108,4.362-.423,6.72-.163,1.156-.415,1.837-.544,2.946,2.906-.013,3.99-2.051,6.282-2.116-.59,2.254.01,3.771-.31,5.425-.448,2.272-2.4,5.118-3.058,6.7-.3.716.148,1.246.038,1.547-.273.705-1.32.659-1.613,1.128a17.7,17.7,0,0,0-1.647,4.637c-.554,2.956,3.25,2.816,3.786,4.95.548,2.166-1.262,5.387-2.026,6.96-.155.3-.07.768-.266,1.034-1.876,2.453-5.037-1.384-6.978-1.145-1.819.212-2.079,3.8-3.454,4.833-1.3.969-9.988,3.453-11.922,2.637l-.049-.674c-2.3-1.083-2.291-2.982-5.091-3.306-2.5-.3-6.6.668-9.1-.6-2.557-1.307-.772-6.368-2.772-7.991-.918-.741-2.042-.365-3.3-.854-2.841-1.127-4.841-3.023-7.83-3.8a25.393,25.393,0,0,0-1.161,2.783c.645.7,5.793,4.82,5.9,5.279.59,2.452-2.831,3.265-1.355,6.916.5,1.227,1.048,1.038,2.009.742a6.477,6.477,0,0,0,2.6-1.53c.781.529,3.415,3.525,3.534,4.224.935,5.374-3.952,13.3-8.029,13.121-4.049-.184-2.521-5.386-6.262-5.6-1.378-.079-4.04.9-5.6,1.2-.227,2.12.27,5.718,2.843,6.022,1,.119,1.964-.478,3.416-.436-.088,2.423,2,6.326,1.169,8.24-.073.162-4.984,3.989-5,3.989-1.018.07-2.284-.717-3.3-.854a18.4,18.4,0,0,0-4.916.261c.31-1.787,1.188-3.486,1.338-5.157.088-1-3.226-6.145-3.868-7.177-.084.084-.828.047-.935.2-.852,1.213-.555,3.1-1.939,3.241-3.3.315-4.655-5.842-6.657-7.457-1.154-.932-2.578-.524-4.284-1.33-1.445-.691-4.019-2.742-6.239-2.284-1.048.222-1.936,2.021-2.867,2.562-1.881,1.089-3.927,1.842-5.82,2.9.23,7.112,2.619,4.644,7.1,4.046a1.638,1.638,0,0,1,1.234.322c.189,2.573-1.25,9.05-.141,10.753,1-.164,7.5-2.939,5.678-4.914,0,0,.092-1.573.9-1.749.608-.139,1.359.284,1.909.28,2.554-.059,5.178-1.6,6.929.469-1.232,2.486-2.437,3.248-4.895,3.581-.27,4.221-.213,5.039-5.01,4.871-.22,1.839.777,3.321.063,4.858-.567,1.2-8.682,5.456-10.646,4.511-1.186-.579-1.406-2.68-2.973-2.975-1.929-.38-3.835,2.062-6.117,1.5-1.3-.323-3.173-1.836-5.26-1.806-1.4.018-2.467,2.556-3.342,3.543-1.495-.454-2.951-1.878-5.207-2.015-2.045-.133-4.216,1.786-5.966,1.76-1.507-.035-3.81-2.205-5.609-3a20.013,20.013,0,0,0-3.047-1.006c1.983-4.185,5.541-3.311,10.256-1.308a67.918,67.918,0,0,0,7.932-7.638,4.222,4.222,0,0,1,.159-.621c.292.29.342-.728.216-.823-1.413-1.056-5.655-1.269-3.336-3.291.415-.366,1.132-.24,1.663-.445.877-.36,2.054-2.008,3.424-1.313.209.1.474,1.179.558,1.241,1.08.751,1.982.751,2.728,1.367,0,0,3.829.808,2.855-.8-1.2-1.966-1.408-5.143-.755-8.131-1.738-.366-3.654.969-6.011,1.087-1.346.063-2.592-.383-3.929-.138-3.284.579-5.818,3.738-8.329,5.769-.616.487-1.58.534-2.234.965-3.622,2.339-7.181,6.184-11.394,7.4-1.917.546-4.772,1.6-6.944,1.281-1.283-.188-1.443-.872-2.574-1.111-.954-.2-2.757.039-3.725-.081-5.283-.68-7.442-3.38-9.2-6.136,1.1-1.229,2.7-.913,3.584-1.932.771-.9.771-2.2,1.479-3.139.589-.808,2.2-1.1,2.4-2.468.079-.569-.674-1.6-.759-2.179a11.93,11.93,0,0,1,1.143-6.09c-2.92-.322-4.953-2.386-7.579-3.073-.423.969-.753,2.349-1.429,3.82-1.633,3.505,1.225,1.745,3.386,3.077.78.478-1.4,9.195-7.584,3.764a13.992,13.992,0,0,1-2.517-2.195c-.99-1.544.664-3.009,1.484-4.021.277-.348.632-.586.889-.871a11.467,11.467,0,0,0,1.832-2.831c.488-1.623-.533-2.5-1.572-3.271a35.186,35.186,0,0,0-6.126-3.335Z" transform="translate(-1803.265 -271.878)" fill="none" stroke="#d4d0ca" stroke-width="1"/>
      <path id="パス_13" data-name="パス 13" d="M1968.6,401.293l16.561,1.358,10.227-6.11,7.941,4.82,13.688,2.512,9.184-10.364-17.263-9.751-8.054-3.438-8.17-2.059-7.351,4.955-5.52-.453-5.408-1.833-2.171,9.548Z" transform="translate(-1751.463 -238.548)" fill="none"/>
    </g>
    <path id="パス_14" data-name="パス 14" d="M1844.607,471.476c-13.226,13.474-22.3,10.215-36.862,16.671-17.74,7.868-28.911,18-51.425,23.8-14.151,3.65-29.434-.629-47.245.5-9.456,11.029-41.21,25.039-53.584,23.639" transform="translate(-1655.491 -66.885)" fill="none" stroke="#d4d0ca" stroke-width="1"/>
    <path id="パス_15" data-name="パス 15" d="M2023.451,305.79c46.332-4.388,90.456-46.743,92.312-91.654,1.014-24.563,5.554-39.318,17.37-50.73" transform="translate(-1540.207 -163.405)" fill="none" stroke="#d4d0ca" stroke-width="1"/>
    <path id="パス_16" data-name="パス 16" d="M1866.862,537.87c8.942,11.913,26.038,11.2,35.965,23.335,13.123,16.039,1.982,43.229,18.4,55.118" transform="translate(-1589.267 -46.083)" fill="none" stroke="#d4d0ca" stroke-width="1"/>
    <path id="パス_17" data-name="パス 17" d="M2012.653,459.013c15.983,6.736,26.13,19.721,40.064,28.366,13.74,8.525,21.521,3.878,30.851,21.273" transform="translate(-1543.59 -70.79)" fill="none" stroke="#d4d0ca" stroke-width="1"/>
    <path id="パス_18" data-name="パス 18" d="M2000.729,391.01a5.766,5.766,0,1,1-5.767-5.765A5.768,5.768,0,0,1,2000.729,391.01Z" transform="translate(-1550.939 -93.901)" fill="#ff002a"/>
  </g>
</svg>
