<svg xmlns="http://www.w3.org/2000/svg" width="505.12" height="277.376" viewBox="0 0 505.12 277.376">
  <path id="section-intro_bottom-copy" d="M19.228-3.916,19.14-8.668c3.212-2.6,6.644-4.84,10.6-4.84,5.192,0,5.456,2.9,5.456,3.7,0,2.6-2.684,5.676-6.82,5.676-2.156,0-3.3-1.232-3.3-3.432a8.658,8.658,0,0,1,.44-2.6,3.286,3.286,0,0,0,.132-.88c0-.22-.044-.4-.132-.4-.308,0-1.716,2.64-1.716,5.1,0,2.816,1.848,4.356,4.488,4.356,3.7,0,8.976-2.948,8.976-7.524,0-3.08-2.684-5.148-7.04-5.148-4.136,0-7.656,1.848-11.132,4.048-.044-2.816-.132-5.808-.132-8.624,3.036-1.628,4.224-2.288,4.224-3.784a1.168,1.168,0,0,0-.968-1.232,30.269,30.269,0,0,1-3.124-.748c.044-.484.044-.88.044-1.188-.088-1.54-2.2-2.6-3.52-2.6-1.012,0-1.628.66-1.628,1.056,0,.22.176.352.572.352,2.288,0,2.6,1.672,2.9,7.04a9.827,9.827,0,0,1-4.884,1.408A12.888,12.888,0,0,1,8.976-19.4a1.335,1.335,0,0,0-.484-.132.2.2,0,0,0-.176.22c0,.7.7,2.376,3.652,2.376a12.573,12.573,0,0,0,5.588-1.584c.088,1.98.176,4.092.176,6.292,0,.836,0,1.672-.044,2.508-2.684,1.716-7.48,4.8-8.624,4.8-.264,0-.352-.176-.484-.264A.229.229,0,0,0,8.4-5.28a2.825,2.825,0,0,0-1.5,2.068c0,.616.44,1.012,1.408,1.012a9.522,9.522,0,0,0,4.136-1.408c1.54.4,3.212,1.188,3.784,2.2a1.5,1.5,0,0,0,1.276.836c1.012,0,1.716-1.276,1.716-3.168ZM39.952-20.108a1.293,1.293,0,0,0,.968-1.144c0-1.32-2.156-3.256-5.1-3.256a7.353,7.353,0,0,0-5.852,2.948c0,.088.088.132.176.132a2.546,2.546,0,0,0,1.012-.44,6.023,6.023,0,0,1,3.212-1.012c.528,0,2.288.132,2.288,1.32,0,.968-1.1,2.156-1.54,2.6-.264.264-.484.528-.484.66,0,.044.044.088.132.088a1.874,1.874,0,0,0,.748-.352,9.88,9.88,0,0,1,1.716-.924C38.808-20.2,38.94-19.756,39.952-20.108ZM17.6-7.612c-.044.924-.088,1.8-.176,2.728-.044.66-.044,1.056-1.276,1.056a19.126,19.126,0,0,1-2.86-.308A55.369,55.369,0,0,0,17.6-7.612Zm1.408-15.18a15.53,15.53,0,0,1,.088-1.584c.748.352,1.98,1.012,1.98,1.54,0,.264-.088.528-2.068,1.716ZM75.636-7.084c0-3.432-1.364-6.952-1.76-9.152a24.947,24.947,0,0,1-.4-4.312A21.1,21.1,0,0,1,73.7-23.5a4.469,4.469,0,0,0,3.168,1.056c1.8,0,5.72-.572,5.72-1.892,0-.4-.22-1.232-1.848-1.232a3.487,3.487,0,0,0-1.1.22c-.484.176-.748.792-1.452,1.012a7.365,7.365,0,0,1-2.288.4,3.906,3.906,0,0,1-2.068-.528,23.093,23.093,0,0,1,.572-2.508,9.568,9.568,0,0,0,.528-2.464c0-1.628-2.244-3.124-3.388-3.124-.7,0-1.892.748-1.892,1.276,0,.264.308.484.88.484,1.144,0,1.76,1.232,1.76,3.74v.264c-.044,2.068-.176,4.224-.176,6.424a28.72,28.72,0,0,0,.264,4.312c.308,2.2,1.32,5.28,1.32,8.316v.7a23.019,23.019,0,0,0-5.06-.616c-3.96,0-7.348,1.5-7.348,3.96,0,2.332,2.992,4.708,6.2,4.708a8.175,8.175,0,0,0,7.832-5.676,14.716,14.716,0,0,1,5.5,3.828A2.128,2.128,0,0,0,82.456.176.973.973,0,0,0,83.424-.88c0-2.2-4.576-4.576-7.788-5.632Zm-2.2,1.672A6.349,6.349,0,0,1,67.76-1.188c-4.136,0-5.1-1.584-5.1-2.42,0-1.056,1.54-2.772,5.28-2.772A17.9,17.9,0,0,1,73.436-5.412Zm44.22-8.888a.312.312,0,0,1-.352-.308c0-1.276,7.084-8.756,11.968-13.332,1.5-1.408,2.112-2.6,2.112-3.564,0-1.54-1.628-2.464-3.3-2.464a3.9,3.9,0,0,0-2.42.792,5.508,5.508,0,0,1-3.388,1.276,11.467,11.467,0,0,1-3.124-.836.774.774,0,0,0-.264-.044c-.132,0-.176.044-.176.132,0,.968,1.936,3.564,4,3.564,1.144,0,1.5-.4,2.64-1.892a2.886,2.886,0,0,1,2.068-1.364.95.95,0,0,1,.968,1.056c0,1.276-.132,1.628-11.528,14.7-1.672,1.936-1.848,1.276-2.42,2.64a1.727,1.727,0,0,0-.132.616c0,1.144,1.452,1.892,2.948,1.892a3.473,3.473,0,0,0,1.98-.572c.924-.616,4.488-2.992,5.06-2.992.044,0,.088,0,.088.044,0,.132-.308.44-1.012,1.1a7.7,7.7,0,0,0-2.64,5.72c0,4.84,4.708,9.548,10.692,9.548.264,0,2.772,0,2.772-1.408a1.594,1.594,0,0,0-1.716-1.408c-.088,0-.22.044-.352.044a8.593,8.593,0,0,1-1.5.132c-4.62,0-8.536-3.344-8.536-7.392,0-2.64,2.64-8.932,11.22-8.932a12.047,12.047,0,0,1,2.464.264,6.183,6.183,0,0,0,.792.088c1.1,0,1.628-.528,1.628-1.1,0-.88-1.188-2.024-4.048-1.8-5.94.44-12.5,5.5-16.456,5.808Zm76.032-5.808a.858.858,0,0,0-.352-.044c-.264,0-.748.044-2.6,2.816a.952.952,0,0,1-.748.44H176.308c-2.64,0-12.716-.132-17.424-.7,0,.572,1.364,2.552,2.2,2.552h.044c4.092-.4,12.408-.44,14.96-.44h20.68c.748,0,.968-.352.968-.66C197.736-17.072,194.656-19.756,193.688-20.108Zm54.032-4.576a.558.558,0,0,0-.264-.044c-.7,0-2.288,2.332-2.376,2.508a.913.913,0,0,1-.748.4h-3.52l.22-7.568c.088-2.288.176-1.8,1.276-2.42.44-.22.66-.484.66-.7,0-.968-4.444-1.5-4.488-1.5a.1.1,0,0,0-.088.088c0,.044.044.132.088.308a44.562,44.562,0,0,1,.44,7v4.8h-7.568l.22-7.92c.088-2.288.176-1.716,1.276-2.42.4-.264.616-.484.616-.748,0-1.012-4.4-1.452-4.488-1.452-.044,0-.044,0-.044.044a1.161,1.161,0,0,0,.044.308,44.562,44.562,0,0,1,.44,7v5.192H225.5c-.836,0-2.244-.044-3.916-.088l.132-6.028c.088-2.376.22-1.76,1.32-2.508.4-.264.616-.528.616-.792,0-.88-3.916-1.54-4.444-1.54-.044,0-.044,0-.044.044a1.161,1.161,0,0,0,.044.308,48.046,48.046,0,0,1,.44,7.26c0,.968.044,2.068.044,3.212-3.124-.088-6.776-.308-9.328-.616v.044c0,.572,1.144,2.288,1.98,2.288h.044c2.068-.22,4.752-.308,7.26-.4-.044,6.6-.176,15.312-.44,22.088V1.54c0,.924.484,1.32,1.056,1.32a1.559,1.559,0,0,0,1.5-1.5V1.32l-.044-1.628h25.74c.792,0,1.012-.264,1.012-.528,0-.7-2.376-2.992-3.828-3.476a.558.558,0,0,0-.264-.044c-.264,0-.7.044-2.332,2.552a1,1,0,0,1-.792.4h-19.58c-.088-4.928-.132-8.844-.132-12.364,0-2.464,0-4.708.044-6.908,1.54-.044,2.9-.044,3.74-.044h4.092c-.044,4.576-.176,9.284-.352,13.068v.088c0,.836.44,1.188.924,1.188a1.492,1.492,0,0,0,1.452-1.452V-9.548h7.3c0,.572-.044,1.144-.044,1.716v.044c0,.88.44,1.232.968,1.232a1.439,1.439,0,0,0,1.364-1.408v-.044c-.176-4.312-.22-7.392-.22-10.252v-2.464h9.724c.748,0,.968-.264.968-.528C251.5-22,249.172-24.2,247.72-24.684Zm-8.8,3.96c0,3.388-.044,6.776-.132,10.076H231.4c-.044-3.08-.044-5.456-.044-7.524v-2.552ZM303.248-2.112c-1.056-.528-1.32-6.424-1.584-6.424-.044,0-.044.088-.088.264-.616,3.256-.924,6.82-2.772,7.172a29.689,29.689,0,0,1-5.192.4c-6.6,0-6.732-.572-6.732-3.828,0-3.212.176-11.7.308-13.2.088-1.1.22-.968.836-1.364l.308-.22h8.58c0,.308-.044.616-.044.924v.088c0,.7.4,1.012.88,1.012a1.388,1.388,0,0,0,1.364-1.276v-.044c-.22-4.136-.22-10.032-.22-10.12.176-1.452.264-1.188,1.452-1.892.44-.264.792-.572.792-.968,0-.836-2.64-2.552-3.344-2.552a3.273,3.273,0,0,0-1.364,1.188.763.763,0,0,1-.616.352h-3.564a81.2,81.2,0,0,1-8.756-.616c0,.66,1.188,2.288,1.8,2.288h.044c2.816-.176,5.5-.4,6.82-.4H296.3a.517.517,0,0,1,.572.528c0,.088.132,3.872.132,7.612,0,.924-.044,1.848-.044,2.728h-8.58l-.264-.22a18.513,18.513,0,0,0-3.036-1.584c-.132,0-.132.088-.132.22v.264c.132,1.32.264,3.564.264,4.884v.44l-.264,13.332c0,4.048,3.564,4.4,9.064,4.4,8.052,0,9.812-1.672,9.812-2.6A.911.911,0,0,0,303.248-2.112ZM276.8-21.208c-.088,0-.132.044-.132.088a1.361,1.361,0,0,0,.264.528,20.419,20.419,0,0,1,1.672,2.684c-2.244.264-5.412.572-8.052.7a101.351,101.351,0,0,0,8.4-10.164,1.317,1.317,0,0,1,1.012-.66c.924-.088,1.276-.352,1.276-.66,0-.836-3.608-2.156-3.652-2.156-.132,0-.132.088-.176.44-.528,3.3-5.632,10.472-7.788,13.244h-.968c-.924,0-2.2-.044-3.256-.132a2.482,2.482,0,0,1-.308-.044c-.088,0-.132.044-.132.088,0,.308,1.452,2.948,2.024,2.948.308,0,.616-.44,1.1-.528.924-.176,2.86-.528,4.928-.968.044.66.088,1.54.088,2.464,0,5.676-.088,10.516-.44,15.136v.22c0,.792.44,1.144.924,1.144a1.549,1.549,0,0,0,1.5-1.54c-.044-4.092-.176-9.812-.176-13.244,0-3.52,0-3.52.66-3.828.352-.22.572-.4.572-.572,0-.132-.132-.22-.352-.352l3.124-.748a10.067,10.067,0,0,1,.352,1.232c.176,1.144.792,1.628,1.364,1.628A1.5,1.5,0,0,0,282-15.884C282-18.48,277.464-21.208,276.8-21.208Zm-4.488-15.268c-.088,0-.088.044-.088.176v.528c0,2.112-2.244,7.128-2.948,8.712a11.554,11.554,0,0,0-3.168-.792q-.264,0-.264.132c0,.088.088.22.4.44a11.754,11.754,0,0,1,3.652,3.608,1.811,1.811,0,0,0,1.452,1.1,1.333,1.333,0,0,0,1.232-1.408c0-.44-.176-1.716-2.6-2.816a54.279,54.279,0,0,0,4.18-6.16,1.046,1.046,0,0,1,.968-.7c.88-.132,1.232-.4,1.232-.7C276.364-35.156,272.36-36.476,272.316-36.476Zm-4.708,24.332c-.088,0-.132,0-.132.44,0,3.872-2.112,9.812-3.344,12.276a1.326,1.326,0,0,0-.176.572c0,.088.044.176.132.176.4,0,3.256-3.52,5.588-9.768.22-.616.264-.88.968-1.012.792-.176,1.144-.484,1.144-.748C271.788-11.132,267.828-12.144,267.608-12.144Zm9.02.088c-.044,0-.088,0-.088.044a1.809,1.809,0,0,0,.308.528,21.464,21.464,0,0,1,2.728,5.9c.308,1.012.836,1.452,1.364,1.452a1.472,1.472,0,0,0,1.276-1.628C282.216-8.36,277.464-12.056,276.628-12.056ZM326.04.264c.572,0,.968-.44.968-1.144a1.974,1.974,0,0,0-.044-.484,11.836,11.836,0,0,1-.352-2.772c0-3.476,2.376-9.372,3.344-11.572a2.126,2.126,0,0,0,.22-.792c0-.088-.044-.132-.088-.132-.748,0-3.828,7.04-4.312,8.228-.264.572-.484.792-.616.792-.352,0-.748-1.32-.748-3.036,0-3.08,1.32-6.776,2.508-9.724a11.018,11.018,0,0,0,1.056-4.224c0-4.312-2.9-5.324-3.124-5.324-.132,0-.88.044-.88.22s.308.352.484.616a9.743,9.743,0,0,1,1.056,4.84,14.621,14.621,0,0,1-.264,2.948c-.484,2.508-1.5,5.148-2.068,8.228a22.365,22.365,0,0,0-.44,4.312C322.74-4.576,324.1.264,326.04.264ZM349.4-5.06a20.385,20.385,0,0,0-3.256.748,15.846,15.846,0,0,1-2.464.176c-3.3,0-6.292-.924-7.26-2.288-.352-.484-.7-.792-.88-.792-.132,0-.176.088-.176.264,0,.66,1.144,5.368,9.5,5.368,2.772,0,6.688-.616,6.688-2.332,0-.66-.616-1.144-1.8-1.144Zm-.264-18.964c0-.572-.616-1.056-1.716-1.056a4.932,4.932,0,0,0-1.056.132,16.417,16.417,0,0,1-1.76.616,27.866,27.866,0,0,1-3.608.308,8.354,8.354,0,0,1-4.312-1.056,1.976,1.976,0,0,0-.66-.308c-.088,0-.132.044-.132.176,0,0,.352,3.432,6.292,3.432C344.168-21.78,349.14-22.132,349.14-24.024ZM383.724-13.9l.088-.968c.572-1.012,1.1-1.98,1.584-2.728.748-1.188,2.156-2.684,2.156-3.74,0-.7-.616-1.188-2.552-1.188a56.043,56.043,0,0,0,.7-5.94c0-3.916-2.948-4.4-3.652-4.4-.572,0-1.452.264-1.452.528,0,.132.22.308.7.616,2.156,1.276,2.552,3.124,2.552,5.28,0,.836-.044,1.672-.088,2.552,0,.616-.088,1.276-.132,1.98l-.132.088a22.747,22.747,0,0,0-5.1,4.312,6.673,6.673,0,0,1-2.464,1.8c-.66.264-.88.66-.88,1.056a3.493,3.493,0,0,0,.792,1.76c.44.7,1.628,2.464,2.508,4.136-1.628,2.332-4.18,6.688-4.18,8.36,0,.616.264.88.66.88.7,0,1.76-.968,2.2-2.6a15.789,15.789,0,0,1,2.2-4.928c.924,1.936,2.464,5.412,2.6,6.644.176,1.8.968,2.64,1.672,2.64.528,0,1.012-.572,1.012-1.584A4.933,4.933,0,0,0,384.384-.4a38.931,38.931,0,0,1-.968-8.14c0-1.672.176-3.784.176-3.916.132-.132.176-.264.308-.4,4.488-4.664,8.668-6.2,12.056-6.2,3.828,0,8.228,2.068,8.228,6.82,0,7.744-11,12.584-11.836,12.936s-1.452.7-1.452.836c0,.044.088.088.22.088,1.892,0,15.532-4.708,15.532-13.816,0-4.8-4.576-8.492-10.032-8.492-3.652,0-8.008,1.672-12.364,6.16Zm-.748-1.848A64.409,64.409,0,0,1,378.884-9.5a32.337,32.337,0,0,1-2.068-4.048c0-.088-.088-.22-.088-.352s.088-.308.484-.4a2.631,2.631,0,0,0,2.42-1.892A7.742,7.742,0,0,1,383.5-20.24C383.372-18.832,383.152-17.336,382.976-15.752ZM382.052-5.1c0,.308-.044.44-.132.44-.264,0-1.5-2.244-2.068-3.3.792-1.188,1.716-2.332,2.684-3.52a50.185,50.185,0,0,0-.484,5.5Zm2.156-12.76.44-2.86c.088,0,.176-.044.264-.044a.428.428,0,0,1,.484.44,1.843,1.843,0,0,1-.352.924Zm54.208-6.292c.968-.352,5.1-1.848,5.1-3.784A1.1,1.1,0,0,0,442.6-29a26.743,26.743,0,0,1-3.124-.792c-.176-2.552-1.892-3.256-2.816-3.256-.792,0-1.848.616-1.848,1.012,0,.264.484.44,1.144.528,1.012.132,1.364,1.408,1.364,3.036a16.466,16.466,0,0,1-.264,2.86,17.091,17.091,0,0,1-3.652.484,8.6,8.6,0,0,1-4.8-1.5,1.932,1.932,0,0,0-.836-.44c-.132,0-.176.044-.176.22,0,.616,1.188,3.74,5.808,3.74a13.377,13.377,0,0,0,3.256-.528c-1.408,5.148-6.644,18.524-7.612,20.02A4.359,4.359,0,0,0,428.3-1.32c0,.308.044,1.716,1.232,1.716,1.144,0,1.936-1.672,2.2-2.9,1.628-6.952,4.092-13.816,6.424-20.768Zm15.84,21.648c-1.276.044-2.112.176-2.9.176-4.268-.088-7.348-2.024-7.348-4a2.164,2.164,0,0,1,.22-.88,1.521,1.521,0,0,0,.22-.748q0-.264-.132-.264a2.746,2.746,0,0,0-1.364,2.6c0,3.124,5.148,5.764,10.472,5.764,3.168,0,3.7-.968,3.7-1.408,0-.66-.924-1.232-2.684-1.232Zm3.476-18.7c.4-.132.88-.44.88-.88,0-.88-3.344-2.9-7.04-2.9-2.64,0-3.388,1.056-3.388,1.1,0,.132.22.22.528.22a3.452,3.452,0,0,0,.616-.088,4.3,4.3,0,0,1,.836-.044c1.98,0,3.652.572,3.652,1.5,0,.572-.616,1.188-.924,1.584-.748.968-1.1,1.232-2.2,2.552a.613.613,0,0,0-.176.4c0,.088.044.176.132.176s.22-.088.44-.264A14.914,14.914,0,0,1,457.732-21.208Zm-18.26-8.228c.572.264,1.892.924,1.892,1.364,0,.484-1.056,1.232-2.332,1.8A12.414,12.414,0,0,0,439.472-29.436Zm49.764,31.68c-1.056.66-1.54,1.056-1.54,1.232,0,.044.088.088.176.088,1.76,0,13.684-6.82,13.684-20.944,0-5.5-2.068-12.584-6.556-12.584-2.376,0-4.752,2.2-5.852,6.468-.132.572-.22.792-.264.792s-.044-.044-.044-.132.044-.308.088-.616c.22-1.144,1.32-4.84,1.584-6.776a10.392,10.392,0,0,0,.132-1.54c0-2.948-1.584-3.476-2.112-3.476-.484,0-1.1.44-1.1.616,0,.22.22.44.484.572.66.308.88,1.32.88,2.64,0,3.124-1.32,7.964-1.584,9.46a19.278,19.278,0,0,0-.4,3.872c0,4.664,2.112,7.04,2.728,7.04s1.056-.88,1.056-1.848a2.531,2.531,0,0,0-.22-1.144A12.7,12.7,0,0,1,489.1-19.4c0-4.972,2.6-8.888,5.192-8.888,2.992,0,4.884,5.324,4.884,10.912C499.18-8.712,494.3-.836,489.236,2.244ZM33.748,65.868c-.132,0-.22,0-.264.044a4.145,4.145,0,0,0-.88,1.012.758.758,0,0,1-.616.352h-8.58l-.22-.132a16.137,16.137,0,0,0-3.476-1.584c-.044,0-.044,0-.044.044a.859.859,0,0,0,.044.308,40.241,40.241,0,0,1,.572,7.3c0,1.672-.044,3.476-.308,7.48v.132c0,.7.4,1.012.88,1.012a1.4,1.4,0,0,0,1.408-1.32c0-.66-.044-1.232-.044-1.76H33v1.452c0,.836.484,1.232.968,1.232a1.508,1.508,0,0,0,1.408-1.54v-.088c-.176-3.08-.352-5.016-.352-7.128,0-2.86.088-2.948.836-3.388.308-.176,1.056-.484,1.056-1.056C36.916,67.144,34.188,65.868,33.748,65.868Zm-15.224.616c0-.044-.088-.088-.176-.088a.592.592,0,0,0-.352.088c-1.8.88-4.532,2.024-7.128,2.992,0-2.376-.044-7.832-.044-12.672h5.94c.616,0,.836-.264.836-.528,0-.924-2.728-2.288-2.86-2.376a.265.265,0,0,0-.176-.044c-.176,0-.528.044-1.848,1.5-.176.176-.176.4-.44.4H10.824c0-8.316.132-8.756.924-9.108.66-.264,1.144-.616,1.144-.968,0-.792-3.828-1.76-4.488-1.76-.088,0-.088.044-.088.132v.132A46.593,46.593,0,0,1,8.8,51.04c0,1.144.044,2.816.044,4.708-1.76-.044-3.388-.264-6.908-.66v.044c0,.572,1.276,2.112,2.024,2.112H4c1.628-.088,3.08-.352,4.84-.44,0,4.928-.044,10.868-.088,13.464C5.148,71.544,4.532,71.72,2.772,71.72h-.44c-.176,0-.264,0-.264.044,0,.22,1.8,2.772,2.244,2.772.22,0,.264-.352.66-.528C8.624,72.512,18.524,67.144,18.524,66.484Zm14.52,11.132H22.22c0-.924-.044-1.672-.044-2.464,0-5.808,0-5.852.924-6.468a.92.92,0,0,1,.264-.176H32.78c.176,0,.176.308.176.44v.132c.088,1.276.132,2.552.132,4.092C33.088,74.448,33.044,75.856,33.044,77.616Zm4.62-18.92c-.572,0-1.628,1.584-1.848,1.936a.9.9,0,0,1-.616.352H29.392c1.584-2.024,2.948-4.18,3.828-5.456.352-.484.308-.66.968-.748.88-.088,1.232-.352,1.232-.66,0-.616-3.344-1.936-3.432-1.936-.176-.044-.264-.088-.308-.088s-.044.088-.088.4a10.28,10.28,0,0,1-.484,2.376,40.372,40.372,0,0,1-2.728,6.116H25.432A102.886,102.886,0,0,1,14.7,60.368c0,.484.968,2.068,1.8,2.068h.044a87.249,87.249,0,0,1,8.756-.352H40.348c.792,0,1.012-.308,1.012-.616C41.36,60.456,38.456,58.7,37.664,58.7ZM35.9,48c-.4,0-1.232.968-1.76,1.848a.9.9,0,0,1-.616.352H28.776c0-.572,0-1.5.044-2.024.132-1.8-.088-1.5,1.276-2.332.44-.264.748-.572.748-.836,0-.88-4.092-1.452-4.62-1.452-.132,0-.176,0-.176.088a1.793,1.793,0,0,0,.088.308,26.338,26.338,0,0,1,.352,4.8c0,.4.044,1.012.044,1.452A93.3,93.3,0,0,1,16.5,49.632c0,.484.792,2.024,1.628,2.024h.044c3.916-.352,6.556-.352,8.976-.352h11.22c.748,0,.968-.308.968-.616C39.336,49.852,36.7,48,35.9,48Zm-15.576,5.28a.043.043,0,0,0-.044.044,1.694,1.694,0,0,0,.4.484,15.42,15.42,0,0,1,2.86,4.4c.352,1.056.924,1.5,1.452,1.5a1.547,1.547,0,0,0,1.364-1.672C26.356,55.616,22.044,53.284,20.328,53.284ZM69.124,65.3l.088-.968c.572-1.012,1.1-1.98,1.584-2.728.748-1.188,2.156-2.684,2.156-3.74,0-.7-.616-1.188-2.552-1.188a56.048,56.048,0,0,0,.7-5.94c0-3.916-2.948-4.4-3.652-4.4-.572,0-1.452.264-1.452.528,0,.132.22.308.7.616,2.156,1.276,2.552,3.124,2.552,5.28,0,.836-.044,1.672-.088,2.552,0,.616-.088,1.276-.132,1.98l-.132.088a22.747,22.747,0,0,0-5.1,4.312,6.672,6.672,0,0,1-2.464,1.8c-.66.264-.88.66-.88,1.056a3.493,3.493,0,0,0,.792,1.76c.44.7,1.628,2.464,2.508,4.136-1.628,2.332-4.18,6.688-4.18,8.36,0,.616.264.88.66.88.7,0,1.76-.968,2.2-2.6a15.788,15.788,0,0,1,2.2-4.928c.924,1.936,2.464,5.412,2.6,6.644.176,1.8.968,2.64,1.672,2.64.528,0,1.012-.572,1.012-1.584a4.932,4.932,0,0,0-.132-1.056,38.932,38.932,0,0,1-.968-8.14c0-1.672.176-3.784.176-3.916.132-.132.176-.264.308-.4,4.488-4.664,8.668-6.2,12.056-6.2,3.828,0,8.228,2.068,8.228,6.82,0,7.744-11,12.584-11.836,12.936s-1.452.7-1.452.836c0,.044.088.088.22.088,1.892,0,15.532-4.708,15.532-13.816,0-4.8-4.576-8.492-10.032-8.492-3.652,0-8.008,1.672-12.364,6.16Zm-.748-1.848A64.406,64.406,0,0,1,64.284,69.7a32.334,32.334,0,0,1-2.068-4.048c0-.088-.088-.22-.088-.352s.088-.308.484-.4a2.631,2.631,0,0,0,2.42-1.892A7.742,7.742,0,0,1,68.9,58.96C68.772,60.368,68.552,61.864,68.376,63.448ZM67.452,74.1c0,.308-.044.44-.132.44-.264,0-1.5-2.244-2.068-3.3.792-1.188,1.716-2.332,2.684-3.52a50.185,50.185,0,0,0-.484,5.5Zm2.156-12.76.44-2.86c.088,0,.176-.044.264-.044a.428.428,0,0,1,.484.44,1.843,1.843,0,0,1-.352.924Zm66.924,8.228c.088-2.816,1.5-6.072,2.024-9.372a11.116,11.116,0,0,0,.176-2.024c0-3.432-1.76-5.28-4.488-5.28-2.772,0-7,1.936-11.968,7.568.88-1.32,1.452-2.112,1.452-2.772,0-.484-.352-.88-1.408-.968h-.264c0-.088.044-.132.044-.22.088-.7.264-1.892.528-3.124a15.5,15.5,0,0,0,.44-3.212c0-2.464-2.464-4.664-4-4.664-.748,0-1.716.308-1.716.748,0,.308.4.572.968.7,1.5.352,2.728,1.056,2.728,4.576,0,1.364-.176,2.9-.308,4.532a8.4,8.4,0,0,1-.088.88c-6.2,1.54-7.436,2.6-7.436,4.268,0,.836.308,2.156,2.816,7.392-.792,1.276-3.652,6.116-3.652,8.14,0,.572.264.88.616.88.748,0,2.068-1.32,2.508-3.212a26.59,26.59,0,0,1,1.364-3.7c.88,2.288,2.156,5.368,2.2,6.512.044,2.288,1.012,3.432,1.8,3.432.528,0,.968-.528.968-1.584a6.706,6.706,0,0,0-.352-1.848,22.141,22.141,0,0,1-.88-6.688,60.8,60.8,0,0,1,.484-7.216c3.916-5.1,9.46-9.108,12.848-9.108,1.892,0,3.036,1.232,3.036,3.7a11.017,11.017,0,0,1-.264,2.244c-.616,3.168-2.068,6.336-2.332,9.152a11.949,11.949,0,0,0-.044,1.232c0,4,2.112,6.072,4.972,6.072,5.412,0,9.9-6.556,9.9-7.392,0-.088-.044-.132-.088-.132-.176,0-.66.352-1.54,1.276-2.6,2.64-5.28,4-7.348,4-2.2,0-3.7-1.5-3.7-4.488Zm-16.368-8.976a34.382,34.382,0,0,1-3.7,7.3,20.146,20.146,0,0,1-2.112-6.2c0-1.8,4.444-2.6,5.456-2.64a1.224,1.224,0,0,1,.572.132C120.34,59.62,120.252,60.1,120.164,60.588ZM119.328,71.9c0,.352-.044.484-.132.484-.176,0-.924-.792-1.892-2.728a30.086,30.086,0,0,1,2.288-4.268c-.176,1.8-.308,3.564-.308,5.016,0,.44.044.792.044,1.144Zm55.528-16.852c.968-.352,5.1-1.848,5.1-3.784a1.1,1.1,0,0,0-.924-1.056,26.743,26.743,0,0,1-3.124-.792c-.176-2.552-1.892-3.256-2.816-3.256-.792,0-1.848.616-1.848,1.012,0,.264.484.44,1.144.528,1.012.132,1.364,1.408,1.364,3.036a16.469,16.469,0,0,1-.264,2.86,17.091,17.091,0,0,1-3.652.484,8.6,8.6,0,0,1-4.8-1.5,1.932,1.932,0,0,0-.836-.44c-.132,0-.176.044-.176.22,0,.616,1.188,3.74,5.808,3.74a13.377,13.377,0,0,0,3.256-.528c-1.408,5.148-6.644,18.524-7.612,20.02a4.359,4.359,0,0,0-.748,2.288c0,.308.044,1.716,1.232,1.716,1.144,0,1.936-1.672,2.2-2.9,1.628-6.952,4.092-13.816,6.424-20.768ZM190.7,76.692c-1.276.044-2.112.176-2.9.176-4.268-.088-7.348-2.024-7.348-4a2.164,2.164,0,0,1,.22-.88,1.522,1.522,0,0,0,.22-.748q0-.264-.132-.264a2.746,2.746,0,0,0-1.364,2.6c0,3.124,5.148,5.764,10.472,5.764,3.168,0,3.7-.968,3.7-1.408,0-.66-.924-1.232-2.684-1.232Zm3.476-18.7c.4-.132.88-.44.88-.88,0-.88-3.344-2.9-7.04-2.9-2.64,0-3.388,1.056-3.388,1.1,0,.132.22.22.528.22a3.451,3.451,0,0,0,.616-.088,4.3,4.3,0,0,1,.836-.044c1.98,0,3.652.572,3.652,1.5,0,.572-.616,1.188-.924,1.584-.748.968-1.1,1.232-2.2,2.552a.613.613,0,0,0-.176.4c0,.088.044.176.132.176s.22-.088.44-.264A14.914,14.914,0,0,1,194.172,57.992Zm-18.26-8.228c.572.264,1.892.924,1.892,1.364,0,.484-1.056,1.232-2.332,1.8A12.414,12.414,0,0,0,175.912,49.764ZM21.78,146.212c-.572.044-1.056.4-1.584.484a8.546,8.546,0,0,1-1.056.088c-.264,0-.528-.044-.748-.044.308-2.772.836-5.588,1.364-8.184a24.047,24.047,0,0,1,2.6-1.188c.44-.176.7-.44.7-.792,0-.4-.352-.836-1.232-1.276a6.841,6.841,0,0,0-1.408-.176,71.558,71.558,0,0,0,1.056-7.216,4.57,4.57,0,0,0-3.784-4.62c-.792,0-.836.44-.836.528s.044.176.22.264c1.584.88,1.936,3.08,1.936,5.28a42.7,42.7,0,0,1-.4,5.28A9.847,9.847,0,0,1,13.86,131.3a.816.816,0,0,0-.572-.4c-.132,0-.22.088-.22.308,0,1.276,2.464,4.048,5.236,5.5l-.176,1.144c-3.344,2.288-4.972,4.4-4.972,6.336a4.8,4.8,0,0,0,3.74,4.268c0,.528-.044,1.056-.044,1.54,0,8.932,3.652,10.736,6.292,10.736,3.608,0,8.448-3.872,8.448-9.02,0-6.688-7.876-11.968-8.36-11.968-.044,0-.088,0-.088.044,0,.308.88,1.32,1.056,1.5,2.728,2.86,5.06,6.6,5.06,10.208,0,4.18-3.168,7.172-6.028,7.172-4.972,0-5.06-6.82-5.06-7.7,0-.7.044-1.5.088-2.244.44.044.924.088,1.408.088.616,0,4.488-.308,4.488-1.584,0-.572-.88-1.012-2.068-1.012Zm-4.752.308c-1.144-.308-2.772-1.188-2.772-2.728,0-1.848,2.288-3.784,3.652-4.4C17.556,141.68,17.2,144.1,17.028,146.52ZM74.36,129.756c.572-.044,1.144-.132,1.716-.132,8.712.088,12.98,6.116,12.98,12.54,0,5.236-2.508,12.76-15,16.28-1.144.352-1.848.7-1.848.924,0,.088.22.176.616.176,3.08,0,18.612-3.564,18.612-17.16,0-7.128-4.972-14.036-14.916-14.036-11.792,0-17.6,10.56-17.6,17.2a6.79,6.79,0,0,0,1.012,3.96c1.892,2.64,2.508,5.368,4.532,5.368,3.432,0,11.572-9.108,11.572-19.58C76.032,132.528,75.46,130.372,74.36,129.756Zm-2.64.572a5.22,5.22,0,0,1,1.232-.22c.968,0,1.76.66,1.76,4.092,0,8.712-7.084,17.556-9.768,17.556-1.936,0-4.092-3.212-4.092-6.908C60.852,139.084,65.384,132.308,71.72,130.328Zm72.556,11.66c0-4.62-5.148-9.064-11.132-9.064-3.916,0-8.052,1.628-11.836,3.872-2.9,1.716-6.424,4.136-9.5,4.356-.572.044-.748.22-.748.4a3.6,3.6,0,0,0,3.256,1.936,8.312,8.312,0,0,0,5.368-2.6c4.444-4.092,9.592-6.292,13.86-6.292,5.852,0,8.448,4.048,8.448,6.952,0,1.54-.968,10.428-21.384,13.772a5.152,5.152,0,0,0-1.76.484c0,.088.484.176,1.848.176C136.884,155.98,144.276,147.84,144.276,141.988Zm39.512,18.48c.7,0,1.54-.968,1.54-2.332,0-5.1-5.588-12.188-8.536-15.224a3.339,3.339,0,0,1-1.1-2.288,4.31,4.31,0,0,1,.7-2.112c1.54-2.728,5.764-6.16,7.392-8.228.4-.528,1.54-1.628,1.54-2.992a4.044,4.044,0,0,0-3.124-3.432c-.308,0-.484.132-.484.4a1.33,1.33,0,0,0,.4.792,2.043,2.043,0,0,1,.44,1.276,5.539,5.539,0,0,1-1.188,2.86c-1.32,1.936-4.972,6.16-6.248,8.36a6.59,6.59,0,0,0-1.056,3.256,4.6,4.6,0,0,0,1.276,3.08c2.112,2.332,7,9.064,7.436,15.048C182.864,160.028,183.3,160.468,183.788,160.468Zm45.408.176c-1.056.66-1.54,1.056-1.54,1.232,0,.044.088.088.176.088,1.76,0,13.684-6.82,13.684-20.944,0-5.5-2.068-12.584-6.556-12.584-2.376,0-4.752,2.2-5.852,6.468-.132.572-.22.792-.264.792s-.044-.044-.044-.132.044-.308.088-.616c.22-1.144,1.32-4.84,1.584-6.776a10.39,10.39,0,0,0,.132-1.54c0-2.948-1.584-3.476-2.112-3.476-.484,0-1.1.44-1.1.616,0,.22.22.44.484.572.66.308.88,1.32.88,2.64,0,3.124-1.32,7.964-1.584,9.46a19.276,19.276,0,0,0-.4,3.872c0,4.664,2.112,7.04,2.728,7.04s1.056-.88,1.056-1.848a2.531,2.531,0,0,0-.22-1.144A12.705,12.705,0,0,1,229.064,139c0-4.972,2.6-8.888,5.192-8.888,2.992,0,4.884,5.324,4.884,10.912C239.14,149.688,234.256,157.564,229.2,160.644Zm77.88-9.24c0-.748-.836-1.672-2.376-1.848-6.644-.836-11-6.952-20.02-12.232a4.923,4.923,0,0,0-2.6-.7,6.109,6.109,0,0,0-3.564,1.276c-2.42,1.848-5.1,4.84-5.676,5.192a3.573,3.573,0,0,1-1.98.572,1.542,1.542,0,0,1-1.32-.484.47.47,0,0,0-.4-.264c-.22,0-.4.132-.4.484,0,1.232,1.848,2.9,3.608,2.9a3.417,3.417,0,0,0,2.728-1.54c.616-.792,3.036-4.708,4.4-5.94a4.067,4.067,0,0,1,2.64-1.144,2.906,2.906,0,0,1,1.5.44c7.612,4.84,11.792,12.232,20.284,14.256a5.842,5.842,0,0,0,1.408.176C306.5,152.548,307.076,152.02,307.076,151.4Zm31.284-21.648c.572-.044,1.144-.132,1.716-.132,8.712.088,12.98,6.116,12.98,12.54,0,5.236-2.508,12.76-15,16.28-1.144.352-1.848.7-1.848.924,0,.088.22.176.616.176,3.08,0,18.612-3.564,18.612-17.16,0-7.128-4.972-14.036-14.916-14.036-11.792,0-17.6,10.56-17.6,17.2a6.791,6.791,0,0,0,1.012,3.96c1.892,2.64,2.508,5.368,4.532,5.368,3.432,0,11.572-9.108,11.572-19.58C340.032,132.528,339.46,130.372,338.36,129.756Zm-2.64.572a5.219,5.219,0,0,1,1.232-.22c.968,0,1.76.66,1.76,4.092,0,8.712-7.084,17.556-9.768,17.556-1.936,0-4.092-3.212-4.092-6.908C324.852,139.084,329.384,132.308,335.72,130.328Zm74.36,27.412a38.028,38.028,0,0,1-4.576.308,24.737,24.737,0,0,1-12.012-2.728,43.95,43.95,0,0,0,4.664-3.96,3.012,3.012,0,0,1,1.672-.924c.7-.176,1.012-.528,1.012-.836,0-.7-2.64-2.2-2.684-2.2a.558.558,0,0,0-.264-.044.4.4,0,0,0-.22.044,12.124,12.124,0,0,1-1.716.792H387.64l1.232-1.672c.22-.4.352-.528.748-.528.088,0,.22.044.4.044h.4c.66,0,.968-.22.968-.484,0-.22-.22-.484-1.276-1.188,4.708,0,6.776-.264,8.272-1.276a1.717,1.717,0,0,0,.924-1.364,1.062,1.062,0,0,0-.88-.968c-.308-.088-.748-3.3-1.1-3.3-.044,0-.132.176-.176.572-.616,4.224-1.188,4.444-6.644,4.444-4.576,0-4.62-.66-4.62-1.8,0-.264.176-1.98.22-2.068a.977.977,0,0,1,.572-.7c.308-.088.748-.44.748-.792,0-.22-.176-.44-.66-.616-.572-.22-2.2-.616-2.288-.66a.479.479,0,0,0-.22-.044c-.088,0-.132,0-.132.132,0,.044.044.088.044.176s.132,1.144.132,2.2v.4c0,.748-.044,1.716-.044,2.068v.264c0,2.156.528,2.772,3.212,3.168-.924,3.168-9.02,12.144-14.08,14.74-.44.22-.572.4-.572.528,0,.088.088.132.22.132.44,0,7.48-2.86,13.64-10.208h.528a15.15,15.15,0,0,0,3.608,5.5,33.47,33.47,0,0,1-14.52,5.852c-.792.132-1.232.308-1.232.4s.22.132.66.132a6.229,6.229,0,0,0,.836-.044c4.708-.44,9.724-1.012,15.708-5.016a22.737,22.737,0,0,0,13.244,4.972h.132a.857.857,0,0,0,.66-.264c1.408-1.628,4.444-2.86,4.444-3.168a.257.257,0,0,0-.176-.044A2.159,2.159,0,0,0,410.08,157.74ZM406.3,131.428c-.176,0-.484.176-.968.66a1.458,1.458,0,0,1-.88.4h-7.084c.924-1.232,2.332-3.168,2.816-3.916.4-.616.4-.616,1.144-.7.4-.044.968-.22.968-.572,0-.792-2.816-1.936-3.212-2.068.044,0,2.6-.484,2.816-.484a1.929,1.929,0,0,1,1.012.264,1.311,1.311,0,0,0,.616.22.462.462,0,0,0,.484-.484c0-1.012-2.2-3.212-2.332-3.212a2.6,2.6,0,0,0-.352.22,7.27,7.27,0,0,1-2.552,1.188,157.42,157.42,0,0,1-22.044,3.52c-.4.044-.572.132-.572.264,0,.176.44.4.748.4,1.628,0,3.256,0,4.884-.088a14.434,14.434,0,0,1,2.244,4.18c.264.66.616.924.924.924.572,0,1.1-.7,1.1-1.5,0-1.408-1.144-2.552-3.388-3.652,2.244-.088,4.444-.264,6.512-.484a11.341,11.341,0,0,1,1.276,4.224c.088.88.484,1.188.924,1.188a1.46,1.46,0,0,0,1.188-1.584c0-.968-.528-2.332-2.6-3.872,3.3-.352,6.248-.792,8.536-1.144,0,.7,0,2.816-1.936,7.172h-18.92c0-2.244-.4-2.772-.44-2.772-.088,0-.176.088-.22.308-.44,2.508-1.056,3.784-3.564,6.028a2.112,2.112,0,0,0-.792,1.5,1.307,1.307,0,0,0,1.364,1.32c1.76,0,3.256-2.552,3.608-5.28H404.36a.254.254,0,0,1,.264.264,13.058,13.058,0,0,1-2.112,2.86c-.132.132-.176.22-.176.308a.043.043,0,0,0,.044.044,1.013,1.013,0,0,0,.4-.132c1.628-.7,3.124-1.628,5.456-1.716,1.1-.044,1.5-.44,1.5-.88C409.728,133.1,406.868,131.428,406.3,131.428Zm-14.564,22.748a12.332,12.332,0,0,1-3.74-4.8h7.788c.352,0,.44.132.44.264C396.22,150.04,393.932,152.5,391.732,154.176Zm-9.68-15.972c0-.176-.088-.264-.176-.264a.292.292,0,0,0-.22.176c-1.144,2.112-3.564,3.52-4.84,4.4a2.059,2.059,0,0,0-1.012,1.628,1.18,1.18,0,0,0,1.276,1.188C380.292,145.332,382.052,139,382.052,138.2Zm18.392-.044c-.132,0-.22,0-.22.044s.088.088.176.176a13.289,13.289,0,0,1,4.224,4.928,1.556,1.556,0,0,0,1.408,1.144,1.41,1.41,0,0,0,1.276-1.54C407.308,139.876,401.588,138.16,400.444,138.16Zm-11.792-3.652c-.044,0-.088,0-.088.044a.479.479,0,0,0,.22.308,10.774,10.774,0,0,1,2.772,3.784c.308.88.836,1.276,1.32,1.276a1.456,1.456,0,0,0,1.232-1.584C394.108,135.52,389.312,134.508,388.652,134.508Zm68.816,5.588a.626.626,0,0,0-.264.088,3.111,3.111,0,0,0-.748.88.687.687,0,0,1-.572.352h-10.12a12.8,12.8,0,0,0-3.124-1.32c-.088,0-.088.044-.088.132a.859.859,0,0,0,.044.308,31.042,31.042,0,0,1,.528,5.368c.044,1.232.044,2.552.044,4.048,0,3.168-.088,6.82-.22,10.78v.044a.888.888,0,0,0,.968.924,1.34,1.34,0,0,0,1.364-1.364v-.044l-.132-7.524h11.616c0,1.5,0,2.772-.044,3.564-.088,1.672-.7,2.332-2.728,2.332a32.1,32.1,0,0,1-4.84-.528.991.991,0,0,0-.308-.044.257.257,0,0,0-.176.044c0,.352,4.136,2.2,4.664,2.816.264.308.308.484.616.484.044,0,4.8-.22,4.884-4.972,0-.792-.176-3.344-.176-3.96,0-1.716,0-5.72.132-8.14.044-.88.484-.792.924-1.012.308-.132.792-.4.792-.792C460.5,141.9,458.172,140.1,457.468,140.1Zm3.388-5.676a7.541,7.541,0,0,0-1.892,2.024.969.969,0,0,1-.7.4h-6.644c-.044-.836-.088-2.156-.088-3.828h8.316c.66,0,.836-.308.836-.616,0-1.056-3.124-2.508-3.256-2.508-.352,0-1.584,1.452-1.716,1.584-.176.176-.4.4-.572.4h-3.608c0-.748.044-1.54.044-2.42v-1.232h10.736c.7,0,.88-.308.88-.616,0-.968-2.6-2.816-3.256-2.816-.088,0-.572,0-1.892,1.892a.965.965,0,0,1-.616.44h-5.852v-.748c.044-2.508.264-1.98,1.408-2.64.308-.176.528-.4.528-.616,0-.836-3.388-1.5-4.136-1.5a.117.117,0,0,0-.132.132.774.774,0,0,0,.044.264,21.841,21.841,0,0,1,.484,5.1h-2.6a59.555,59.555,0,0,1-8.448-.66c0,.528,1.232,2.156,1.936,2.156h.044a48.163,48.163,0,0,1,6.292-.4h2.772v3.652h-1.584a41.972,41.972,0,0,1-7-.616c0,.528,1.276,2.156,2.024,2.156h.044a29.364,29.364,0,0,1,4.752-.4h1.76c0,1.32,0,2.728-.044,3.828h-2.552a82.282,82.282,0,0,1-10.472-.748c0,.572,1.32,2.376,2.068,2.376h.044a61.673,61.673,0,0,1,8.1-.528H463.54c.7,0,.88-.264.88-.528C464.42,136.136,460.988,134.42,460.856,134.42Zm-26.048-9.9c.484-.22.66-.528.66-.792,0-1.144-4.224-1.452-4.4-1.452a.1.1,0,0,0-.088.088c0,.044.044.176.088.352.22,1.1.352,2.64.352,7.656,0,1.188.044,2.684.044,4.444,0,7.216-.176,18.348-.484,25.168v.088a1.125,1.125,0,0,0,1.144,1.276A1.58,1.58,0,0,0,433.8,159.9v-.088c-.264-7.656-.352-15.84-.352-22.44,0-4.664.044-8.58.132-10.956C433.62,124.74,434.016,124.916,434.808,124.52Zm21.956,22.088H445.148v-2.024c.044-1.5.088-1.364.836-1.892h10.3c.4,0,.44.22.44.352v.044C456.72,143.968,456.764,145.2,456.764,146.608Zm0,4.972H445.148c0-1.364-.044-2.684-.044-3.784h11.66Zm-29-20.284c-.088,0-.132.132-.176.4-.264,1.98-.22,4.884-2.2,6.82a2.137,2.137,0,0,0-.7,1.452,1.156,1.156,0,0,0,1.188,1.188c.308,0,3.08-.484,3.08-5.1C428.956,133.5,428.076,131.3,427.768,131.3Zm7.084-1.276c-.088,0-.176.044-.176.088,0,.088.044.176.176.308a20.68,20.68,0,0,1,2.552,3.652c.352.748.836,1.012,1.276,1.012a1.255,1.255,0,0,0,1.144-1.364C439.824,131.78,436.084,130.02,434.852,130.02Zm66.308,14.7c.176,0,.4.044.572.044,2.112,0,3.168-1.056,3.168-1.892,0-.484-.308-1.144-1.8-1.144a8.56,8.56,0,0,0-3.256.792c-2.508-.484-3.608-2.112-3.608-4.8a37.849,37.849,0,0,1,1.276-7.48,13.68,13.68,0,0,0,.44-2.508,4.627,4.627,0,0,0-4-4.092c-.968,0-1.672.66-1.672,1.056a.468.468,0,0,0,.4.44c2.112.44,2.684,1.188,2.684,2.86a24.746,24.746,0,0,1-.22,2.728,52.407,52.407,0,0,0-.7,6.6c0,2.6.616,5.06,2.948,6.116-4.752,2.112-7.964,5.808-7.964,9.416,0,2.376,2.068,7.392,9.9,7.392,3.608,0,7.744-1.1,7.744-2.86a1.382,1.382,0,0,0-1.54-1.276,2.647,2.647,0,0,0-1.188.308,13.444,13.444,0,0,1-6.072,1.364c-5.632,0-7.128-3.168-7.128-5.324,0-4.092,5.9-7.744,9.636-7.744ZM19.228,233.684l-.088-4.752c3.212-2.6,6.644-4.84,10.6-4.84,5.192,0,5.456,2.9,5.456,3.7,0,2.6-2.684,5.676-6.82,5.676-2.156,0-3.3-1.232-3.3-3.432a8.658,8.658,0,0,1,.44-2.6,3.286,3.286,0,0,0,.132-.88c0-.22-.044-.4-.132-.4-.308,0-1.716,2.64-1.716,5.1,0,2.816,1.848,4.356,4.488,4.356,3.7,0,8.976-2.948,8.976-7.524,0-3.08-2.684-5.148-7.04-5.148-4.136,0-7.656,1.848-11.132,4.048-.044-2.816-.132-5.808-.132-8.624,3.036-1.628,4.224-2.288,4.224-3.784a1.168,1.168,0,0,0-.968-1.232,30.263,30.263,0,0,1-3.124-.748c.044-.484.044-.88.044-1.188-.088-1.54-2.2-2.6-3.52-2.6-1.012,0-1.628.66-1.628,1.056,0,.22.176.352.572.352,2.288,0,2.6,1.672,2.9,7.04a9.827,9.827,0,0,1-4.884,1.408,12.887,12.887,0,0,1-3.608-.484,1.335,1.335,0,0,0-.484-.132.2.2,0,0,0-.176.22c0,.7.7,2.376,3.652,2.376a12.573,12.573,0,0,0,5.588-1.584c.088,1.98.176,4.092.176,6.292,0,.836,0,1.672-.044,2.508-2.684,1.716-7.48,4.8-8.624,4.8-.264,0-.352-.176-.484-.264a.229.229,0,0,0-.176-.088,2.825,2.825,0,0,0-1.5,2.068c0,.616.44,1.012,1.408,1.012a9.522,9.522,0,0,0,4.136-1.408c1.54.4,3.212,1.188,3.784,2.2a1.5,1.5,0,0,0,1.276.836c1.012,0,1.716-1.276,1.716-3.168Zm20.724-16.192a1.293,1.293,0,0,0,.968-1.144c0-1.32-2.156-3.256-5.1-3.256a7.353,7.353,0,0,0-5.852,2.948c0,.088.088.132.176.132a2.546,2.546,0,0,0,1.012-.44,6.023,6.023,0,0,1,3.212-1.012c.528,0,2.288.132,2.288,1.32,0,.968-1.1,2.156-1.54,2.6-.264.264-.484.528-.484.66,0,.044.044.088.132.088a1.874,1.874,0,0,0,.748-.352,9.88,9.88,0,0,1,1.716-.924C38.808,217.4,38.94,217.844,39.952,217.492ZM17.6,229.988c-.044.924-.088,1.8-.176,2.728-.044.66-.044,1.056-1.276,1.056a19.126,19.126,0,0,1-2.86-.308A55.369,55.369,0,0,0,17.6,229.988Zm1.408-15.18a15.53,15.53,0,0,1,.088-1.584c.748.352,1.98,1.012,1.98,1.54,0,.264-.088.528-2.068,1.716Zm76.868,11.836H95.3a37.188,37.188,0,0,1-19.052-5.5,45.038,45.038,0,0,0,5.06-4.664,3.028,3.028,0,0,1,1.892-1.056c.836-.176,1.232-.484,1.232-.836,0-.792-2.112-2.068-2.86-2.068a.4.4,0,0,0-.22.044c-.308.176-.352.352-.836.7a1.208,1.208,0,0,1-.836.22h-9.2l1.452-1.848c.22-.308.352-.44.7-.44a2.159,2.159,0,0,1,.484.044,2.525,2.525,0,0,0,.528.044c.616,0,.88-.22.88-.528a.7.7,0,0,0-.22-.44,10.443,10.443,0,0,0-3.476-1.672c-.088,0-.088.088-.176.308a7.452,7.452,0,0,1-.7,1.716c-4.4,6.512-11.088,12.892-14.256,14.52-.44.22-.616.4-.616.528,0,.044.088.088.22.088.616,0,6.644-2.552,13.772-10.648a17.872,17.872,0,0,0,4.268,5.72,42.917,42.917,0,0,1-17.688,8.976c-1.1.264-1.672.528-1.672.7,0,.088.176.132.616.132a34.189,34.189,0,0,0,10.956-3.036,21.692,21.692,0,0,1,.308,4.972,57.344,57.344,0,0,1-.308,6.952v.176a.787.787,0,0,0,.88.792c.66,0,1.5-.484,1.5-1.144,0-.616-.044-1.188-.044-1.76H81.62v1.672a.945.945,0,0,0,1.012,1.012A1.345,1.345,0,0,0,84,239.1v-.088c-.176-2.816-.308-4.356-.308-5.676,0-2.332.22-2.464.792-2.86.22-.176.836-.4.836-.836,0-.88-2.86-2.112-3.212-2.112-.176,0-.44.044-.88.836a.891.891,0,0,1-.616.352H68.948a16.578,16.578,0,0,0-2.64-1.364,48.366,48.366,0,0,0,8.536-5.148,34.28,34.28,0,0,0,16.1,6.82.994.994,0,0,0,.66-.22c1.32-.968,4.84-1.8,4.84-2.068C96.448,226.688,96.272,226.644,95.876,226.644ZM81.664,236.5H67.892c-.044-1.1-.044-2.068-.044-2.948,0-3.036.132-3.168.7-3.52l.176-.132H81.18a.457.457,0,0,1,.44.4c.088,1.056.088,1.848.088,2.64C81.708,233.9,81.708,234.916,81.664,236.5Zm7.7-30.492H89.32a.849.849,0,0,0-.44.132,3.224,3.224,0,0,0-.924.7,1.359,1.359,0,0,1-.66.4H75.812l.088-1.628c.132-1.5.132-1.364,1.188-2.024.352-.22.7-.528.7-.836,0-.88-4.312-1.364-4.488-1.364-.088,0-.088.044-.088.088a.774.774,0,0,0,.044.264,21.564,21.564,0,0,1,.44,5.192,2.481,2.481,0,0,0-.044.308H62.524c0-.22.044-.4.044-.616,0-.924-.22-2.728-.572-2.728-.088,0-.176.088-.22.264-.616,2.86-1.232,4.444-4.224,6.908a2.331,2.331,0,0,0-.968,1.628,1.227,1.227,0,0,0,1.364,1.144c1.5,0,3.74-1.892,4.4-5.5h24.86c.132,0,.22.088.22.264a23.678,23.678,0,0,1-2.068,3.872.789.789,0,0,0-.176.352c0,.044,0,.044.044.044a.879.879,0,0,0,.352-.132c1.364-.66,3.476-2.42,5.588-2.64,1.188-.132,1.584-.44,1.584-.88C92.752,208.34,91.124,206.58,89.364,206.008Zm-14.872,13.9a17.5,17.5,0,0,1-4.708-5.368h9.46c.308,0,.4.088.4.176C79.64,215.16,76.648,218.02,74.492,219.912Zm40.04,19.272c0,.924.528,1.276,1.1,1.276a1.574,1.574,0,0,0,1.628-1.54c-.176-6.072-.352-13.816-.4-20.46a11.952,11.952,0,0,1,3.256,3.036c.484.7.968.968,1.364.968a1.068,1.068,0,0,0,.968-1.188c0-2.068-3.256-3.168-5.588-3.256v-4.268h5.28c.66,0,.792-.308.792-.528,0-.132,0-.22-.044-.264-.836-1.32-2.42-2.6-2.9-2.6-.308,0-.924.616-1.76,1.936a.754.754,0,0,1-.528.352h-.836c0-2.728.044-4.972.088-6.512.044-1.672.44-1.5,1.232-1.892.484-.22.66-.484.66-.7,0-.792-3.52-1.408-4.136-1.408-.088,0-.088.044-.088.088a.991.991,0,0,0,.044.308c.352,1.76.4,3.212.4,7.7v2.42h-.132a42.4,42.4,0,0,1-6.688-.616c0,.484,1.232,2.112,1.76,2.112h.044a27.84,27.84,0,0,1,4.8-.4h.22v.088a13.321,13.321,0,0,1-.748,3.036c-2.6,6.028-6.072,10.736-7.656,11.924-.4.308-.572.484-.572.572,0,.044.044.044.088.044.4,0,5.676-2.6,8.844-9.944-.088,6.732-.308,14.784-.484,19.624Zm8.36-15.444c-.44,0-.66,0-.66.088,0,.044.176.176.572.44a14.321,14.321,0,0,1,3.828,3.3,1.812,1.812,0,0,0,1.408,1.012A1.484,1.484,0,0,0,129.36,227c0-2.552-4.708-3.256-6.292-3.256Zm22.264-3.08c.66,0,.88-.264.88-.528,0-1.056-3.08-2.992-3.652-2.992-.4,0-1.76,1.936-1.848,2.024a.887.887,0,0,1-.66.4h-5.588l.044-4.136H141.9c.616,0,.836-.308.836-.572,0-1.188-3.124-2.6-3.256-2.6a6.035,6.035,0,0,0-1.8,1.628c-.176.176-.4.44-.572.44h-2.772v-1.5c0-1.452.088-1.452.792-1.716.308-.132.484-.308.484-.484a.543.543,0,0,0-.176-.352h8.932c.7,0,.88-.308.88-.616,0-.968-2.816-2.86-3.3-2.86-.352,0-1.276.924-1.98,1.936a.965.965,0,0,1-.616.44h-3.916c1.5-1.364,2.816-2.816,3.652-3.74.4-.44.352-.616,1.012-.66.88-.044,1.232-.308,1.232-.616a.826.826,0,0,0-.352-.572c-.792-.616-3.036-1.8-3.08-1.848a1.729,1.729,0,0,0-.264-.088c-.088,0-.088.088-.132.44-.308,1.672-.66,2.992-2.816,7.084h-2.86a60,60,0,0,1-8.448-.66c0,.528,1.188,2.2,1.936,2.2h.044a43.075,43.075,0,0,1,6.292-.44h.616a24.4,24.4,0,0,1,.132,2.464v1.584H132a54.913,54.913,0,0,1-7.612-.616c0,.528,1.276,2.112,2.024,2.112h.044a36.249,36.249,0,0,1,5.324-.4h.616c0,1.144.044,2.552.044,4.136a84.136,84.136,0,0,1-9.416-.7c0,.572,1.364,2.288,2.156,2.288h.044a63.214,63.214,0,0,1,7.216-.484v7.3c-3.3,2.42-9.944,6.864-12.452,7.348-.044,0-.044.044-.044.088a.162.162,0,0,0,.044.132,10.055,10.055,0,0,0,2.816,1.716c.308,0,.308-.352.66-.66,1.76-1.5,5.632-4.532,8.976-7.832,0,3.916-.044,7.084-.044,7.392-.088,1.1-.66,1.408-1.8,1.408a41.777,41.777,0,0,1-4.488-.528,2.748,2.748,0,0,0-.528-.044c-.176,0-.264.044-.264.088,0,.308,4,1.76,4.4,2.86.132.308.176.528.484.528s4.136-.4,4.18-4.224c0-.836-.176-2.112-.176-2.684,0-.044.044-5.456.088-10.736,3.212,10.34,8.8,14.564,9.24,14.564a.782.782,0,0,0,.44-.176c1.364-1.012,4.092-1.188,4.092-1.54,0-.044-.176-.132-.572-.264a17.367,17.367,0,0,1-9.24-7.172,39.557,39.557,0,0,0,4.092-1.848,1.393,1.393,0,0,1,.7-.176,3.4,3.4,0,0,1,.66.088,4.027,4.027,0,0,0,.7.044c.572,0,.88-.176.88-.44,0-.748-2.508-2.948-3.08-2.948-.088,0-.132.044-.176.132-.66,2.024-2.992,3.52-4.356,4.312a34.091,34.091,0,0,1-3.212-6.732Zm-14.872-12.716a1.5,1.5,0,0,0,1.276-1.628c0-2.508-4.576-3.74-5.5-3.74-.264,0-.352.044-.352.176a.738.738,0,0,0,.308.4,11.911,11.911,0,0,1,2.9,3.52C129.272,207.592,129.8,207.944,130.284,207.944Zm71.192,22.66c0-.748-.836-1.672-2.376-1.848-6.644-.836-11-6.952-20.02-12.232a4.923,4.923,0,0,0-2.6-.7,6.109,6.109,0,0,0-3.564,1.276c-2.42,1.848-5.1,4.84-5.676,5.192a3.573,3.573,0,0,1-1.98.572,1.542,1.542,0,0,1-1.32-.484.47.47,0,0,0-.4-.264c-.22,0-.4.132-.4.484,0,1.232,1.848,2.9,3.608,2.9a3.417,3.417,0,0,0,2.728-1.54c.616-.792,3.036-4.708,4.4-5.94a4.067,4.067,0,0,1,2.64-1.144,2.906,2.906,0,0,1,1.5.44c7.612,4.84,11.792,12.232,20.284,14.256a5.842,5.842,0,0,0,1.408.176C200.9,231.748,201.476,231.22,201.476,230.6Zm31.284-21.648c.572-.044,1.144-.132,1.716-.132,8.712.088,12.98,6.116,12.98,12.54,0,5.236-2.508,12.76-15,16.28-1.144.352-1.848.7-1.848.924,0,.088.22.176.616.176,3.08,0,18.612-3.564,18.612-17.16,0-7.128-4.972-14.036-14.916-14.036-11.792,0-17.6,10.56-17.6,17.2a6.79,6.79,0,0,0,1.012,3.96c1.892,2.64,2.508,5.368,4.532,5.368,3.432,0,11.572-9.108,11.572-19.58C234.432,211.728,233.86,209.572,232.76,208.956Zm-2.64.572a5.22,5.22,0,0,1,1.232-.22c.968,0,1.76.66,1.76,4.092,0,8.712-7.084,17.556-9.768,17.556-1.936,0-4.092-3.212-4.092-6.908C219.252,218.284,223.784,211.508,230.12,209.528ZM301.708,225.1c-.132-3.124-.352-9.944-.352-14.08,0-3.212,0-3.608.88-4.092.308-.176,1.012-.484,1.012-1.012,0-1.144-2.772-2.156-2.948-2.156-.044,0-.484,0-1.188,1.012a.752.752,0,0,1-.572.308h-7.7l-.176-.132a13.8,13.8,0,0,0-3.564-1.584c-.044,0-.044.044-.044.088a.859.859,0,0,0,.044.308,44.02,44.02,0,0,1,.528,5.588c-.044,2.112,0,11.264-.308,16.764v.088c0,.748.4,1.012.88,1.012a1.379,1.379,0,0,0,1.364-1.232V223.96h9.944v1.54c0,.836.44,1.232.924,1.232a1.44,1.44,0,0,0,1.276-1.54Zm-23.54.836c-.132-2.772-.22-7.26-.22-11.4a15.333,15.333,0,0,1,4.752,3.828,2.083,2.083,0,0,0,1.54,1.056,1.135,1.135,0,0,0,1.056-1.276c0-2.728-4.356-3.388-7.348-3.828v-3.388h7.084c.616,0,.792-.22.792-.484,0-.924-2.42-3.036-3.212-3.036a.4.4,0,0,0-.308.132,10.513,10.513,0,0,0-1.408,1.936.913.913,0,0,1-.484.352h-2.42c.044-1.628.044-3.036.132-3.96.088-1.5.22-1.188,1.188-1.672.44-.22.748-.572.748-.836,0-.308-.264-.572-.836-.7a26.773,26.773,0,0,0-3.212-.836h-.264c-.088,0-.132,0-.132.044a1.794,1.794,0,0,0,.088.308c.44,1.54.484,6.556.484,7.656a79.606,79.606,0,0,1-8.976-.616c0,.484,1.276,2.112,1.716,2.112h.044a57.111,57.111,0,0,1,7.216-.4c-.836,3.124-7.656,10.472-10.384,11.88-.484.22-.66.44-.66.572q0,.132.264.132c1.408,0,7.48-3.872,10.736-8.756-.044,4.092-.088,8.536-.308,11.308v.132c0,.836.44,1.144.924,1.144a1.461,1.461,0,0,0,1.408-1.364Zm.264,11.088c0,1.232.836,2.86,7.128,2.86,4.136,0,7.3-.132,9.328-1.276.924-.528,1.364-1.1,1.364-1.628a1.53,1.53,0,0,0-.836-1.188c-.7-.44-1.012-3.916-1.32-3.916-.044,0-.088.132-.176.484C293,237.292,291.984,238,287.012,238c-6.336,0-6.556-.66-6.556-1.8a31.375,31.375,0,0,1,.132-3.52c.132-1.276.044-1.056,1.012-1.54.44-.22.7-.484.7-.748,0-.792-3.256-1.1-3.74-1.1-.132,0-.176,0-.176.088a.859.859,0,0,0,.044.308,19.718,19.718,0,0,1,.176,3.036c0,.792-.132,2.992-.176,4.224Zm21.12-19.4c0,1.76-.044,3.564-.044,5.192h-9.944c0-1.672-.044-3.476-.044-5.192Zm-.44-11.352c.264,0,.4.4.4.44.044.88.088,2.42.088,4.312H289.52c0-1.364.044-2.42.044-3.036,0-1.364.132-1.188.572-1.452l.352-.264Zm.484,10.208H289.52v-4.312H299.6Zm-3.432,14.3a17.255,17.255,0,0,1,5.544,5.72c.528,1.012,1.144,1.408,1.716,1.408a1.469,1.469,0,0,0,1.276-1.628c0-3.08-6.864-5.676-8.36-5.676-.176,0-.22.044-.22.088A.154.154,0,0,0,296.164,230.78Zm-22.088-.132c0-.044-.044-.176-.088-.176s-.044,0-.088.088c-.968,2.332-2.376,4.268-5.016,5.148-1.276.44-1.848,1.276-1.848,1.98a1.28,1.28,0,0,0,1.408,1.232c2.2,0,5.632-3.344,5.632-7.788Zm14.212,2.024a1.391,1.391,0,0,0,1.232-1.5c0-2.068-3.432-3.608-6.248-3.608-.088,0-.088,0-.088.044s.088.176.4.4a14.114,14.114,0,0,1,3.344,3.564C287.32,232.364,287.8,232.672,288.288,232.672Zm48.576.308a17.642,17.642,0,0,1-.176-1.848v-.484a50.777,50.777,0,0,1,.924-5.764,8.265,8.265,0,0,0,.176-1.232c0-.176,0-.264-.088-.264s-.264.308-.66,1.188c-.748,1.716-1.76,4.444-2.64,5.984a1.623,1.623,0,0,1-1.452.924c-.572,0-5.544-.968-5.544-9.24a25.9,25.9,0,0,1,.66-5.72,7.751,7.751,0,0,0,.176-1.5,3.522,3.522,0,0,0-2.552-3.7q-.264,0-.264.4c0,.088.044.176.044.308a11.908,11.908,0,0,1,.176,2.244c0,.4,0,.836-.044,1.276-.088,1.716-.22,3.432-.22,5.1,0,4.576.836,8.8,4.928,12.276a7.392,7.392,0,0,0,4.4,1.892c2.024,0,2.156-1.232,2.156-1.716Zm17.072-7.04c.7,0,1.452-.7,1.452-2.068,0-4.18-4.928-9.064-10.912-9.064-.528,0-.836.088-.836.22,0,.176.616.484,1.936.792a9.6,9.6,0,0,1,7.084,8.536C352.748,225.412,353.32,225.94,353.936,225.94Zm23.1,14.96a5.126,5.126,0,1,0-5.148-5.148A5.145,5.145,0,0,0,377.036,240.9Zm0-1.5a3.7,3.7,0,0,1-3.652-3.652,3.662,3.662,0,0,1,3.652-3.608,3.624,3.624,0,0,1,3.608,3.608A3.662,3.662,0,0,1,377.036,239.4Z" transform="translate(-1.936 36.476)"/>
</svg>
