<svg xmlns="http://www.w3.org/2000/svg" width="360.612" height="75.848" viewBox="0 0 360.612 75.848">
  <path id="section-sabae-plant_copy" d="M2.38-3.136a4.016,4.016,0,0,1-.28,1.82C1.568-.2.7-.14.672.812A.97.97,0,0,0,1.68,1.82C2.968,1.848,3.724.644,3.808-.756A6.932,6.932,0,0,0,3.444-3.22.541.541,0,0,0,2.38-3.136Zm2.6.252A15.963,15.963,0,0,1,5.068-.9c-.056.952-.2,1.68.392,2.016A1.027,1.027,0,0,0,6.888.588c.532-.98,0-2.464-.952-3.836C5.488-3.836,4.928-3.5,4.984-2.884Zm3.64-.5c-.532-.5-1.008-.084-.84.5.14.588.308,1.176.392,1.764.112.868.084,1.568.672,1.764a1,1,0,0,0,1.288-.728C10.5-1.092,9.716-2.324,8.624-3.388ZM8.288-6.664v-3.5H10.36l-.028,3.5Zm-3.7-3.444v-.056H6.608v3.5H4.62ZM8.036-19.1A21.66,21.66,0,0,1,6.468-15.54h-1.4a10.5,10.5,0,0,0-1.12-.588A22.5,22.5,0,0,0,5.684-19.1Zm.252,4.984a1.108,1.108,0,0,0,.5-.308h1.6v3.136h-2.1Zm-1.68-.308v3.136H4.592c.028-1.092.028-2.52.056-3.136Zm1.4-1.12c.7-.9,1.316-1.848,1.9-2.632.728-.056,1.26-.28,1.26-.616,0-.728-1.568-2.156-2.016-2.156-.224,0-.644.336-1.036.728h-1.9c.224-.448.392-.868.532-1.2.812.056,1.26-.112,1.26-.5,0-.56-1.652-1.26-2.548-1.456-.364-.056-.5.056-.56.336a24.093,24.093,0,0,1-4.032,9.1c-.448.672.2,1.092.756.588A13.986,13.986,0,0,0,2.716-14.5c.084,1.568.112,3.5.112,4.284,0,.924-.084,4.844-.084,5.46A.672.672,0,0,0,3.472-4c.784,0,1.148-.28,1.148-.9v-.644h5.712v.2c0,.448.14.952.756.952.7,0,1.12-.224,1.12-1.092C12.18-6.5,12.124-12.18,12.152-14c.392-.168.728-.392.728-.7,0-.56-1.4-1.652-1.876-1.652-.224,0-.56.392-.868.812ZM11.62-3.612c-.588-.476-1.036-.056-.9.56.112.476.308.98.392,1.512.112.728.056,1.428.672,1.624a1.087,1.087,0,0,0,1.456-.728C13.608-1.736,12.684-2.772,11.62-3.612ZM20.44-5.46V-9.408a.885.885,0,0,0,.364-.2h2.632V-5.46ZM18.676-9.6V-5.46H16.1c0-1.176,0-3.22.056-4.144Zm-2.016-1.12a5.838,5.838,0,0,0-2.184-.952.316.316,0,0,0-.392.336c.308,2.94.112,10.248.084,12.516a.688.688,0,0,0,.756.784c.784,0,1.2-.28,1.2-.9L16.1-4.34h7.336c0,1.148-.028,2.3-.056,3.108-.056.644-.28.9-.868.9-.364,0-1.12-.084-1.316-.084-.532,0-.616.672-.028.9,1.344.532.7,1.512,1.764,1.512A2.219,2.219,0,0,0,25.256-.364c.028-3.024,0-6.58.056-8.764.5-.224.952-.476.952-.812,0-.5-1.624-1.876-2.3-1.876-.2,0-.728.56-1.12,1.092ZM20.5-13.748V-15.9H24.92c.9,0,1.288-.168,1.288-.532C26.18-17,24.5-18.4,24.052-18.4c-.336,0-.9.7-1.372,1.372H20.5v-1.848h5.04c.98,0,1.428-.2,1.428-.588,0-.616-1.848-2.156-2.38-2.156-.364,0-1.036.868-1.568,1.624H20.5V-21.56c.812-.168,1.344-.392,1.344-.952,0-.7-2.6-.784-3.08-.784-.252,0-.42.14-.392.392.084.644.14,1.68.168,2.912H13.244c-.364,0-.616.14-.616.56,0,.448.252.56.616.56h5.32v1.848h-4.7c-.364,0-.616.14-.616.56,0,.448.252.56.616.56h4.7v2.156h-5.4c-.364,0-.616.14-.616.56,0,.448.252.56.616.56H25.9c.952,0,1.372-.2,1.372-.56,0-.616-1.82-2.1-2.324-2.1-.364,0-.98.812-1.484,1.54Zm15.96.7c.616.784,1.064,1.428,1.792,1.288a1.26,1.26,0,0,0,1.036-1.6c-.28-1.372-2.016-2.044-3.7-2.24-.868-.112-1.036.532-.532,1.036A11.946,11.946,0,0,1,36.456-13.048Zm2.66,4.48c-.5.868-1.484,2.8-2.016,3.64-.252.392-.364.448-.672.364-.308-.112-.868-.308-1.232-.42a.46.46,0,0,0-.42.812,4.2,4.2,0,0,1,1.568,1.96A7.784,7.784,0,0,1,36.316.224a1.142,1.142,0,0,0,1.12,1.26c.868,0,1.428-.56,1.428-1.764,0-1.4-.42-2.044-.42-2.94,0-.784,1.2-3.248,1.68-4.956C40.32-8.9,39.48-9.184,39.116-8.568ZM41.5-20.02c-.252-1.4-1.988-2.184-3.668-2.408-.84-.112-1.008.5-.56,1.008a12.975,12.975,0,0,1,1.4,1.6c.616.812,1.008,1.456,1.764,1.344A1.248,1.248,0,0,0,41.5-20.02Zm9.856,18.4V-17.108c.532-.14.784-.364.784-.672a.424.424,0,0,0-.2-.308H58.1c.952,0,1.512-.252,1.512-.672,0-.7-1.988-2.464-2.576-2.464-.448,0-1.232,1.092-1.848,2.016H42.56c-.364,0-.616.14-.616.56,0,.448.252.56.616.56h6.776L49.308-1.624H41.5c-.364,0-.616.14-.616.56,0,.448.252.56.616.56H59.22c.952,0,1.512-.252,1.512-.672,0-.7-1.988-2.464-2.576-2.464-.448,0-1.26,1.092-1.876,2.016Zm39-17.7c.28.5.616.98.9,1.512.364.756.532,1.512,1.26,1.54a1.206,1.206,0,0,0,1.316-1.26c.056-1.26-1.288-2.128-2.688-2.688C90.328-20.524,89.964-19.908,90.356-19.32ZM77.7-19.964c-.364,0-.616.14-.616.56,0,.448.252.56.616.56h8.316c.616,0,1.092-.14,1.064-.532a3.681,3.681,0,0,0-1.9-1.988c-.308,0-.84.7-1.316,1.4H82.8v-1.848c.616-.14,1.008-.336,1.008-.7,0-.588-2.044-.728-2.52-.728a.352.352,0,0,0-.392.42c.056.784.056,1.9.056,2.856Zm6.076,2.1a21.119,21.119,0,0,1-1.064,3.64c-.28.672.252,1.036.868.532a13.142,13.142,0,0,0,1.736-2.52c.868.056,1.232-.112,1.232-.5,0-.448-1.288-1.232-2.24-1.512C84-18.312,83.832-18.116,83.776-17.864Zm-5.264.784c.168.476.364.952.532,1.428.168.7.14,1.456.756,1.6a1.137,1.137,0,0,0,1.456-.9c.252-1.036-.672-1.96-1.82-2.828C78.764-18.256,78.288-17.752,78.512-17.08ZM71.792-10H74.48c0,1.484,0,2.828-.028,4-.756.224-1.652.448-2.66.672Zm0-5.124H74.48v4H71.792Zm2.688-5.152v4.032H71.792v-3.444c.448-.14.644-.308.672-.588Zm1.792.392c.364-.084.56-.2.616-.392h.588c.9,0,1.344-.168,1.344-.56,0-.588-1.764-2.044-2.268-2.044-.336,0-.952.756-1.428,1.484H68.88c-.364,0-.616.14-.616.56,0,.448.252.56.616.56h1.092V-4.928l-1.764.336c-.224.028-.336.14-.308.364.224,1.372.812,2.492,1.344,2.492.448,0,.644-.392.728-1.008a35.761,35.761,0,0,0,4.48-1.848c-.028,3-.084,4.816-.084,5.628,0,.532.2.84.728.84.868,0,1.316-.42,1.316-1.008,0-1.12-.14-4.648-.14-10.976ZM84.028-9.072v2.156h-3.7c0-.812.028-1.736.056-2.156ZM80.332-5.8H84l-.028,2.352h-3.64Zm0,3.472H84a.747.747,0,0,0,.784.644c.728,0,1.12-.2,1.12-1.064,0-.812-.056-4.34,0-5.936.476-.168.9-.392.9-.756,0-.616-1.54-1.792-2.072-1.792-.28,0-.756.532-1.12,1.036H80.892a6.44,6.44,0,0,0-2.156-.9.307.307,0,0,0-.392.336c.28,2.576.112,7.84.112,9.744,0,.5.224.784.7.784.784,0,1.176-.28,1.176-.9Zm12.18-9.912c.756,0,1.2-.168,1.2-.588,0-.588-1.624-2.128-2.128-2.128-.364,0-.98.812-1.484,1.6h-.98a63.613,63.613,0,0,1,.168-8.008c.868-.112,1.316-.336,1.316-.7,0-.644-1.6-.952-2.716-.952-.476,0-.532.084-.532.616-.028,2.94,0,6.048.168,9.044H77.168c-.364,0-.616.14-.616.56,0,.448.252.56.616.56H87.584a39.919,39.919,0,0,0,1.316,8.2c-.168.224-.336.448-.532.672C86.716-1.428,84.252-.028,80.36.952c-.784.168-.728,1.092.14.952,4.312-.644,7.2-2.24,9.044-4.2a11.021,11.021,0,0,0,.84,1.624C91.392.9,92.54,1.736,93.436,1.736c.616,0,.784-.252.784-.756C94.248.42,94,.028,93.968-.9c0-.616.056-1.372.084-1.988,0-.56-.5-.644-.756-.084a10.611,10.611,0,0,1-.588,1.316c-.2.392-.5.364-.812-.028a8.73,8.73,0,0,1-1.148-2.1A14.711,14.711,0,0,0,92.82-9.128c.9.028,1.344-.112,1.344-.448.028-.532-1.4-1.288-2.464-1.288-.252,0-.364.252-.42.5a15.992,15.992,0,0,1-1.2,4.368,38.894,38.894,0,0,1-.9-6.244ZM115.7-19.992c1.232-.2,1.708-.672,1.708-1.064,0-.7-2.716-1.148-3.64-1.148-.364,0-.448.14-.42.42.112,1.232.2,2.436.224,3.808A19.548,19.548,0,0,1,111.132-7.2c-1.764,2.912-4.34,5.4-8.876,7.9-.672.364-.364,1.2.42.924a19.636,19.636,0,0,0,10.3-8.232,17.625,17.625,0,0,0,2.24-6.608c1.2,7,4.7,11.592,9.52,14.2a.863.863,0,0,0,1.316-.308,1.952,1.952,0,0,1,1.232-.784c.728-.224.812-.7-.028-.98-6.44-2.128-11.34-8.092-11.592-18.032Zm34.216,5.376C148.6-10.864,144.564-5.4,141.876-5.4c-.812,0-1.568-1.316-1.708-3.472a7.408,7.408,0,0,1,2.212-6.16,8.058,8.058,0,0,1,5.684-2.072,12.422,12.422,0,0,1,2.352.224A8.742,8.742,0,0,1,149.912-14.616Zm-1.764-3.892a10.668,10.668,0,0,0-6.86,2.492,9.131,9.131,0,0,0-2.94,7.784c.252,3.3,1.708,5.348,3.192,5.348,3.36,0,8.036-5.572,9.66-10.052a13.5,13.5,0,0,0,.784-3.444,6.9,6.9,0,0,1,4.34,6.664c0,4.592-3.136,6.636-7.98,7.588-.868.168-.812,1.036.168,1.036,5.768,0,10.08-2.772,10.08-8.148C158.592-14.28,154.84-18.508,148.148-18.508Zm30.1,2.884c.7,0,1.232-.2,1.232-.588,0-.616-1.652-2.212-2.184-2.212-.364,0-1.008.868-1.54,1.68h-.532c0-1.792.028-3.444.056-4.76.9-.252,1.512-.5,1.512-.952,0-.5-1.064-.9-3.164-.9-.476,0-.588.14-.532.56a59.767,59.767,0,0,1,.28,6.048h-3.7c-.364,0-.616.14-.616.56,0,.448.252.56.616.56H173.4c.028,2.156.028,4.172.028,5.208-1.288.476-2.66.952-4.116,1.4a.38.38,0,0,0-.336.42c.14,1.456.5,2.408,1.092,2.464.476.028.756-.7.9-1.428.784-.364,1.624-.728,2.464-1.12,0,2.632.028,5.432-.056,7.14-.056.9-.364,1.064-.868,1.092-.42,0-1.2-.056-1.68-.084-.56,0-.644.588-.028.868,1.792.7,1.344,1.6,2.352,1.6,1.372,0,2.1-1.092,2.1-2.52,0-2.744,0-5.852-.028-8.932a27.488,27.488,0,0,0,3.7-2.072c.812-.644.448-1.288-.5-.9-1.008.448-2.072.924-3.192,1.372v-4.508Zm11.62,4.984a16.865,16.865,0,0,1-3.64,6.048,15.936,15.936,0,0,1-3.5-6.048Zm-2.744-1.12v-4.816h6.16c.924,0,1.456-.224,1.456-.644,0-.672-1.932-2.352-2.492-2.352-.42,0-1.148,1.008-1.736,1.876h-3.388v-3.528c.868-.2,1.456-.42,1.456-.98,0-.728-2.66-.812-3.136-.812-.252,0-.42.14-.392.392.112.952.2,2.856.224,4.928H179.9c-.364,0-.616.14-.616.56,0,.448.252.56.616.56h5.4v4.816h-5.572c-.364,0-.616.14-.616.56,0,.448.252.56.616.56h1.82a20.2,20.2,0,0,0,3.36,7.252A23.307,23.307,0,0,1,176.26.784c-.868.2-.616,1.176.2,1.036a23.416,23.416,0,0,0,9.6-3.864,13.255,13.255,0,0,0,5.992,3.612c.784.224.98.084,1.344-.42a2.161,2.161,0,0,1,1.092-.784c.56-.2.756-.672-.112-.84A14.6,14.6,0,0,1,187.628-3.3a18.645,18.645,0,0,0,4.424-6.664c.728-.168,1.12-.392,1.12-.728,0-.644-1.68-2.1-2.1-2.1-.28,0-.784.532-1.232,1.036Zm40.18-7.56c.616,0,1.232-.224,1.232-.644a4.336,4.336,0,0,0-2.24-2.324c-.392,0-1.092.952-1.652,1.848h-3.22c-.364,0-.616.14-.616.56,0,.448.252.56.616.56Zm-9.856-1.624a13.277,13.277,0,0,1,.784,1.344c.308.616.588,1.12,1.2,1.092.588-.028.952-.448.924-1.176-.028-.84-.98-1.652-2.352-1.988C217.448-21.812,217.168-21.364,217.448-20.944Zm-14.056,4.816a23.16,23.16,0,0,0,5.852-5.04c.812.168,1.316.084,1.372-.364.056-.532-1.484-1.484-2.38-1.848-.28-.084-.42.056-.56.308a20.1,20.1,0,0,1-4.928,6.188C202.16-16.3,202.664-15.708,203.392-16.128Zm4.34,10.612c0-.812,0-4.4.084-5.516.56-.084,1.036-.252,1.036-.616,0-.308-.588-.7-1.2-.98.616-.924,1.12-1.764,1.512-2.464.812.112,1.316.028,1.344-.42.028-.532-1.6-1.456-2.464-1.736-.28-.084-.42.028-.532.308a27.124,27.124,0,0,1-5.32,8.9c-.5.644.056,1.176.728.7a18.6,18.6,0,0,0,2.912-2.828c.084,3.584-.056,9.828-.056,11.4a.688.688,0,0,0,.756.784c.84,0,1.232-.28,1.232-.9Zm3.808-6.664c-.392-.084-.532.112-.56.336a19.116,19.116,0,0,1-2.156,7.924c-.336.672.336.98.868.476a14.587,14.587,0,0,0,3.248-6.72c.84,0,1.288-.14,1.288-.588C214.228-11.284,212.464-12.012,211.54-12.18Zm8.792-3.752c.84,0,1.232-.14,1.232-.532-.028-.532-1.624-1.932-2.072-1.932-.308,0-.868.672-1.316,1.344h-1.9c.028-1.82.028-3.584.056-4.4.812-.168,1.316-.476,1.316-.9,0-.672-1.568-.812-3.192-.812-.252,0-.42.14-.364.392a46.36,46.36,0,0,1,.364,5.712h-3.7c-.364,0-.616.14-.616.56,0,.448.252.56.616.56h3.724c.028,2.52,0,4.844,0,5.432,0,1.96-.28,10.388-.28,11.62a.775.775,0,0,0,.868.84c.924,0,1.316-.336,1.316-.98,0-1.176-.112-10.08-.112-12.012v-4.9Zm.756,9.044c.2-1.064-.392-3.36-2.884-5.18-.5-.336-.952.112-.756.5a9.208,9.208,0,0,1,.924,2.268,19.726,19.726,0,0,1,.448,2.38c.112.616.308.924.868,1.036A1.138,1.138,0,0,0,221.088-6.888Zm-.868-7.2c-.364,0-.616.14-.616.56,0,.448.252.56.616.56h3.444c.084,1.288.168,4.872.168,6.916.028,1.792,0,3.612-.056,4.872-.028.672-.336.9-.952.9-.308,0-1.092-.056-1.736-.14-.56-.028-.7.7-.028.952,1.82.672,1.68,1.456,2.548,1.456a2.044,2.044,0,0,0,2.1-2.156c0-3.948-.028-9.212.028-12.376a1.733,1.733,0,0,0,.952-.42H227.7c.644,0,1.288-.224,1.288-.644a4.5,4.5,0,0,0-2.3-2.408c-.42,0-1.148,1.008-1.736,1.932Zm24.892-6.888c0,.364.448.5,1.036.868.476.308.616.644.616,1.484,0,1.064-.14,3.808-.14,5.124a3.184,3.184,0,0,0,1.008,2.408c-2.856,1.372-4.48,3.416-4.4,6.552.112,3.528,3.724,4.508,6.44,4.508,3.08,0,6.3-.448,6.3-1.848,0-.616-.7-1.036-1.652-1.036-1.036,0-2.548.672-4.648.672-2.464,0-4.536-.42-4.648-3.052a4.441,4.441,0,0,1,4.116-4.62c.9-.084,2.044-.112,2.772-.168,1.428-.112,2.464-.532,2.464-1.4,0-.7-1.008-1.2-2.156-1.176-1.4.028-1.988.7-2.8.728s-1.064-.56-1.064-1.68c0-1.792.9-4.872.9-5.908,0-1.372-1.568-2.156-2.856-2.156C245.84-21.672,245.112-21.364,245.112-20.972ZM8.148,34.86,8.12,32.7H20.5l-.028,2.156Zm12.376-5.348v2.072H8.12c0-.728.028-1.652.056-2.044l.168-.028ZM8.148,35.98h12.32v.14a.856.856,0,0,0,.868.952c.784,0,1.232-.224,1.232-1.092,0-.9-.056-4.256,0-6.076.5-.2.952-.448.952-.812,0-.616-1.68-1.848-2.24-1.848-.308,0-.84.588-1.26,1.148H8.792a7.388,7.388,0,0,0-2.436-1.008.335.335,0,0,0-.392.364c.252,2.408.112,6.776.112,8.54a.68.68,0,0,0,.756.756c.868,0,1.316-.252,1.316-.868ZM11.34,47.152c-1.26.308-2.772.616-4.564.924V45.444h4.648v1.68ZM6.776,41.02V39.34c.336-.112.532-.308.56-.532h4.088V41.02Zm0,3.3V42.14h4.648v2.184Zm6.468-4.732c.728-.084,1.092-.336,1.092-.672a.168.168,0,0,0-.028-.112h11c1.036,0,1.428-.2,1.428-.588,0-.644-1.876-2.184-2.38-2.184-.392,0-1.064.868-1.6,1.652H1.848c-.364,0-.616.14-.616.56,0,.448.252.56.616.56h3.08v9.548c-1.064.14-2.184.252-3.36.364-.224.028-.336.112-.308.364.252,1.456.728,2.492,1.288,2.492.448,0,.672-.5.756-1.092A45.626,45.626,0,0,0,11.4,48.272c-.028,1.6-.056,2.688-.056,3.276,0,.532.2.84.728.84.868,0,1.26-.42,1.26-1.008,0-.84-.084-3.164-.084-6.776Zm8.568,2.464a13.7,13.7,0,0,1-2.268,4.62,11.517,11.517,0,0,1-2.52-4.62Zm-7.392-1.12c-.364,0-.616.14-.616.56,0,.448.252.56.616.56h1.512a15.042,15.042,0,0,0,2.492,5.936,17.172,17.172,0,0,1-4.592,3.248c-.728.42-.308,1.232.42.9a15.968,15.968,0,0,0,5.18-2.94,10.162,10.162,0,0,0,4.592,2.716c.868.28,1.008.084,1.316-.336a2.07,2.07,0,0,1,1.064-.784c.5-.2.784-.644-.084-.784a12.216,12.216,0,0,1-5.488-2.156,14.961,14.961,0,0,0,3-5.208c.756-.2,1.2-.392,1.2-.728,0-.644-1.624-2.072-2.044-2.072-.28,0-.868.56-1.316,1.092Zm33.18-9.38c.952,0,1.4-.2,1.4-.56,0-.616-1.82-2.156-2.324-2.156-.364,0-1.036.84-1.54,1.6h-2.3V29.96a9.44,9.44,0,0,1,.112-1.4c.672-.112,1.148-.336,1.148-.728,0-.7-2.576-.784-3.024-.784-.252,0-.392.112-.364.392a14.276,14.276,0,0,1,.2,2.52v.476H35.84c-.364,0-.616.14-.616.56,0,.448.252.56.616.56Zm-3.22.644a14.093,14.093,0,0,1-1.624,4.592c-.336.672.224,1.064.812.588a12.069,12.069,0,0,0,2.548-3.612c.868-.028,1.2-.2,1.2-.588,0-.476-1.372-1.12-2.352-1.344A.448.448,0,0,0,44.38,32.2Zm-6.608.952c.2.588.42,1.2.56,1.764.224.868.28,1.624.98,1.792a1.179,1.179,0,0,0,1.484-.952c.308-1.176-.812-2.38-2.1-3.3C38,31.976,37.52,32.508,37.772,33.152Zm10.36,5.656c.924,0,1.316-.168,1.288-.532,0-.56-1.68-1.988-2.156-1.988-.336,0-.9.728-1.372,1.4H35.168c-.364,0-.616.14-.616.56,0,.448.252.56.616.56Zm-5.264,4.7h4.76c.924,0,1.344-.168,1.316-.532,0-.588-1.708-2.016-2.184-2.016-.336,0-.924.728-1.4,1.428H42.868c0-.868.028-1.652.028-2.016.7-.084,1.064-.336,1.064-.644,0-.588-2.184-.672-2.688-.672a.324.324,0,0,0-.364.392,27.506,27.506,0,0,1,.14,2.94H35.532c-.364,0-.616.14-.616.56,0,.448.252.56.616.56h4.592a15.315,15.315,0,0,1-5.292,6.076c-.616.5-.14,1.176.616.812a13.551,13.551,0,0,0,5.628-4.676c-.028,1.288-.112,5.4-.112,5.88a.665.665,0,0,0,.7.756c.784,0,1.2-.2,1.2-.812L42.84,45.78Zm3.472,4.732a1.1,1.1,0,0,0,.98-1.344c-.168-1.12-1.54-1.736-2.94-2.044-.756-.14-.98.448-.56.924a15.639,15.639,0,0,1,1.092,1.288C45.36,47.74,45.7,48.356,46.34,48.244ZM52,36.9c.056-2.016.056-3.948,0-5.936A36.045,36.045,0,0,0,58.828,29.6c1.036.532,1.6.2,1.26-.42A6.189,6.189,0,0,0,58.8,27.692c-.56-.476-.7-.476-1.344-.112a22.875,22.875,0,0,1-5.1,2.128A6.874,6.874,0,0,0,50.12,28.7c-.364-.056-.532.084-.476.5a80.875,80.875,0,0,1,.392,8.428c0,7.028-1.456,10.08-4.872,13.5-.644.644-.028,1.232.644.784,5.488-3.584,6.048-9.128,6.16-13.468v-.42h3.024v6.16c0,3.976-.084,6.384-.084,7.364,0,.532.2.84.756.84.9,0,1.316-.42,1.316-1.008,0-.868-.084-3.3-.084-7.2v-5.46q1.008-.168,1.008-.672v-.028h1.484c.616,0,1.232-.2,1.2-.616a4.139,4.139,0,0,0-2.156-2.3c-.364,0-1.064.924-1.624,1.792ZM78.652,34.5a29.034,29.034,0,0,0,6.524-1.064c.868-.252,1.4-.672,1.4-1.148,0-.7-1.2-1.064-1.96-1.064-.924,0-2.856,1.372-6.076,1.372a5.974,5.974,0,0,1-2.464-.644c-.5-.2-.784.168-.532.672A3.557,3.557,0,0,0,78.652,34.5Zm10.892,1.9c-.7,0-2.24.336-4.816.784C82.46,37.576,75.6,38.7,74,38.7a5.118,5.118,0,0,1-2.324-.9c-.448-.224-.784.056-.728.476.168,1.232,1.4,2.6,2.38,2.6,1.12,0,4.284-.84,7.14-1.372.644.616.728.9.672,1.456-.252,2.38-3.052,6.216-6.356,8.54-.9.644-.252,1.54.672,1.092a15.662,15.662,0,0,0,7.7-8.372,4.782,4.782,0,0,0,.5-1.512c0-.448-.364-1.008-1.316-1.512a62.388,62.388,0,0,1,6.5-.56c.9,0,1.68.028,2.3.028.672,0,1.064-.252,1.064-.728C92.2,37.016,90.748,36.4,89.544,36.4Zm29.68-3.472c-.644,0-1.232.588-1.96.7a15.115,15.115,0,0,1-4.592.28,6.663,6.663,0,0,0,.084-1.008c0-1.064-2.3-2.184-3.36-2.184-.532,0-.868.2-.868.476,0,.252.2.448.728.98.924.924,1.036,1.12.924,2.6-.224,2.94-2.016,6.328-4.172,9.744-.476.756.308,1.344,1.008.672a23.812,23.812,0,0,0,5.4-9.884,2.231,2.231,0,0,0,1.288.644c.924,0,2.912-.756,4.452-.98.364-.056.5.056.42.5A20.714,20.714,0,0,1,108.64,49c-1.036.56-.588,1.512.476,1.092,6.44-2.576,9.716-8.148,11.564-13.356.336-.952,1.12-1.232,1.12-1.848C121.8,34.328,120.2,32.928,119.224,32.928Zm32.06-1.092c-.56-.14-1.344-.168-1.652.224-.252.336.252.7.7,1.092.84.728.784,1.008.5,1.876a18.077,18.077,0,0,1-3.052,5.292,33.837,33.837,0,0,1-9.6,7.98c-.9.5-.56,1.428.476,1.036a27.352,27.352,0,0,0,10.612-7.616,25.185,25.185,0,0,0,3.64-5.8,6.935,6.935,0,0,0,.868-2.184C153.776,33.18,152.684,32.2,151.284,31.836Zm25.48,12.124c-.056-1.652-.14-3.892-.28-5.88a5.608,5.608,0,0,0-.168-1.092,3.175,3.175,0,0,0,1.26.42c1.288,0,4.816-.728,7.532-.868.56-.028.784.224.756.644a24.839,24.839,0,0,1-1.316,6.1C182.56,43.428,178.836,43.764,176.764,43.96Zm.056,1.624c1.54-.112,4.76-.28,6.664-.28,1.512,0,2.3.084,2.828.084.56,0,.98-.28.98-.868a1.274,1.274,0,0,0-.84-1.036c.644-1.68,1.12-3.36,1.428-4.4.392-1.372,1.064-1.652,1.064-2.38,0-.9-1.764-2.24-2.828-2.24-.56,0-.784.42-1.624.532a72.708,72.708,0,0,1-9.128.728c-.084-.056-.2-.14-.28-.2a6.033,6.033,0,0,0-2.128-.924c-.644-.14-.9.336-.532.784a6.3,6.3,0,0,1,1.96,3.528c.28,1.568.14,5.208.364,6.8.2,1.316.728,1.68,1.26,1.68.644,0,.84-.56.812-1.54Zm28.728-8.036c1.316,1.148,2.6,2.24,3.276,2.968.812.868,1.456,1.12,2.044.672s.56-1.54-.28-2.38A7.752,7.752,0,0,0,206,36.736C205.408,36.652,205.156,37.212,205.548,37.548Zm4-4.564a23.252,23.252,0,0,1,3,2.8c.9,1.036,1.54,1.2,2.044.868.672-.448.784-1.54-.056-2.464a7.946,7.946,0,0,0-4.564-2.072C209.356,32.032,209.048,32.592,209.552,32.984Zm-2.884,12.992c-.392-.224-.7,0-.672.5.084,1.54,2.072,3.08,3.388,3.08a6.315,6.315,0,0,0,2.436-1.008c4.872-2.772,9.968-7.42,12.432-11.564a.606.606,0,0,0-1.008-.672c-3,3.752-7.952,8.344-12.992,10.556a2.253,2.253,0,0,1-2.072-.028C207.788,46.648,207.06,46.2,206.668,45.976ZM221.816,28.7c-.532,0-.728.476-.28.812a14.2,14.2,0,0,1,2.072,1.736c.532.588.812.812,1.232.812a.9.9,0,0,0,.924-.98C225.764,29.652,223.608,28.728,221.816,28.7ZM219.6,31.024a.423.423,0,0,0-.336.756c.56.532,1.2,1.12,1.68,1.68.644.756.84,1.232,1.484,1.232a.933.933,0,0,0,.952-.98C223.384,32.4,221.424,31.164,219.6,31.024Zm18.284,8.008c-.448-.28-.784-.084-.784.392,0,1.316,1.372,3.052,2.576,3.052A22.921,22.921,0,0,0,242.788,42c1.316-.224,7.224-.924,9.408-.924,2.1,0,2.632.14,3.668.14.868,0,1.148-.364,1.148-.784,0-1.2-1.764-1.848-2.912-1.848-1.12,0-1.764.28-4.144.588-1.932.252-8.176.9-9.66.9A4.6,4.6,0,0,1,237.888,39.032Zm44.324-3.248C280.9,39.536,276.864,45,274.176,45c-.812,0-1.568-1.316-1.708-3.472a7.408,7.408,0,0,1,2.212-6.16,8.058,8.058,0,0,1,5.684-2.072,12.421,12.421,0,0,1,2.352.224A8.742,8.742,0,0,1,282.212,35.784Zm-1.764-3.892a10.668,10.668,0,0,0-6.86,2.492,9.131,9.131,0,0,0-2.94,7.784c.252,3.3,1.708,5.348,3.192,5.348,3.36,0,8.036-5.572,9.66-10.052a13.5,13.5,0,0,0,.784-3.444,6.9,6.9,0,0,1,4.34,6.664c0,4.592-3.136,6.636-7.98,7.588-.868.168-.812,1.036.168,1.036,5.768,0,10.08-2.772,10.08-8.148C290.892,36.12,287.14,31.892,280.448,31.892Zm33.8-2.1c.952,0,1.372-.2,1.372-.56-.028-.588-1.792-2.072-2.268-2.072-.364,0-.98.784-1.484,1.512H302.6c-.364,0-.616.14-.616.56,0,.448.252.56.616.56Zm-8.512,5.656V35c0-.392,0-1.484.028-1.932l.42-.084h5.46l-.028,2.464Zm.532-3.584a7.42,7.42,0,0,0-2.212-1.036.328.328,0,0,0-.448.364,52.7,52.7,0,0,1,.112,6.16.668.668,0,0,0,.756.756c.812,0,1.288-.252,1.288-.84v-.7h5.824v.308c0,.448.168.952.812.952.756,0,1.148-.2,1.148-1.064,0-.644-.028-2.464,0-3.584.476-.168.924-.392.924-.756,0-.616-1.568-1.792-2.128-1.792-.308,0-.868.672-1.26,1.232Zm5.908,14.756c.532,0,.98-.112.98-.5a3.471,3.471,0,0,0-1.764-1.9c-.28,0-.784.644-1.2,1.288h-5.012c-.364,0-.616.14-.616.56,0,.448.252.56.616.56h2.38v1.568c0,.924-.056,1.988-.056,2.688,0,.532.14.84.672.84.812,0,1.148-.42,1.148-1.008s-.028-1.708-.028-2.52v-.644c.672-.084.98-.308.98-.616a.355.355,0,0,0-.2-.308Zm1.148-6.776v2.24c-.168.168-.308.392-1.372.392-.9,0-1.036-.028-1.064-.448,0-.14,0-.9.028-1.12.588-.056.868-.252.868-.5,0-.28-.532-.448-1.064-.56Zm-8.708-1.12a6.054,6.054,0,0,0-2.156-.868.316.316,0,0,0-.392.336c.308,3.052.112,11.116.084,13.468,0,.5.252.784.728.784.812,0,1.2-.308,1.2-.924l-.028-6.3c0-.812.028-4.2.084-5.292l.42-.084h1.68a.46.46,0,0,0-.056.28,8.286,8.286,0,0,1-.448,2.492A4.615,4.615,0,0,1,304.5,44.38c-.616.392-.2.952.308.728a4.207,4.207,0,0,0,2.38-2.072A6.267,6.267,0,0,0,307.8,41.1c.672-.028.98-.2.98-.532,0-.308-.476-.56-1.064-.728h1.54a.871.871,0,0,0-.028.308c.028.448.056,1.988.056,2.492,0,1.176.42,1.316,2.66,1.316a9.731,9.731,0,0,0,1.372-.084v.28c0,1.568.028,3.64-.056,4.816-.056.672-.252.924-.84.924-.336,0-.868-.028-1.232-.056-.532-.028-.672.644-.112.868,1.316.532.672,1.512,1.764,1.512a2.165,2.165,0,0,0,2.212-2.352c.056-3.248,0-7.168.056-9.492.476-.2.868-.448.868-.756,0-.476-1.512-1.792-2.156-1.792-.2,0-.616.448-.98.9Zm13.72,3.108V38.864c0-.7,0-3.36.056-4.284h1.9c.028,2.3.028,4.872.028,7.252Zm5.908-7.252c0,1.6-.028,5.124-.056,7.252h-2.1V34.58Zm-2.156,8.372h2.1v.532c0,.448.168.952.812.952.728,0,1.148-.2,1.148-1.064,0-1.064-.084-6.5-.028-8.568.476-.168.924-.42.924-.784,0-.616-1.568-1.792-2.1-1.792-.336,0-.868.672-1.26,1.232h-1.6V29.12c.868-.168,1.456-.392,1.456-.98,0-.7-2.6-.784-3.08-.784-.252,0-.42.14-.392.392.112.9.2,3.052.224,5.712h-1.26a6.648,6.648,0,0,0-2.324-1.148.325.325,0,0,0-.42.364c.308,2.632.112,9.52.084,11.4a.688.688,0,0,0,.756.784c.812,0,1.2-.28,1.2-.9V42.952h1.988c-.028,2.464-.056,4.676-.084,6.1-1.232.112-2.576.168-3.976.2-.224,0-.336.084-.336.336.084,1.512.42,2.632,1.008,2.688.448.056.728-.532.9-1.176a43.9,43.9,0,0,0,7.112-1.428c.056.42.112.84.168,1.148.14.56.336.9.868.98a1.129,1.129,0,0,0,1.316-1.008c.168-.98-.364-3.08-2.744-4.76-.5-.364-.924.084-.756.476a13.8,13.8,0,0,1,.868,1.988c-.784.14-1.624.252-2.576.364Zm20.8,6.132V47.152c0-.56,0-2.856.056-3.612l.14-.028h10.08c0,1.26-.028,3.752-.028,5.572Zm.728-6.692a6.769,6.769,0,0,0-2.52-1.036.335.335,0,0,0-.392.364c.28,2.576.112,7.98.112,9.884a.709.709,0,0,0,.784.784c.84,0,1.316-.28,1.316-.9V50.2h10.192v.952a.862.862,0,0,0,.9.952c.812,0,1.316-.2,1.316-1.064-.028-1.064-.112-5.068-.028-7.168.5-.224.98-.476.98-.84,0-.616-1.736-1.876-2.324-1.876-.336,0-.9.644-1.344,1.232Zm8.68-3.472c.868,0,1.456-.252,1.456-.644,0-.7-1.932-2.408-2.492-2.408-.448,0-1.2,1.036-1.792,1.932h-6.636c-.364,0-.616.14-.616.56,0,.448.252.56.616.56Zm8.372-2.436A17.566,17.566,0,0,1,349.1,28.728c.616-.056.84-.168.84-.42,0-.476-1.4-1.008-2.464-1.2a.51.51,0,0,0-.644.308c-2.492,5.292-6.356,9.1-11.452,12.46-.672.42-.224,1.232.476.9A31.177,31.177,0,0,0,348.4,29.68a18.013,18.013,0,0,0,9.912,9.044c.728.224.952.056,1.316-.5a2.269,2.269,0,0,1,1.176-.84C361.368,37.156,361.564,36.652,360.668,36.484Z" transform="translate(-0.672 23.404)" fill="#fff"/>
</svg>
