<svg xmlns="http://www.w3.org/2000/svg" xmlns:xlink="http://www.w3.org/1999/xlink" width="296.745" height="60.223" viewBox="0 0 296.745 60.223">
  <defs>
    <clipPath id="clip-path">
      <rect id="長方形_13" data-name="長方形 13" width="296.745" height="60.223" transform="translate(279.281 1183.382)" fill="#fff" stroke="#707070" stroke-width="1"/>
    </clipPath>
  </defs>
  <g id="section-brand_authentic" transform="translate(-279.281 -1183.382)" clip-path="url(#clip-path)">
    <g id="レイヤー_2" data-name="レイヤー 2" transform="translate(279.281 1183.381)">
      <g id="design" transform="translate(0 0)">
        <path id="パス_97" data-name="パス 97" d="M8.7,14.27v5.338a32.236,32.236,0,0,0,.142,3.927A1.925,1.925,0,0,0,9.6,24.913a4.3,4.3,0,0,0,2.33.448h.8v.864H1.132v-.864h.656a4.3,4.3,0,0,0,2.264-.416,1.914,1.914,0,0,0,.8-1.28,29.535,29.535,0,0,0,.219-4.058V7.148a28.036,28.036,0,0,0-.164-3.916,1.706,1.706,0,0,0-.755-1.225,6.038,6.038,0,0,0-2.5-.328H1.132V.815L4.316.706C6.864.618,8.855.574,10.277.574a22.774,22.774,0,0,1,6.06.613,7.143,7.143,0,0,1,3.489,2.188,5.83,5.83,0,0,1,1.356,3.971,7.143,7.143,0,0,1-.93,3.675,6.005,6.005,0,0,1-2.658,2.45,15.8,15.8,0,0,1-6.1.82Zm0-.941H10.54a11.639,11.639,0,0,0,3.544-.438,4.244,4.244,0,0,0,2.253-1.849,6.355,6.355,0,0,0,.9-3.468,6.082,6.082,0,0,0-1.553-4.616c-1.028-.984-2.7-1.466-5.01-1.466a15.6,15.6,0,0,0-1.947.066Z" transform="translate(-0.695 -0.339)" fill="#1e1e1e"/>
        <path id="パス_98" data-name="パス 98" d="M92.652,16.68H83.026L82.37,18.3A16.408,16.408,0,0,0,80.9,22.871a2.057,2.057,0,0,0,.809,1.728,3.282,3.282,0,0,0,2,.591v.864H76.124V25.19A4.08,4.08,0,0,0,78.64,24a14.56,14.56,0,0,0,1.98-3.905c.066-.186.361-.908.908-2.188L88.911.283h.722l8.488,20.182,1.17,2.68a3.522,3.522,0,0,0,1.094,1.411,3.96,3.96,0,0,0,2,.645v.864H92.357V25.2a7.329,7.329,0,0,0,2.483-.284,1.094,1.094,0,0,0,.645-1.094,10.807,10.807,0,0,0-.864-2.461Zm-.317-.842-4.5-10.829L83.354,15.838Z" transform="translate(-46.709 -0.168)" fill="#1e1e1e"/>
        <path id="パス_99" data-name="パス 99" d="M197.636,26.044h-6.848c-1.2-.853-3.063-3.074-5.557-6.673-.8-1.094-1.63-2.253-2.494-3.282a12.656,12.656,0,0,0-1.783-1.936,2.669,2.669,0,0,0-1.52-.35h-1.006v5.644a32.239,32.239,0,0,0,.142,3.927,1.958,1.958,0,0,0,.744,1.378,4.244,4.244,0,0,0,2.33.448h1.225v.864H170.7V25.2h.82a4.375,4.375,0,0,0,2.264-.416,1.914,1.914,0,0,0,.8-1.28,29.535,29.535,0,0,0,.164-4.08V6.967a28.032,28.032,0,0,0-.164-3.916,1.739,1.739,0,0,0-.755-1.225,6.06,6.06,0,0,0-2.516-.328h-.427V.633l3.632-.186c2.417-.12,4.354-.175,5.776-.175a21.407,21.407,0,0,1,5.918.678,7.843,7.843,0,0,1,3.675,2.188,5.262,5.262,0,0,1,1.411,3.7,5.688,5.688,0,0,1-1.838,4.266,9.21,9.21,0,0,1-5.4,2.188c1.094.514,2.778,2.363,5.141,5.546a25.967,25.967,0,0,0,4.529,5.086,6.848,6.848,0,0,0,3.905,1.269ZM178.428,12.917c.93,0,1.9-.066,2.9-.12a10.753,10.753,0,0,0,2.6-.4,4.55,4.55,0,0,0,1.794-.984,4.441,4.441,0,0,0,1.094-1.7,7.427,7.427,0,0,0,.394-2.592,6.476,6.476,0,0,0-1.345-4.288c-.908-1.061-2.844-1.575-5.852-1.575a12.028,12.028,0,0,0-1.586.077Z" transform="translate(-104.745 -0.157)" fill="#1e1e1e"/>
        <path id="パス_100" data-name="パス 100" d="M268,2.081V1.217h11.617v.864h-.547a6.137,6.137,0,0,0-2.45.306,1.619,1.619,0,0,0-.777,1.094,23.969,23.969,0,0,0-.2,4.015V20.01a35.772,35.772,0,0,0,.131,3.927,2,2,0,0,0,.755,1.378,4.244,4.244,0,0,0,2.33.448h.755v.864H268v-.864h.744a4.376,4.376,0,0,0,2.264-.416,1.86,1.86,0,0,0,.788-1.28,27.135,27.135,0,0,0,.175-4.058V7.551a25.781,25.781,0,0,0-.175-3.916,1.7,1.7,0,0,0-.744-1.225,6.093,6.093,0,0,0-2.516-.328Z" transform="translate(-164.447 -0.741)" fill="#1e1e1e"/>
        <path id="パス_101" data-name="パス 101" d="M333.653,25.609V17.493h.93q1.6,8,7.559,7.985a5.469,5.469,0,0,0,4.146-1.531,4.791,4.791,0,0,0,1.477-3.413,4.375,4.375,0,0,0-1.3-3.205,15.927,15.927,0,0,0-4.715-2.746,33.908,33.908,0,0,1-4.66-2.341,7.066,7.066,0,0,1-2.428-2.56,6.826,6.826,0,0,1-.853-3.358A6.016,6.016,0,0,1,335.688,1.8a6.563,6.563,0,0,1,4.8-1.8,8.652,8.652,0,0,1,3.03.525A7.777,7.777,0,0,1,346.451,2.7a4.081,4.081,0,0,0,.974-2.188h.82v6.6h-.82A8.937,8.937,0,0,0,344.9,2.54a5.951,5.951,0,0,0-4.19-1.663A4.168,4.168,0,0,0,337.427,2.1a4.058,4.058,0,0,0-1.094,2.691,3.872,3.872,0,0,0,1.324,2.975,18.4,18.4,0,0,0,4.747,2.778,47.207,47.207,0,0,1,4.769,2.352,6.694,6.694,0,0,1,2.385,2.461,7.187,7.187,0,0,1,.9,3.632,6.946,6.946,0,0,1-2.188,5.305,8.138,8.138,0,0,1-5.808,2.046,8.882,8.882,0,0,1-6.979-3.205,6.466,6.466,0,0,0-.919,2.472Z" transform="translate(-204.73 0.015)" fill="#1e1e1e"/>
        <path id="パス_102" data-name="パス 102" d="M472.778,22.241l9.254-21.024h7.8v.864h-.941a6.136,6.136,0,0,0-2.483.306,1.652,1.652,0,0,0-.777,1.094,23.965,23.965,0,0,0-.2,4.014V20.01a29.334,29.334,0,0,0,.153,3.927,2,2,0,0,0,.755,1.378,4.244,4.244,0,0,0,2.33.448h1.094v.864H477.657v-.864h.9a4.255,4.255,0,0,0,2.242-.416,1.925,1.925,0,0,0,.809-1.28,28.817,28.817,0,0,0,.175-4.058V3.843L471.717,26.628h-.886L460.723,3.843V18.719a28.36,28.36,0,0,0,.2,4.157,3.183,3.183,0,0,0,1.159,1.936,4.605,4.605,0,0,0,2.735.941v.864h-9.035v-.864a4.693,4.693,0,0,0,2.647-.886,3.15,3.15,0,0,0,1.247-1.958,26.4,26.4,0,0,0,.23-4.31V7.551a25.781,25.781,0,0,0-.175-3.916,1.739,1.739,0,0,0-.755-1.225,5.994,5.994,0,0,0-2.5-.328h-.689V1.217h7.657Z" transform="translate(-279.666 -0.741)" fill="#1e1e1e"/>
        <path id="パス_103" data-name="パス 103" d="M573.206,2.081V1.217h11.617v.864h-.547a6.137,6.137,0,0,0-2.45.306,1.652,1.652,0,0,0-.777,1.094,23.949,23.949,0,0,0-.2,4.014V20.01a32.245,32.245,0,0,0,.142,3.927,1.958,1.958,0,0,0,.744,1.378,4.288,4.288,0,0,0,2.341.448h.744v.864H573.206v-.864h.744a4.3,4.3,0,0,0,2.264-.416,1.914,1.914,0,0,0,.8-1.28,29.53,29.53,0,0,0,.164-4.058V7.551a28.021,28.021,0,0,0-.12-3.916A1.706,1.706,0,0,0,576.3,2.41a6.038,6.038,0,0,0-2.5-.328Z" transform="translate(-351.72 -0.741)" fill="#1e1e1e"/>
        <path id="パス_104" data-name="パス 104" d="M641.127,14.147l7.755-6.99c1.8-1.608,2.7-2.767,2.7-3.446,0-1.039-.9-1.586-2.7-1.63V1.217h9.582v.864a6.421,6.421,0,0,0-2.374.5A9,9,0,0,0,653.9,3.854c-.667.525-1.892,1.63-3.7,3.282L645.579,11.4l9.517,9.615a34.761,34.761,0,0,0,4.375,4.014,5.382,5.382,0,0,0,2.877.689v.864h-13.2V25.72h.514a6.049,6.049,0,0,0,2.658-.35,1.094,1.094,0,0,0,.525-.886c0-.525-.908-1.7-2.724-3.5l-7.176-7.241-1.816,1.6v4.627a31.433,31.433,0,0,0,.153,3.927,2,2,0,0,0,.755,1.378,4.266,4.266,0,0,0,2.341.448h.481v.864H633.448V25.72h.788a4.277,4.277,0,0,0,2.253-.416,1.925,1.925,0,0,0,.809-1.28,27.139,27.139,0,0,0,.175-4.058V7.551a24.145,24.145,0,0,0-.2-4.014,1.63,1.63,0,0,0-.777-1.16,7.493,7.493,0,0,0-2.713-.3V1.217h11.234v.864h-.459a6.2,6.2,0,0,0-2.461.306,1.652,1.652,0,0,0-.777,1.094,23.956,23.956,0,0,0-.2,4.014Z" transform="translate(-388.684 -0.741)" fill="#1e1e1e"/>
        <path id="パス_105" data-name="パス 105" d="M735.645,2.081V1.217h11.617v.864h-.525a6.137,6.137,0,0,0-2.45.306,1.619,1.619,0,0,0-.777,1.094,23.962,23.962,0,0,0-.2,4.014V20.01a35.768,35.768,0,0,0,.142,3.927,2,2,0,0,0,.755,1.378,4.244,4.244,0,0,0,2.33.448h.755v.864h-11.65v-.864h.744a4.277,4.277,0,0,0,2.253-.416,1.837,1.837,0,0,0,.8-1.28,27.139,27.139,0,0,0,.175-4.058V7.551a25.785,25.785,0,0,0-.175-3.916A1.7,1.7,0,0,0,738.7,2.41a6.093,6.093,0,0,0-2.516-.328Z" transform="translate(-451.392 -0.741)" fill="#1e1e1e"/>
        <rect id="長方形_51" data-name="長方形 51" width="31.864" height="0.394" transform="translate(0.022 43.957)" fill="#1e1e1e"/>
        <rect id="長方形_52" data-name="長方形 52" width="31.864" height="0.394" transform="translate(0 41.551)" fill="#1e1e1e"/>
        <rect id="長方形_53" data-name="長方形 53" width="31.864" height="0.394" transform="translate(264.88 43.936)" fill="#1e1e1e"/>
        <rect id="長方形_54" data-name="長方形 54" width="31.864" height="0.394" transform="translate(264.847 41.529)" fill="#1e1e1e"/>
        <path id="パス_106" data-name="パス 106" d="M123.235,80.926c-1.411,1.586-2.767,3.216-4.058,4.868a48.568,48.568,0,0,0-3.413,4.89,30.464,30.464,0,0,0-2.352,4.649,11.245,11.245,0,0,0-.875,4.146,1.6,1.6,0,0,0,.252,1.028.831.831,0,0,0,.667.306,4.146,4.146,0,0,0,2.122-.919,18.158,18.158,0,0,0,2.669-2.275l.984-1.006.941-1.094c.317-.361.591-.7.842-1.017l.634-.777.219.142-1.433,1.881a27.149,27.149,0,0,1-2.188,2.374,19.69,19.69,0,0,1-2.833,2.352,5.043,5.043,0,0,1-2.844.941,2.614,2.614,0,0,1-1.16-.219,1.849,1.849,0,0,1-.722-.591,2.516,2.516,0,0,1-.383-.853,4.147,4.147,0,0,1-.109-1,9.681,9.681,0,0,1,.558-3.282,22.085,22.085,0,0,1,1.313-2.975H108.15q-1.149,1.335-2.56,2.855a28.3,28.3,0,0,1-3.03,2.811,18.224,18.224,0,0,1-3.413,2.188,8.532,8.532,0,0,1-3.719.853,7.033,7.033,0,0,1-1.608-.219,4.627,4.627,0,0,1-1.378-.6,3.019,3.019,0,0,1-.984-1.017A2.8,2.8,0,0,1,91.1,97.9a2.571,2.571,0,0,1,.448-1.466,1.5,1.5,0,0,1,1.345-.667,1.389,1.389,0,0,1,.952.339,1.094,1.094,0,0,1,.383.853,1.258,1.258,0,0,1-.448,1.094,1.925,1.925,0,0,1-1.17.328,1.991,1.991,0,0,0,.284,1.094,2.4,2.4,0,0,0,.7.777,3.041,3.041,0,0,0,.941.47,3.282,3.282,0,0,0,1.094.175,7.394,7.394,0,0,0,2.472-.427,13.378,13.378,0,0,0,2.4-1.159,16.812,16.812,0,0,0,2.253-1.663c.733-.624,1.433-1.28,2.1-1.936s1.3-1.335,1.9-2.013,1.094-1.291,1.641-1.849q1.542-1.717,3.205-3.391a41.219,41.219,0,0,1,3.479-3.161,30.268,30.268,0,0,1,3.818-2.669,18.836,18.836,0,0,1,4.2-1.838Zm-11,11.311a38.984,38.984,0,0,1,3.544-5.207,42.31,42.31,0,0,1,4.375-4.638l-.055-.055a28.441,28.441,0,0,0-6.082,4.277,70.478,70.478,0,0,0-5.469,5.622Z" transform="translate(-55.896 -49.57)" fill="#1e1e1e" stroke="#fff" stroke-miterlimit="10" stroke-width="0.283"/>
        <path id="パス_107" data-name="パス 107" d="M173.775,107.887c-.722,1.2-1.4,2.275-2.024,3.282s-1.16,1.717-1.586,2.45a20.225,20.225,0,0,0-1.094,1.9,3.391,3.391,0,0,0-.372,1.411c0,.4.175.613.525.613a1.761,1.761,0,0,0,.809-.241,7.854,7.854,0,0,0,1.006-.6,12.351,12.351,0,0,0,1.094-.875c.372-.339.733-.667,1.094-1.006s.82-.853,1.214-1.291.777-.853,1.094-1.258l.93-1.094c.284-.339.514-.624.7-.864l.219.164c-.438.591-1.006,1.3-1.7,2.122s-1.433,1.63-2.188,2.428a17.71,17.71,0,0,1-2.636,2.188,4.222,4.222,0,0,1-2.374.8,1.827,1.827,0,0,1-1.335-.492,1.7,1.7,0,0,1-.5-1.247,4.07,4.07,0,0,1,.1-.941,2.4,2.4,0,0,1,.23-.645l-.1-.033-1.094,1.094a12.034,12.034,0,0,1-1.258,1.094,7.275,7.275,0,0,1-1.444.831,4.178,4.178,0,0,1-1.663.328,1.6,1.6,0,0,1-1.313-.536,1.925,1.925,0,0,1-.448-1.258,6.913,6.913,0,0,1,1.094-3.052q1.149-2,3.1-5.185l3.03-.088c-1.466,2.188-2.669,4.08-3.588,5.469a7.023,7.023,0,0,0-1.378,3.205.82.82,0,0,0,.175.547.591.591,0,0,0,.492.23,2.614,2.614,0,0,0,1.269-.448,9.232,9.232,0,0,0,1.553-1.192,18.975,18.975,0,0,0,1.608-1.717,18.334,18.334,0,0,0,1.433-2.024l2.407-3.883Z" transform="translate(-97.97 -66.193)" fill="#1e1e1e" stroke="#fff" stroke-miterlimit="10" stroke-width="0.283"/>
        <path id="パス_108" data-name="パス 108" d="M197.5,102.923l.2-.492h2.188l2.067-3.522,3.019-.109-2.319,3.61h3.544l-.252.492h-3.6l-2.188,3.457q-.875,1.4-1.378,2.33a13.663,13.663,0,0,0-.755,1.488,2.384,2.384,0,0,0-.241.963.831.831,0,0,0,.2.58.7.7,0,0,0,.558.23,3.883,3.883,0,0,0,1.849-.711,14.744,14.744,0,0,0,2.461-1.958c.591-.591,1.247-1.28,1.947-2.078s1.378-1.6,1.991-2.407l.164.131c-.427.558-.963,1.236-1.619,2.024a30.52,30.52,0,0,1-2.188,2.363,17.064,17.064,0,0,1-1.324,1.2,11.277,11.277,0,0,1-1.389,1,6.969,6.969,0,0,1-1.367.689,3.8,3.8,0,0,1-1.313.241,3.052,3.052,0,0,1-1.477-.4,1.5,1.5,0,0,1-.667-1.4,3.938,3.938,0,0,1,.306-1.488,12.786,12.786,0,0,1,.853-1.674c.361-.613.788-1.291,1.269-2.035s1.006-1.586,1.564-2.549Z" transform="translate(-120.019 -60.618)" fill="#1e1e1e" stroke="#fff" stroke-miterlimit="10" stroke-width="0.283"/>
        <path id="パス_109" data-name="パス 109" d="M211.074,102.808l11.715-19.165,3.041-.131-9.276,14.527h.055c.416-.481.875-1.039,1.389-1.674a17.391,17.391,0,0,1,1.674-1.8,11.046,11.046,0,0,1,1.914-1.433,4.168,4.168,0,0,1,2.1-.58,1.969,1.969,0,0,1,1.389.459,1.761,1.761,0,0,1,.514,1.367,3.467,3.467,0,0,1-.623,1.761c-.4.678-.853,1.367-1.335,2.067s-.93,1.378-1.345,2.024a3.282,3.282,0,0,0-.613,1.641c0,.438.2.667.58.667a2.188,2.188,0,0,0,1.094-.4,10.83,10.83,0,0,0,1.378-1.094,17,17,0,0,0,1.488-1.335c.514-.536,1.006-1.094,1.477-1.6s.9-1.017,1.28-1.477.656-.831.864-1.094l.164.175c-.481.623-1.094,1.345-1.75,2.188a22.129,22.129,0,0,1-2.188,2.363,14.919,14.919,0,0,1-2.571,2.188,4.1,4.1,0,0,1-2.188.656,1.728,1.728,0,0,1-1.466-.58,2.078,2.078,0,0,1-.47-1.324,3.621,3.621,0,0,1,.624-1.958A22.421,22.421,0,0,1,221.4,97.3l1.345-1.783a2.571,2.571,0,0,0,.613-1.444.8.8,0,0,0-.219-.591.711.711,0,0,0-.5-.208,2.6,2.6,0,0,0-1.389.514,11.661,11.661,0,0,0-1.619,1.335,20.313,20.313,0,0,0-1.706,1.849c-.569.7-1.094,1.389-1.619,2.089s-.974,1.356-1.367,2-.722,1.2-.963,1.663Z" transform="translate(-129.515 -51.237)" fill="#1e1e1e" stroke="#fff" stroke-miterlimit="10" stroke-width="0.283"/>
        <path id="パス_110" data-name="パス 110" d="M266.584,109.971c-.58.777-1.2,1.542-1.86,2.3a30.064,30.064,0,0,1-2.363,2.385,11.869,11.869,0,0,1-3.708,2.428,9.637,9.637,0,0,1-3.282.656,3.205,3.205,0,0,1-3.435-3.446,4.912,4.912,0,0,1,.755-2.68,9.725,9.725,0,0,1,2.035-2.319,11.136,11.136,0,0,1,2.68-1.63,7.121,7.121,0,0,1,2.778-.634,3.281,3.281,0,0,1,1.87.459,1.477,1.477,0,0,1,.678,1.291,1.849,1.849,0,0,1-.459,1.214A4.966,4.966,0,0,1,261.082,111a9.845,9.845,0,0,1-1.63.777c-.613.219-1.214.416-1.8.58s-1.159.306-1.685.416l-1.28.273a3.971,3.971,0,0,0-.142,1.006,2.855,2.855,0,0,0,.678,1.936,2.385,2.385,0,0,0,1.881.755,6,6,0,0,0,2.582-.7,11.879,11.879,0,0,0,2.833-2.024,30.077,30.077,0,0,0,2.1-2.188c.667-.744,1.258-1.444,1.761-2.089Zm-6.071-1.892a.645.645,0,0,0-.208-.547.864.864,0,0,0-.547-.175,2.647,2.647,0,0,0-1.51.591,8.749,8.749,0,0,0-1.52,1.477,13.13,13.13,0,0,0-1.258,1.783,6.147,6.147,0,0,0-.711,1.619,8.751,8.751,0,0,0,2.188-.733,9.593,9.593,0,0,0,1.838-1.17,6.18,6.18,0,0,0,1.269-1.378A2.614,2.614,0,0,0,260.513,108.079Z" transform="translate(-154.583 -65.664)" fill="#1e1e1e" stroke="#fff" stroke-miterlimit="10" stroke-width="0.283"/>
        <path id="パス_111" data-name="パス 111" d="M280.751,112.467c.252-.328.634-.809,1.094-1.411a17.237,17.237,0,0,1,1.7-1.8,12.677,12.677,0,0,1,2.035-1.553,4.1,4.1,0,0,1,2.188-.667,1.816,1.816,0,0,1,1.4.514,1.783,1.783,0,0,1,.481,1.258,3.7,3.7,0,0,1-.6,1.925c-.4.667-.842,1.324-1.335,1.98s-.93,1.28-1.324,1.881a3.041,3.041,0,0,0-.6,1.674.853.853,0,0,0,.164.547.711.711,0,0,0,.558.208,2.9,2.9,0,0,0,1.3-.6,15.97,15.97,0,0,0,2.45-2.188c.8-.853,1.531-1.685,2.188-2.483l1.5-1.816.284.131c-.481.58-1.094,1.291-1.783,2.188a30.53,30.53,0,0,1-2.264,2.516,13.8,13.8,0,0,1-2.483,2.188,3.883,3.883,0,0,1-2.1.634,1.969,1.969,0,0,1-1.575-.58,1.991,1.991,0,0,1-.492-1.324,3.817,3.817,0,0,1,.591-1.947c.4-.667.853-1.313,1.335-1.958s.919-1.236,1.324-1.816a2.713,2.713,0,0,0,.6-1.5.656.656,0,0,0-.2-.492.788.788,0,0,0-.58-.2,2.516,2.516,0,0,0-1.324.514,12.226,12.226,0,0,0-1.564,1.258,24.06,24.06,0,0,0-1.706,1.849c-.58.7-1.094,1.389-1.641,2.089a22.858,22.858,0,0,0-1.378,2c-.4.645-.733,1.2-.974,1.663l-2.822.088q1.477-2.439,2.975-4.835t2.943-4.922l3.194-.12-3.643,5.054Z" transform="translate(-168.859 -65.665)" fill="#1e1e1e" stroke="#fff" stroke-miterlimit="10" stroke-width="0.283"/>
        <path id="パス_112" data-name="パス 112" d="M316.623,102.923l.2-.492h2.188l2.089-3.522,3.019-.109-2.319,3.61h3.555l-.252.492h-3.61c-.831,1.367-1.542,2.527-2.122,3.457a24.563,24.563,0,0,0-1.378,2.33,13.649,13.649,0,0,0-.755,1.488,2.386,2.386,0,0,0-.241.963.832.832,0,0,0,.2.58.7.7,0,0,0,.558.23,3.85,3.85,0,0,0,1.838-.711,14.744,14.744,0,0,0,2.461-1.958c.6-.591,1.247-1.28,1.958-2.078s1.367-1.6,1.991-2.407l.164.131c-.427.558-.974,1.236-1.619,2.024a27.052,27.052,0,0,1-2.188,2.363c-.427.427-.875.831-1.324,1.2a11.282,11.282,0,0,1-1.389,1,7.286,7.286,0,0,1-1.367.689,3.8,3.8,0,0,1-1.313.241,3.019,3.019,0,0,1-1.564-.394,1.5,1.5,0,0,1-.667-1.4,3.937,3.937,0,0,1,.306-1.488,11.406,11.406,0,0,1,.842-1.674c.372-.613.788-1.291,1.28-2.035s1.006-1.586,1.564-2.549Z" transform="translate(-193.114 -60.618)" fill="#1e1e1e" stroke="#fff" stroke-miterlimit="10" stroke-width="0.283"/>
        <path id="パス_113" data-name="パス 113" d="M342.452,98.418c-.875,1.367-1.63,2.538-2.264,3.5s-1.149,1.8-1.553,2.483a17.8,17.8,0,0,0-.886,1.685,2.7,2.7,0,0,0-.3,1.094,1.094,1.094,0,0,0,.12.547.427.427,0,0,0,.383.208,3.391,3.391,0,0,0,1.575-.645,15.029,15.029,0,0,0,2.56-2.188l1.2-1.258c.394-.416.755-.82,1.094-1.214l.919-1.094.656-.744.252.164q-.328.448-.82,1.017c-.328.372-.678.777-1.094,1.181a15.835,15.835,0,0,0-1.094,1.236l-1.094,1.17a13.237,13.237,0,0,1-2.778,2.242,4.485,4.485,0,0,1-2.133.634,1.98,1.98,0,0,1-1.433-.492,1.794,1.794,0,0,1-.5-1.3,3.489,3.489,0,0,1,.219-1.16,8.687,8.687,0,0,1,.711-1.477c.328-.591.777-1.324,1.335-2.188l2.1-3.282Zm1.619-6.158a1.346,1.346,0,0,1,.941.383,1.225,1.225,0,0,1,.4.919,1.444,1.444,0,0,1-.449,1.017,1.4,1.4,0,0,1-1.006.448,1.739,1.739,0,0,1-1.094-.317,1.094,1.094,0,0,1-.416-.908,1.367,1.367,0,0,1,.492-1.094,1.663,1.663,0,0,1,1.094-.448Z" transform="translate(-205.718 -56.605)" fill="#1e1e1e" stroke="#fff" stroke-miterlimit="10" stroke-width="0.283"/>
        <path id="パス_114" data-name="パス 114" d="M369.8,110.082q-1.028,1.247-2.188,2.592a20.96,20.96,0,0,1-2.582,2.45,14.221,14.221,0,0,1-2.964,1.838,7.974,7.974,0,0,1-3.347.722,3.478,3.478,0,0,1-2.571-.908,3.621,3.621,0,0,1-.886-2.647,4.889,4.889,0,0,1,.777-2.6A8.991,8.991,0,0,1,358,109.251a10.763,10.763,0,0,1,2.713-1.608,7.559,7.559,0,0,1,2.877-.613,3.632,3.632,0,0,1,2.046.514,1.52,1.52,0,0,1,.755,1.258,2.552,2.552,0,0,1-.733,1.717,2.384,2.384,0,0,1-.755.438,2.286,2.286,0,0,1-.842.153,2.9,2.9,0,0,1-.645,0c.131-.427.273-.853.427-1.3a4.376,4.376,0,0,0,.219-1.335,1.2,1.2,0,0,0-.219-.744.766.766,0,0,0-.624-.284,3.347,3.347,0,0,0-1.652.569,7.656,7.656,0,0,0-1.728,1.531,9.374,9.374,0,0,0-1.367,2.188,6.224,6.224,0,0,0-.558,2.571,2.571,2.571,0,0,0,.634,1.685,2.188,2.188,0,0,0,1.783.744,5.469,5.469,0,0,0,2.724-.755,14.615,14.615,0,0,0,2.6-1.8,23.63,23.63,0,0,0,2.188-2.188c.678-.766,1.247-1.433,1.706-1.98Z" transform="translate(-217.986 -65.666)" fill="#1e1e1e" stroke="#fff" stroke-miterlimit="10" stroke-width="0.283"/>
        <path id="パス_115" data-name="パス 115" d="M419.945,88.289a3.621,3.621,0,0,0,1.28.219,4.08,4.08,0,0,0,2.789-.908,3.533,3.533,0,0,0,1.017-2.757,2.822,2.822,0,0,0-.7-2.035,2.691,2.691,0,0,0-2.046-.733,3.391,3.391,0,0,0-1.466.317,3.609,3.609,0,0,0-1.094.853,4.375,4.375,0,0,0-.766,1.214,5.469,5.469,0,0,0-.4,1.411c-.12.656-.219,1.214-.328,1.7a4.626,4.626,0,0,1-.47,1.291,3.731,3.731,0,0,1-.886,1.028,8.019,8.019,0,0,1-1.531.93,18.821,18.821,0,0,0-2.046,1.094,6.651,6.651,0,0,0-1.564,1.247,5.2,5.2,0,0,0-1.006,1.685,6.771,6.771,0,0,0-.361,2.352,4.015,4.015,0,0,0,.459,1.958,4.474,4.474,0,0,0,1.214,1.422,5.108,5.108,0,0,0,1.717.875,6.826,6.826,0,0,0,2,.3,6.705,6.705,0,0,0,2.067-.317,5.469,5.469,0,0,0,1.739-.941,4.5,4.5,0,0,0,1.192-1.542,4.572,4.572,0,0,0,.448-2.078,2.592,2.592,0,0,0-.6-1.816,2.188,2.188,0,0,0-1.772-.667,3.413,3.413,0,0,0-1.86.525,7.384,7.384,0,0,0-1.52,1.236l-.2-.142a7.875,7.875,0,0,1,2.067-1.608,5.721,5.721,0,0,1,2.592-.558,4.474,4.474,0,0,1,1.4.208,3.4,3.4,0,0,1,1.094.613,2.767,2.767,0,0,1,.766,1A3.117,3.117,0,0,1,423.456,97a3.282,3.282,0,0,1-1.006,2.439,7.975,7.975,0,0,1-2.472,1.63,13.979,13.979,0,0,1-3.1.886,17.929,17.929,0,0,1-2.844.263,11.39,11.39,0,0,1-2.331-.241,6.683,6.683,0,0,1-2.187-.787,4.748,4.748,0,0,1-1.553-1.466,4.179,4.179,0,0,1-.6-2.308,4.233,4.233,0,0,1,.558-2.264,5.754,5.754,0,0,1,1.422-1.531,11.116,11.116,0,0,1,1.838-1.094c.667-.306,1.28-.634,1.86-.963a6.8,6.8,0,0,0,1.455-1.094,2.33,2.33,0,0,0,.645-1.52,9.44,9.44,0,0,1,.711-3.369,5.874,5.874,0,0,1,1.575-2.188,6.1,6.1,0,0,1,2.264-1.2,9.56,9.56,0,0,1,2.713-.372,9.736,9.736,0,0,1,1.564.131,4.835,4.835,0,0,1,1.466.5,3.194,3.194,0,0,1,1.094.974,2.647,2.647,0,0,1,.416,1.52,3.281,3.281,0,0,1-.459,1.739,4.233,4.233,0,0,1-1.192,1.225,5.119,5.119,0,0,1-1.619.755,6.76,6.76,0,0,1-1.794.252,6.562,6.562,0,0,1-1.039-.077,5.577,5.577,0,0,1-1.028-.23Z" transform="translate(-249.958 -50.195)" fill="#1e1e1e" stroke="#fff" stroke-miterlimit="10" stroke-width="0.283"/>
        <path id="パス_116" data-name="パス 116" d="M431.6,119.969h-.514a2.188,2.188,0,0,0-1.849.853,3.4,3.4,0,0,0-.667,2.111,2.964,2.964,0,0,0,.919,2.308,3.282,3.282,0,0,0,2.188.831,6.126,6.126,0,0,0,2.691-.6,9.56,9.56,0,0,0,2.341-1.575,16.406,16.406,0,0,0,2.056-2.253,31.181,31.181,0,0,0,1.783-2.592c.558-.886,1.094-1.75,1.553-2.6s.93-1.619,1.345-2.308H443.4q-.427.5-1.094,1.181a12.518,12.518,0,0,1-1.313,1.214,9.91,9.91,0,0,1-1.652,1.094,3.818,3.818,0,0,1-1.761.438,1.575,1.575,0,0,1-1.324-.525,1.958,1.958,0,0,1-.4-1.247,3.959,3.959,0,0,1,.394-1.575,21.868,21.868,0,0,1,.984-1.958c.4-.711.853-1.466,1.356-2.264s1.006-1.608,1.51-2.461l2.964-.12q-2.341,3.643-3.664,5.743a7.176,7.176,0,0,0-1.313,3,.755.755,0,0,0,.219.547.711.711,0,0,0,.514.208,2.56,2.56,0,0,0,1.28-.514,10.939,10.939,0,0,0,1.663-1.378,21.7,21.7,0,0,0,1.783-1.98,25.228,25.228,0,0,0,1.619-2.319c.4-.667.766-1.269,1.094-1.827a12.694,12.694,0,0,0,.7-1.356l2.746-.12c-1.006,1.728-1.991,3.435-2.921,5.152s-1.925,3.4-2.953,5.086a10.632,10.632,0,0,0,2.658-1.2,18.594,18.594,0,0,0,2.527-1.9,24.92,24.92,0,0,0,2.264-2.3c.7-.82,1.324-1.608,1.881-2.385l.23.186a27.849,27.849,0,0,1-2.1,2.647,22.35,22.35,0,0,1-2.417,2.363,18.66,18.66,0,0,1-2.614,1.849,10.3,10.3,0,0,1-2.68,1.094,21.033,21.033,0,0,1-2.264,3.139,15.642,15.642,0,0,1-2.778,2.549,13.324,13.324,0,0,1-3.282,1.652,11.759,11.759,0,0,1-3.774.591,9.658,9.658,0,0,1-1.958-.186,4.988,4.988,0,0,1-1.674-.6,3.424,3.424,0,0,1-1.17-1.094,3.216,3.216,0,0,1-.448-1.739,2.756,2.756,0,0,1,.35-1.411,2.833,2.833,0,0,1,.919-.952,4.167,4.167,0,0,1,1.313-.558,6.454,6.454,0,0,1,1.531-.186h.678a3.445,3.445,0,0,1,.58.088Z" transform="translate(-261.529 -66.211)" fill="#1e1e1e" stroke="#fff" stroke-miterlimit="10" stroke-width="0.283"/>
        <path id="パス_117" data-name="パス 117" d="M502.716,109.971c-.58.777-1.2,1.542-1.86,2.3a30.055,30.055,0,0,1-2.33,2.385,11.868,11.868,0,0,1-3.741,2.428,9.637,9.637,0,0,1-3.336.656,3.205,3.205,0,0,1-3.435-3.391,4.911,4.911,0,0,1,.809-2.636,9.724,9.724,0,0,1,2.046-2.374,11.137,11.137,0,0,1,2.7-1.674,7.122,7.122,0,0,1,2.778-.634,3.282,3.282,0,0,1,1.87.459,1.477,1.477,0,0,1,.678,1.291,1.849,1.849,0,0,1-.459,1.214A4.966,4.966,0,0,1,497.246,111a9.516,9.516,0,0,1-1.641.777c-.6.219-1.2.416-1.794.58s-1.16.306-1.685.416l-1.28.273a3.97,3.97,0,0,0-.142,1.006,2.855,2.855,0,0,0,.667,1.936,2.385,2.385,0,0,0,1.881.755,5.994,5.994,0,0,0,2.582-.7,11.88,11.88,0,0,0,2.833-2.024,26.628,26.628,0,0,0,2.1-2.188c.678-.788,1.258-1.444,1.761-2.089Zm-6.071-1.892a.645.645,0,0,0-.208-.547.864.864,0,0,0-.547-.175,2.647,2.647,0,0,0-1.51.591,8.752,8.752,0,0,0-1.52,1.422,13.129,13.129,0,0,0-1.258,1.783,6.149,6.149,0,0,0-.711,1.619,8.751,8.751,0,0,0,2.188-.733,9.593,9.593,0,0,0,1.838-1.17,6.181,6.181,0,0,0,1.269-1.378,2.614,2.614,0,0,0,.459-1.411Z" transform="translate(-299.442 -65.664)" fill="#1e1e1e" stroke="#fff" stroke-miterlimit="10" stroke-width="0.283"/>
        <path id="パス_118" data-name="パス 118" d="M522.907,107.358c-.339.5-.777,1.094-1.313,1.827s-1.094,1.455-1.586,2.188a24.138,24.138,0,0,0-1.335,2.286,4.518,4.518,0,0,0-.58,2.013,1.521,1.521,0,0,0,.208.8.777.777,0,0,0,.722.339,3.282,3.282,0,0,0,2.188-1.094,19.068,19.068,0,0,0,2.571-3.369l.93-1.531q.47-.744.853-1.378c.263-.427.5-.809.711-1.16l.525-.809,2.986-.12c-.317.5-.744,1.094-1.28,1.881s-1.094,1.531-1.608,2.341a20,20,0,0,0-1.411,2.4,4.758,4.758,0,0,0-.547,2.024,1.444,1.444,0,0,0,.252.864.93.93,0,0,0,.788.328,3.063,3.063,0,0,0,1.455-.394,6.477,6.477,0,0,0,1.389-1.006,8.938,8.938,0,0,0,1.258-1.433,12.387,12.387,0,0,0,1.094-1.63,11.735,11.735,0,0,0,.722-1.641,4.89,4.89,0,0,0,.306-1.444,2.867,2.867,0,0,1-.284-.547,1.773,1.773,0,0,1-.131-.7,1.477,1.477,0,0,1,.306-.952,1.094,1.094,0,0,1,.952-.4,1.323,1.323,0,0,1,.766.208,1.51,1.51,0,0,1,.459.525,2.187,2.187,0,0,1,.23.722,5.993,5.993,0,0,1,0,1.531,2.2,2.2,0,0,1-.1.809,3.041,3.041,0,0,0,1.958.755,2.713,2.713,0,0,0,1.663-.525,6.3,6.3,0,0,0,1.247-1.225l.2.142a6.135,6.135,0,0,1-1.356,1.356,3,3,0,0,1-2.866.372,3.424,3.424,0,0,1-.9-.514,8.455,8.455,0,0,1-1.269,2.5,9.551,9.551,0,0,1-1.98,2,9.222,9.222,0,0,1-2.527,1.389,7.832,7.832,0,0,1-2.735.481,2.888,2.888,0,0,1-2.188-.744,2.68,2.68,0,0,1-.7-1.914,3.288,3.288,0,0,1,0-.47,1.379,1.379,0,0,1,.077-.361v-.055a13.573,13.573,0,0,1-.984,1.3,7.722,7.722,0,0,1-1.181,1.094,5.469,5.469,0,0,1-1.356.809,4.1,4.1,0,0,1-1.564.3,1.75,1.75,0,0,1-1.542-.678,2.7,2.7,0,0,1-.492-1.641,4.868,4.868,0,0,1,.459-1.936,17.387,17.387,0,0,1,1.094-2.078c.427-.689.875-1.356,1.345-2.013s.853-1.2,1.17-1.685Z" transform="translate(-316.559 -65.665)" fill="#1e1e1e" stroke="#fff" stroke-miterlimit="10" stroke-width="0.283"/>
        <path id="パス_119" data-name="パス 119" d="M583.11,110.058c-.58.777-1.192,1.542-1.86,2.3a28.068,28.068,0,0,1-2.352,2.385,12.034,12.034,0,0,1-3.675,2.428,9.637,9.637,0,0,1-3.336.656,3.216,3.216,0,0,1-3.446-3.391,5.01,5.01,0,0,1,.81-2.636,9.781,9.781,0,0,1,2.046-2.319A10.937,10.937,0,0,1,574,107.8a7.121,7.121,0,0,1,2.778-.634,3.282,3.282,0,0,1,1.871.459,1.466,1.466,0,0,1,.667,1.291,1.849,1.849,0,0,1-.459,1.214,4.693,4.693,0,0,1-1.181,1.006,10.363,10.363,0,0,1-1.641.777c-.6.219-1.2.416-1.8.58s-1.149.306-1.674.416l-1.291.273a4.466,4.466,0,0,0-.131,1.006,2.8,2.8,0,0,0,.667,1.936,2.374,2.374,0,0,0,1.871.755,5.951,5.951,0,0,0,2.582-.7,11.934,11.934,0,0,0,2.844-2.024,26.522,26.522,0,0,0,2.089-2.188c.667-.788,1.258-1.444,1.761-2.089Zm-6.06-1.892a.689.689,0,0,0-.208-.547.887.887,0,0,0-.547-.175,2.592,2.592,0,0,0-1.51.591,8.387,8.387,0,0,0-1.521,1.422,12.256,12.256,0,0,0-1.258,1.783,6.226,6.226,0,0,0-.722,1.619,8.882,8.882,0,0,0,2.188-.733,9.178,9.178,0,0,0,1.827-1.17,5.94,5.94,0,0,0,1.269-1.378,2.625,2.625,0,0,0,.481-1.411Z" transform="translate(-348.793 -65.751)" fill="#1e1e1e" stroke="#fff" stroke-miterlimit="10" stroke-width="0.283"/>
        <path id="パス_120" data-name="パス 120" d="M608.931,107.922l2.91-.164a11.163,11.163,0,0,1-.722,1.2l-1.039,1.52c-.372.547-.755,1.094-1.094,1.7s-.733,1.149-1.094,1.7a11.65,11.65,0,0,0-.766,1.52,3.281,3.281,0,0,0-.3,1.2.613.613,0,0,0,.7.7,3.676,3.676,0,0,0,1.816-.777,16.69,16.69,0,0,0,2.407-2.056c.35-.35.711-.722,1.094-1.094l1.094-1.2.919-1.094c.284-.339.5-.613.667-.842l.2.109c-.481.656-1.039,1.367-1.674,2.188a30.241,30.241,0,0,1-2.3,2.5,16.3,16.3,0,0,1-2.636,2.188,4.682,4.682,0,0,1-2.581.853,1.958,1.958,0,0,1-1.389-.459,1.477,1.477,0,0,1-.492-1.094,2.562,2.562,0,0,1,0-.416.929.929,0,0,1,.088-.306h-.066a8.434,8.434,0,0,1-1.947,1.641,4.507,4.507,0,0,1-2.352.667,2.472,2.472,0,0,1-1.094-.252,2.089,2.089,0,0,1-.766-.678,3.148,3.148,0,0,1-.438-.974,4.751,4.751,0,0,1-.131-1.094,5.569,5.569,0,0,1,.755-2.713,10.274,10.274,0,0,1,1.892-2.45,10.064,10.064,0,0,1,2.56-1.783,6.279,6.279,0,0,1,2.7-.678,2.549,2.549,0,0,1,1.531.416,2.953,2.953,0,0,1,.919,1.3Zm-8.379,7.1a3.435,3.435,0,0,0,.263,1.4,1.094,1.094,0,0,0,1.094.6,2.34,2.34,0,0,0,1.225-.492,7.524,7.524,0,0,0,1.247-1.149,14.861,14.861,0,0,0,1.149-1.542,13.129,13.129,0,0,0,.941-1.706,11.056,11.056,0,0,0,.645-1.619,4.37,4.37,0,0,0,.241-1.291,2.034,2.034,0,0,0-.284-1.16,1.2,1.2,0,0,0-1.094-.427,2.494,2.494,0,0,0-1.3.394,5.71,5.71,0,0,0-1.258,1.028,11.628,11.628,0,0,0-1.149,1.422,10.56,10.56,0,0,0-.93,1.63,11.826,11.826,0,0,0-.624,1.586A5.1,5.1,0,0,0,600.552,115.022Z" transform="translate(-366.901 -65.945)" fill="#1e1e1e" stroke="#fff" stroke-miterlimit="10" stroke-width="0.283"/>
        <path id="パス_121" data-name="パス 121" d="M629.485,117.382q1.422-2.439,2.9-4.846c.973-1.619,1.947-3.282,2.921-4.911l3.183-.12-3.686,5.163.055.055a23.1,23.1,0,0,1,1.892-2.056c.547-.525,1.028-.963,1.444-1.291a10.156,10.156,0,0,1,1.028-.766,3.02,3.02,0,0,0,.613-.459,4.964,4.964,0,0,1,.58-.481,2.035,2.035,0,0,1,.623-.273,4.618,4.618,0,0,1,.886-.131h1.3a17.859,17.859,0,0,0-.984,1.564,3.664,3.664,0,0,0-.448,1.761,1.094,1.094,0,0,0,1.2,1.192,1.849,1.849,0,0,0,.766-.164,3.983,3.983,0,0,0,.722-.416,7.473,7.473,0,0,0,.635-.536l.558-.547.12.142a6.75,6.75,0,0,1-1.86,1.5,4.583,4.583,0,0,1-2.319.6,2.549,2.549,0,0,1-1.761-.58,2.188,2.188,0,0,1-.645-1.717,2.374,2.374,0,0,1,.427-1.356l-.066-.066a17.157,17.157,0,0,0-2.188,1.8,22.854,22.854,0,0,0-1.969,2.188,28.6,28.6,0,0,0-1.674,2.341c-.514.809-.974,1.586-1.389,2.341Z" transform="translate(-386.252 -65.811)" fill="#1e1e1e" stroke="#fff" stroke-miterlimit="10" stroke-width="0.283"/>
      </g>
    </g>
  </g>
</svg>
