<svg xmlns="http://www.w3.org/2000/svg" width="245.835" height="61.125" viewBox="0 0 245.835 61.125">
  <g id="section-sabae-plant_create3" transform="translate(0.001 0.016)">
    <g id="レイヤー_1" data-name="レイヤー 1" transform="translate(-0.001 -0.017)">
      <g id="グループ_4" data-name="グループ 4">
        <g id="Create3" transform="translate(0 9.2)" style="isolation: isolate">
          <g id="グループ_23" data-name="グループ 23" style="isolation: isolate">
            <path id="パス_49" data-name="パス 49" d="M11.6,53.013a22.885,22.885,0,0,1-8.572-9.138A27.029,27.029,0,0,1,0,31.159,29.758,29.758,0,0,1,2.871,18.322a24.259,24.259,0,0,1,8.45-9.946A23.228,23.228,0,0,1,24.766,4.555a23.188,23.188,0,0,1,6.065.91A26.483,26.483,0,0,1,36.9,8.012h0L36.632,5.04h5.438v16.6H37.562Q35.682,9.912,25.7,9.75a12.13,12.13,0,0,0-8.086,2.79,16.921,16.921,0,0,0-4.872,7.3,29.354,29.354,0,0,0-1.617,9.886A30.89,30.89,0,0,0,12.878,40.54a16.4,16.4,0,0,0,5.094,7.379,12.352,12.352,0,0,0,7.985,2.648,18.619,18.619,0,0,0,8.9-2.325,21.894,21.894,0,0,0,7.318-6.388l3.4,3.113A25.614,25.614,0,0,1,35.3,53.983,27.211,27.211,0,0,1,24.26,56.349,24,24,0,0,1,11.6,53.013Z" transform="translate(0.001 -4.523)" fill="#fff"/>
            <path id="パス_50" data-name="パス 50" d="M23.485,43.454c1.8,0,2.931-.485,3.437-1.476a11.645,11.645,0,0,0,.728-4.811V25.28c0-2.123.1-4.043.283-6.065L23,19.478V14.1a33.074,33.074,0,0,0,7.217-.647,8.733,8.733,0,0,0,3.7-1.476h3.437a27.307,27.307,0,0,1,.2,2.749q0,1.7,0,3.336H37.7q4.832-6.53,10.108-6.51a6.55,6.55,0,0,1,4.427,1.476,5.5,5.5,0,0,1,1.739,4.387,5.378,5.378,0,0,1-1.213,3.4,4.245,4.245,0,0,1-3.477,1.557,5.559,5.559,0,0,1-3.154-.91,4.043,4.043,0,0,1-1.6-3.194,5.762,5.762,0,0,0-4.043,2.3,12.635,12.635,0,0,0-2.81,4.569V36.722a46.4,46.4,0,0,1-.263,6.227c1.5-.142,3.032-.2,4.589-.2v5.378H23.485Z" transform="translate(23.499 2.63)" fill="#fff"/>
            <path id="パス_51" data-name="パス 51" d="M46.712,46.858a15.829,15.829,0,0,1-6.166-6.55A21.348,21.348,0,0,1,38.363,30.4a20.216,20.216,0,0,1,2.224-9.3,18.2,18.2,0,0,1,6.267-6.975,17.912,17.912,0,0,1,20.621,1.415q4.589,4.043,4.488,13.444l-23.208.485a17.77,17.77,0,0,0,2.386,9.845,8.41,8.41,0,0,0,7.6,3.6,12.9,12.9,0,0,0,5.3-1.274A13.848,13.848,0,0,0,69.132,37.6l3.194,2.972a19.023,19.023,0,0,1-16.5,8.653,17.81,17.81,0,0,1-9.118-2.365ZM62.2,24.621c-.142-5.317-2.022-7.985-5.8-7.985A6.065,6.065,0,0,0,51.564,18.8a11.624,11.624,0,0,0-2.386,5.822Z" transform="translate(39.188 2.602)" fill="#fff"/>
            <path id="パス_52" data-name="パス 52" d="M58.69,46.525A9.34,9.34,0,0,1,56.1,39.752a10.25,10.25,0,0,1,5.863-9.441,31.436,31.436,0,0,1,13.949-3.578V23.054c0-4.286-1.6-6.429-4.811-6.429a6.894,6.894,0,0,0-5.094,2.022,4.043,4.043,0,0,1,.849,2.689,4.427,4.427,0,0,1-1.173,3.032,4.857,4.857,0,0,1-6.752-.02,5.034,5.034,0,0,1-1.213-3.437,7,7,0,0,1,2.022-4.892,12.938,12.938,0,0,1,5.418-3.275A23.046,23.046,0,0,1,72.7,11.571q13.1,0,13.08,13.5v11.6a43.114,43.114,0,0,1-.283,6.227c1.557-.142,3.093-.2,4.589-.2v5.378H76.561c0-.606-.182-1.7-.283-3.255h0a14.151,14.151,0,0,1-10.472,4.387A9.38,9.38,0,0,1,58.69,46.525Zm17.083-6.833V31.767a16.031,16.031,0,0,0-6.894,2.123,5.2,5.2,0,0,0-2.729,4.589,3.4,3.4,0,0,0,1.173,2.83,4.448,4.448,0,0,0,2.871.93,7.44,7.44,0,0,0,5.58-2.547Z" transform="translate(57.312 2.653)" fill="#fff"/>
            <path id="パス_53" data-name="パス 53" d="M77.47,39.561l.142-17.083H72.8V16.616A7.3,7.3,0,0,0,77.086,15.2,13.626,13.626,0,0,0,80.5,11.723,13.444,13.444,0,0,0,82.524,7.68H87.76v8.855h8.976v5.539L87.76,22.3V39.7q0,6.853,4.245,6.853c2.264,0,4.427-1.415,6.449-4.245l3.4,3.194A16.5,16.5,0,0,1,95.2,51.772a17.123,17.123,0,0,1-6.51,1.375Q77.47,53.146,77.47,39.561Z" transform="translate(74.375 -1.32)" fill="#fff"/>
            <path id="パス_54" data-name="パス 54" d="M95,46.858a15.769,15.769,0,0,1-6.065-6.55,21.368,21.368,0,0,1-2.2-9.906,20.034,20.034,0,0,1,2.244-9.3,17.932,17.932,0,0,1,6.247-6.975,17.952,17.952,0,0,1,20.641,1.415q4.549,4.043,4.488,13.444l-23.208.425a17.77,17.77,0,0,0,2.264,9.906,8.43,8.43,0,0,0,7.6,3.6,12.979,12.979,0,0,0,5.317-1.274,14.151,14.151,0,0,0,5.094-4.043l3.174,2.972A19,19,0,0,1,104.118,49.2,17.891,17.891,0,0,1,95,46.858ZM110.507,24.62q-.2-8.086-5.8-8.086A6.065,6.065,0,0,0,99.853,18.7a11.806,11.806,0,0,0-2.365,5.923Z" transform="translate(88.604 2.603)" fill="#fff"/>
            <path id="パス_55" data-name="パス 55" d="M111.474,54.844a12.251,12.251,0,0,1-5.175-3.9,8.41,8.41,0,0,1-1.7-4.993A5.559,5.559,0,0,1,106,42.128a4.549,4.549,0,0,1,3.558-1.557,4.043,4.043,0,0,1,3.376,1.415,4.993,4.993,0,0,1,1.092,3.113,5.722,5.722,0,0,1-.283,1.678,4.589,4.589,0,0,1-.849,1.577,5.034,5.034,0,0,0,2.507,2.022,9.542,9.542,0,0,0,3.861.768,8.511,8.511,0,0,0,6.651-2.567,9.7,9.7,0,0,0,2.345-6.712,11.483,11.483,0,0,0-2.426-7.359,9.6,9.6,0,0,0-8.086-2.972,26.185,26.185,0,0,0-3.679.222V26.642h2.022a10.108,10.108,0,0,0,7.278-2.507,8.713,8.713,0,0,0,2.628-6.611,9.663,9.663,0,0,0-1.6-5.9,5.8,5.8,0,0,0-4.832-2.1,6.873,6.873,0,0,0-3.4.89,5.317,5.317,0,0,0-2.183,2.022,4.468,4.468,0,0,1,.849,1.7,6.854,6.854,0,0,1,.283,1.759,4.832,4.832,0,0,1-1.173,3.053,4.043,4.043,0,0,1-3.437,1.476,4.2,4.2,0,0,1-3.417-1.435,5.438,5.438,0,0,1-1.253-3.659,8.733,8.733,0,0,1,1.6-4.751A13.322,13.322,0,0,1,112.526,6.3a17.1,17.1,0,0,1,8.086-1.739A19.468,19.468,0,0,1,132.054,7.5,10.8,10.8,0,0,1,136.32,17a9.987,9.987,0,0,1-1.092,4.326,11.968,11.968,0,0,1-3.457,4.043,14.8,14.8,0,0,1-6.065,2.648h0a17.548,17.548,0,0,1,9.886,4.791,11.827,11.827,0,0,1,3.356,8.309A13.06,13.06,0,0,1,133.712,52.4a22.238,22.238,0,0,1-13.727,4.043,21.126,21.126,0,0,1-8.511-1.6Z" transform="translate(106.862 -4.534)" fill="#fff"/>
          </g>
        </g>
        <g id="ESTD.1905" transform="translate(53.595)" style="isolation: isolate">
          <g id="グループ_24" data-name="グループ 24" style="isolation: isolate">
            <path id="パス_56" data-name="パス 56" d="M26.51.1h9.077V2.344H29.179V5.538H34.7v2.2H29.158V11h6.429v2.264H26.51Z" transform="translate(-26.51 0.136)" fill="#fff"/>
            <path id="パス_57" data-name="パス 57" d="M31.77,9.676h2.749a2.648,2.648,0,0,0,2.85,1.86c1.476,0,2.709-.526,2.709-1.658s-.97-1.5-2.264-1.779L35.49,7.634a3.558,3.558,0,0,1-3.255-3.578c0-2.466,2.244-4.043,5.175-4.043a4.913,4.913,0,0,1,5.337,4.043h-2.77c-.182-1.395-1.213-1.9-2.608-1.9S35,2.823,35,3.773s.4,1.213,1.84,1.536l2.284.465c3.3.606,3.679,2.669,3.679,4.043,0,2.022-2.183,3.76-5.438,3.76C34.722,13.558,32.053,12.325,31.77,9.676Z" transform="translate(-21.136 0.021)" fill="#fff"/>
            <path id="パス_58" data-name="パス 58" d="M37.581.1H48.113V2.465H44.232v10.8H41.563V2.465H37.52Z" transform="translate(-15.262 0.136)" fill="#fff"/>
            <path id="パス_59" data-name="パス 59" d="M47.3.12c4.791.121,6.813,2.567,6.813,6.51s-2.2,6.631-6.914,6.631H43.36V.1Zm-1.274,11h1.233c2.244,0,4.043-1.213,4.043-4.508s-1.557-4.367-4.043-4.367H45.988Z" transform="translate(-9.296 0.136)" fill="#fff"/>
            <path id="パス_60" data-name="パス 60" d="M49.32,5.18h2.911V8.071H49.32Z" transform="translate(-3.207 5.325)" fill="#fff"/>
            <path id="パス_61" data-name="パス 61" d="M53.765,3.4H51.42V1.919c2.244,0,3.194-.687,3.194-1.819h1.759V13.261H53.765Z" transform="translate(-1.061 0.136)" fill="#fff"/>
            <path id="パス_62" data-name="パス 62" d="M55,9.7h2.527a2.022,2.022,0,0,0,2.143,1.7c1.88,0,3.214-1.233,2.992-4.387a3.356,3.356,0,0,1-3.093,1.6A4.043,4.043,0,0,1,55,4.464,4.468,4.468,0,0,1,60.015.017c3.356,0,5.4,2.507,5.4,6.469,0,4.69-2.022,6.995-5.539,6.995A4.407,4.407,0,0,1,55,9.7Zm7.3-4.872c0-1.779-.91-2.83-2.284-2.83a2.163,2.163,0,0,0-2.163,2.325,2.022,2.022,0,0,0,2.163,2.183c1.193,0,2.365-.89,2.365-1.678Z" transform="translate(2.595 0.017)" fill="#fff"/>
            <path id="パス_63" data-name="パス 63" d="M70.778,6.813c0,4.346-1.88,6.692-5.054,6.692S60.65,11.18,60.65,6.833,62.591,0,65.724,0,70.778,2.426,70.778,6.813Zm-2.77,0c0-3.376-.728-4.71-2.284-4.71s-2.345,1.375-2.345,4.731.728,4.549,2.3,4.549,2.325-1.274,2.325-4.549Z" transform="translate(8.368 0.033)" fill="#fff"/>
            <path id="パス_64" data-name="パス 64" d="M76.015.1V2.283H69.667L69.4,5.457a5.357,5.357,0,0,1,2.83-.788,4.2,4.2,0,0,1,4.63,4.286c0,2.79-2.022,4.488-5.135,4.488A6.065,6.065,0,0,1,66.19,10.37l2.022-1.233a3.558,3.558,0,0,0,3.255,2.183,2.325,2.325,0,0,0,2.608-2.264,2.3,2.3,0,0,0-2.527-2.224,3.315,3.315,0,0,0-2.3.849.283.283,0,0,1-.344,0l-2.022-.89L67.565.1Z" transform="translate(14.028 0.136)" fill="#fff"/>
          </g>
        </g>
      </g>
    </g>
  </g>
</svg>
