<svg xmlns="http://www.w3.org/2000/svg" width="451.748" height="592.68" viewBox="0 0 451.748 592.68">
  <path id="section-middle_ttl_1" d="M27.1-22.352a2.366,2.366,0,0,0-2.244-2.2c-.264,0-.4.088-.4.22a.532.532,0,0,0,.264.4,1.809,1.809,0,0,1,.88,1.716,17.259,17.259,0,0,0-5.9,2.068c.22-1.936.572-3.74.88-5.5,2.376-.66,8.624-2.684,8.624-4.136,0-.484-.572-.88-1.32-.88a2.238,2.238,0,0,0-.88.176c-.528.22-1.232.924-1.892,1.232A36.1,36.1,0,0,1,20.9-27.5l.264-1.98a19.476,19.476,0,0,0,.352-2.464c0-1.76-1.98-2.816-2.948-2.816a1.755,1.755,0,0,0-1.584.968c0,.22.352.308.792.352,1.32.132,1.628.924,1.628,2.816,0,.528-.044,1.056-.264,3.652a13.711,13.711,0,0,1-2.6.352c-2.244,0-3.608-.968-5.588-2.2a1.036,1.036,0,0,0-.352-.088c-.088,0-.176,0-.176.132,0,.616.308,3.916,5.1,3.916a14.181,14.181,0,0,0,3.432-.4c-.22,1.716-.44,3.74-.66,5.808C13.024-16.016,7.172-9.02,7.172-5.016a2.68,2.68,0,0,0,2.772,2.9c2.376,0,5.5-2.244,8.272-5.016.044.264.4,2.464,1.408,2.464.616,0,1.144-.7,1.144-1.54a2.575,2.575,0,0,0-.088-.572,23.138,23.138,0,0,1-.66-2.332c2.86-3.256,6.6-8.668,7.084-11.924A8.554,8.554,0,0,1,35.816-12.5C35.816-6.16,29.3-.528,20.548,1.716c-1.584.4-2.508.836-2.508,1.056q0,.132.528.132s13.024-1.012,18.04-9.68a11.177,11.177,0,0,0,1.54-5.588c0-5.412-4.312-9.988-10.6-9.988ZM17.952-9.2c-1.892,2.024-5.236,4.8-7.216,4.8a1.453,1.453,0,0,1-1.5-1.584c0-2.9,3.3-8.008,8.932-12.056-.176,2.112-.308,4.224-.308,6.2A25.593,25.593,0,0,0,17.952-9.2Zm7.48-11.748a29.072,29.072,0,0,1-5.764,9.856,34.023,34.023,0,0,1-.264-4.224,30.915,30.915,0,0,1,.176-3.52A15.447,15.447,0,0,1,25.432-20.944ZM81.136-8.58c-.88-.044-3.7-.4-6.424-.4-8.316,0-8.448,4.444-8.448,5.06,0,2.64,2.64,6.16,8.624,6.16,3.96,0,4.752-.924,4.752-1.628A1.409,1.409,0,0,0,78.1-.572a3.028,3.028,0,0,0-.572.088,14.059,14.059,0,0,1-3.388.44c-4.664,0-6.336-2.772-6.336-4.092,0-.88,1.056-3.872,5.764-3.872,3.124,0,7.04,1.012,7.656,1.76.352.484.616.748,1.1.748.924,0,2.376-.836,2.376-3.036a4.922,4.922,0,0,0-.792-2.64,54.928,54.928,0,0,1-2.948-5.368c2.728-.968,5.148-2.244,5.148-3.344,0-.44-.484-.792-1.232-.792A11.638,11.638,0,0,1,82.1-21.736a5.1,5.1,0,0,0-1.5-.572c-.044,0-.088,0-.088.044,0,.088.264.4.836.792,1.1.792,1.364,1.364,1.364,1.76a.66.66,0,0,1-.264.528,8.475,8.475,0,0,1-2.2,1.1c-.792-1.628-1.54-3.256-2.332-5.016.792-.308,3.256-1.276,3.256-2.376,0-.22-.176-.836-.748-.836A4.644,4.644,0,0,0,78.32-25.3a5.556,5.556,0,0,1-1.144.616c-3.828-8.008-4.928-9.46-7.216-9.46-.352,0-2.068.264-2.068,1.056,0,.176.044.308.22.352.44.044,1.188-.132,2.772,1.452a30.8,30.8,0,0,1,5.148,7,5.862,5.862,0,0,1-2.024.352c-2.42,0-4.444-1.5-5.764-2.2a2.566,2.566,0,0,0-.792-.352c-.088,0-.176.044-.176.132,0,.132,1.232,4.048,6.732,4.048a9.57,9.57,0,0,0,2.816-.44c.836,1.672,1.584,3.388,2.288,5.06a20.29,20.29,0,0,1-6.468,1.144,8.976,8.976,0,0,1-6.424-2.508,1.37,1.37,0,0,0-.66-.4c-.132,0-.176.088-.176.264,0,0,.572,4.488,6.2,4.488A29.1,29.1,0,0,0,79.772-16.1c.748,1.8,1.5,3.564,2.332,5.236a3.3,3.3,0,0,1,.352,1.276c0,.616-.352,1.012-1.232,1.012ZM126.28-28.644c.572-.044,1.144-.132,1.716-.132,8.712.088,12.98,6.116,12.98,12.54,0,5.236-2.508,12.76-15,16.28-1.144.352-1.848.7-1.848.924,0,.088.22.176.616.176,3.08,0,18.612-3.564,18.612-17.16,0-7.128-4.972-14.036-14.916-14.036-11.792,0-17.6,10.56-17.6,17.2a6.79,6.79,0,0,0,1.012,3.96c1.892,2.64,2.508,5.368,4.532,5.368,3.432,0,11.572-9.108,11.572-19.58C127.952-25.872,127.38-28.028,126.28-28.644Zm-2.64.572a5.219,5.219,0,0,1,1.232-.22c.968,0,1.76.66,1.76,4.092,0,8.712-7.084,17.556-9.768,17.556-1.936,0-4.092-3.212-4.092-6.908C112.772-19.316,117.3-26.092,123.64-28.072ZM190.96-3.388c0-.616-.7-1.056-1.892-1.056a3.774,3.774,0,0,0-.968.088c-1.188.22-2.288.968-4.62,1.408a16.757,16.757,0,0,1-3.3.308c-5.1,0-10.208-2.068-10.208-5.06a3.507,3.507,0,0,1,.836-2.112,1.9,1.9,0,0,0,.4-.924c0-.176-.044-.264-.176-.264-.616,0-2.332,2.156-2.332,4.048,0,3.828,5.72,6.82,12.408,6.82C185.988-.132,190.96-1.716,190.96-3.388ZM179.564-26c.528,0,.748.088.748.308s-.308.572-.88,1.188c-1.584,1.672-2.376,2.728-2.376,2.992,0,.132.088.176.22.176a1.763,1.763,0,0,0,1.012-.44c2.068-1.584,5.5-3.7,7.92-3.784,1.188-.044,1.628-.484,1.628-.924,0-.66-1.012-1.716-3.344-1.716-.616,0-1.188.088-1.848.088-1.452,0-2.948.088-4.444.088a14.631,14.631,0,0,1-5.324-.792,6.57,6.57,0,0,0-1.364-.4c-.132,0-.22.044-.22.176,0,.308,1.8,2.816,6.072,2.948Zm64.724,6.336c.44.044.88.22,1.276.22.748,0,1.5-1.012,1.5-2.2,0-2.332-3.168-4.224-5.28-4.224-.308,0-.44.044-.44.176s.132.308.4.572c.132.132.7.572.968.88a1.8,1.8,0,0,1,.528,1.188c0,.968-1.056,1.936-2.684,2.9-3.256,1.98-4.224,4.224-4.224,7.788v.264c0,1.716.22,3.74.22,5.676a14.657,14.657,0,0,0-3.432-.4c-2.552,0-7.524.748-7.524,3.872,0,2.024,2.332,4.708,5.72,4.708a7.1,7.1,0,0,0,6.908-5.632A10.288,10.288,0,0,1,242.44-.088c.4.748.88,1.056,1.276,1.056.572,0,1.012-.616,1.012-1.452,0-1.98-3.124-4.268-6.424-5.412-.132-1.98-.484-5.764-.484-5.764-.088-.924-.132-1.716-.132-2.464,0-2.42.616-3.96,3.52-5.1a10.592,10.592,0,0,1,2.9-.44Zm-12.936-12.1c0-.264-.132-2.816-2.64-2.816a1.663,1.663,0,0,0-1.628,1.144c0,.308.4.4,1.1.4.484,0,1.276.044,1.276,2.9a19.359,19.359,0,0,1-.176,2.156,13.5,13.5,0,0,1-3.344.484,8.747,8.747,0,0,1-4.532-1.408c-.132-.088-.616-.484-.88-.484-.088,0-.132.088-.132.22,0,.176.836,3.74,5.456,3.74a12.151,12.151,0,0,0,2.948-.44c-.924,2.816-3.124,7.26-8.1,14.608a3.924,3.924,0,0,0-.836,1.936.731.731,0,0,0,.836.792,3.15,3.15,0,0,0,2.464-1.936c1.408-3.08,5.368-11.132,6.644-14.3.22-.528.4-1.056.572-1.584,3.476-1.276,4.664-2.948,4.664-3.74s-.088-.836-2.288-1.32Zm5.06,27.1a5.45,5.45,0,0,1-5.5,4.224c-1.892,0-4.092-.88-4.092-2.42,0-1.276,1.628-2.6,5.192-2.6A13.635,13.635,0,0,1,236.412-4.664Zm-5.06-26.708c1.628.66,1.848.836,1.848,1.1,0,.572-1.056,1.188-2.2,1.672A13.636,13.636,0,0,0,231.352-31.372ZM283.184-4.62a17.642,17.642,0,0,1-.176-1.848v-.484a50.777,50.777,0,0,1,.924-5.764,8.265,8.265,0,0,0,.176-1.232c0-.176,0-.264-.088-.264s-.264.308-.66,1.188c-.748,1.716-1.76,4.444-2.64,5.984a1.623,1.623,0,0,1-1.452.924c-.572,0-5.544-.968-5.544-9.24a25.9,25.9,0,0,1,.66-5.72,7.751,7.751,0,0,0,.176-1.5,3.522,3.522,0,0,0-2.552-3.7q-.264,0-.264.4c0,.088.044.176.044.308a11.908,11.908,0,0,1,.176,2.244c0,.4,0,.836-.044,1.276-.088,1.716-.22,3.432-.22,5.1,0,4.576.836,8.8,4.928,12.276a7.392,7.392,0,0,0,4.4,1.892c2.024,0,2.156-1.232,2.156-1.716Zm17.072-7.04c.7,0,1.452-.7,1.452-2.068,0-4.18-4.928-9.064-10.912-9.064-.528,0-.836.088-.836.22,0,.176.616.484,1.936.792a9.6,9.6,0,0,1,7.084,8.536C299.068-12.188,299.64-11.66,300.256-11.66ZM16.368,60.544c4.576-3.388,9.724-6.952,14.916-6.952,3.52,0,6.2,1.76,6.2,4.532,0,2.552-2.376,5.192-7.172,5.192a10.5,10.5,0,0,1-8.184-3.7,2.259,2.259,0,0,0-1.056-.836c-.044,0-.088.044-.088.132,0,.792,3.564,6.468,10.12,6.468,4.664,0,8.712-2.6,8.712-6.776,0-2.728-2.2-6.336-8.624-6.336-5.808,0-11.264,3.564-15.84,6.732-1.716-2.42-3.212-4.488-3.212-5.808,0-.7.7-1.98,2.9-1.98A29.1,29.1,0,0,1,21.12,52.36a8.881,8.881,0,0,0,2.156.4,2.2,2.2,0,0,0,2.156-2.244c0-1.892-2.728-3.432-3.432-3.432-.088,0-.132,0-.132.088,0,.044.088.176.176.4a4.3,4.3,0,0,1,.528,1.716c0,1.144-1.232,1.188-2.508,1.188s-3.124-.132-4.708-.132c-4.356,0-5.324,2.112-5.324,3.256a3.451,3.451,0,0,0,1.364,2.42,30.093,30.093,0,0,1,2.948,3.7c-3.3,2.288-4.84,3.3-7.084,3.3A6.318,6.318,0,0,1,5.1,62.656a2.873,2.873,0,0,0-.484-.088c-.308,0-.4.132-.4.352a3.957,3.957,0,0,0,3.74,2.464c2.024,0,3.388-.88,7.436-4.092a14.564,14.564,0,0,1,.792,1.276c5.368,8.976,6.468,12.98,6.512,16.5,0,1.584.66,2.332,1.32,2.332.748,0,1.5-.88,1.5-2.464C25.52,74.8,21.472,68.2,16.368,60.544ZM69.124,65.3l.088-.968c.572-1.012,1.1-1.98,1.584-2.728.748-1.188,2.156-2.684,2.156-3.74,0-.7-.616-1.188-2.552-1.188a56.048,56.048,0,0,0,.7-5.94c0-3.916-2.948-4.4-3.652-4.4-.572,0-1.452.264-1.452.528,0,.132.22.308.7.616,2.156,1.276,2.552,3.124,2.552,5.28,0,.836-.044,1.672-.088,2.552,0,.616-.088,1.276-.132,1.98l-.132.088a22.747,22.747,0,0,0-5.1,4.312,6.672,6.672,0,0,1-2.464,1.8c-.66.264-.88.66-.88,1.056a3.493,3.493,0,0,0,.792,1.76c.44.7,1.628,2.464,2.508,4.136-1.628,2.332-4.18,6.688-4.18,8.36,0,.616.264.88.66.88.7,0,1.76-.968,2.2-2.6a15.788,15.788,0,0,1,2.2-4.928c.924,1.936,2.464,5.412,2.6,6.644.176,1.8.968,2.64,1.672,2.64.528,0,1.012-.572,1.012-1.584a4.932,4.932,0,0,0-.132-1.056,38.932,38.932,0,0,1-.968-8.14c0-1.672.176-3.784.176-3.916.132-.132.176-.264.308-.4,4.488-4.664,8.668-6.2,12.056-6.2,3.828,0,8.228,2.068,8.228,6.82,0,7.744-11,12.584-11.836,12.936s-1.452.7-1.452.836c0,.044.088.088.22.088,1.892,0,15.532-4.708,15.532-13.816,0-4.8-4.576-8.492-10.032-8.492-3.652,0-8.008,1.672-12.364,6.16Zm-.748-1.848A64.406,64.406,0,0,1,64.284,69.7a32.334,32.334,0,0,1-2.068-4.048c0-.088-.088-.22-.088-.352s.088-.308.484-.4a2.631,2.631,0,0,0,2.42-1.892A7.742,7.742,0,0,1,68.9,58.96C68.772,60.368,68.552,61.864,68.376,63.448ZM67.452,74.1c0,.308-.044.44-.132.44-.264,0-1.5-2.244-2.068-3.3.792-1.188,1.716-2.332,2.684-3.52a50.185,50.185,0,0,0-.484,5.5Zm2.156-12.76.44-2.86c.088,0,.176-.044.264-.044a.428.428,0,0,1,.484.44,1.843,1.843,0,0,1-.352.924ZM126.984,47.96c0,.44-.352.88-1.1,1.276-.968.528-2.068,1.012-2.992,1.584a5.535,5.535,0,0,0-2.9,4.752c0,.22.044.4.044.616a19.237,19.237,0,0,1,.132,2.024c0,.484-.044.924-.088,1.5a76.169,76.169,0,0,0-.792,8.272c0,5.412,2.948,6.336,3.476,6.336.484,0,1.012-.352,1.716-1.188,2.068-2.6,2.772-3.828,4.84-5.368a5.266,5.266,0,0,1,8.4,3.7c0,2.552-2.288,7.788-12.32,10.252a6.214,6.214,0,0,0-2.068.66c0,.044.132.044.352.044,7.3,0,16.412-4.4,16.412-11,0-4.268-4.62-6.2-6.952-6.2a8.071,8.071,0,0,0-4.576,1.452c-2.112,1.452-3.3,2.816-4.356,3.52a3.752,3.752,0,0,1-1.672.748c-.572,0-1.672-.22-1.672-4a28.057,28.057,0,0,1,.616-5.5,24.064,24.064,0,0,0,.66-4,8.089,8.089,0,0,0-.264-1.892,6.066,6.066,0,0,1-.088-.968c0-3.344,2.816-3.476,3.96-3.476a8.121,8.121,0,0,1,2.508.308,3.966,3.966,0,0,0,1.408.4,1.812,1.812,0,0,0,1.5-1.892c0-2.816-5.236-4.928-5.456-4.928-.132,0-.176.088-.176.132,0,.176.264.528.308.616a5.81,5.81,0,0,1,1.144,2.112Zm69.3,21.12c1.144,0,2.728-1.452,2.728-3.96,0-3.344-3.784-6.864-9.328-6.864-.308,0-.528.044-.528.132s.352.308,1.32.66c2.288.836,6.028,2.024,6.028,5.632,0,2.816-3.3,3.124-5.192,3.52-.66.132-1.1.264-1.1.4,0,.22.66.22,3.784.22a4.867,4.867,0,0,1,1.672.132A1.405,1.405,0,0,0,196.284,69.08Zm-21.868-8.756c-2.376,5.5-7.172,12.5-8.932,15.136a5.675,5.675,0,0,0-1.1,2.552.706.706,0,0,0,.748.792c.88,0,2.024-1.144,2.64-2.2,2.772-5.148,6.292-12.144,8.316-16.808,2.2-1.32,2.64-1.452,3.476-1.452,1.716,0,2.684,1.848,2.684,5.28,0,5.984-2.86,12.232-6.732,12.232a3.916,3.916,0,0,1-3.168-1.892c-.572-.792-.924-1.188-1.1-1.188q-.132,0-.132.264a6.274,6.274,0,0,0,.264,1.364c.308,1.188-.176,2.772,1.452,3.344a6.082,6.082,0,0,0,1.892.308c4.268,0,9.46-4.664,9.46-13.772,0-1.892-.088-7.216-4.312-7.216a8.918,8.918,0,0,0-2.948.66,2.692,2.692,0,0,0,.22-.528,21.721,21.721,0,0,0,1.364-5.72c0-.792-.4-2.772-2.2-2.772-1.1,0-2.508.836-2.508,1.276,0,.352.44.572.88.66,1.1.176,1.452,1.144,1.452,2.508a18.227,18.227,0,0,1-.924,5.148,18.929,18.929,0,0,1-6.028,1.276,3.322,3.322,0,0,1-2.816-1.144c-.308-.4-.528-.66-.7-.66-.22,0-.308.308-.308,1.188a3.138,3.138,0,0,0,3.388,3.256C169.532,62.216,170.676,62.04,174.416,60.324Zm70.752-.792c.44.044.88.22,1.276.22.748,0,1.5-1.012,1.5-2.2,0-2.332-3.168-4.224-5.28-4.224-.308,0-.44.044-.44.176s.132.308.4.572c.132.132.7.572.968.88a1.8,1.8,0,0,1,.528,1.188c0,.968-1.056,1.936-2.684,2.9-3.256,1.98-4.224,4.224-4.224,7.788V67.1c0,1.716.22,3.74.22,5.676a14.657,14.657,0,0,0-3.432-.4c-2.552,0-7.524.748-7.524,3.872,0,2.024,2.332,4.708,5.72,4.708a7.1,7.1,0,0,0,6.908-5.632,10.288,10.288,0,0,1,4.224,3.784c.4.748.88,1.056,1.276,1.056.572,0,1.012-.616,1.012-1.452,0-1.98-3.124-4.268-6.424-5.412-.132-1.98-.484-5.764-.484-5.764-.088-.924-.132-1.716-.132-2.464,0-2.42.616-3.96,3.52-5.1a10.592,10.592,0,0,1,2.9-.44Zm-12.936-12.1c0-.264-.132-2.816-2.64-2.816a1.663,1.663,0,0,0-1.628,1.144c0,.308.4.4,1.1.4.484,0,1.276.044,1.276,2.9a19.359,19.359,0,0,1-.176,2.156,13.5,13.5,0,0,1-3.344.484,8.747,8.747,0,0,1-4.532-1.408c-.132-.088-.616-.484-.88-.484-.088,0-.132.088-.132.22,0,.176.836,3.74,5.456,3.74a12.151,12.151,0,0,0,2.948-.44c-.924,2.816-3.124,7.26-8.1,14.608a3.924,3.924,0,0,0-.836,1.936.731.731,0,0,0,.836.792,3.15,3.15,0,0,0,2.464-1.936c1.408-3.08,5.368-11.132,6.644-14.3.22-.528.4-1.056.572-1.584,3.476-1.276,4.664-2.948,4.664-3.74s-.088-.836-2.288-1.32Zm5.06,27.1a5.45,5.45,0,0,1-5.5,4.224c-1.892,0-4.092-.88-4.092-2.42,0-1.276,1.628-2.6,5.192-2.6A13.635,13.635,0,0,1,237.292,74.536Zm-5.06-26.708c1.628.66,1.848.836,1.848,1.1,0,.572-1.056,1.188-2.2,1.672A13.637,13.637,0,0,0,232.232,47.828ZM298.408,69.08c-.088-1.1-.264-7.744-.264-9.372,0-1.012.088-1.056.7-1.408.264-.132.836-.308.836-.748,0-.88-2.508-2.024-2.948-2.024a.558.558,0,0,0-.264.044,3.093,3.093,0,0,0-.616.792.752.752,0,0,1-.572.308h-9.416c1.584-1.364,4.62-4.62,5.1-5.016.88-.7,1.32-.484,1.76-.836.088-.088.66-.176.66-.572,0-.748-2.42-2.156-2.816-2.156a.7.7,0,0,0-.352.132c-.176.132-.22.308-.484.528a.793.793,0,0,1-.7.264H280.06l1.452-2.156c.308-.484.4-.44,1.144-.528s1.056-.4,1.056-.748c0-1.1-3.124-2.2-3.3-2.2-.132,0-.132.132-.22.352a11.176,11.176,0,0,1-.748,1.98c-3.96,7.26-10.6,14.872-13.464,16.72-.4.22-.528.44-.528.528s.088.132.176.132c.352,0,2.772-.968,7.744-6.028.044,1.1.088,2.244.088,3.212v1.012c-.088,4.136-.176,10.12-.22,13.992,0,5.324,4.092,5.324,12.892,5.324,11.792,0,15.356-.572,17.248-2.112a1.436,1.436,0,0,0,.66-1.1,1.1,1.1,0,0,0-.572-.88c-.572-.308-1.012-6.072-1.276-6.072-.044,0-.044.044-.088.22-.572,3.52-1.232,6.732-2.9,7.172-1.892.484-7.612.792-12.848.792-9.856,0-10.956-.264-11.044-3.916,0-1.408,0-4.18.044-6.952h20.856v1.672a.829.829,0,0,0,.88.88,1.238,1.238,0,0,0,1.32-1.144ZM296.252,66.7h-9.416c0-.924-.044-2.728-.044-4.356,0-1.672.044-3.168.044-3.476.044-.7.088-.528.66-.88a.747.747,0,0,0,.264-.264h7.92c.308,0,.484.352.484.352.044.528.088,3.124.088,5.764Zm-11.44-8.976c.044.44.044,1.144.044,1.232,0,1.452-.044,6.072-.088,7.744h-9.416c.044-3.212.132-6.2.22-7.084.088-1.32.264-1.188.968-1.584l.484-.308ZM288.9,50.16c.308,0,.4.088.4.176a.84.84,0,0,1-.132.352c-.132.308-2.684,3.916-3.828,5.984h-8.272a9.775,9.775,0,0,0-2.2-1.188c1.452-1.628,2.948-3.388,4.356-5.324ZM348.04,66.748a.849.849,0,0,0-.484-.22c-.176,0-.308.088-1.452,1.232a.9.9,0,0,1-.66.264H331.672a14.082,14.082,0,0,0-3.7-1.98c-.044,0-.044.044-.044.088a.859.859,0,0,0,.044.308,42.479,42.479,0,0,1,.572,5.588c0,2.42-.044,5.368-.4,9.548v.132a.876.876,0,0,0,.924.924,1.448,1.448,0,0,0,1.5-1.232c0-.748-.044-1.452-.044-2.156H346.9v1.892a.964.964,0,0,0,.968,1.1,1.369,1.369,0,0,0,1.364-1.364v-.088c-.176-2.6-.308-5.148-.308-7.216,0-3.256.044-3.388.836-3.784.4-.176.748-.4.748-.7C350.5,68.464,348.128,66.792,348.04,66.748ZM346.94,78.1H330.528c0-1.364-.044-2.64-.044-3.74,0-1.144.044-2.156.044-3.036.044-1.628.088-1.672,1.1-2.2h14.74c.616,0,.616,1.056.616,4.708C346.984,75.108,346.94,76.56,346.94,78.1Zm12.8-17.776c-7.568-.66-17.16-8.8-20.328-13.464l.792-.132c1.012-.176,1.32-.528,1.32-.88a.5.5,0,0,0-.132-.352c-.7-.792-3.96-2.156-4-2.156-.088,0-.088.044-.132.22a13.259,13.259,0,0,1-.88,2.9c-5.016,8.668-12.32,15.488-17.776,18.656-.44.264-.616.44-.616.528,0,.044.044.088.176.088,2.464,0,13.156-6.864,20.724-18.128l.044-.088c7.3,11,15.4,15.444,16.588,15.444a.849.849,0,0,0,.44-.132c1.5-1.188,4.356-1.98,4.356-2.332C360.316,60.412,360.14,60.368,359.744,60.324Zm-15.312-2.64a.264.264,0,0,0-.176-.044c-.352,0-1.54,1.848-1.848,2.42a.688.688,0,0,1-.484.352H337.48a52.944,52.944,0,0,1-7.964-.616c0,.484,1.232,2.112,1.628,2.112h.044a41.1,41.1,0,0,1,6.2-.4h9.548c.616,0,.836-.352.836-.66C347.776,60.192,345.444,58.168,344.432,57.684Zm45.232,16.9a17.642,17.642,0,0,1-.176-1.848v-.484a50.777,50.777,0,0,1,.924-5.764,8.265,8.265,0,0,0,.176-1.232c0-.176,0-.264-.088-.264s-.264.308-.66,1.188c-.748,1.716-1.76,4.444-2.64,5.984a1.623,1.623,0,0,1-1.452.924c-.572,0-5.544-.968-5.544-9.24a25.9,25.9,0,0,1,.66-5.72,7.751,7.751,0,0,0,.176-1.5,3.522,3.522,0,0,0-2.552-3.7q-.264,0-.264.4c0,.088.044.176.044.308a11.908,11.908,0,0,1,.176,2.244c0,.4,0,.836-.044,1.276-.088,1.716-.22,3.432-.22,5.1,0,4.576.836,8.8,4.928,12.276a7.392,7.392,0,0,0,4.4,1.892c2.024,0,2.156-1.232,2.156-1.716Zm17.072-7.04c.7,0,1.452-.7,1.452-2.068,0-4.18-4.928-9.064-10.912-9.064-.528,0-.836.088-.836.22,0,.176.616.484,1.936.792a9.6,9.6,0,0,1,7.084,8.536C405.548,67.012,406.12,67.54,406.736,67.54Zm39.424-2.024c.176,0,.4.044.572.044,2.112,0,3.168-1.056,3.168-1.892,0-.484-.308-1.144-1.8-1.144a8.56,8.56,0,0,0-3.256.792c-2.508-.484-3.608-2.112-3.608-4.8a37.849,37.849,0,0,1,1.276-7.48,13.68,13.68,0,0,0,.44-2.508,4.627,4.627,0,0,0-4-4.092c-.968,0-1.672.66-1.672,1.056a.468.468,0,0,0,.4.44c2.112.44,2.684,1.188,2.684,2.86a24.746,24.746,0,0,1-.22,2.728,52.407,52.407,0,0,0-.7,6.6c0,2.6.616,5.06,2.948,6.116-4.752,2.112-7.964,5.808-7.964,9.416,0,2.376,2.068,7.392,9.9,7.392,3.608,0,7.744-1.1,7.744-2.86a1.382,1.382,0,0,0-1.54-1.276,2.647,2.647,0,0,0-1.188.308,13.444,13.444,0,0,1-6.072,1.364c-5.632,0-7.128-3.168-7.128-5.324,0-4.092,5.9-7.744,9.636-7.744ZM16.368,139.744c4.576-3.388,9.724-6.952,14.916-6.952,3.52,0,6.2,1.76,6.2,4.532,0,2.552-2.376,5.192-7.172,5.192a10.5,10.5,0,0,1-8.184-3.7,2.259,2.259,0,0,0-1.056-.836c-.044,0-.088.044-.088.132,0,.792,3.564,6.468,10.12,6.468,4.664,0,8.712-2.6,8.712-6.776,0-2.728-2.2-6.336-8.624-6.336-5.808,0-11.264,3.564-15.84,6.732-1.716-2.42-3.212-4.488-3.212-5.808,0-.7.7-1.98,2.9-1.98a29.1,29.1,0,0,1,6.072,1.144,8.881,8.881,0,0,0,2.156.4,2.2,2.2,0,0,0,2.156-2.244c0-1.892-2.728-3.432-3.432-3.432-.088,0-.132,0-.132.088,0,.044.088.176.176.4a4.3,4.3,0,0,1,.528,1.716c0,1.144-1.232,1.188-2.508,1.188s-3.124-.132-4.708-.132c-4.356,0-5.324,2.112-5.324,3.256a3.451,3.451,0,0,0,1.364,2.42,30.093,30.093,0,0,1,2.948,3.7c-3.3,2.288-4.84,3.3-7.084,3.3a6.318,6.318,0,0,1-2.156-.352,2.874,2.874,0,0,0-.484-.088c-.308,0-.4.132-.4.352a3.957,3.957,0,0,0,3.74,2.464c2.024,0,3.388-.88,7.436-4.092a14.565,14.565,0,0,1,.792,1.276c5.368,8.976,6.468,12.98,6.512,16.5,0,1.584.66,2.332,1.32,2.332.748,0,1.5-.88,1.5-2.464C25.52,154,21.472,147.4,16.368,139.744Zm64.9-9.46a5.741,5.741,0,0,1-1.012.088A14.6,14.6,0,0,1,73.744,128a4,4,0,0,0-1.364-.924,2.492,2.492,0,0,0-.792-.132,1.934,1.934,0,0,0-1.936,1.98,2.5,2.5,0,0,0,1.012,1.936c1.012.836,2.772,2.112,4.708,3.74A16.012,16.012,0,0,1,69.608,136a8.438,8.438,0,0,1-5.94-2.552c-.484-.44-.748-.66-.968-.66-.176,0-.264.616-.264.836,0,1.584,2.728,4.444,6.952,4.444,1.584,0,3.828-.4,7.568-2.112,7.26,6.6,7.436,10.824,7.436,11.264,0,.484-.22.792-.968.792a7.4,7.4,0,0,1-.88-.088,36.666,36.666,0,0,0-7-.748c-5.808,0-10.428,1.936-10.428,5.764,0,1.584,1.32,6.16,9.856,6.16,2.288,0,5.06-.4,5.06-1.628,0-.616-.792-1.144-1.76-1.144a3.4,3.4,0,0,0-.66.088,12.421,12.421,0,0,1-3.388.44c-4.4,0-7.216-1.98-7.216-4.4,0-1.936,1.98-3.96,6.732-3.96,3.476,0,7.568.836,8.844,1.716.792.528,1.32,1.188,2.068,1.188a2.583,2.583,0,0,0,2.42-2.86c0-4.884-5.1-9.856-8.888-13.156,2.992-1.452,4.268-2.6,4.268-3.784a1.34,1.34,0,0,0-1.144-1.32Zm-4.664,3.74c-4.18-3.608-4.532-4-4.532-4.444,0-.264.176-.484.7-.484.088,0,6.424,1.32,6.424,2.86C79.2,132.616,78.32,133.188,76.6,134.024Zm66.748,16.984a.117.117,0,0,0-.132-.132,1.047,1.047,0,0,0-.572.352c-4.4,4-9.2,6.028-13.112,6.028-8.008,0-8.1-7.392-8.1-9.5,0-5.676,1.584-13.068,2.024-15.84a8.887,8.887,0,0,0,.132-1.452,4.24,4.24,0,0,0-4.268-4.532c-.264,0-.44.088-.44.264,0,.132.176.4.572.792.968.88,1.32,2.728,1.32,5.148,0,4.884-1.012,9.856-1.012,14.74a29.007,29.007,0,0,0,.308,4.356c.924,5.676,4.576,8.448,9.108,8.448C136.84,159.676,143.352,151.756,143.352,151.008Zm33.792,2.772a17.646,17.646,0,0,1-.176-1.848v-.484a50.785,50.785,0,0,1,.924-5.764,8.261,8.261,0,0,0,.176-1.232c0-.176,0-.264-.088-.264s-.264.308-.66,1.188c-.748,1.716-1.76,4.444-2.64,5.984a1.623,1.623,0,0,1-1.452.924c-.572,0-5.544-.968-5.544-9.24a25.9,25.9,0,0,1,.66-5.72,7.75,7.75,0,0,0,.176-1.5,3.522,3.522,0,0,0-2.552-3.7q-.264,0-.264.4c0,.088.044.176.044.308a11.907,11.907,0,0,1,.176,2.244c0,.4,0,.836-.044,1.276-.088,1.716-.22,3.432-.22,5.1,0,4.576.836,8.8,4.928,12.276a7.392,7.392,0,0,0,4.4,1.892c2.024,0,2.156-1.232,2.156-1.716Zm17.072-7.04c.7,0,1.452-.7,1.452-2.068,0-4.18-4.928-9.064-10.912-9.064-.528,0-.836.088-.836.22,0,.176.616.484,1.936.792a9.6,9.6,0,0,1,7.084,8.536C193.028,146.212,193.6,146.74,194.216,146.74Zm24.42-2.024c0,4.092-.044,8.052-.088,10.78-.044,1.232-.572,1.98-2.2,1.98a13.429,13.429,0,0,1-3.388-.572,2.533,2.533,0,0,0-.44-.088c-.088,0-.132.044-.132.088,0,.44,2.86,2.332,3.3,3.124a.715.715,0,0,0,.7.4,4.712,4.712,0,0,0,4.312-4.62c0-.748-.22-4.664-.22-4.884-.044-2.068-.088-4.488-.088-7.04,6.468-3.212,6.732-3.7,6.732-3.872,0-.088-.044-.132-.176-.132a1.013,1.013,0,0,0-.4.132,50.851,50.851,0,0,1-6.16,2.288c0-2.772,0-5.632.044-8.36h4.928c.616,0,.792-.176.792-.4,0-.792-2.684-2.2-2.728-2.244a.265.265,0,0,0-.176-.044c-.132,0-.572,0-1.76,1.32a.881.881,0,0,1-.484.264h-.528l.132-5.5c.088-2.156.044-1.892,1.012-2.376.4-.22.792-.616.792-.968,0-1.056-4.092-1.54-4.356-1.54-.132,0-.132.044-.132.132a.774.774,0,0,0,.044.264,32.138,32.138,0,0,1,.484,5.852c0,1.056.088,2.464.088,4.136a50.314,50.314,0,0,1-6.82-.616c0,.484,1.276,2.112,1.848,2.112h.044a34.291,34.291,0,0,1,4.928-.4c.044,2.64.044,5.764.044,8.888a22.338,22.338,0,0,1-6.644,1.188H211.9a1.3,1.3,0,0,1,.132.176c.4.66,1.716,2.728,2.2,2.728.264,0,.352-.352.748-.528ZM244.2,159.324c-.088-4.8-.176-12.98-.176-20.108v-3.3l.352.308c1.584,1.32,4.532,3.7,4.972,4.928s1.1,1.716,1.672,1.716c.66,0,1.232-.66,1.232-1.672,0-3.652-7.436-5.632-8.228-5.632,0-3.784.044-7,.176-8.712s.22-1.364,1.144-1.892c.44-.264.66-.528.66-.836,0-1.012-4.136-1.716-4.444-1.716-.088,0-.088.044-.088.088a1.161,1.161,0,0,0,.044.308c.264,1.188.484,3.916.484,10.824,0,7.436-.176,19.272-.352,25.872v.044c0,1.012.484,1.408,1.056,1.408a1.56,1.56,0,0,0,1.5-1.584Zm-5.192-12.584c.484,0,.66-.264.66-.484,0-.7-2.552-2.42-2.6-2.42a9.127,9.127,0,0,0-1.76,1.452c-.132.176-.308.352-.4.352h-2.684c0-3.256.044-3.3,1.188-3.828.528-.264.748-.528.748-.748,0-.924-4.048-1.452-4.092-1.452-.132,0-.132.044-.132.132a1.238,1.238,0,0,0,.044.352,24.7,24.7,0,0,1,.352,4.356V145.6a56.9,56.9,0,0,1-6.864-.572c0,.484,1.276,2.112,1.716,2.112h.044a36.558,36.558,0,0,1,5.148-.4c0,2.156-.044,4.708-.044,6.556-4.4.836-4.8.88-5.94.88a11.22,11.22,0,0,1-1.76-.088c-.132,0-.22,0-.22.088a.154.154,0,0,1,.044.088c.088.352,1.628,2.64,2.156,2.64.264,0,.44-.308.836-.44,4.62-1.232,15.884-4.84,15.884-5.544,0-.044-.088-.132-.22-.132a1.937,1.937,0,0,0-.44.088c-1.98.616-5.412,1.364-8.492,2.024,0-2.024,0-4.224.044-6.16Zm.4-8.1c.484,0,.7-.22.7-.484,0-.7-2.464-2.464-2.684-2.464-.4,0-1.408,1.056-1.716,1.54a1.211,1.211,0,0,1-.4.352h-3.124c0-1.848.044-4.048.044-6.072h5.808c.484,0,.616-.22.616-.484,0-1.1-2.552-2.376-2.6-2.376a5.731,5.731,0,0,0-1.716,1.452c-.132.176-.308.352-.4.352h-1.716c0-1.5.044-2.816.088-3.74.044-1.276,0-1.1,1.1-1.628.528-.264.748-.528.748-.748,0-1.012-4.092-1.5-4.136-1.5-.088,0-.088.044-.088.088a1.238,1.238,0,0,0,.044.352A24.553,24.553,0,0,1,230.34,128c0,.66.044,1.452.044,2.376a59.356,59.356,0,0,1-5.94-.528c0,.484,1.232,2.068,1.716,2.068h.044a36.5,36.5,0,0,1,4.18-.352c0,2.068-.044,4.356-.044,6.028a65.011,65.011,0,0,1-7.3-.616c0,.484,1.232,2.068,1.76,2.068h.044a44.461,44.461,0,0,1,6.16-.4Zm53.856,5.236c0,7.084-4.708,14.388-9.812,16.9-1.276.616-1.716.924-1.716,1.056,0,.044.088.088.22.088a9.15,9.15,0,0,0,1.936-.44c6.82-2.64,11.264-8.316,11.264-16.72,0-.572,0-1.144-.044-1.76-.132-1.98-.308-3.916-.352-6.072,5.632-1.276,5.808-4,5.808-4.136a1.557,1.557,0,0,0-1.232-1.408,13.135,13.135,0,0,1-1.5-.176c-.616-.132-1.892-.484-2.772-.748v-.352a3.763,3.763,0,0,0-3.608-3.74c-.924,0-1.892.528-1.892,1.056,0,.264.4.484,1.408.484h.264c1.54,0,1.892,2.816,1.892,4.8v2.6a11.371,11.371,0,0,1-1.672.176h-.968a17.881,17.881,0,0,1-5.06-.572,9.789,9.789,0,0,0-1.232-.4c-.132,0-.176.044-.176.132,0,.044.7,2.684,6.292,2.684h1.056a12.3,12.3,0,0,0,1.76-.132l.132,6.2Zm-16.368,13.64a.763.763,0,0,0,.836-.836,2,2,0,0,0-.176-.792,9.387,9.387,0,0,1-.44-3.124c0-3.3,1.8-8.184,4.18-13.42a2.849,2.849,0,0,0,.22-.924q0-.264-.132-.264c-.352,0-3.344,5.368-5.5,11-.22.616-.44.836-.66.836-.264,0-1.232-1.32-1.232-4.268a35.429,35.429,0,0,1,2.068-10.12,10.27,10.27,0,0,0,.792-3.08c0-2.244-2.992-4.488-3.036-4.532a3.586,3.586,0,0,0-1.628-.308c-.528,0-1.1.132-1.1.484,0,.132.176.352.66.66,2.2,1.232,2.684,2.508,2.684,4.4a19.966,19.966,0,0,1-.22,2.6c-.4,2.64-1.452,6.424-1.452,10.824C272.756,152.592,274.824,157.52,276.892,157.52ZM295.02,130.9c2.42,1.232,2.772,1.452,2.772,1.892,0,.616-1.232,1.54-3.036,2.112.044-1.1.088-2.244.22-3.476C294.976,131.252,295.02,131.076,295.02,130.9Zm23.76,21.912c2.772,0,6.028-5.148,6.028-10.208a14.969,14.969,0,0,0-.132-1.98c0-.088-.088-.22-.176-.22-.044,0-.132.044-.176.22-1.056,3.564-2.464,6.688-5.676,8.844a2.589,2.589,0,0,0-1.408,2.024A1.387,1.387,0,0,0,318.78,152.812Zm11.352,2.64c0,4.356,3.256,5.016,7.612,5.016,4.8,0,9.02-.352,10.428-2.288a1.494,1.494,0,0,0,.308-.792,1.554,1.554,0,0,0-.88-1.232c-.7-.44-.924-6.556-1.276-6.556-.088,0-.132.132-.22.528-1.452,7.7-1.76,8.228-7.524,8.228-5.588,0-6.292-.836-6.292-3.872,0-5.72.088-14.168.308-17.2.132-1.672.132-1.848,1.144-2.42.528-.308.748-.572.748-.836,0-.968-3.872-1.76-4.312-1.76-.132,0-.176.044-.176.176a1.238,1.238,0,0,0,.044.352c.088.352.308,1.452.308,8.14,0,2.64-.088,9.988-.22,14.212Zm25.652-5.632c.748,0,1.32-.748,1.32-1.76,0-4.444-9.592-8.668-11.7-8.668-.044,0-.044,0-.044.044s.088.132.352.264a19.888,19.888,0,0,1,7.832,8.008C354.244,149.248,355.08,149.82,355.784,149.82Zm-14.476-18.876a1.365,1.365,0,0,0,1.276-1.5c0-3.256-7.612-5.236-10.032-5.236-.132,0-.176.044-.176.132s.044.176.088.176c2.464,1.276,5.016,2.64,6.864,5.1A2.619,2.619,0,0,0,341.308,130.944Zm68.508,24.772c-.484-.484-.528-6.248-.836-6.248-.044,0-.088.088-.132.352-.88,4.048-1.144,7.04-4.532,7.524a36.028,36.028,0,0,1-5.676.44c-8.536,0-8.624-.792-8.624-4.972,0-2.728.044-7.92.132-12.32l5.588-2.9c-.044,4.84-.176,10.516-.308,14.344v.132c0,.924.44,1.276.924,1.276a1.585,1.585,0,0,0,1.408-1.5v-.088l-.088-3.828c1.1.7,2.42,1.5,2.6,2.068,0,0,.044.132.4.132,3.7-.484,4.884-3.3,5.192-7.568.22-3.08.22-5.588.308-7.832.044-.748.044-.7.528-1.144.616-.616.968-1.012.968-1.364,0-.792-3.124-1.672-3.432-1.672a.229.229,0,0,0-.176.088,2.923,2.923,0,0,0-.484.88c-.176.264-.264.66-.528.792l-5.5,2.992c0-2.684.088-5.192.176-7.04.132-2.112.264-1.628,1.32-2.244.352-.22.572-.484.572-.748,0-1.144-4.224-1.76-4.4-1.76a.043.043,0,0,0-.044.044,1.417,1.417,0,0,1,.088.264c.308,1.188.484,3.388.484,12.452-1.98,1.1-3.564,1.892-5.544,2.772.044-3.08.088-5.588.132-6.292.132-1.8.4-1.628,1.188-1.98q.792-.4.792-.792c0-.836-3.3-1.628-4.18-1.628-.088,0-.132,0-.132.132a1.556,1.556,0,0,1,.044.264,51.471,51.471,0,0,1,.308,5.236v.616l-.132,5.324c-1.76.748-3.784,1.628-6.248,2.6v.044c0,.44,1.232,1.144,2.068,1.144.264,0,.484-.088,4.18-2.156-.088,4.8-.176,10.384-.176,13.376,0,4.752,4.972,4.884,10.56,4.884,2.376,0,11.836-.132,11.836-2.816A2.047,2.047,0,0,0,409.816,155.716Zm-22.792-7.744a.161.161,0,0,0-.176-.176.7.7,0,0,0-.352.132c-1.716.924-4.312,2.112-6.82,3.168,0-2.552-.044-7.964-.044-12.848h5.984c.616,0,.792-.22.792-.484,0-.88-2.288-2.948-3.08-2.948-.132,0-.528.044-1.76,1.98-.132.22-.22.4-.484.4h-1.452c0-9.24.088-9.724.924-10.076.66-.264,1.1-.616,1.1-.968,0-1.012-4.4-1.76-4.488-1.76-.044,0-.044.044-.044.088v.176a46.593,46.593,0,0,1,.484,6.864c0,1.276.044,3.344.044,5.676-1.716-.044-3.388-.264-6.82-.66v.044c0,.572,1.276,2.112,2.024,2.112h.044c1.584-.088,2.992-.352,4.708-.44,0,5.06,0,11.044-.044,13.728-4.18,1.628-4.62,1.76-6.864,1.76a.043.043,0,0,0-.044.044,6.689,6.689,0,0,0,2.288,2.728c.22,0,.22-.4.66-.572C377.08,154.352,387.024,148.632,387.024,147.972Zm17.116-14.08c0,1.056.044,2.288.044,3.564,0,7.48-.88,10.032-3.432,10.032a18.53,18.53,0,0,1-3.124-.528c-.044-3.124-.088-6.864-.088-10.34l5.9-3.168a.625.625,0,0,1,.264-.088A.468.468,0,0,1,404.14,133.892Zm27.236,27.456a1.841,1.841,0,0,0,1.628-1.98c0-3.916-7.964-5.456-9.2-5.456-.176,0-.264.044-.264.088,0,.176.484.44.924.748,1.716,1.188,4.136,2.948,5.412,5.456A1.768,1.768,0,0,0,431.376,161.348ZM37.532,380.028c-.44,0-.7.352-2.332,2.64a.913.913,0,0,1-.748.4H23.144v-7.788h14.3c.748,0,.924-.308.924-.572,0-1.012-3.124-3.432-3.96-3.432-.352,0-.528.22-2.2,2.464a1.057,1.057,0,0,1-.748.4H23.144c0-2.464.044-4.356.044-4.972,0-2.068.088-2.156.528-2.288.44-.176.836-.484.836-.748,0-.176-.132-.308-1.056-.616,3.212-.484,5.852-.924,7.656-1.276a1.093,1.093,0,0,1,.352-.044,2.24,2.24,0,0,1,.968.22,1.355,1.355,0,0,0,.572.132c.308,0,.572-.132.572-.44,0-.748-2.112-2.992-2.2-2.992-.044,0-.088.044-.264.176a8.473,8.473,0,0,1-2.992,1.452,203.107,203.107,0,0,1-21.956,3.7c-.4.044-.528.132-.528.22,0,.176.44.4.748.4a132.738,132.738,0,0,0,14.564-1.188c.22.88.308,1.5.308,5.808v2.464h-.352c-2.42,0-11-.132-15.356-.7,0,.572,1.364,2.332,2.156,2.332h.044c3.784-.4,10.6-.484,12.936-.484H21.3v7.788H17.16c-2.552,0-10.3-.132-14.872-.7,0,.572,1.276,2.288,2.112,2.288h.044c4-.4,10.032-.484,12.5-.484h4.4c0,4.444-.044,8.58-.088,9.372-.132,2.024-1.056,2.684-2.86,2.684a35.764,35.764,0,0,1-5.5-.836c-.308-.044-.528-.088-.66-.088s-.176,0-.176.044c0,.4,4.136,2.288,4.752,3.168a1,1,0,0,0,.924.484c.264,0,5.456-.132,5.588-5.1,0-.748-.176-3.168-.176-3.916v-5.808H40.612c.792,0,1.012-.264,1.012-.572C41.624,382.888,38.632,380.028,37.532,380.028ZM64.24,396.264c.572,0,.968-.44.968-1.144a1.973,1.973,0,0,0-.044-.484,11.837,11.837,0,0,1-.352-2.772c0-3.476,2.376-9.372,3.344-11.572a2.126,2.126,0,0,0,.22-.792c0-.088-.044-.132-.088-.132-.748,0-3.828,7.04-4.312,8.228-.264.572-.484.792-.616.792-.352,0-.748-1.32-.748-3.036,0-3.08,1.32-6.776,2.508-9.724a11.018,11.018,0,0,0,1.056-4.224c0-4.312-2.9-5.324-3.124-5.324-.132,0-.88.044-.88.22s.308.352.484.616a9.743,9.743,0,0,1,1.056,4.84,14.621,14.621,0,0,1-.264,2.948c-.484,2.508-1.5,5.148-2.068,8.228a22.363,22.363,0,0,0-.44,4.312C60.94,391.424,62.3,396.264,64.24,396.264ZM87.6,390.94a20.386,20.386,0,0,0-3.256.748,15.844,15.844,0,0,1-2.464.176c-3.3,0-6.292-.924-7.26-2.288-.352-.484-.7-.792-.88-.792-.132,0-.176.088-.176.264,0,.66,1.144,5.368,9.5,5.368,2.772,0,6.688-.616,6.688-2.332,0-.66-.616-1.144-1.8-1.144Zm-.264-18.964c0-.572-.616-1.056-1.716-1.056a4.931,4.931,0,0,0-1.056.132,16.423,16.423,0,0,1-1.76.616,27.867,27.867,0,0,1-3.608.308,8.354,8.354,0,0,1-4.312-1.056,1.976,1.976,0,0,0-.66-.308c-.088,0-.132.044-.132.176,0,0,.352,3.432,6.292,3.432C82.368,374.22,87.34,373.868,87.34,371.976Zm60.1,23.364c-12.76-3.52-18.92-19.668-18.92-29.128,0-.748,1.012-.748,2.42-1.144.7-.176,1.32-.484,1.32-.968,0-.88-2.64-2.508-3.08-2.508a4.355,4.355,0,0,0-1.584,1.188.969.969,0,0,1-.7.4h-2.464a79.327,79.327,0,0,1-8.14-.7c0,.528,1.408,2.332,2.024,2.332h.044a58.23,58.23,0,0,1,6.16-.484h2.288c.44,0,.572.4.572.88,0,.7,0,1.408.044,2.068l-.308,2.068c-1.628,12.144-10.208,23.848-18.832,28.424-.484.264-.88.616-.88.792,0,.088.044.132.22.132a4.32,4.32,0,0,0,1.056-.264c8.36-2.948,17.424-12.584,19.624-23.672,2.992,15.4,13.068,22.22,13.552,22.22a1.142,1.142,0,0,0,.44-.176c1.76-1.1,5.544-1.012,5.544-1.276C147.84,395.472,147.708,395.428,147.444,395.34Zm41.888-8.976c.088-2.816,1.5-6.072,2.024-9.372a11.115,11.115,0,0,0,.176-2.024c0-3.432-1.76-5.28-4.488-5.28-2.772,0-7,1.936-11.968,7.568.88-1.32,1.452-2.112,1.452-2.772,0-.484-.352-.88-1.408-.968h-.264c0-.088.044-.132.044-.22.088-.7.264-1.892.528-3.124a15.5,15.5,0,0,0,.44-3.212c0-2.464-2.464-4.664-4-4.664-.748,0-1.716.308-1.716.748,0,.308.4.572.968.7,1.5.352,2.728,1.056,2.728,4.576,0,1.364-.176,2.9-.308,4.532a8.4,8.4,0,0,1-.088.88c-6.2,1.54-7.436,2.6-7.436,4.268,0,.836.308,2.156,2.816,7.392-.792,1.276-3.652,6.116-3.652,8.14,0,.572.264.88.616.88.748,0,2.068-1.32,2.508-3.212a26.588,26.588,0,0,1,1.364-3.7c.88,2.288,2.156,5.368,2.2,6.512.044,2.288,1.012,3.432,1.8,3.432.528,0,.968-.528.968-1.584a6.705,6.705,0,0,0-.352-1.848,22.141,22.141,0,0,1-.88-6.688,60.794,60.794,0,0,1,.484-7.216c3.916-5.1,9.46-9.108,12.848-9.108,1.892,0,3.036,1.232,3.036,3.7a11.017,11.017,0,0,1-.264,2.244c-.616,3.168-2.068,6.336-2.332,9.152a11.944,11.944,0,0,0-.044,1.232c0,4,2.112,6.072,4.972,6.072,5.412,0,9.9-6.556,9.9-7.392,0-.088-.044-.132-.088-.132-.176,0-.66.352-1.54,1.276-2.6,2.64-5.28,4-7.348,4-2.2,0-3.7-1.5-3.7-4.488Zm-16.368-8.976a34.38,34.38,0,0,1-3.7,7.3,20.146,20.146,0,0,1-2.112-6.2c0-1.8,4.444-2.6,5.456-2.64a1.224,1.224,0,0,1,.572.132C173.14,376.42,173.052,376.9,172.964,377.388Zm-.836,11.308c0,.352-.044.484-.132.484-.176,0-.924-.792-1.892-2.728a30.087,30.087,0,0,1,2.288-4.268c-.176,1.8-.308,3.564-.308,5.016,0,.44.044.792.044,1.144Zm62.7,6.248a4.027,4.027,0,0,0,.4-1.672,4.612,4.612,0,0,0-4.664-4.356c-1.408,0-4,.748-4,3.256,0,2.64,3.344,4.268,6.776,4.268,7.216,0,12.188-4.488,12.188-9.68,0-4.444-3.652-8.14-9.108-8.14a14.154,14.154,0,0,0-7.172,2.068c-.132.088-.176.088-.22.088h-.044c0-.132,5.412-8.052,9.328-11,.924-.66,1.5-1.32,1.5-1.98,0-.572-1.012-2.464-3.7-2.464-2.464,0-5.016,2.068-5.72,2.684a3,3,0,0,1-1.892.66,3.281,3.281,0,0,1-1.144-.176,3.529,3.529,0,0,0-.88-.308c-.176,0-.264.132-.264.484a2.377,2.377,0,0,0,2.6,2.332c2.816,0,4.18-3.916,6.292-3.916.352,0,1.188.132,1.188.748a3.3,3.3,0,0,1-.66,1.452c-1.936,2.948-5.1,6.864-6.512,8.932a55.764,55.764,0,0,1-4,5.412c-.616.7-3.564,4.224-3.564,5.368a1.028,1.028,0,0,0,1.056,1.1,2.218,2.218,0,0,0,1.716-1.1c.352-.528,1.232-2.42,1.716-3.124.968-1.364,4.092-5.94,9.768-5.94,4.224,0,7.348,3.036,7.348,6.864,0,3.256-2.288,6.908-7.744,8.052Zm-2.112.088c-2.376-.132-4.62-1.276-4.62-2.86,0-1.276,1.144-1.8,2.2-1.8a2.874,2.874,0,0,1,2.9,2.9A3.44,3.44,0,0,1,232.716,395.032Zm55.132-30.8c0-1.452-1.848-1.936-2.684-1.936-.352,0-.748.044-1.144.044a16.78,16.78,0,0,1-5.544-1.1,2.043,2.043,0,0,0-.792-.308.117.117,0,0,0-.132.132,1.364,1.364,0,0,0,.264.572c1.408,2.024,4.136,2.2,4.444,2.332.22.088.308.176.308.308a.946.946,0,0,1-.4.572c-.352.308-1.672,1.364-2.64,2.2-.264.22-.4.4-.4.484,0,.044.088.088.176.088a1.065,1.065,0,0,0,.572-.176,18.563,18.563,0,0,1,5.94-2.024C286.836,365.288,287.848,365.068,287.848,364.232Zm2.42,22a16.7,16.7,0,0,0,1.276-6.248c0-3.652-1.98-8.976-6.336-8.976a13,13,0,0,0-4.664,1.188,9.611,9.611,0,0,1-3.036.748,1.746,1.746,0,0,1-1.76-1.012c-.044-.088-.132-.352-.308-.352s-.572.484-.572,1.188a3.439,3.439,0,0,0,3.344,3.212,4.048,4.048,0,0,0,2.64-1.276c1.232-1.012,2.64-1.98,4.048-1.98,2.288,0,4.312,2.948,4.312,7.216,0,7.48-6.864,15.84-12.98,18.876-.7.352-1.32.748-1.32.924,0,.044.044.088.132.088C275.748,399.828,286.088,396.836,290.268,386.232Zm54.384.132c.088-2.816,1.5-6.072,2.024-9.372a11.116,11.116,0,0,0,.176-2.024c0-3.432-1.76-5.28-4.488-5.28-2.772,0-7,1.936-11.968,7.568.88-1.32,1.452-2.112,1.452-2.772,0-.484-.352-.88-1.408-.968h-.264c0-.088.044-.132.044-.22.088-.7.264-1.892.528-3.124a15.5,15.5,0,0,0,.44-3.212c0-2.464-2.464-4.664-4-4.664-.748,0-1.716.308-1.716.748,0,.308.4.572.968.7,1.5.352,2.728,1.056,2.728,4.576,0,1.364-.176,2.9-.308,4.532a8.4,8.4,0,0,1-.088.88c-6.2,1.54-7.436,2.6-7.436,4.268,0,.836.308,2.156,2.816,7.392-.792,1.276-3.652,6.116-3.652,8.14,0,.572.264.88.616.88.748,0,2.068-1.32,2.508-3.212a26.59,26.59,0,0,1,1.364-3.7c.88,2.288,2.156,5.368,2.2,6.512.044,2.288,1.012,3.432,1.8,3.432.528,0,.968-.528.968-1.584a6.705,6.705,0,0,0-.352-1.848,22.141,22.141,0,0,1-.88-6.688,60.794,60.794,0,0,1,.484-7.216c3.916-5.1,9.46-9.108,12.848-9.108,1.892,0,3.036,1.232,3.036,3.7a11.017,11.017,0,0,1-.264,2.244c-.616,3.168-2.068,6.336-2.332,9.152a11.944,11.944,0,0,0-.044,1.232c0,4,2.112,6.072,4.972,6.072,5.412,0,9.9-6.556,9.9-7.392,0-.088-.044-.132-.088-.132-.176,0-.66.352-1.54,1.276-2.6,2.64-5.28,4-7.348,4-2.2,0-3.7-1.5-3.7-4.488Zm-16.368-8.976a34.38,34.38,0,0,1-3.7,7.3,20.146,20.146,0,0,1-2.112-6.2c0-1.8,4.444-2.6,5.456-2.64a1.224,1.224,0,0,1,.572.132C328.46,376.42,328.372,376.9,328.284,377.388Zm-.836,11.308c0,.352-.044.484-.132.484-.176,0-.924-.792-1.892-2.728a30.086,30.086,0,0,1,2.288-4.268c-.176,1.8-.308,3.564-.308,5.016,0,.44.044.792.044,1.144Zm76.824-.088a.117.117,0,0,0-.132-.132,1.047,1.047,0,0,0-.572.352c-4.4,4-9.2,6.028-13.112,6.028-8.008,0-8.1-7.392-8.1-9.5,0-5.676,1.584-13.068,2.024-15.84a8.889,8.889,0,0,0,.132-1.452,4.24,4.24,0,0,0-4.268-4.532c-.264,0-.44.088-.44.264,0,.132.176.4.572.792.968.88,1.32,2.728,1.32,5.148,0,4.884-1.012,9.856-1.012,14.74a29.006,29.006,0,0,0,.308,4.356c.924,5.676,4.576,8.448,9.108,8.448C397.76,397.276,404.272,389.356,404.272,388.608Zm43.516-20.724a5.739,5.739,0,0,1-1.012.088,14.6,14.6,0,0,1-6.512-2.376,4,4,0,0,0-1.364-.924,2.491,2.491,0,0,0-.792-.132,1.934,1.934,0,0,0-1.936,1.98,2.5,2.5,0,0,0,1.012,1.936c1.012.836,2.772,2.112,4.708,3.74a16.012,16.012,0,0,1-5.764,1.408,8.438,8.438,0,0,1-5.94-2.552c-.484-.44-.748-.66-.968-.66-.176,0-.264.616-.264.836,0,1.584,2.728,4.444,6.952,4.444,1.584,0,3.828-.4,7.568-2.112,7.26,6.6,7.436,10.824,7.436,11.264,0,.484-.22.792-.968.792a7.41,7.41,0,0,1-.88-.088,36.663,36.663,0,0,0-7-.748c-5.808,0-10.428,1.936-10.428,5.764,0,1.584,1.32,6.16,9.856,6.16,2.288,0,5.06-.4,5.06-1.628,0-.616-.792-1.144-1.76-1.144a3.4,3.4,0,0,0-.66.088,12.42,12.42,0,0,1-3.388.44c-4.4,0-7.216-1.98-7.216-4.4,0-1.936,1.98-3.96,6.732-3.96,3.476,0,7.568.836,8.844,1.716.792.528,1.32,1.188,2.068,1.188a2.583,2.583,0,0,0,2.42-2.86c0-4.884-5.1-9.856-8.888-13.156,2.992-1.452,4.268-2.6,4.268-3.784a1.34,1.34,0,0,0-1.144-1.32Zm-4.664,3.74c-4.18-3.608-4.532-4-4.532-4.444,0-.264.176-.484.7-.484.088,0,6.424,1.32,6.424,2.86C445.72,370.216,444.84,370.788,443.124,371.624ZM8.756,461.516c0,4.092-.044,8.052-.088,10.78-.044,1.232-.572,1.98-2.2,1.98A13.429,13.429,0,0,1,3.08,473.7a2.532,2.532,0,0,0-.44-.088c-.088,0-.132.044-.132.088,0,.44,2.86,2.332,3.3,3.124a.715.715,0,0,0,.7.4,4.712,4.712,0,0,0,4.312-4.62c0-.748-.22-4.664-.22-4.884-.044-2.068-.088-4.488-.088-7.04,6.468-3.212,6.732-3.7,6.732-3.872,0-.088-.044-.132-.176-.132a1.013,1.013,0,0,0-.4.132,50.853,50.853,0,0,1-6.16,2.288c0-2.772,0-5.632.044-8.36h4.928c.616,0,.792-.176.792-.4,0-.792-2.684-2.2-2.728-2.244a.265.265,0,0,0-.176-.044c-.132,0-.572,0-1.76,1.32a.881.881,0,0,1-.484.264H10.6l.132-5.5c.088-2.156.044-1.892,1.012-2.376.4-.22.792-.616.792-.968,0-1.056-4.092-1.54-4.356-1.54-.132,0-.132.044-.132.132a.774.774,0,0,0,.044.264A32.138,32.138,0,0,1,8.58,445.5c0,1.056.088,2.464.088,4.136a50.311,50.311,0,0,1-6.82-.616c0,.484,1.276,2.112,1.848,2.112H3.74a34.291,34.291,0,0,1,4.928-.4c.044,2.64.044,5.764.044,8.888a22.338,22.338,0,0,1-6.644,1.188H2.024a1.3,1.3,0,0,1,.132.176c.4.66,1.716,2.728,2.2,2.728.264,0,.352-.352.748-.528ZM34.32,476.124c-.088-4.8-.176-12.98-.176-20.108v-3.3l.352.308c1.584,1.32,4.532,3.7,4.972,4.928s1.1,1.716,1.672,1.716c.66,0,1.232-.66,1.232-1.672,0-3.652-7.436-5.632-8.228-5.632,0-3.784.044-7,.176-8.712s.22-1.364,1.144-1.892c.44-.264.66-.528.66-.836,0-1.012-4.136-1.716-4.444-1.716-.088,0-.088.044-.088.088a1.161,1.161,0,0,0,.044.308c.264,1.188.484,3.916.484,10.824,0,7.436-.176,19.272-.352,25.872v.044c0,1.012.484,1.408,1.056,1.408a1.56,1.56,0,0,0,1.5-1.584ZM29.128,463.54c.484,0,.66-.264.66-.484,0-.7-2.552-2.42-2.6-2.42a9.127,9.127,0,0,0-1.76,1.452c-.132.176-.308.352-.4.352H22.352c0-3.256.044-3.3,1.188-3.828.528-.264.748-.528.748-.748,0-.924-4.048-1.452-4.092-1.452-.132,0-.132.044-.132.132a1.238,1.238,0,0,0,.044.352,24.7,24.7,0,0,1,.352,4.356V462.4a56.893,56.893,0,0,1-6.864-.572c0,.484,1.276,2.112,1.716,2.112h.044a36.56,36.56,0,0,1,5.148-.4c0,2.156-.044,4.708-.044,6.556-4.4.836-4.8.88-5.94.88a11.218,11.218,0,0,1-1.76-.088c-.132,0-.22,0-.22.088a.154.154,0,0,1,.044.088c.088.352,1.628,2.64,2.156,2.64.264,0,.44-.308.836-.44,4.62-1.232,15.884-4.84,15.884-5.544,0-.044-.088-.132-.22-.132a1.936,1.936,0,0,0-.44.088c-1.98.616-5.412,1.364-8.492,2.024,0-2.024,0-4.224.044-6.16Zm.4-8.1c.484,0,.7-.22.7-.484,0-.7-2.464-2.464-2.684-2.464-.4,0-1.408,1.056-1.716,1.54a1.21,1.21,0,0,1-.4.352H22.308c0-1.848.044-4.048.044-6.072H28.16c.484,0,.616-.22.616-.484,0-1.1-2.552-2.376-2.6-2.376a5.731,5.731,0,0,0-1.716,1.452c-.132.176-.308.352-.4.352H22.352c0-1.5.044-2.816.088-3.74.044-1.276,0-1.1,1.1-1.628.528-.264.748-.528.748-.748,0-1.012-4.092-1.5-4.136-1.5-.088,0-.088.044-.088.088a1.238,1.238,0,0,0,.044.352,24.552,24.552,0,0,1,.352,4.708c0,.66.044,1.452.044,2.376a59.347,59.347,0,0,1-5.94-.528c0,.484,1.232,2.068,1.716,2.068h.044a36.509,36.509,0,0,1,4.18-.352c0,2.068-.044,4.356-.044,6.028a65,65,0,0,1-7.3-.616c0,.484,1.232,2.068,1.76,2.068h.044a44.46,44.46,0,0,1,6.16-.4ZM83.38,460.68c0,7.084-4.708,14.388-9.812,16.9-1.276.616-1.716.924-1.716,1.056,0,.044.088.088.22.088a9.149,9.149,0,0,0,1.936-.44c6.82-2.64,11.264-8.316,11.264-16.72,0-.572,0-1.144-.044-1.76-.132-1.98-.308-3.916-.352-6.072,5.632-1.276,5.808-4,5.808-4.136a1.557,1.557,0,0,0-1.232-1.408,13.143,13.143,0,0,1-1.5-.176c-.616-.132-1.892-.484-2.772-.748v-.352a3.763,3.763,0,0,0-3.608-3.74c-.924,0-1.892.528-1.892,1.056,0,.264.4.484,1.408.484h.264c1.54,0,1.892,2.816,1.892,4.8v2.6a11.371,11.371,0,0,1-1.672.176h-.968a17.88,17.88,0,0,1-5.06-.572,9.792,9.792,0,0,0-1.232-.4c-.132,0-.176.044-.176.132,0,.044.7,2.684,6.292,2.684h1.056a12.3,12.3,0,0,0,1.76-.132l.132,6.2ZM67.012,474.32a.763.763,0,0,0,.836-.836,2,2,0,0,0-.176-.792,9.387,9.387,0,0,1-.44-3.124c0-3.3,1.8-8.184,4.18-13.42a2.85,2.85,0,0,0,.22-.924q0-.264-.132-.264c-.352,0-3.344,5.368-5.5,11-.22.616-.44.836-.66.836-.264,0-1.232-1.32-1.232-4.268a35.429,35.429,0,0,1,2.068-10.12,10.269,10.269,0,0,0,.792-3.08c0-2.244-2.992-4.488-3.036-4.532a3.586,3.586,0,0,0-1.628-.308c-.528,0-1.1.132-1.1.484,0,.132.176.352.66.66,2.2,1.232,2.684,2.508,2.684,4.4a19.966,19.966,0,0,1-.22,2.6c-.4,2.64-1.452,6.424-1.452,10.824C62.876,469.392,64.944,474.32,67.012,474.32ZM85.14,447.7c2.42,1.232,2.772,1.452,2.772,1.892,0,.616-1.232,1.54-3.036,2.112.044-1.1.088-2.244.22-3.476C85.1,448.052,85.14,447.876,85.14,447.7Zm42.328,26.444a4.027,4.027,0,0,0,.4-1.672,4.612,4.612,0,0,0-4.664-4.356c-1.408,0-4,.748-4,3.256,0,2.64,3.344,4.268,6.776,4.268,7.216,0,12.188-4.488,12.188-9.68,0-4.444-3.652-8.14-9.108-8.14a14.154,14.154,0,0,0-7.172,2.068c-.132.088-.176.088-.22.088h-.044c0-.132,5.412-8.052,9.328-11,.924-.66,1.5-1.32,1.5-1.98,0-.572-1.012-2.464-3.7-2.464-2.464,0-5.016,2.068-5.72,2.684a3,3,0,0,1-1.892.66,3.281,3.281,0,0,1-1.144-.176,3.529,3.529,0,0,0-.88-.308c-.176,0-.264.132-.264.484a2.377,2.377,0,0,0,2.6,2.332c2.816,0,4.18-3.916,6.292-3.916.352,0,1.188.132,1.188.748a3.3,3.3,0,0,1-.66,1.452c-1.936,2.948-5.1,6.864-6.512,8.932a55.76,55.76,0,0,1-4,5.412c-.616.7-3.564,4.224-3.564,5.368a1.028,1.028,0,0,0,1.056,1.1,2.218,2.218,0,0,0,1.716-1.1c.352-.528,1.232-2.42,1.716-3.124.968-1.364,4.092-5.94,9.768-5.94,4.224,0,7.348,3.036,7.348,6.864,0,3.256-2.288,6.908-7.744,8.052Zm-2.112.088c-2.376-.132-4.62-1.276-4.62-2.86,0-1.276,1.144-1.8,2.2-1.8a2.874,2.874,0,0,1,2.9,2.9A3.44,3.44,0,0,1,125.356,474.232Zm48.18-23.188c.968-.352,5.1-1.848,5.1-3.784a1.1,1.1,0,0,0-.924-1.056,26.74,26.74,0,0,1-3.124-.792c-.176-2.552-1.892-3.256-2.816-3.256-.792,0-1.848.616-1.848,1.012,0,.264.484.44,1.144.528,1.012.132,1.364,1.408,1.364,3.036a16.469,16.469,0,0,1-.264,2.86,17.091,17.091,0,0,1-3.652.484,8.6,8.6,0,0,1-4.8-1.5,1.932,1.932,0,0,0-.836-.44c-.132,0-.176.044-.176.22,0,.616,1.188,3.74,5.808,3.74a13.377,13.377,0,0,0,3.256-.528c-1.408,5.148-6.644,18.524-7.612,20.02a4.359,4.359,0,0,0-.748,2.288c0,.308.044,1.716,1.232,1.716,1.144,0,1.936-1.672,2.2-2.9,1.628-6.952,4.092-13.816,6.424-20.768Zm15.84,21.648c-1.276.044-2.112.176-2.9.176-4.268-.088-7.348-2.024-7.348-4a2.164,2.164,0,0,1,.22-.88,1.522,1.522,0,0,0,.22-.748q0-.264-.132-.264a2.746,2.746,0,0,0-1.364,2.6c0,3.124,5.148,5.764,10.472,5.764,3.168,0,3.7-.968,3.7-1.408,0-.66-.924-1.232-2.684-1.232Zm3.476-18.7c.4-.132.88-.44.88-.88,0-.88-3.344-2.9-7.04-2.9-2.64,0-3.388,1.056-3.388,1.1,0,.132.22.22.528.22a3.451,3.451,0,0,0,.616-.088,4.3,4.3,0,0,1,.836-.044c1.98,0,3.652.572,3.652,1.5,0,.572-.616,1.188-.924,1.584-.748.968-1.1,1.232-2.2,2.552a.613.613,0,0,0-.176.4c0,.088.044.176.132.176s.22-.088.44-.264A14.914,14.914,0,0,1,192.852,453.992Zm-18.26-8.228c.572.264,1.892.924,1.892,1.364,0,.484-1.056,1.232-2.332,1.8A12.414,12.414,0,0,0,174.592,445.764Zm55.088.792c.572-.044,1.144-.132,1.716-.132,8.712.088,12.98,6.116,12.98,12.54,0,5.236-2.508,12.76-15,16.28-1.144.352-1.848.7-1.848.924,0,.088.22.176.616.176,3.08,0,18.612-3.564,18.612-17.16,0-7.128-4.972-14.036-14.916-14.036-11.792,0-17.6,10.56-17.6,17.2a6.79,6.79,0,0,0,1.012,3.96c1.892,2.64,2.508,5.368,4.532,5.368,3.432,0,11.572-9.108,11.572-19.58C231.352,449.328,230.78,447.172,229.68,446.556Zm-2.64.572a5.218,5.218,0,0,1,1.232-.22c.968,0,1.76.66,1.76,4.092,0,8.712-7.084,17.556-9.768,17.556-1.936,0-4.092-3.212-4.092-6.908C216.172,455.884,220.7,449.108,227.04,447.128Zm71.632,20.68a.117.117,0,0,0-.132-.132,1.047,1.047,0,0,0-.572.352c-4.4,4-9.2,6.028-13.112,6.028-8.008,0-8.1-7.392-8.1-9.5,0-5.676,1.584-13.068,2.024-15.84a8.889,8.889,0,0,0,.132-1.452,4.24,4.24,0,0,0-4.268-4.532c-.264,0-.44.088-.44.264,0,.132.176.4.572.792.968.88,1.32,2.728,1.32,5.148,0,4.884-1.012,9.856-1.012,14.74a29.006,29.006,0,0,0,.308,4.356c.924,5.676,4.576,8.448,9.108,8.448C292.16,476.476,298.672,468.556,298.672,467.808Zm43.516-20.724a5.739,5.739,0,0,1-1.012.088,14.6,14.6,0,0,1-6.512-2.376,4,4,0,0,0-1.364-.924,2.491,2.491,0,0,0-.792-.132,1.934,1.934,0,0,0-1.936,1.98,2.5,2.5,0,0,0,1.012,1.936c1.012.836,2.772,2.112,4.708,3.74a16.012,16.012,0,0,1-5.764,1.408,8.438,8.438,0,0,1-5.94-2.552c-.484-.44-.748-.66-.968-.66-.176,0-.264.616-.264.836,0,1.584,2.728,4.444,6.952,4.444,1.584,0,3.828-.4,7.568-2.112,7.26,6.6,7.436,10.824,7.436,11.264,0,.484-.22.792-.968.792a7.411,7.411,0,0,1-.88-.088,36.663,36.663,0,0,0-7-.748c-5.808,0-10.428,1.936-10.428,5.764,0,1.584,1.32,6.16,9.856,6.16,2.288,0,5.06-.4,5.06-1.628,0-.616-.792-1.144-1.76-1.144a3.4,3.4,0,0,0-.66.088,12.42,12.42,0,0,1-3.388.44c-4.4,0-7.216-1.98-7.216-4.4,0-1.936,1.98-3.96,6.732-3.96,3.476,0,7.568.836,8.844,1.716.792.528,1.32,1.188,2.068,1.188a2.583,2.583,0,0,0,2.42-2.86c0-4.884-5.1-9.856-8.888-13.156,2.992-1.452,4.268-2.6,4.268-3.784a1.34,1.34,0,0,0-1.144-1.32Zm-4.664,3.74c-4.18-3.608-4.532-4-4.532-4.444,0-.264.176-.484.7-.484.088,0,6.424,1.32,6.424,2.86C340.12,449.416,339.24,449.988,337.524,450.824ZM387.816,465.3c-.044,1.848-.484,1.936-.572,3.08,0,.176-.044.352-.044.528,0,1.056.352,1.5.792,1.5.7,0,1.628-1.1,1.716-2.42.088-.88.088-1.76.088-2.6,0-.7,0-1.408-.044-2.068,3.036-1.54,6.952-3.124,9.9-4.356,2.728-1.144,4.84-2.816,4.84-4.532,0-2.2-3.476-3.784-5.324-3.784-4.224,0-7.876,4.664-9.812,9.328-.572-2.552-2.244-4.532-4.488-4.532a4.922,4.922,0,0,0-2.64.792,60.224,60.224,0,0,0,3.96-7.656c4.708-1.672,4.972-3.344,4.972-4,0-.088-.044-.968-.7-.968a1.119,1.119,0,0,0-.308.088,4.094,4.094,0,0,1-.924.044,8.835,8.835,0,0,1-1.056-.044c-.176,0-.308-.044-.44-.044q-.4,0-.4.132c0,.088.22.22.748.44.88.308.924.572.924.66,0,.748-1.892,1.628-2.156,1.716a8.833,8.833,0,0,0,.22-1.848c0-.836-.176-3.036-2.508-3.036a1.874,1.874,0,0,0-1.716.748c0,.176.176.308.44.352,1.276.352,2.024.748,2.024,2.508a8.051,8.051,0,0,1-.22,1.892,15.894,15.894,0,0,1-3.828.66,6.817,6.817,0,0,1-3.96-1.32,2.54,2.54,0,0,0-.924-.528c-.088,0-.088,0-.088.088,0,.616,1.1,3.608,5.016,3.608a10.961,10.961,0,0,0,2.6-.4c.176-.044.352-.132.572-.176-2.42,5.676-3.96,7.964-7.744,11.616a4.36,4.36,0,0,0-1.584,2.948,1.063,1.063,0,0,0,.968,1.144c1.056,0,2.376-2.024,3.872-4.8,1.848-2.6,3.476-3.608,4.708-3.608,1.672,0,3.124,1.8,3.124,6.468-3.7,2.156-7.084,5.236-7.084,8.316,0,2.288,2.6,5.984,8.4,5.984,1.716,0,6.732-.616,6.732-2.6,0-.572-.572-1.056-1.364-1.056a2.647,2.647,0,0,0-1.188.308,10.847,10.847,0,0,1-4.972,1.144c-3.916,0-6.072-2.024-6.072-4.092,0-1.892,1.584-4.268,5.544-6.6Zm1.8-3.476c1.628-5.1,5.588-9.944,9.24-9.944a2.85,2.85,0,0,1,2.992,2.332c0,1.276-1.584,2.42-3.432,3.344-2.64,1.32-6.336,3.124-8.8,4.4ZM19.228,550.484l-.088-4.752c3.212-2.6,6.644-4.84,10.6-4.84,5.192,0,5.456,2.9,5.456,3.7,0,2.6-2.684,5.676-6.82,5.676-2.156,0-3.3-1.232-3.3-3.432a8.659,8.659,0,0,1,.44-2.6,3.286,3.286,0,0,0,.132-.88c0-.22-.044-.4-.132-.4-.308,0-1.716,2.64-1.716,5.1,0,2.816,1.848,4.356,4.488,4.356,3.7,0,8.976-2.948,8.976-7.524,0-3.08-2.684-5.148-7.04-5.148-4.136,0-7.656,1.848-11.132,4.048-.044-2.816-.132-5.808-.132-8.624,3.036-1.628,4.224-2.288,4.224-3.784a1.168,1.168,0,0,0-.968-1.232,30.27,30.27,0,0,1-3.124-.748c.044-.484.044-.88.044-1.188-.088-1.54-2.2-2.6-3.52-2.6-1.012,0-1.628.66-1.628,1.056,0,.22.176.352.572.352,2.288,0,2.6,1.672,2.9,7.04a9.826,9.826,0,0,1-4.884,1.408A12.889,12.889,0,0,1,8.976,535a1.335,1.335,0,0,0-.484-.132.2.2,0,0,0-.176.22c0,.7.7,2.376,3.652,2.376a12.573,12.573,0,0,0,5.588-1.584c.088,1.98.176,4.092.176,6.292,0,.836,0,1.672-.044,2.508-2.684,1.716-7.48,4.8-8.624,4.8-.264,0-.352-.176-.484-.264a.229.229,0,0,0-.176-.088,2.825,2.825,0,0,0-1.5,2.068c0,.616.44,1.012,1.408,1.012a9.523,9.523,0,0,0,4.136-1.408c1.54.4,3.212,1.188,3.784,2.2a1.5,1.5,0,0,0,1.276.836c1.012,0,1.716-1.276,1.716-3.168Zm20.724-16.192a1.293,1.293,0,0,0,.968-1.144c0-1.32-2.156-3.256-5.1-3.256a7.353,7.353,0,0,0-5.852,2.948c0,.088.088.132.176.132a2.547,2.547,0,0,0,1.012-.44,6.023,6.023,0,0,1,3.212-1.012c.528,0,2.288.132,2.288,1.32,0,.968-1.1,2.156-1.54,2.6-.264.264-.484.528-.484.66,0,.044.044.088.132.088a1.875,1.875,0,0,0,.748-.352,9.877,9.877,0,0,1,1.716-.924C38.808,534.2,38.94,534.644,39.952,534.292ZM17.6,546.788c-.044.924-.088,1.8-.176,2.728-.044.66-.044,1.056-1.276,1.056a19.129,19.129,0,0,1-2.86-.308A55.373,55.373,0,0,0,17.6,546.788Zm1.408-15.18a15.529,15.529,0,0,1,.088-1.584c.748.352,1.98,1.012,1.98,1.54,0,.264-.088.528-2.068,1.716ZM77,540.716c.176,0,.4.044.572.044,2.112,0,3.168-1.056,3.168-1.892,0-.484-.308-1.144-1.8-1.144a8.56,8.56,0,0,0-3.256.792c-2.508-.484-3.608-2.112-3.608-4.8a37.85,37.85,0,0,1,1.276-7.48,13.679,13.679,0,0,0,.44-2.508,4.627,4.627,0,0,0-4-4.092c-.968,0-1.672.66-1.672,1.056a.468.468,0,0,0,.4.44c2.112.44,2.684,1.188,2.684,2.86a24.742,24.742,0,0,1-.22,2.728,52.408,52.408,0,0,0-.7,6.6c0,2.6.616,5.06,2.948,6.116-4.752,2.112-7.964,5.808-7.964,9.416,0,2.376,2.068,7.392,9.9,7.392,3.608,0,7.744-1.1,7.744-2.86a1.382,1.382,0,0,0-1.54-1.276,2.647,2.647,0,0,0-1.188.308,13.444,13.444,0,0,1-6.072,1.364c-5.632,0-7.128-3.168-7.128-5.324,0-4.092,5.9-7.744,9.636-7.744Zm52.8,0c.176,0,.4.044.572.044,2.112,0,3.168-1.056,3.168-1.892,0-.484-.308-1.144-1.8-1.144a8.56,8.56,0,0,0-3.256.792c-2.508-.484-3.608-2.112-3.608-4.8a37.85,37.85,0,0,1,1.276-7.48,13.679,13.679,0,0,0,.44-2.508,4.627,4.627,0,0,0-4-4.092c-.968,0-1.672.66-1.672,1.056a.468.468,0,0,0,.4.44c2.112.44,2.684,1.188,2.684,2.86a24.742,24.742,0,0,1-.22,2.728,52.408,52.408,0,0,0-.7,6.6c0,2.6.616,5.06,2.948,6.116-4.752,2.112-7.964,5.808-7.964,9.416,0,2.376,2.068,7.392,9.9,7.392,3.608,0,7.744-1.1,7.744-2.86a1.382,1.382,0,0,0-1.54-1.276,2.647,2.647,0,0,0-1.188.308,13.444,13.444,0,0,1-6.072,1.364c-5.632,0-7.128-3.168-7.128-5.324,0-4.092,5.9-7.744,9.636-7.744Zm6.952-5.1a1.152,1.152,0,0,0,1.1-1.232c0-2.156-3.872-3.036-5.852-3.036-.044,0-.968,0-.968.176,0,.088.4.264.66.4a14.254,14.254,0,0,1,3.96,3.08A1.432,1.432,0,0,0,136.752,535.612Zm4.62-2.2a1.119,1.119,0,0,0,1.056-1.232c0-1.408-1.98-2.816-5.588-2.816-.572,0-1.276.044-1.276.176,0,.088.4.22.66.352a13.879,13.879,0,0,1,4.048,2.948A1.508,1.508,0,0,0,141.372,533.412Zm45.848,6.468c0,7.084-4.708,14.388-9.812,16.9-1.276.616-1.716.924-1.716,1.056,0,.044.088.088.22.088a9.149,9.149,0,0,0,1.936-.44c6.82-2.64,11.264-8.316,11.264-16.72,0-.572,0-1.144-.044-1.76-.132-1.98-.308-3.916-.352-6.072,5.632-1.276,5.808-4,5.808-4.136a1.557,1.557,0,0,0-1.232-1.408,13.137,13.137,0,0,1-1.5-.176c-.616-.132-1.892-.484-2.772-.748v-.352a3.763,3.763,0,0,0-3.608-3.74c-.924,0-1.892.528-1.892,1.056,0,.264.4.484,1.408.484h.264c1.54,0,1.892,2.816,1.892,4.8v2.6a11.379,11.379,0,0,1-1.672.176h-.968a17.883,17.883,0,0,1-5.06-.572,9.788,9.788,0,0,0-1.232-.4c-.132,0-.176.044-.176.132,0,.044.7,2.684,6.292,2.684h1.056a12.3,12.3,0,0,0,1.76-.132l.132,6.2Zm-16.368,13.64a.763.763,0,0,0,.836-.836,2,2,0,0,0-.176-.792,9.387,9.387,0,0,1-.44-3.124c0-3.3,1.8-8.184,4.18-13.42a2.85,2.85,0,0,0,.22-.924q0-.264-.132-.264c-.352,0-3.344,5.368-5.5,11-.22.616-.44.836-.66.836-.264,0-1.232-1.32-1.232-4.268a35.429,35.429,0,0,1,2.068-10.12,10.27,10.27,0,0,0,.792-3.08c0-2.244-2.992-4.488-3.036-4.532a3.586,3.586,0,0,0-1.628-.308c-.528,0-1.1.132-1.1.484,0,.132.176.352.66.66,2.2,1.232,2.684,2.508,2.684,4.4a19.963,19.963,0,0,1-.22,2.6c-.4,2.64-1.452,6.424-1.452,10.824C166.716,548.592,168.784,553.52,170.852,553.52ZM188.98,526.9c2.42,1.232,2.772,1.452,2.772,1.892,0,.616-1.232,1.54-3.036,2.112.044-1.1.088-2.244.22-3.476C188.936,527.252,188.98,527.076,188.98,526.9Zm58.212,20.108a.117.117,0,0,0-.132-.132,1.047,1.047,0,0,0-.572.352c-4.4,4-9.2,6.028-13.112,6.028-8.008,0-8.1-7.392-8.1-9.5,0-5.676,1.584-13.068,2.024-15.84a8.888,8.888,0,0,0,.132-1.452,4.24,4.24,0,0,0-4.268-4.532c-.264,0-.44.088-.44.264,0,.132.176.4.572.792.968.88,1.32,2.728,1.32,5.148,0,4.884-1.012,9.856-1.012,14.74a29.006,29.006,0,0,0,.308,4.356c.924,5.676,4.576,8.448,9.108,8.448C240.68,555.676,247.192,547.756,247.192,547.008Zm33.264-16.764c.968-.352,5.1-1.848,5.1-3.784a1.1,1.1,0,0,0-.924-1.056,26.748,26.748,0,0,1-3.124-.792c-.176-2.552-1.892-3.256-2.816-3.256-.792,0-1.848.616-1.848,1.012,0,.264.484.44,1.144.528,1.012.132,1.364,1.408,1.364,3.036a16.466,16.466,0,0,1-.264,2.86,17.089,17.089,0,0,1-3.652.484,8.6,8.6,0,0,1-4.8-1.5,1.931,1.931,0,0,0-.836-.44c-.132,0-.176.044-.176.22,0,.616,1.188,3.74,5.808,3.74a13.376,13.376,0,0,0,3.256-.528c-1.408,5.148-6.644,18.524-7.612,20.02a4.359,4.359,0,0,0-.748,2.288c0,.308.044,1.716,1.232,1.716,1.144,0,1.936-1.672,2.2-2.9,1.628-6.952,4.092-13.816,6.424-20.768Zm15.84,21.648c-1.276.044-2.112.176-2.9.176-4.268-.088-7.348-2.024-7.348-4a2.164,2.164,0,0,1,.22-.88,1.521,1.521,0,0,0,.22-.748q0-.264-.132-.264a2.746,2.746,0,0,0-1.364,2.6c0,3.124,5.148,5.764,10.472,5.764,3.168,0,3.7-.968,3.7-1.408,0-.66-.924-1.232-2.684-1.232Zm3.476-18.7c.4-.132.88-.44.88-.88,0-.88-3.344-2.9-7.04-2.9-2.64,0-3.388,1.056-3.388,1.1,0,.132.22.22.528.22a3.451,3.451,0,0,0,.616-.088,4.3,4.3,0,0,1,.836-.044c1.98,0,3.652.572,3.652,1.5,0,.572-.616,1.188-.924,1.584-.748.968-1.1,1.232-2.2,2.552a.613.613,0,0,0-.176.4c0,.088.044.176.132.176s.22-.088.44-.264A14.915,14.915,0,0,1,299.772,533.192Zm-18.26-8.228c.572.264,1.892.924,1.892,1.364,0,.484-1.056,1.232-2.332,1.8A12.414,12.414,0,0,0,281.512,524.964ZM335.1,549.78a17.643,17.643,0,0,1-.176-1.848v-.484a50.776,50.776,0,0,1,.924-5.764,8.265,8.265,0,0,0,.176-1.232c0-.176,0-.264-.088-.264s-.264.308-.66,1.188c-.748,1.716-1.76,4.444-2.64,5.984a1.623,1.623,0,0,1-1.452.924c-.572,0-5.544-.968-5.544-9.24a25.9,25.9,0,0,1,.66-5.72,7.752,7.752,0,0,0,.176-1.5,3.522,3.522,0,0,0-2.552-3.7q-.264,0-.264.4c0,.088.044.176.044.308a11.909,11.909,0,0,1,.176,2.244c0,.4,0,.836-.044,1.276-.088,1.716-.22,3.432-.22,5.1,0,4.576.836,8.8,4.928,12.276a7.392,7.392,0,0,0,4.4,1.892c2.024,0,2.156-1.232,2.156-1.716Zm17.072-7.04c.7,0,1.452-.7,1.452-2.068,0-4.18-4.928-9.064-10.912-9.064-.528,0-.836.088-.836.22,0,.176.616.484,1.936.792a9.6,9.6,0,0,1,7.084,8.536C350.988,542.212,351.56,542.74,352.176,542.74Zm23.1,14.96a5.126,5.126,0,1,0-5.148-5.148A5.145,5.145,0,0,0,375.276,557.7Zm0-1.5a3.7,3.7,0,0,1-3.652-3.652,3.662,3.662,0,0,1,3.652-3.608,3.624,3.624,0,0,1,3.608,3.608A3.662,3.662,0,0,1,375.276,556.2Z" transform="translate(-1.848 34.76)"/>
</svg>
