<svg xmlns="http://www.w3.org/2000/svg" xmlns:xlink="http://www.w3.org/1999/xlink" width="161.403" height="90" viewBox="0 0 161.403 90">
  <defs>
    <clipPath id="clip-path">
      <path id="パス_96" data-name="パス 96" d="M0,0H161.4V90H0Z" transform="translate(312.34 1182.781)" fill="#fff" stroke="#707070" stroke-width="1"/>
    </clipPath>
  </defs>
  <g id="section-brand_stylej" transform="translate(-312.34 -1182.781)" clip-path="url(#clip-path)">
    <g id="レイヤー_2" data-name="レイヤー 2" transform="translate(312.34 1182.781)">
      <g id="design">
        <path id="パス_71" data-name="パス 71" d="M58.229,148.759A2.347,2.347,0,0,1,60,147.773a1.44,1.44,0,0,1,1.116.425,2.009,2.009,0,0,1,.41,1.44V152.3c0,.634.065.72.626.72v.259H60.237v-.259c.554,0,.634-.079.634-.648v-2.649c0-.533-.079-1.584-1.022-1.584a1.929,1.929,0,0,0-1.541,1.066v3.1c0,.648.05.72.634.72v.252H57.026v-.259c.59,0,.619-.079.619-.648v-2.621c0-.482,0-1.613-1.008-1.613-.518,0-1,.389-1.555,1.073v3.081c0,.648.058.72.662.72v.266H53.707v-.259c.677,0,.72-.079.72-.778v-3.031c0-.677-.05-.72-.72-.72v-.252a2.57,2.57,0,0,0,1.217-.49l.094.065.043.878h0a2.5,2.5,0,0,1,1.677-.943,1.339,1.339,0,0,1,1.44.986Z" transform="translate(-24.053 -66.167)" fill="#1e1e1e"/>
        <path id="パス_72" data-name="パス 72" d="M75.535,149.343c0-.8-.317-1.231-1.174-1.231a1.281,1.281,0,0,0-1.317.85.331.331,0,0,1-.353.259.274.274,0,0,1-.281-.3c0-.49.763-1.174,1.973-1.174s1.8.511,1.8,1.634v2.844c0,.526.115.8.36.8a.72.72,0,0,0,.338-.086l.072.245a1.382,1.382,0,0,1-.641.144.72.72,0,0,1-.72-.619h0a2.39,2.39,0,0,1-1.749.72c-.871,0-1.634-.454-1.634-1.382a1.44,1.44,0,0,1,.756-1.325,5.536,5.536,0,0,1,1.865-.72l.72-.173Zm0,.864c-1.965.49-2.657.986-2.657,1.757s.475,1.066,1.181,1.066a2.052,2.052,0,0,0,1.44-.72Z" transform="translate(-32.339 -66.168)" fill="#1e1e1e"/>
        <path id="パス_73" data-name="パス 73" d="M87.766,146.137v-1.98c0-.619-.05-.72-.72-.72v-.23a2.412,2.412,0,0,0,1.26-.482l.094.058v7.343c0,.6.108.634.684.648v.216a3.153,3.153,0,0,0-1.188.158l-.079-.058v-.641h0a2.282,2.282,0,0,1-1.656.72c-.641,0-2.268-.23-2.268-2.945a2.411,2.411,0,0,1,2.4-2.7,2.117,2.117,0,0,1,1.5.612Zm0,.583a1.814,1.814,0,0,0-1.44-.835,1.7,1.7,0,0,0-1.361.641,3.182,3.182,0,0,0-.432,1.785c0,1.483.677,2.5,1.706,2.5a2.052,2.052,0,0,0,1.512-.842Z" transform="translate(-37.572 -63.92)" fill="#1e1e1e"/>
        <path id="パス_74" data-name="パス 74" d="M101.085,152.167a2.239,2.239,0,0,1-2.016,1.274c-1.908,0-2.412-1.44-2.412-2.952,0-1.368.72-2.693,2.261-2.693,1.67,0,2.16,1.5,2.16,2.678H97.342c0,2.325,1.166,2.606,1.749,2.606a1.872,1.872,0,0,0,1.713-1.051Zm-.72-2.037c0-.655-.194-1.994-1.44-1.994-.461,0-1.44.281-1.577,1.994Z" transform="translate(-43.289 -66.191)" fill="#1e1e1e"/>
        <path id="パス_75" data-name="パス 75" d="M116.975,146.288v4.435c0,.72.036.77.778.77v.252H115.5v-.259c.778,0,.821-.086.821-.778v-3.06c0-.72,0-.72-.821-.72v-.223a3.291,3.291,0,0,0,1.389-.49Zm.058-1.361c0,.4-.209.619-.454.619s-.439-.216-.439-.619.187-.612.439-.612S117.033,144.546,117.033,144.927Z" transform="translate(-51.727 -64.632)" fill="#1e1e1e"/>
        <path id="パス_76" data-name="パス 76" d="M123.956,148.8a2.462,2.462,0,0,1,1.865-1.022c1.368,0,1.649.857,1.649,1.749v2.75c0,.67.05.756.619.756v.252h-1.922v-.259c.612,0,.655-.079.655-.778v-2.685c0-1.022-.367-1.44-1.152-1.44a2.52,2.52,0,0,0-1.713,1.166v2.945c0,.72,0,.77.634.77v.281h-2.023v-.259c.684,0,.72-.065.72-.778v-3.031c0-.677-.058-.72-.72-.72v-.252a2.4,2.4,0,0,0,1.209-.49l.108.065.043.958Z" transform="translate(-54.892 -66.174)" fill="#1e1e1e"/>
        <path id="パス_77" data-name="パス 77" d="M145.71,149.706c0,.828,0,2.671-1.872,2.671-.842,0-1.44-.389-1.44-.792a.266.266,0,0,1,.281-.274c.187,0,.317.065.5.338a.828.828,0,0,0,.72.346c1.022,0,1.145-1.044,1.145-2.088v-5.342c0-.8-.058-.85-.972-.85v-.288h2.5v.3c-.792,0-.85.065-.85.842Z" transform="translate(-63.774 -64.235)" fill="#1e1e1e"/>
        <path id="パス_78" data-name="パス 78" d="M156.833,149.378c0-.8-.324-1.231-1.174-1.231a1.267,1.267,0,0,0-1.3.878.346.346,0,0,1-.36.259.274.274,0,0,1-.3-.288c0-.49.763-1.174,1.973-1.174s1.8.511,1.8,1.634V152.3c0,.526.115.8.367.8a.72.72,0,0,0,.331-.086l.079.245a1.44,1.44,0,0,1-.648.144.72.72,0,0,1-.72-.619h0a2.383,2.383,0,0,1-1.742.72c-.871,0-1.641-.454-1.641-1.382a1.44,1.44,0,0,1,.72-1.325,5.536,5.536,0,0,1,1.865-.72l.72-.173Zm0,.864c-1.973.49-2.664.986-2.664,1.757s.475,1.066,1.188,1.066a2.066,2.066,0,0,0,1.44-.72Z" transform="translate(-68.742 -66.203)" fill="#1e1e1e"/>
        <path id="パス_79" data-name="パス 79" d="M166.337,152.8v2.268c0,.648.043.72.72.72v.259h-2.088v-.259c.67,0,.72-.086.72-.72v-5.832c0-.662,0-.72-.72-.72v-.266a2.441,2.441,0,0,0,1.2-.49l.086.065.043.677h0a2.376,2.376,0,0,1,1.728-.72c1.375,0,2.225,1.073,2.225,2.765,0,2.577-1.541,2.88-2.282,2.88a2.311,2.311,0,0,1-1.634-.626Zm0-.533a1.994,1.994,0,0,0,1.569.792,1.5,1.5,0,0,0,1.253-.662,3.42,3.42,0,0,0,.432-1.9c0-1.821-.943-2.354-1.663-2.354a2.268,2.268,0,0,0-1.591.835Z" transform="translate(-73.882 -66.174)" fill="#1e1e1e"/>
        <path id="パス_80" data-name="パス 80" d="M181.558,149.378c0-.8-.324-1.231-1.174-1.231a1.267,1.267,0,0,0-1.3.878.346.346,0,0,1-.36.259.274.274,0,0,1-.252-.288c0-.49.77-1.174,1.973-1.174s1.8.511,1.8,1.634V152.3c0,.526.115.8.367.8a.72.72,0,0,0,.331-.086l.079.245a1.44,1.44,0,0,1-.648.144.72.72,0,0,1-.72-.619h0a2.383,2.383,0,0,1-1.742.72c-.871,0-1.641-.454-1.641-1.382a1.44,1.44,0,0,1,.756-1.325,5.537,5.537,0,0,1,1.865-.72l.72-.173Zm0,.864c-1.973.49-2.664.986-2.664,1.757s.475,1.066,1.188,1.066a2.066,2.066,0,0,0,1.44-.72Z" transform="translate(-79.838 -66.203)" fill="#1e1e1e"/>
        <path id="パス_81" data-name="パス 81" d="M191.047,148.8a2.462,2.462,0,0,1,1.865-1.022c1.368,0,1.649.857,1.649,1.749v2.75c0,.67.05.756.619.756v.252h-1.922v-.259c.612,0,.655-.079.655-.778v-2.685c0-1.022-.367-1.44-1.152-1.44a2.52,2.52,0,0,0-1.713,1.166v2.945c0,.72,0,.77.634.77v.281h-2.016v-.259c.684,0,.72-.065.72-.778v-3.031c0-.677-.058-.72-.72-.72v-.252a2.4,2.4,0,0,0,1.209-.49l.108.065.043.958Z" transform="translate(-84.942 -66.174)" fill="#1e1e1e"/>
        <path id="パス_82" data-name="パス 82" d="M214.739,152.167a2.217,2.217,0,0,1-2.009,1.274c-1.908,0-2.412-1.44-2.412-2.952,0-1.368.72-2.693,2.261-2.693,1.67,0,2.16,1.5,2.16,2.678h-3.715c0,2.325,1.166,2.606,1.749,2.606a1.872,1.872,0,0,0,1.713-1.051Zm-.72-2.037c0-.655-.194-1.994-1.44-1.994-.468,0-1.44.281-1.577,1.994Z" transform="translate(-94.192 -66.191)" fill="#1e1e1e"/>
        <path id="パス_83" data-name="パス 83" d="M223.724,153.327l-1.843-4.276c-.288-.72-.353-.72-.785-.72v-.259h1.865v.259c-.41,0-.569.043-.569.216a1.152,1.152,0,0,0,.115.389l1.512,3.6h0l1.483-3.8a.6.6,0,0,0,.065-.223c0-.144-.144-.194-.526-.194v-.259h1.5v.259c-.389,0-.468.05-.648.518l-2.3,5.968c-.562,1.353-1.166,1.5-1.62,1.5-.634,0-1.022-.346-1.022-.655a.274.274,0,0,1,.259-.274c.216,0,.331.144.454.3s.223.288.439.288c.511,0,.886-.72,1.066-1.138Z" transform="translate(-98.951 -66.308)" fill="#1e1e1e"/>
        <path id="パス_84" data-name="パス 84" d="M238.425,152.167a2.225,2.225,0,0,1-2.016,1.274c-1.9,0-2.412-1.44-2.412-2.952,0-1.368.72-2.693,2.261-2.693,1.67,0,2.16,1.5,2.16,2.678H234.7c0,2.325,1.166,2.606,1.742,2.606a1.85,1.85,0,0,0,1.713-1.051Zm-.72-2.037c0-.655-.194-1.994-1.44-1.994-.461,0-1.44.281-1.569,1.994Z" transform="translate(-104.797 -66.191)" fill="#1e1e1e"/>
        <path id="パス_85" data-name="パス 85" d="M252.733,148.339c-.324,0-.432.065-.583.518l-1.562,4.737h-.346l-1.332-4.32h0l-1.382,4.32h-.353l-1.584-4.464c-.245-.72-.31-.72-.72-.72v-.259h1.807v.259c-.41,0-.569.05-.569.245a1.059,1.059,0,0,0,.086.367l1.238,3.6h0l1.231-3.808c-.137-.41-.137-.432-.72-.432v-.259h1.872v.259c-.4,0-.569,0-.569.223a1.483,1.483,0,0,0,.079.346l1.159,3.686h0l1.26-3.844a.662.662,0,0,0,0-.187c0-.158-.13-.223-.547-.223v-.259h1.44Z" transform="translate(-109.667 -66.337)" fill="#1e1e1e"/>
        <path id="パス_86" data-name="パス 86" d="M266.6,152.167a2.225,2.225,0,0,1-2.016,1.274c-1.908,0-2.412-1.44-2.412-2.952,0-1.368.72-2.693,2.261-2.693,1.67,0,2.16,1.5,2.16,2.678h-3.751c0,2.325,1.159,2.606,1.742,2.606a1.85,1.85,0,0,0,1.713-1.051Zm-.72-2.037c0-.655-.194-1.994-1.44-1.994-.461,0-1.44.281-1.569,1.994Z" transform="translate(-117.416 -66.191)" fill="#1e1e1e"/>
        <path id="パス_87" data-name="パス 87" d="M277.057,149.366c0-.8-.324-1.231-1.173-1.231a1.274,1.274,0,0,0-1.3.878.331.331,0,0,1-.353.259.274.274,0,0,1-.281-.3c0-.49.763-1.173,1.973-1.173s1.8.511,1.8,1.634v2.844c0,.526.115.8.36.8a.72.72,0,0,0,.338-.086l.072.245a1.39,1.39,0,0,1-.648.144.72.72,0,0,1-.72-.619h0a2.4,2.4,0,0,1-1.749.72c-.871,0-1.634-.454-1.634-1.382a1.44,1.44,0,0,1,.72-1.325,5.551,5.551,0,0,1,1.857-.72l.72-.173Zm0,.864c-1.973.49-2.657.986-2.657,1.757s.475,1.066,1.181,1.066a2.052,2.052,0,0,0,1.476-.72Z" transform="translate(-122.594 -66.191)" fill="#1e1e1e"/>
        <path id="パス_88" data-name="パス 88" d="M286.518,148.7h0c.526-.648.914-.922,1.44-.922a.835.835,0,0,1,.907.72c0,.238-.122.367-.3.367s-.281-.108-.367-.338-.194-.367-.41-.367c-.418,0-.842.432-1.281,1.037v3.067c0,.72.05.77.864.77v.252h-2.232v-.259c.655,0,.72-.079.72-.778v-3.038c0-.67-.065-.72-.72-.72v-.245a2.4,2.4,0,0,0,1.217-.49l.086.065Z" transform="translate(-127.7 -66.174)" fill="#1e1e1e"/>
        <path id="パス_89" data-name="パス 89" d="M0,62.409l1.49-4.024C3.859,59.932,5.76,60.717,7.2,60.717c2.621,0,3.931-1.109,3.931-3.312,0-1.577-1.267-2.923-3.794-4.053A30.857,30.857,0,0,1,3.4,51.314a9.093,9.093,0,0,1-1.771-1.569A6.271,6.271,0,0,1,.518,47.873a6.105,6.105,0,0,1-.367-2.16,5.457,5.457,0,0,1,2.16-4.6,8.934,8.934,0,0,1,5.608-1.627,18,18,0,0,1,6.58,1.656l-1.2,3.931a8.1,8.1,0,0,0-5.04-2.016,4.428,4.428,0,0,0-2.556.72,2.16,2.16,0,0,0-1.037,1.814q0,2.3,2.613,3.477l3.038,1.382a10.619,10.619,0,0,1,4.06,2.88,6.393,6.393,0,0,1,1.267,4.075,6.119,6.119,0,0,1-2.253,5.04,9.7,9.7,0,0,1-6.242,1.814A14.262,14.262,0,0,1,0,62.409" transform="translate(0 -17.679)" fill="#1e1e1e"/>
        <path id="パス_90" data-name="パス 90" d="M49.248,38.29H46.484V34.95h2.765V29.968l4.24-1.634v6.631h6.559V38.3H53.489V50.162a7.116,7.116,0,0,0,1.015,4.32,3.909,3.909,0,0,0,3.269,1.281,7.7,7.7,0,0,0,3.362-.871l.626,3.729a23.462,23.462,0,0,1-5.76.67,6.285,6.285,0,0,1-4.8-2.109,7.523,7.523,0,0,1-1.951-5.32Z" transform="translate(-20.818 -12.689)" fill="#1e1e1e"/>
        <path id="パス_91" data-name="パス 91" d="M100.841,68.272a7.358,7.358,0,0,1-3.47,3.78,11.678,11.678,0,0,1-5.9,1.512V69.791a8.121,8.121,0,0,0,4.55-1.238,3.6,3.6,0,0,0,1.9-3.024,11.4,11.4,0,0,0-.72-3.866q-.72-1.922-1.793-4.723L88.926,40.316h4.32L100.3,58.79l6.335-18.474h4.32Z" transform="translate(-39.826 -18.056)" fill="#1e1e1e"/>
        <path id="パス_92" data-name="パス 92" d="M147.8,49.5V22.57h4.24v26.22a4.053,4.053,0,0,0,1.1,3.017,3.859,3.859,0,0,0,2.88,1.116V56.71q-8.229,0-8.229-7.2" transform="translate(-66.191 -10.108)" fill="#1e1e1e"/>
        <path id="パス_93" data-name="パス 93" d="M202.881,52.286H185.653a8.622,8.622,0,0,0,2.3,6.443,7.2,7.2,0,0,0,5.227,1.973,8.913,8.913,0,0,0,6.062-2.16l1.793,3.067a7.991,7.991,0,0,1-3.017,1.692,16.242,16.242,0,0,1-5.666.936,10.569,10.569,0,0,1-7.653-3.053,12,12,0,0,1-3.506-9.071,12.765,12.765,0,0,1,3.6-9.474,10.432,10.432,0,0,1,7.61-3.2,10.891,10.891,0,0,1,8.013,2.88,9.856,9.856,0,0,1,2.808,7.343,9.819,9.819,0,0,1-.331,2.592m-10.3-9.215a6.7,6.7,0,0,0-6.825,6.163h13.225a6.055,6.055,0,0,0-1.6-4.32,6.278,6.278,0,0,0-4.8-1.879" transform="translate(-81.147 -17.664)" fill="#1e1e1e"/>
        <path id="パス_94" data-name="パス 94" d="M288.84,12.333l-4.291.007V.014L288.84,0Z" transform="translate(-127.437)" fill="#de0012"/>
        <path id="パス_95" data-name="パス 95" d="M277.285,58.344c0,12.239-4.9,15.738-12.541,15.738a17.624,17.624,0,0,1-5.947-1V69.186a24.477,24.477,0,0,0,5.853.986c5.515,0,8.366-2.981,8.366-12.441V22.3h4.269Z" transform="translate(-115.904 -9.986)" fill="#1e1e1e"/>
      </g>
    </g>
  </g>
</svg>
