<svg xmlns="http://www.w3.org/2000/svg" width="181.227" height="16.08" viewBox="0 0 181.227 16.08">
  <path id="to-brand-site" d="M4.54-11.6c-.44-.24-.74-.06-.62.44A2.617,2.617,0,0,0,5.9-9.26a10.045,10.045,0,0,0,2.08-.5,51.376,51.376,0,0,1,5.32-.96c.54-.04.62-.02.46.52-.98,3.3-4.1,6.78-8.7,8.9-.66.3-.36,1.02.3.82a15.153,15.153,0,0,0,9.68-8.48c.42-.92,1.04-.92,1.04-1.52,0-.56-1.26-1.64-2.14-1.64-.44,0-.56.26-1.48.38-1.7.24-5.44.72-6.4.72A3,3,0,0,1,4.54-11.6ZM16.8-15.82c-.38,0-.52.34-.2.58A10.139,10.139,0,0,1,18.08-14c.38.42.58.58.88.58a.641.641,0,0,0,.66-.7C19.62-15.14,18.08-15.8,16.8-15.82Zm-1.58,1.66a.3.3,0,0,0-.24.54c.4.38.86.8,1.2,1.2.46.54.6.88,1.06.88a.666.666,0,0,0,.68-.7C17.92-13.18,16.52-14.06,15.22-14.16Zm15.66.74c-.44-.22-.62.06-.46.42a2.3,2.3,0,0,0,2.26,1.42,14.241,14.241,0,0,0,3.92-.7c.54-.18.82-.38.82-.78,0-.36-.58-.62-1.26-.62-.7,0-2,.74-3.72.74A4.066,4.066,0,0,1,30.88-13.42ZM28.92-9.24c-.36-.26-.68-.08-.62.32a2.339,2.339,0,0,0,1.8,1.94A7.935,7.935,0,0,0,32-7.44a45.635,45.635,0,0,1,4.88-1.04c.58-.06.56.04.44.38a13.623,13.623,0,0,1-7.2,7.18c-.72.32-.4,1.02.28.82,4.24-1.3,6.64-3.98,8.5-7.22.24-.42.82-.76.82-1.16,0-.54-1.16-1.42-2.06-1.42-.34,0-.48.2-1,.3-1.12.22-5.34.98-6.42.98A1.992,1.992,0,0,1,28.92-9.24Zm23.9-2.14a14.279,14.279,0,0,1,2.2,2.2c.74.96,1.12,1.1,1.6.9.62-.26.56-1.32,0-2a5.676,5.676,0,0,0-3.42-1.84C52.58-12.22,52.36-11.76,52.82-11.38Zm-.04,7.4c-.28-.16-.54.02-.48.38a2.959,2.959,0,0,0,2.42,2.22,4.169,4.169,0,0,0,1.74-.7A26.345,26.345,0,0,0,65.22-9.6a.436.436,0,0,0-.7-.52A31.253,31.253,0,0,1,55.56-3.4a1.887,1.887,0,0,1-1.7.04C53.58-3.5,53.06-3.82,52.78-3.98ZM79.92-14.12c-.42,0-1.26.36-1.26.64,0,.26.24.32.82.6.36.18.48.26.54.92.1,1.12.08,2.18.08,4.08,0,3.94-.38,5.74-.38,6.5,0,1.04.4,1.64,1.02,1.64.5,0,.8-.36.8-1.3,0-.92-.16-4.14-.16-5.92,0-1.24.04-2.7.1-3.9s.38-1.72.38-2.18C81.86-13.64,80.64-14.12,79.92-14.12Zm2.8,6.52c2.38,1.24,2.8,2.34,3.44,2.34.58,0,.8-.4.8-.88,0-1.26-2.1-2.22-4-2.22C82.32-8.36,82.26-7.84,82.72-7.6Zm3.12-6.98c-.38,0-.52.34-.2.58a10.139,10.139,0,0,1,1.48,1.24c.38.42.58.58.88.58a.641.641,0,0,0,.66-.7C88.66-13.9,87.12-14.56,85.84-14.58Zm-1.58,1.66a.3.3,0,0,0-.24.54c.4.38.86.8,1.2,1.2.46.54.6.88,1.06.88a.666.666,0,0,0,.68-.7C86.96-11.94,85.56-12.82,84.26-12.92Zm28.18,2.26c-.6,0-1.16.2-3.14.5.02-.8,0-1.5,0-1.98a13.726,13.726,0,0,0,.04-1.44,1.91,1.91,0,0,0-1.84-1.02c-.36,0-1.12.16-1.12.48,0,.28.38.4.76.6.4.22.5.4.6,1.02a20.131,20.131,0,0,1,.16,2.56c-1.02.16-2.3.38-3.24.52a20.37,20.37,0,0,0-.1-2.7,1.945,1.945,0,0,0-1.74-.88c-.38,0-1.06.2-1.06.5,0,.24.26.28.74.56.52.28.6.42.68.78a11.34,11.34,0,0,1,.22,1.94c-1.28.18-2.7.36-3.3.36a4.073,4.073,0,0,1-1.72-.62c-.38-.22-.56-.08-.54.26a2.185,2.185,0,0,0,1.7,1.92c.7,0,1.76-.36,3.88-.76a21.057,21.057,0,0,1-.32,2.64c0,.8.38,1.32.86,1.3.44-.02.6-.5.66-1.08a27.523,27.523,0,0,0,.08-3.1c1-.18,2.2-.38,3.16-.5-.22,3.76-1.3,5.66-4.22,7.64-.76.52-.34,1.16.46.78,3.48-1.66,4.98-4.3,5.18-8.58.86-.08,1.68-.12,2.22-.12.84,0,1.84.24,2.28.24a.546.546,0,0,0,.58-.58C114.36-10.14,113.1-10.66,112.44-10.66Zm20.28-1.92c0-.68-1.32-1.66-2.36-1.66-.48,0-.62.22-.26.62.66.74.7,1.02.34,1.68-1.28,2.36-5.18,5.82-8.9,8.14-.64.4-.28,1.16.5.8a26.584,26.584,0,0,0,6.7-4.7,1.369,1.369,0,0,1,.22.6,20.661,20.661,0,0,1-.14,4.1,8.635,8.635,0,0,0-.26,1.34c0,.68.32,1.42.92,1.42a.909.909,0,0,0,.9-.92,40.788,40.788,0,0,0,.02-6.06,1.473,1.473,0,0,0-.5-1.16,2.926,2.926,0,0,0-.26-.18,33.213,33.213,0,0,0,2.46-2.82A2.321,2.321,0,0,0,132.72-12.58Zm17.7-1.6c-.42,0-1.26.36-1.26.64,0,.26.24.32.82.6.36.18.48.26.54.92.1,1.12.08,2.18.08,4.08,0,3.94-.38,5.74-.38,6.5,0,1.04.4,1.64,1.02,1.64.5,0,.8-.36.8-1.3,0-.92-.16-4.14-.16-5.92,0-1.24.04-2.7.1-3.9s.38-1.72.38-2.18C152.36-13.7,151.14-14.18,150.42-14.18Zm2.8,6.52c2.38,1.24,2.8,2.34,3.44,2.34.58,0,.8-.4.8-.88,0-1.26-2.1-2.22-4-2.22C152.82-8.42,152.76-7.9,153.22-7.66Zm14.46.18a2.4,2.4,0,0,0,1.8,1.5,1.847,1.847,0,0,0,1.4-.74c.52-.52,1.76-2.04,2.36-2.68.58-.62.88-.78,1.16-.78.32,0,.6.26.96.66a41.786,41.786,0,0,0,3.44,3.66,8.064,8.064,0,0,0,4.88,1.94c.84,0,1.44-.26,1.44-.76a1.116,1.116,0,0,0-.86-.96c-1.18-.34-2.74-.34-4.26-1.32a31.249,31.249,0,0,1-3.88-3.42,2.631,2.631,0,0,0-1.74-.88c-.6,0-1.12.38-1.9,1.08-1.14,1.02-2.52,2.38-3.24,2.38a4.251,4.251,0,0,1-1.12-.2C167.74-8.08,167.54-7.94,167.68-7.48Z" transform="translate(-3.893 15.82)"/>
</svg>
