<svg xmlns="http://www.w3.org/2000/svg" width="136.297" height="18.1" viewBox="0 0 136.297 18.1">
  <path id="to-company-site" d="M10.94-.46V-5.48h4.6c.66,0,1.08-.18,1.08-.48,0-.5-1.42-1.74-1.84-1.74-.32,0-.88.76-1.32,1.42H10.94V-9.64c.54-.14.92-.28.92-.66,0-.48-1.86-.56-2.2-.56-.18,0-.3.1-.28.28C9.56-9,9.56-3.32,9.52-.46H6.32V-6.32c.54-.14.92-.28.92-.66,0-.48-1.8-.56-2.14-.56-.18,0-.3.1-.28.28.14,1.22.14,4.64.12,6.8H1.58c-.26,0-.44.1-.44.4,0,.32.18.4.44.4H17.8c.78,0,1.12-.18,1.12-.48,0-.5-1.48-1.76-1.9-1.76-.32,0-.9.78-1.34,1.44ZM19.1-10.2a14.214,14.214,0,0,1-8.18-5.26c.44-.04.58-.14.58-.32,0-.34-1.04-.72-1.8-.86a.365.365,0,0,0-.46.22,21.574,21.574,0,0,1-8.18,8.9c-.48.3-.16.88.34.66a22.116,22.116,0,0,0,9.02-7.96A14.333,14.333,0,0,0,17.44-8.6c.5.16.66.04.94-.36a1.457,1.457,0,0,1,.82-.6C19.58-9.7,19.74-10.06,19.1-10.2Zm9.22-3.86c.3.64.48,1.16,1,1.16a.866.866,0,0,0,.9-.92c0-.88-.98-1.62-2.08-2.12-.56-.22-.82.2-.54.64A11.077,11.077,0,0,1,28.32-14.06Zm7.9,2.2a.284.284,0,0,0-.04.12,8.921,8.921,0,0,1-.9,2.48.447.447,0,0,0-.06.2H31.64a.837.837,0,0,0,.64-.78c.1-.8-.7-1.44-1.64-1.94a.975.975,0,0,0-.22-.08ZM41.54-3.6c.76,0,1.04-.16,1.04-.42,0-.46-1.36-1.58-1.74-1.58-.28,0-.76.64-1.14,1.2H34.66V-5.98h5.12c.72,0,1-.14,1-.4,0-.44-1.3-1.52-1.66-1.52-.26,0-.72.58-1.08,1.12H34.66v-1c.3-.04.44-.14.44-.36a.284.284,0,0,0-.04-.12H40.9c.74,0,1.04-.16,1.04-.44,0-.46-1.38-1.6-1.76-1.6-.28,0-.78.66-1.18,1.24H36.18a8.486,8.486,0,0,0,1.28-1.44c.62,0,.92-.1.92-.4-.02-.28-.72-.72-1.36-.96h4.84c.78,0,1.08-.16,1.08-.44-.02-.46-1.4-1.62-1.78-1.62-.28,0-.8.68-1.2,1.26H37.78a.676.676,0,0,0,.24-.12A8.54,8.54,0,0,0,40-14.9c.6.06.9-.02.92-.32.02-.36-1.04-.96-1.7-1.18-.22-.08-.34.06-.4.24a11.293,11.293,0,0,1-1.38,2.94c-.14.28-.1.48.06.56H36.28V-15.5c.54-.12.9-.26.9-.62,0-.48-1.74-.56-2.08-.56-.18,0-.28.1-.26.3.08.82.08,2.5.06,3.72H32.88v-2.86c.52-.12.86-.28.86-.6,0-.48-1.68-.56-2.02-.56a.252.252,0,0,0-.28.3c.08.82.08,2.5.06,3.72H25.54c-.26,0-.44.1-.44.4,0,.32.18.4.44.4H30.2c-.24.06-.32.34-.16.66.18.34.34.7.48,1.04.16.5.26.98.68,1.1H26.5c-.26,0-.44.1-.44.4,0,.32.18.4.44.4h6.78v1.48h-5.6c-.26,0-.44.1-.44.4,0,.32.18.4.44.4h5.6V-4.4H26.02c-.26,0-.44.1-.44.4,0,.32.18.4.44.4H32A17.353,17.353,0,0,1,25.76.58c-.54.28-.28.8.3.62a18.065,18.065,0,0,0,7.22-3.92C33.26-.9,33.22.26,33.22.82c0,.38.14.6.54.6.66,0,.96-.3.96-.72,0-.56-.04-1.94-.06-4.12A10.719,10.719,0,0,0,40.8.76c.52.14.66.02.94-.38a1.6,1.6,0,0,1,.82-.58c.4-.14.5-.54-.12-.62-2.58-.42-5.14-1.1-6.9-2.78Zm22.9-7.06c-.6,0-1.16.2-3.14.5.02-.8,0-1.5,0-1.98a13.728,13.728,0,0,0,.04-1.44A1.91,1.91,0,0,0,59.5-14.6c-.36,0-1.12.16-1.12.48,0,.28.38.4.76.6.4.22.5.4.6,1.02a20.131,20.131,0,0,1,.16,2.56c-1.02.16-2.3.38-3.24.52a20.371,20.371,0,0,0-.1-2.7A1.945,1.945,0,0,0,54.82-13c-.38,0-1.06.2-1.06.5,0,.24.26.28.74.56.52.28.6.42.68.78a11.34,11.34,0,0,1,.22,1.94c-1.28.18-2.7.36-3.3.36a4.073,4.073,0,0,1-1.72-.62c-.38-.22-.56-.08-.54.26a2.185,2.185,0,0,0,1.7,1.92c.7,0,1.76-.36,3.88-.76a21.057,21.057,0,0,1-.32,2.64c0,.8.38,1.32.86,1.3.44-.02.6-.5.66-1.08a27.522,27.522,0,0,0,.08-3.1c1-.18,2.2-.38,3.16-.5-.22,3.76-1.3,5.66-4.22,7.64-.76.52-.34,1.16.46.78,3.48-1.66,4.98-4.3,5.18-8.58.86-.08,1.68-.12,2.22-.12.84,0,1.84.24,2.28.24a.546.546,0,0,0,.58-.58C66.36-10.14,65.1-10.66,64.44-10.66Zm20.28-1.92c0-.68-1.32-1.66-2.36-1.66-.48,0-.62.22-.26.62.66.74.7,1.02.34,1.68-1.28,2.36-5.18,5.82-8.9,8.14-.64.4-.28,1.16.5.8a26.584,26.584,0,0,0,6.7-4.7,1.369,1.369,0,0,1,.22.6A20.66,20.66,0,0,1,80.82-3a8.635,8.635,0,0,0-.26,1.34c0,.68.32,1.42.92,1.42a.909.909,0,0,0,.9-.92,40.786,40.786,0,0,0,.02-6.06,1.473,1.473,0,0,0-.5-1.16,2.925,2.925,0,0,0-.26-.18,33.213,33.213,0,0,0,2.46-2.82A2.321,2.321,0,0,0,84.72-12.58Zm17.7-1.6c-.42,0-1.26.36-1.26.64,0,.26.24.32.82.6.36.18.48.26.54.92.1,1.12.08,2.18.08,4.08,0,3.94-.38,5.74-.38,6.5,0,1.04.4,1.64,1.02,1.64.5,0,.8-.36.8-1.3,0-.92-.16-4.14-.16-5.92,0-1.24.04-2.7.1-3.9s.38-1.72.38-2.18C104.36-13.7,103.14-14.18,102.42-14.18Zm2.8,6.52c2.38,1.24,2.8,2.34,3.44,2.34.58,0,.8-.4.8-.88,0-1.26-2.1-2.22-4-2.22C104.82-8.42,104.76-7.9,105.22-7.66Zm14.46.18a2.4,2.4,0,0,0,1.8,1.5,1.847,1.847,0,0,0,1.4-.74c.52-.52,1.76-2.04,2.36-2.68.58-.62.88-.78,1.16-.78.32,0,.6.26.96.66a41.786,41.786,0,0,0,3.44,3.66,8.064,8.064,0,0,0,4.88,1.94c.84,0,1.44-.26,1.44-.76a1.116,1.116,0,0,0-.86-.96c-1.18-.34-2.74-.34-4.26-1.32a31.249,31.249,0,0,1-3.88-3.42,2.631,2.631,0,0,0-1.74-.88c-.6,0-1.12.38-1.9,1.08-1.14,1.02-2.52,2.38-3.24,2.38a4.251,4.251,0,0,1-1.12-.2C119.74-8.08,119.54-7.94,119.68-7.48Z" transform="translate(-0.823 16.68)" fill="#fff"/>
</svg>
